<svg width="217" height="217" viewBox="0 0 217 217" fill="none" xmlns="http://www.w3.org/2000/svg">
<path d="M160.258 54.2257C160.258 54.2257 145.231 39.4684 123.561 43.4113C101.891 47.3538 91.377 64.7463 78.11 76.1479C71.1626 82.1189 61.5677 83.6744 53.566 88.0265C27.9804 101.943 28.2222 138.529 45.5561 153.915C60.5626 167.235 80.5565 170.318 107.525 163.983C134.494 157.649 153.701 154.122 172.225 130.594C190.748 107.067 178.617 74.0695 160.258 54.2257Z" fill="#6962D5"/>
<path opacity="0.7" d="M160.258 54.2257C160.258 54.2257 145.231 39.4684 123.561 43.4113C101.891 47.3538 91.377 64.7463 78.11 76.1479C71.1626 82.1189 61.5677 83.6744 53.566 88.0265C27.9804 101.943 28.2222 138.529 45.5561 153.915C60.5626 167.235 80.5565 170.318 107.525 163.983C134.494 157.649 153.701 154.122 172.225 130.594C190.748 107.067 178.617 74.0695 160.258 54.2257Z" fill="white"/>
<mask id="mask0_264_10" style="mask-type:luminance" maskUnits="userSpaceOnUse" x="35" y="108" width="25" height="49">
<path d="M59.8018 108.222H35.2135V156.169H59.8018V108.222Z" fill="white"/>
</mask>
<g mask="url(#mask0_264_10)">
<path d="M41.6584 157.592H55.7165C56.2781 157.592 56.7334 157.137 56.7334 156.575C56.7334 156.013 56.2781 155.558 55.7165 155.558H41.6584C40.9831 155.558 40.3338 155.271 39.8794 154.772C39.32 154.156 39.1191 153.31 39.343 152.509L44.3305 134.637C44.4816 134.096 44.1652 133.535 43.6244 133.384C43.0858 133.232 42.5225 133.55 42.3715 134.09L37.3839 151.962C36.9716 153.442 37.3418 155.003 38.3748 156.14C39.2141 157.062 40.4107 157.592 41.6584 157.592Z" fill="white" stroke="#263238" stroke-miterlimit="10" stroke-linecap="round" stroke-linejoin="round"/>
<path d="M48.3372 152.282L51.5204 151.901L46.5882 110.748L43.405 111.129L48.3372 152.282Z" fill="white" stroke="#263238" stroke-miterlimit="10" stroke-linecap="round" stroke-linejoin="round"/>
<path d="M43.4013 111.132C43.4013 111.132 37.7485 131.309 48.3355 152.284L43.4013 111.132Z" fill="#263238" stroke="#263238" stroke-miterlimit="10" stroke-linecap="round" stroke-linejoin="round"/>
</g>
<path d="M177.734 127.847C177.753 127.859 178.143 126.352 178.157 126.254C178.314 125.12 177.953 122.838 176.799 122.28C175.967 121.879 175.038 122.362 174.735 123.194C174.426 124.044 174.818 125.087 175.283 125.805C175.828 126.647 177.732 127.846 177.734 127.847Z" fill="#6962D5"/>
<path d="M154.981 127.352C155.9 127.754 158.15 127.703 158.151 127.703C158.175 127.703 157.668 126.231 157.625 126.141C157.131 125.109 155.571 123.404 154.301 123.575C153.386 123.699 152.877 124.615 153.084 125.476C153.294 126.356 154.197 127.01 154.981 127.352Z" fill="#6962D5"/>
<path d="M154.176 154.611C153.978 155.24 154.415 155.847 155.035 155.976C155.668 156.107 156.365 155.722 156.825 155.32C157.269 154.93 157.785 153.874 157.954 153.51C158.259 153.615 158.565 153.719 158.856 153.835C159.053 153.918 159.248 153.985 159.441 154.079C159.634 154.169 159.825 154.258 160.014 154.346C160.373 154.528 160.744 154.715 161.089 154.902C161.33 155.03 161.557 155.156 161.787 155.284C161.481 155.196 160.879 155.037 160.827 155.03C160.018 154.911 158.386 155.157 157.981 155.979C157.941 156.061 157.915 156.145 157.898 156.228H161.328C161.638 155.834 161.892 155.45 161.944 155.369C162.323 155.58 162.69 155.79 163.032 155.992C163.169 156.073 163.293 156.149 163.424 156.228H164.522C164.145 156.004 163.744 155.77 163.302 155.522C162.919 155.306 162.504 155.082 162.076 154.857C162.113 154.748 162.321 154.127 162.442 153.522C163.132 153.495 164.364 152.968 164.522 152.899C164.722 153.284 164.912 153.661 165.086 154.019C165.492 154.852 165.831 155.6 166.104 156.227H166.758C166.451 155.552 166.057 154.721 165.571 153.776C165.37 153.384 165.147 152.969 164.914 152.545C164.99 152.486 165.359 152.196 165.731 151.849C165.887 151.832 165.999 151.818 166.047 151.812C166.166 152.407 166.277 152.987 166.372 153.536C166.546 154.526 166.685 155.428 166.797 156.228H167.626C167.492 155.394 167.327 154.444 167.118 153.397C166.999 152.792 166.86 152.147 166.712 151.487C166.861 151.428 167.711 151.084 168.464 150.663C169.12 151.374 170.801 152.205 171.019 152.311C170.79 152.873 170.562 153.418 170.338 153.929C169.971 154.774 169.618 155.543 169.294 156.227H170.186C170.455 155.618 170.742 154.949 171.038 154.224C171.273 153.654 171.512 153.04 171.752 152.407C171.993 152.457 173.966 152.858 174.885 152.65C175.719 152.462 176.728 151.99 177.101 151.166C177.467 150.359 177.14 149.364 176.265 149.07C175.05 148.662 173.195 150.042 172.516 150.963C172.476 151.017 172.107 151.655 171.881 152.061C171.978 151.802 172.074 151.552 172.171 151.284C172.365 150.755 172.543 150.222 172.736 149.649C172.82 149.369 172.904 149.086 172.989 148.801C173.08 148.52 173.14 148.212 173.218 147.914C173.383 147.22 173.516 146.509 173.635 145.79C174.098 145.959 175.752 146.534 176.608 146.473C177.461 146.413 178.531 146.1 179.024 145.342C179.508 144.599 179.335 143.566 178.515 143.143C177.375 142.556 175.334 143.639 174.522 144.446C174.471 144.497 173.955 145.141 173.678 145.501C173.746 145.068 173.816 144.636 173.87 144.196C174.028 142.925 174.148 141.634 174.274 140.347C174.312 139.952 174.355 139.56 174.396 139.167C174.56 139.229 176.511 139.955 177.47 139.887C178.323 139.827 179.393 139.514 179.886 138.756C180.37 138.013 180.198 136.98 179.377 136.557C178.238 135.969 176.196 137.053 175.385 137.859C175.324 137.92 174.581 138.849 174.404 139.095C174.496 138.229 174.595 137.367 174.727 136.521C174.908 135.354 175.15 134.219 175.466 133.137C175.542 133.166 177.575 133.933 178.557 133.864C179.41 133.804 180.479 133.49 180.973 132.732C181.457 131.99 181.284 130.957 180.464 130.533C179.324 129.946 177.282 131.029 176.472 131.836C176.418 131.889 175.852 132.595 175.591 132.938C175.555 132.92 175.562 132.923 175.526 132.904C175.878 131.749 176.365 130.674 176.87 129.691C177.161 129.12 177.472 128.591 177.785 128.084C178.149 128.265 179.821 129.077 180.713 129.113C181.567 129.147 182.664 128.953 183.238 128.254C183.8 127.569 183.742 126.523 182.973 126.012C181.905 125.303 179.757 126.156 178.862 126.869C178.814 126.908 178.363 127.357 178.038 127.689C178.183 127.462 178.329 127.225 178.472 127.01C179.009 126.203 179.549 125.496 180.033 124.874C180.311 124.523 180.57 124.211 180.814 123.922C181.264 123.914 183.078 123.859 183.871 123.487C184.644 123.123 185.529 122.445 185.716 121.56C185.899 120.694 185.366 119.792 184.448 119.693C183.174 119.556 181.659 121.302 181.194 122.348C181.154 122.438 180.687 123.924 180.71 123.923C180.71 123.923 180.732 123.923 180.738 123.923C180.496 124.197 180.241 124.493 179.969 124.822C179.47 125.435 178.913 126.131 178.357 126.93C177.799 127.727 177.216 128.608 176.686 129.592C176.153 130.578 175.642 131.641 175.258 132.806C175.254 132.819 175.251 132.833 175.247 132.847C175.254 132.471 175.237 131.421 175.227 131.341C175.079 130.206 174.128 128.099 172.868 127.866C171.96 127.699 171.191 128.409 171.118 129.293C171.045 130.194 171.698 131.097 172.336 131.666C173.054 132.308 175.05 132.93 175.209 132.979C174.854 134.091 174.579 135.261 174.366 136.461C174.244 137.146 174.142 137.841 174.049 138.538C174.044 138.213 174.037 137.923 174.032 137.882C173.885 136.747 172.934 134.641 171.673 134.408C170.766 134.24 169.996 134.952 169.924 135.835C169.85 136.737 170.504 137.639 171.141 138.208C171.788 138.786 173.479 139.351 173.928 139.494C173.895 139.762 173.859 140.029 173.827 140.297C173.674 141.583 173.526 142.867 173.342 144.122C173.278 144.565 173.198 144.998 173.12 145.432C173.115 145.144 173.109 144.901 173.104 144.864C172.957 143.729 172.006 141.622 170.746 141.39C169.838 141.222 169.069 141.933 168.997 142.816C168.923 143.717 169.577 144.62 170.214 145.19C170.831 145.741 172.387 146.276 172.92 146.449C172.827 146.891 172.734 147.334 172.623 147.757C172.541 148.045 172.482 148.328 172.384 148.612C172.292 148.896 172.202 149.176 172.112 149.455C171.919 149.984 171.724 150.531 171.523 151.043C171.386 151.399 171.249 151.737 171.112 152.077C171.181 151.638 171.299 150.774 171.301 150.701C171.318 149.941 171.048 148.705 170.511 147.836C170.514 147.724 170.508 147.612 170.49 147.501C170.349 146.626 169.528 145.976 168.635 146.214C167.663 146.473 166.972 147.867 166.691 149.008C166.531 148.711 166.256 148.502 165.947 148.431C165.883 148.221 165.82 148.01 165.755 147.797C165.676 147.512 165.555 147.221 165.456 146.93C165.211 146.261 164.93 145.594 164.633 144.928C165.112 144.813 166.808 144.381 167.49 143.858C168.168 143.338 168.887 142.487 168.881 141.582C168.874 140.696 168.161 139.93 167.243 140.029C165.969 140.167 164.863 142.197 164.632 143.318C164.617 143.388 164.542 144.211 164.509 144.663C164.327 144.264 164.147 143.866 163.95 143.468C163.381 142.321 162.768 141.178 162.163 140.035C161.977 139.685 161.796 139.335 161.614 138.984C161.785 138.945 163.812 138.474 164.575 137.889C165.254 137.368 165.973 136.517 165.966 135.613C165.96 134.727 165.246 133.96 164.328 134.06C163.054 134.198 161.949 136.228 161.717 137.349C161.7 137.433 161.593 138.617 161.581 138.92C161.18 138.147 160.787 137.374 160.431 136.595C159.938 135.522 159.513 134.442 159.18 133.364C159.26 133.347 161.378 132.865 162.159 132.266C162.838 131.745 163.557 130.894 163.55 129.989C163.544 129.103 162.83 128.337 161.912 128.436C160.638 128.575 159.533 130.605 159.301 131.725C159.286 131.799 159.204 132.702 159.175 133.131C159.135 133.136 159.142 133.135 159.102 133.139C158.758 131.981 158.571 130.816 158.45 129.717C158.379 129.08 158.346 128.468 158.328 127.871C158.731 127.822 160.574 127.577 161.337 127.115C162.068 126.672 162.877 125.905 162.97 125.005C163.061 124.124 162.435 123.283 161.512 123.282C160.23 123.279 158.908 125.175 158.555 126.264C158.536 126.323 158.408 126.946 158.32 127.402C158.316 127.132 158.307 126.854 158.308 126.596C158.31 125.627 158.371 124.74 158.432 123.954C158.47 123.508 158.513 123.105 158.558 122.728C158.929 122.473 160.411 121.427 160.867 120.679C161.312 119.949 161.676 118.896 161.343 118.054C161.018 117.23 160.076 116.773 159.256 117.197C158.117 117.785 157.818 120.077 158.006 121.206C158.022 121.304 158.452 122.8 158.472 122.787C158.472 122.787 158.49 122.774 158.494 122.771C158.444 123.133 158.395 123.521 158.349 123.946C158.272 124.731 158.19 125.62 158.168 126.593C158.143 127.565 158.142 128.622 158.243 129.735C158.342 130.851 158.503 132.02 158.825 133.203C158.828 133.216 158.834 133.23 158.837 133.243C158.636 132.926 158.042 132.059 157.989 131.998C157.278 131.176 155.48 130.027 154.29 130.342C153.898 130.115 153.393 130.127 153.033 130.467C152.367 131.096 152.613 132.729 152.965 133.467C152.995 133.531 153.586 134.473 153.596 134.461C153.596 134.461 153.606 134.449 153.609 134.446C153.646 134.704 153.688 134.98 153.741 135.281C153.843 135.836 153.962 136.462 154.138 137.135C154.313 137.807 154.521 138.533 154.81 139.278C155.098 140.025 155.439 140.795 155.893 141.544C155.898 141.553 155.905 141.561 155.91 141.57C155.709 141.392 155.131 140.913 155.082 140.882C154.397 140.436 152.811 139.975 152.1 140.551C151.588 140.967 151.617 141.715 152.064 142.164C152.519 142.622 153.313 142.686 153.918 142.603C154.6 142.511 155.864 141.715 155.965 141.651C156.404 142.36 156.912 143.053 157.465 143.724C157.781 144.109 158.111 144.487 158.446 144.861C158.268 144.713 158.107 144.582 158.082 144.566C157.397 144.119 155.812 143.659 155.1 144.236C154.588 144.651 154.618 145.399 155.064 145.848C155.52 146.307 156.313 146.37 156.918 146.288C157.532 146.204 158.624 145.548 158.91 145.37C159.04 145.512 159.169 145.655 159.3 145.797C159.927 146.477 160.557 147.153 161.153 147.836C161.274 147.975 161.389 148.116 161.504 148.257C161.478 148.27 161.456 148.286 161.431 148.301C160.74 147.857 159.17 147.405 158.463 147.978C157.95 148.394 157.98 149.142 158.426 149.591C158.882 150.049 159.676 150.113 160.281 150.03C160.415 150.012 160.573 149.965 160.738 149.903C160.754 149.994 160.775 150.084 160.807 150.173C160.891 150.402 161.025 150.607 161.189 150.792C160.755 150.74 160.312 150.932 160.105 151.363C159.71 152.189 160.527 153.624 161.12 154.186C161.155 154.22 161.576 154.537 161.844 154.733C161.668 154.642 161.499 154.551 161.318 154.46C160.96 154.276 160.597 154.104 160.208 153.916C160.017 153.833 159.824 153.748 159.629 153.663C159.437 153.574 159.223 153.504 159.019 153.423C158.542 153.246 158.049 153.089 157.549 152.942C157.71 152.628 158.262 151.506 158.294 150.893C158.326 150.283 158.197 149.497 157.702 149.081C157.218 148.673 156.47 148.705 156.099 149.251C155.582 150.007 156.172 151.549 156.674 152.195C156.705 152.236 157.118 152.658 157.348 152.886C157.047 152.8 156.747 152.713 156.44 152.636C155.552 152.413 154.647 152.215 153.745 152.014C153.468 151.952 153.194 151.888 152.919 151.824C152.977 151.713 153.662 150.393 153.698 149.707C153.73 149.097 153.601 148.311 153.107 147.895C152.622 147.488 151.874 147.52 151.503 148.065C150.987 148.821 151.577 150.364 152.078 151.01C152.116 151.058 152.71 151.666 152.869 151.813C152.263 151.672 151.66 151.527 151.072 151.359C150.26 151.129 149.477 150.859 148.737 150.54C148.764 150.488 149.485 149.114 149.522 148.411C149.554 147.801 149.425 147.015 148.93 146.599C148.446 146.192 147.698 146.224 147.326 146.769C146.81 147.525 147.4 149.068 147.902 149.714C147.935 149.756 148.387 150.22 148.607 150.435C148.591 150.459 148.594 150.454 148.578 150.478C147.789 150.127 147.069 149.688 146.416 149.244C146.037 148.988 145.689 148.721 145.356 148.455C145.517 148.212 146.238 147.097 146.341 146.469C146.44 145.866 146.398 145.071 145.952 144.603C145.516 144.145 144.769 144.095 144.34 144.595C143.744 145.291 144.16 146.889 144.588 147.585C144.611 147.623 144.891 147.982 145.097 148.241C144.949 148.118 144.794 147.995 144.654 147.874C144.128 147.423 143.675 146.978 143.276 146.581C143.052 146.353 142.853 146.143 142.669 145.944C142.702 145.624 142.822 144.333 142.627 143.738C142.437 143.158 142.033 142.471 141.422 142.261C140.823 142.056 140.137 142.356 139.987 142.998C139.779 143.889 140.885 145.115 141.586 145.537C141.646 145.573 142.658 146.034 142.661 146.017C142.661 146.017 142.662 146.002 142.663 145.998C142.836 146.193 143.024 146.4 143.233 146.622C143.624 147.029 144.069 147.485 144.588 147.949C145.104 148.413 145.678 148.904 146.33 149.366C146.982 149.83 147.692 150.285 148.484 150.659C148.493 150.663 148.503 150.666 148.512 150.671C148.246 150.633 147.5 150.553 147.442 150.554C146.624 150.559 145.048 151.05 144.772 151.923C144.574 152.552 145.012 153.16 145.631 153.288C146.264 153.419 146.961 153.034 147.421 152.632C147.939 152.178 148.554 150.817 148.602 150.709C149.36 151.058 150.166 151.355 150.998 151.61C151.473 151.757 151.957 151.89 152.443 152.017C152.212 151.992 152.006 151.971 151.977 151.971C151.159 151.976 149.582 152.467 149.307 153.341C149.109 153.97 149.546 154.577 150.166 154.706C150.799 154.837 151.496 154.452 151.956 154.05C152.422 153.641 152.969 152.492 153.11 152.186C153.297 152.233 153.484 152.281 153.671 152.328C154.57 152.549 155.467 152.766 156.342 153.006C156.65 153.09 156.95 153.184 157.251 153.278C157.046 153.255 156.873 153.239 156.846 153.239C156.028 153.247 154.451 153.738 154.176 154.611ZM163.779 152C163.756 151.98 163.728 151.959 163.703 151.938C163.805 151.944 163.911 151.947 164.018 151.948C164.034 151.977 164.052 152.008 164.068 152.038C164.198 152.278 164.318 152.509 164.439 152.741C164.233 152.5 163.818 152.035 163.779 152ZM164.578 151.939C164.601 151.938 164.625 151.937 164.649 151.936C164.696 152.067 164.746 152.203 164.788 152.316C164.717 152.19 164.648 152.065 164.578 151.939ZM164.466 146.045C164.609 146.408 164.751 146.772 164.874 147.13C164.964 147.415 165.071 147.684 165.145 147.975C165.195 148.153 165.243 148.327 165.292 148.502C165.26 148.517 165.227 148.527 165.196 148.546C164.922 148.71 164.734 149.021 164.608 149.386C164.05 148.851 163.334 148.357 162.653 148.178C163.097 147.902 163.691 147.496 163.944 147.154C164.171 146.848 164.383 146.451 164.466 146.045ZM154.234 137.112C154.044 136.446 153.912 135.825 153.798 135.274C153.737 134.959 153.687 134.674 153.643 134.407C153.762 134.262 154.087 133.857 154.371 133.425C154.81 133.66 155.309 133.803 155.757 133.868C156.71 134.007 158.718 133.425 158.878 133.378C159.195 134.501 159.611 135.629 160.096 136.747C160.372 137.386 160.67 138.022 160.977 138.655C160.794 138.387 160.628 138.148 160.601 138.117C159.852 137.252 157.897 136.02 156.717 136.52C156.705 136.526 156.696 136.534 156.684 136.539C156.984 136.119 157.21 135.595 157.122 135.1C157.01 134.476 156.415 134.023 155.781 134.204C154.9 134.455 154.366 136.017 154.339 136.835C154.337 136.879 154.372 137.332 154.402 137.662C154.346 137.479 154.284 137.289 154.234 137.112ZM155.928 140.438C155.932 140.492 156.053 141.127 156.118 141.428C156.092 141.439 156.096 141.437 156.069 141.448C155.605 140.72 155.247 139.957 154.947 139.226C154.773 138.803 154.629 138.389 154.499 137.983C154.703 137.897 155.457 137.567 155.997 137.207C155.78 137.654 155.787 138.207 156.044 138.675C156.079 138.739 156.124 138.796 156.167 138.855C155.974 139.409 155.897 140.025 155.928 140.438ZM157.664 143.56C157.114 142.92 156.61 142.261 156.168 141.588C156.219 141.56 157.579 140.811 157.997 140.245C158.064 140.155 158.128 140.055 158.19 139.951C158.25 139.962 158.311 139.975 158.37 139.984C159.228 140.109 160.95 139.647 161.404 139.519C161.524 139.76 161.641 140.003 161.763 140.244C162.344 141.402 162.929 142.554 163.468 143.703C163.611 144.006 163.74 144.31 163.871 144.614C163.836 144.596 163.8 144.582 163.764 144.569C163.722 144.509 163.689 144.464 163.679 144.452C163.184 143.88 162.161 143.15 161.184 142.865C161.315 142.514 161.373 142.138 161.272 141.794C161.093 141.187 160.452 140.801 159.841 141.051C158.993 141.397 158.634 143.009 158.696 143.824C158.701 143.885 158.861 144.72 158.913 144.93C158.485 144.477 158.062 144.024 157.664 143.56ZM161.437 147.585C160.82 146.91 160.174 146.246 159.532 145.58C159.336 145.376 159.143 145.171 158.948 144.966C158.964 144.957 159.012 144.93 159.074 144.895C159.091 144.933 159.103 144.973 159.123 145.009C159.559 145.802 160.602 146.194 161.448 146.318C161.596 146.339 161.775 146.339 161.963 146.331C161.885 146.707 161.855 147.073 161.875 147.347C161.879 147.389 161.955 147.794 162.019 148.113C161.983 148.116 161.948 148.124 161.912 148.13C161.756 147.948 161.601 147.765 161.437 147.585Z" fill="#6962D5"/>
<path d="M166.561 150.834C166.574 150.805 166.589 150.778 166.602 150.748C166.611 150.882 166.62 151.014 166.629 151.129C166.607 151.03 166.583 150.931 166.561 150.834Z" fill="#6962D5"/>
<path d="M152.099 138.285C152.81 138.38 154.344 137.901 154.346 137.901C154.362 137.896 153.723 136.985 153.676 136.932C153.134 136.32 151.726 135.458 150.888 135.826C150.284 136.091 150.115 136.82 150.427 137.371C150.744 137.934 151.493 138.205 152.099 138.285Z" fill="#6962D5"/>
<path d="M144.089 148.035C143.299 147.824 141.649 147.881 141.152 148.651C140.795 149.205 141.057 149.907 141.62 150.194C142.196 150.488 142.97 150.3 143.519 150.034C144.164 149.72 145.181 148.475 145.181 148.474C145.192 148.461 144.157 148.053 144.089 148.035Z" fill="#6962D5"/>
<path d="M33.421 156.307H178.474" stroke="#263238" stroke-miterlimit="10" stroke-linecap="round" stroke-linejoin="round"/>
<path d="M92.6725 158.776L75.8363 168.975L108.214 170.755L118.413 159.099L92.6725 158.776Z" fill="white" stroke="#263238" stroke-miterlimit="10" stroke-linecap="round" stroke-linejoin="round"/>
<path d="M110.219 160.971C110.219 160.971 103.622 162.36 106.863 163.286C110.103 164.212 114.501 162.013 112.649 162.013C110.798 162.013 108.599 161.781 107.788 162.36" stroke="#263238" stroke-miterlimit="10" stroke-linecap="round" stroke-linejoin="round"/>
<path d="M106.052 163.98C106.052 163.98 104.316 165.948 99.6868 167.221" stroke="#263238" stroke-miterlimit="10" stroke-linecap="round" stroke-linejoin="round"/>
<path d="M101.076 166.064L98.8765 167.453H102.812" stroke="#263238" stroke-miterlimit="10" stroke-linecap="round" stroke-linejoin="round"/>
<path d="M95.0573 165.717C95.0573 165.717 87.0712 166.064 90.3119 168.032C93.5526 169.999 97.6035 168.147 97.1405 167.221C96.6774 166.296 90.8904 165.485 91.5848 167.105C92.2792 168.725 94.8255 167.684 94.8255 167.684" stroke="#263238" stroke-miterlimit="10" stroke-linecap="round" stroke-linejoin="round"/>
<path d="M89.2703 164.443L91.2376 163.633L86.8395 166.99" stroke="#263238" stroke-miterlimit="10" stroke-linecap="round" stroke-linejoin="round"/>
<path d="M91.2376 163.633L90.8904 164.791" stroke="#263238" stroke-miterlimit="10" stroke-linecap="round" stroke-linejoin="round"/>
<path d="M95.5199 161.897L101.191 162.129" stroke="#263238" stroke-miterlimit="10" stroke-linecap="round" stroke-linejoin="round"/>
<path d="M95.8676 160.74L102.117 161.087" stroke="#263238" stroke-miterlimit="10" stroke-linecap="round" stroke-linejoin="round"/>
<path d="M151.658 163.32L147.995 167.441L152.345 170.646L158.069 167.67L156.924 163.777L151.658 163.32Z" stroke="#263238" stroke-miterlimit="10" stroke-linecap="round" stroke-linejoin="round"/>
<path d="M151.658 163.32L155.092 167.67L152.345 170.646" stroke="#263238" stroke-miterlimit="10" stroke-linecap="round" stroke-linejoin="round"/>
<path d="M155.092 167.67L156.695 166.067L155.55 164.235L153.261 164.922" stroke="#263238" stroke-miterlimit="10" stroke-linecap="round" stroke-linejoin="round"/>
<path d="M147.995 167.441L148.12 161.522H153.093L156.458 163.863L151.631 167.96L147.995 167.441Z" fill="white" stroke="#263238" stroke-miterlimit="10" stroke-linecap="round" stroke-linejoin="round"/>
<path d="M165.012 170.648L161.714 174.359L165.63 177.245L170.784 174.565L169.753 171.06L165.012 170.648Z" stroke="#263238" stroke-miterlimit="10" stroke-linecap="round" stroke-linejoin="round"/>
<path d="M165.012 170.648L168.104 174.565L165.631 177.245" stroke="#263238" stroke-miterlimit="10" stroke-linecap="round" stroke-linejoin="round"/>
<path d="M168.104 174.565L169.547 173.122L168.517 171.473L166.455 172.091" stroke="#263238" stroke-miterlimit="10" stroke-linecap="round" stroke-linejoin="round"/>
<path d="M161.714 174.359L161.826 169.03H166.304L169.334 171.138L164.987 174.826L161.714 174.359Z" fill="white" stroke="#263238" stroke-miterlimit="10" stroke-linecap="round" stroke-linejoin="round"/>
<path d="M172.565 163.323L172.258 157.818L166.913 158.611L164.951 164.757L168.507 166.711L172.565 163.323Z" stroke="#263238" stroke-miterlimit="10" stroke-linecap="round" stroke-linejoin="round"/>
<path d="M172.565 163.323L167.063 162.659L166.913 158.611" stroke="#263238" stroke-miterlimit="10" stroke-linecap="round" stroke-linejoin="round"/>
<path d="M167.063 162.659L167.056 164.926L169.159 165.418L170.299 163.316" stroke="#263238" stroke-miterlimit="10" stroke-linecap="round" stroke-linejoin="round"/>
<path d="M172.258 157.818L176.342 162.103L172.814 165.61L168.777 166.322L169.314 160.013L172.258 157.818Z" fill="white" stroke="#263238" stroke-miterlimit="10" stroke-linecap="round" stroke-linejoin="round"/>
<path d="M137.674 156.307H83.3197V129.605C83.3197 125.451 86.6875 122.083 90.8422 122.083H130.151C134.306 122.083 137.674 125.451 137.674 129.605V156.307Z" fill="#263238"/>
<path d="M157.792 141.858C157.792 141.858 146.865 136.759 136.059 132.752C125.252 128.745 114.446 125.467 101.819 126.317C101.819 126.317 93.9267 128.381 82.9995 133.966C72.0718 139.551 65.8795 144.529 62.3584 148.415C58.8374 152.3 58.4733 156.307 58.4733 156.307H71.1717L83.3597 151.695L84.801 156.307H135.694L134.48 149.265L144.437 153.272L157.792 141.858Z" fill="#6962D5"/>
<mask id="mask1_264_10" style="mask-type:luminance" maskUnits="userSpaceOnUse" x="58" y="126" width="100" height="31">
<path d="M157.792 141.858C157.792 141.858 146.865 136.759 136.059 132.752C125.252 128.745 114.446 125.467 101.819 126.317C101.819 126.317 93.9267 128.381 82.9995 133.966C72.0718 139.551 65.8795 144.529 62.3584 148.415C58.8374 152.3 58.4733 156.307 58.4733 156.307H71.1717L83.3597 151.695L84.801 156.307H135.694L134.48 149.265L144.437 153.272L157.792 141.858Z" fill="white"/>
</mask>
<g mask="url(#mask1_264_10)">
<path opacity="0.2" d="M149.445 148.991L147.93 142.779C147.93 142.779 135.912 139.203 131.048 137.343C126.184 135.483 122.464 132.621 122.464 134.195C122.464 135.769 124.324 139.489 122.893 138.488C121.463 137.486 119.03 130.619 118.315 131.906C117.6 133.194 102.434 130.762 97.8562 132.05C93.2779 133.337 88.5569 135.913 84.2646 138.917C79.9724 141.921 75.5373 139.775 75.8238 141.063C76.1102 142.351 78.1127 144.64 78.1127 144.64C78.1127 144.64 72.8192 142.207 72.8192 144.354C72.8192 146.5 68.8134 150.076 68.8134 150.076L70.7642 156.307H71.1721L83.3602 151.696L84.8015 156.307H135.694L134.48 149.265L144.437 153.272L149.445 148.991Z" fill="black"/>
</g>
<path d="M157.792 141.858C157.792 141.858 146.865 136.759 136.059 132.752C125.252 128.745 114.446 125.467 101.819 126.317C101.819 126.317 93.9267 128.381 82.9995 133.966C72.0718 139.551 65.8795 144.529 62.3584 148.415C58.8374 152.3 58.4733 156.307 58.4733 156.307H71.1717L83.3597 151.695L84.801 156.307H135.694L134.48 149.265L144.437 153.272L157.792 141.858Z" stroke="#263238" stroke-miterlimit="10" stroke-linecap="round" stroke-linejoin="round"/>
<path d="M96.5985 131.902C96.5985 131.902 94.1407 134.415 94.3564 138.94" stroke="#263238" stroke-miterlimit="10" stroke-linecap="round" stroke-linejoin="round"/>
<path d="M96.2959 137.432C96.2959 137.432 96.2959 142.604 98.0197 146.698" stroke="#263238" stroke-miterlimit="10" stroke-linecap="round" stroke-linejoin="round"/>
<path d="M115.691 133.768C115.691 133.768 118.708 139.371 118.923 144.543" stroke="#263238" stroke-miterlimit="10" stroke-linecap="round" stroke-linejoin="round"/>
<path d="M116.983 140.88C116.983 140.88 118.707 144.974 116.552 149.931" stroke="#263238" stroke-miterlimit="10" stroke-linecap="round" stroke-linejoin="round"/>
<path d="M80.3308 145.637L83.3601 151.695L76.5889 144.567" stroke="#263238" stroke-miterlimit="10" stroke-linecap="round" stroke-linejoin="round"/>
<path d="M134.096 149.285L126.091 148.203" stroke="#263238" stroke-miterlimit="10" stroke-linecap="round" stroke-linejoin="round"/>
<path d="M134.481 149.265L126.74 146.905" stroke="#263238" stroke-miterlimit="10" stroke-linecap="round" stroke-linejoin="round"/>
<path d="M96.5984 131.902C96.5984 131.902 97.4482 139.066 98.541 142.951C99.6338 146.836 100.727 147.808 100.727 147.808L104.005 145.015L104.855 147.565L108.74 149.143L111.775 145.865L111.047 143.315L116.268 145.865C116.268 145.865 115.782 138.215 114.204 132.63C112.625 127.045 107.526 124.981 103.033 126.681C98.541 128.381 96.5984 131.902 96.5984 131.902Z" fill="white"/>
<mask id="mask2_264_10" style="mask-type:luminance" maskUnits="userSpaceOnUse" x="96" y="126" width="21" height="24">
<path d="M96.5984 131.902C96.5984 131.902 97.4482 139.066 98.541 142.951C99.6338 146.836 100.727 147.808 100.727 147.808L104.005 145.015L104.855 147.565L108.74 149.143L111.775 145.865L111.047 143.315L116.268 145.865C116.268 145.865 115.782 138.215 114.204 132.63C112.625 127.045 107.526 124.981 103.033 126.681C98.541 128.381 96.5984 131.902 96.5984 131.902Z" fill="white"/>
</mask>
<g mask="url(#mask2_264_10)">
<path opacity="0.2" d="M96.5984 131.902C96.5984 131.902 97.4482 139.066 98.541 142.951C99.6338 146.836 100.727 147.808 100.727 147.808L104.005 145.015L104.855 147.565L108.74 149.143L111.775 145.865L111.047 143.315L116.268 145.865C116.268 145.865 115.782 138.215 114.204 132.63C112.625 127.045 107.526 124.981 103.033 126.681C98.541 128.381 96.5984 131.902 96.5984 131.902Z" fill="black"/>
</g>
<path d="M96.5984 131.902C96.5984 131.902 97.4482 139.066 98.541 142.951C99.6338 146.836 100.727 147.808 100.727 147.808L104.005 145.015L104.855 147.565L108.74 149.143L111.775 145.865L111.047 143.315L116.268 145.865C116.268 145.865 115.782 138.215 114.204 132.63C112.625 127.045 107.526 124.981 103.033 126.681C98.541 128.381 96.5984 131.902 96.5984 131.902Z" stroke="#263238" stroke-miterlimit="10" stroke-linecap="round" stroke-linejoin="round"/>
<mask id="mask3_264_10" style="mask-type:luminance" maskUnits="userSpaceOnUse" x="103" y="140" width="8" height="10">
<path d="M103.276 142.223C103.276 142.223 107.283 149.75 108.74 149.143C110.197 148.536 110.804 140.887 110.804 140.887C110.804 140.887 107.647 142.344 103.276 142.223Z" fill="white"/>
</mask>
<g mask="url(#mask3_264_10)">
<path d="M103.276 142.223C103.276 142.223 107.283 149.75 108.74 149.143C110.197 148.536 110.804 140.887 110.804 140.887C110.804 140.887 107.647 142.344 103.276 142.223Z" fill="#6962D5"/>
</g>
<mask id="mask4_264_10" style="mask-type:luminance" maskUnits="userSpaceOnUse" x="103" y="140" width="8" height="10">
<path d="M103.276 142.223C103.276 142.223 107.283 149.75 108.74 149.143C110.197 148.536 110.804 140.887 110.804 140.887C110.804 140.887 107.647 142.344 103.276 142.223Z" fill="white"/>
</mask>
<g mask="url(#mask4_264_10)">
<path opacity="0.5" d="M103.276 142.223C103.276 142.223 107.283 149.75 108.74 149.143C110.197 148.536 110.804 140.887 110.804 140.887C110.804 140.887 107.647 142.344 103.276 142.223Z" fill="white"/>
</g>
<path d="M103.276 142.223C103.276 142.223 107.283 149.75 108.74 149.143C110.197 148.536 110.804 140.887 110.804 140.887C110.804 140.887 107.647 142.344 103.276 142.223Z" stroke="#263238" stroke-miterlimit="10" stroke-linecap="round" stroke-linejoin="round"/>
<path d="M143.689 152.242C143.197 151.453 144.641 147.619 144.921 146.708C146.198 142.557 148.051 137.971 152.632 136.88C157.176 135.798 161.287 140.703 161.864 143.443C162.44 146.184 158.114 150.078 156.238 151.377C154.363 152.675 146.574 156.858 143.689 152.242Z" fill="white" stroke="#263238" stroke-miterlimit="10" stroke-linecap="round" stroke-linejoin="round"/>
<path opacity="0.2" d="M161.014 143.798C161.014 143.798 157.271 139.428 154.948 139.226C152.623 139.024 150.019 141.194 146.981 145.823C143.943 150.453 143.841 153.947 145.631 153.291C147.42 152.635 160.869 147.704 161.014 143.798Z" fill="black"/>
<path d="M73.6988 152.681C73.6988 152.681 70.6869 146.456 68.6119 144.315C66.5369 142.173 64.2615 143.98 59.7097 147.661C55.1583 151.342 54.8237 155.091 55.292 156.162C55.7607 157.233 56.3627 157.367 56.7646 157.3C57.166 157.233 59.7765 152.012 63.1904 151.476C66.6038 150.941 72.6281 154.89 73.632 154.221C74.6358 153.551 73.6988 152.681 73.6988 152.681Z" fill="white" stroke="#263238" stroke-miterlimit="10" stroke-linecap="round" stroke-linejoin="round"/>
<path opacity="0.2" d="M56.42 154.793C56.42 154.793 56.1305 153.347 57.722 150.743C59.3135 148.139 63.364 145.824 65.3895 145.824C67.415 145.824 70.742 149.585 71.176 151.321C71.61 153.057 63.7438 155.733 61.7725 155.951C59.8017 156.168 56.7095 156.818 56.42 154.793Z" fill="black"/>
<path d="M85.695 154.94C85.695 154.94 66.8716 149.736 64.3952 148.532C61.9188 147.327 59.5761 149.402 57.5679 152.146C55.5598 154.89 55.5464 159.527 56.0954 160.312C58.1903 163.308 80.6598 160.914 80.6598 160.914L85.695 154.94Z" fill="white" stroke="#263238" stroke-miterlimit="10" stroke-linecap="round" stroke-linejoin="round"/>
<path d="M83.6165 155.265C83.6165 155.265 67.8484 151.807 63.2836 152.499C58.7192 153.191 55.9529 160.107 59.8255 160.66C63.6985 161.213 82.2329 160.107 82.2329 160.107L83.6165 155.265Z" fill="#6962D5"/>
<path opacity="0.5" d="M83.6165 155.265C83.6165 155.265 67.8484 151.807 63.2836 152.499C58.7192 153.191 55.9529 160.107 59.8255 160.66C63.6985 161.213 82.2329 160.107 82.2329 160.107L83.6165 155.265Z" fill="white"/>
<path d="M94.7348 128.104C94.7348 128.104 96.4122 134.549 97.5597 136.756C98.7076 138.963 103.651 144.084 105.152 144.79C106.653 145.497 109.125 144.614 110.008 143.113C110.89 141.612 114.069 136.58 114.157 134.549C114.245 132.518 114.422 128.546 114.422 128.546C114.422 128.546 115.393 129.252 116.011 128.634C116.629 128.016 117.071 123.866 116.276 122.012C115.481 120.158 114.687 120.511 114.422 121.306C114.157 122.101 113.804 122.719 113.804 122.719C113.804 122.719 112.833 119.275 110.449 119.011C108.066 118.746 94.293 124.308 94.293 124.308L94.7348 128.104Z" fill="white" stroke="#263238" stroke-miterlimit="10" stroke-linecap="round" stroke-linejoin="round"/>
<path d="M96.282 127.328C96.282 127.328 97.2836 133.194 98.1421 134.625C99.0006 136.055 102.577 142.493 104.437 143.495C106.297 144.496 107.871 145.212 109.158 142.922C110.446 140.633 112.449 137.056 113.164 134.481C113.879 131.906 113.307 127.757 113.307 127.757C113.307 127.757 112.306 121.748 112.163 119.888C112.02 118.028 95.1375 116.169 96.282 127.328Z" fill="#6962D5"/>
<path opacity="0.5" d="M96.282 127.328C96.282 127.328 97.2836 133.194 98.1421 134.625C99.0006 136.055 102.577 142.493 104.437 143.495C106.297 144.496 107.871 145.212 109.158 142.922C110.446 140.633 112.449 137.056 113.164 134.481C113.879 131.906 113.307 127.757 113.307 127.757C113.307 127.757 112.306 121.748 112.163 119.888C112.02 118.028 95.1375 116.169 96.282 127.328Z" fill="white"/>
<path d="M102.857 131.018C102.857 131.018 103.563 134.726 102.592 136.933C102.592 136.933 104.358 137.992 105.594 135.873" stroke="#263238" stroke-miterlimit="10" stroke-linecap="round" stroke-linejoin="round"/>
<path d="M106.035 131.018C105.226 129.457 106.74 125.849 111.156 129.428C111.156 129.428 106.565 127.574 106.035 131.018Z" fill="#263238"/>
<path d="M102.945 131.724C102.945 131.724 102.592 130.311 100.738 129.428C98.8839 128.546 98.1777 128.457 98.1777 128.457C98.1777 128.457 103.299 127.398 102.945 131.724Z" fill="#263238"/>
<path d="M106.477 138.963C106.477 138.963 108.772 138.699 110.273 135.962" stroke="#263238" stroke-miterlimit="10" stroke-linecap="round" stroke-linejoin="round"/>
<path d="M108.772 137.727C108.772 137.727 108.419 134.284 109.39 134.196C110.361 134.108 109.858 136.627 109.858 136.627L108.772 137.727Z" fill="#6962D5" stroke="#263238" stroke-miterlimit="10" stroke-linecap="round" stroke-linejoin="round"/>
<path d="M108.399 131.801C108.399 132.292 108.184 132.691 107.92 132.691C107.655 132.691 107.44 132.292 107.44 131.801C107.44 131.309 107.655 130.911 107.92 130.911C108.184 130.911 108.399 131.309 108.399 131.801Z" fill="#263238"/>
<path d="M101.551 132.143C101.551 132.635 101.336 133.033 101.071 133.033C100.807 133.033 100.592 132.634 100.592 132.143C100.592 131.651 100.806 131.253 101.071 131.253C101.336 131.253 101.551 131.651 101.551 132.143Z" fill="#263238"/>
<path d="M107.235 132.691C107.235 132.691 108.125 132.76 108.947 132.144" stroke="#263238" stroke-width="0.75" stroke-miterlimit="10" stroke-linecap="round" stroke-linejoin="round"/>
<path d="M100.208 132.931C100.208 132.931 101.047 133.236 102.004 132.863" stroke="#263238" stroke-width="0.75" stroke-miterlimit="10" stroke-linecap="round" stroke-linejoin="round"/>
<path d="M86.6936 151.775C86.6936 151.775 90.3362 150.925 91.5505 151.653C92.7648 152.382 92.0361 157.238 91.429 157.967C90.8218 158.696 89.6075 158.696 89.6075 157.36C89.6075 156.025 89.9716 154.568 89.9716 154.568H88.029L86.6936 151.775Z" fill="white"/>
<mask id="mask5_264_10" style="mask-type:luminance" maskUnits="userSpaceOnUse" x="86" y="151" width="7" height="8">
<path d="M86.6936 151.775C86.6936 151.775 90.3362 150.925 91.5505 151.653C92.7648 152.382 92.0361 157.238 91.429 157.967C90.8218 158.696 89.6075 158.696 89.6075 157.36C89.6075 156.025 89.9716 154.568 89.9716 154.568H88.029L86.6936 151.775Z" fill="white"/>
</mask>
<g mask="url(#mask5_264_10)">
<path d="M91.6082 157.189C91.672 155.973 91.928 154.373 91.0965 153.158C90.2645 151.942 88.0255 152.582 88.0255 152.582L88.4899 154.568H89.972C89.972 154.568 89.6079 156.025 89.6079 157.36C89.6079 157.52 89.6261 157.659 89.6578 157.782C90.4294 158.109 91.557 158.166 91.6082 157.189Z" fill="#6962D5"/>
</g>
<mask id="mask6_264_10" style="mask-type:luminance" maskUnits="userSpaceOnUse" x="86" y="151" width="7" height="8">
<path d="M86.6936 151.775C86.6936 151.775 90.3362 150.925 91.5505 151.653C92.7648 152.382 92.0361 157.238 91.429 157.967C90.8218 158.696 89.6075 158.696 89.6075 157.36C89.6075 156.025 89.9716 154.568 89.9716 154.568H88.029L86.6936 151.775Z" fill="white"/>
</mask>
<g mask="url(#mask6_264_10)">
<path opacity="0.5" d="M91.6082 157.189C91.672 155.973 91.928 154.373 91.0965 153.158C90.2645 151.942 88.0255 152.582 88.0255 152.582L88.4899 154.568H89.972C89.972 154.568 89.6079 156.025 89.6079 157.36C89.6079 157.52 89.6261 157.659 89.6578 157.782C90.4294 158.109 91.557 158.166 91.6082 157.189Z" fill="white"/>
</g>
<path d="M86.6936 151.775C86.6936 151.775 90.3362 150.925 91.5505 151.653C92.7648 152.382 92.0361 157.238 91.429 157.967C90.8218 158.696 89.6075 158.696 89.6075 157.36C89.6075 156.025 89.9716 154.568 89.9716 154.568H88.029L86.6936 151.775Z" stroke="#263238" stroke-miterlimit="10" stroke-linecap="round" stroke-linejoin="round"/>
<path d="M92.6221 161.188L92.9228 162.755L91.7298 161.617L83.0125 143.504L83.9043 143.075L92.6221 161.188Z" fill="white" stroke="#263238" stroke-miterlimit="10" stroke-linecap="round" stroke-linejoin="round"/>
<path d="M91.7298 161.617L92.9228 162.755L92.6221 161.188L92.567 161.073L91.7194 161.594L91.7298 161.617Z" fill="white" stroke="#263238" stroke-miterlimit="10" stroke-linecap="round" stroke-linejoin="round"/>
<path d="M83.9043 143.075L83.0125 143.504L83.7954 145.131L84.6703 144.667L83.9043 143.075Z" fill="white" stroke="#263238" stroke-miterlimit="10" stroke-linecap="round" stroke-linejoin="round"/>
<path d="M84.6295 153.232C84.6295 153.232 83.6583 155.296 82.9296 156.267C82.2009 157.239 80.1368 158.817 79.8942 160.517C79.6511 162.217 83.1726 164.038 84.7506 164.281C86.3291 164.524 89.0004 162.46 89.6075 162.217C90.2147 161.974 90.9429 161.61 90.0932 159.789C89.2434 157.967 84.6295 153.232 84.6295 153.232Z" fill="white"/>
<mask id="mask7_264_10" style="mask-type:luminance" maskUnits="userSpaceOnUse" x="79" y="153" width="12" height="12">
<path d="M84.6295 153.232C84.6295 153.232 83.6583 155.296 82.9296 156.267C82.2009 157.239 80.1368 158.817 79.8942 160.517C79.6511 162.217 83.1726 164.038 84.7506 164.281C86.3291 164.524 89.0004 162.46 89.6075 162.217C90.2147 161.974 90.9429 161.61 90.0932 159.789C89.2434 157.967 84.6295 153.232 84.6295 153.232Z" fill="white"/>
</mask>
<g mask="url(#mask7_264_10)">
<path d="M90.0932 159.789C89.6414 158.821 88.1263 157.029 86.8061 155.564L86.1064 155.68C86.1064 155.68 84.4468 157.34 84.4468 158.447C84.4468 159.553 86.1064 161.075 86.1064 161.075C86.1064 161.075 83.6166 160.521 83.0637 161.351C82.5103 162.181 83.3401 162.734 83.3401 162.734C83.3401 162.734 81.681 162.183 80.7092 162.202C81.799 163.259 83.7021 164.12 84.7511 164.281C86.3295 164.524 89.0008 162.46 89.608 162.217C90.2147 161.974 90.9429 161.61 90.0932 159.789Z" fill="#6962D5"/>
</g>
<mask id="mask8_264_10" style="mask-type:luminance" maskUnits="userSpaceOnUse" x="79" y="153" width="12" height="12">
<path d="M84.6295 153.232C84.6295 153.232 83.6583 155.296 82.9296 156.267C82.2009 157.239 80.1368 158.817 79.8942 160.517C79.6511 162.217 83.1726 164.038 84.7506 164.281C86.3291 164.524 89.0004 162.46 89.6075 162.217C90.2147 161.974 90.9429 161.61 90.0932 159.789C89.2434 157.967 84.6295 153.232 84.6295 153.232Z" fill="white"/>
</mask>
<g mask="url(#mask8_264_10)">
<path opacity="0.5" d="M90.0932 159.789C89.6414 158.821 88.1263 157.029 86.8061 155.564L86.1064 155.68C86.1064 155.68 84.4468 157.34 84.4468 158.447C84.4468 159.553 86.1064 161.075 86.1064 161.075C86.1064 161.075 83.6166 160.521 83.0637 161.351C82.5103 162.181 83.3401 162.734 83.3401 162.734C83.3401 162.734 81.681 162.183 80.7092 162.202C81.799 163.259 83.7021 164.12 84.7511 164.281C86.3295 164.524 89.0008 162.46 89.608 162.217C90.2147 161.974 90.9429 161.61 90.0932 159.789Z" fill="white"/>
</g>
<path d="M84.6295 153.232C84.6295 153.232 83.6583 155.296 82.9296 156.267C82.2009 157.239 80.1368 158.817 79.8942 160.517C79.6511 162.217 83.1726 164.038 84.7506 164.281C86.3291 164.524 89.0004 162.46 89.6075 162.217C90.2147 161.974 90.9429 161.61 90.0932 159.789C89.2434 157.967 84.6295 153.232 84.6295 153.232Z" stroke="#263238" stroke-miterlimit="10" stroke-linecap="round" stroke-linejoin="round"/>
<path d="M84.6166 151.162C85.4412 150.403 86.7887 150.739 87.3026 151.735C88.451 153.963 90.8219 158.629 90.8219 159.181C90.8219 159.91 90.9434 161.002 89.6076 160.152C88.2722 159.303 85.4794 155.539 84.7507 154.446C84.2347 153.672 83.6579 152.045 84.6166 151.162Z" fill="white"/>
<mask id="mask9_264_10" style="mask-type:luminance" maskUnits="userSpaceOnUse" x="84" y="150" width="7" height="11">
<path d="M84.6166 151.162C85.4412 150.403 86.7887 150.739 87.3026 151.735C88.451 153.963 90.8219 158.629 90.8219 159.181C90.8219 159.91 90.9434 161.002 89.6076 160.152C88.2722 159.303 85.4794 155.539 84.7507 154.446C84.2347 153.672 83.6579 152.045 84.6166 151.162Z" fill="white"/>
</mask>
<g mask="url(#mask9_264_10)">
<path d="M88.8571 154.949C88.8571 154.949 87.7695 153.222 86.5539 153.797C85.3383 154.373 88.6653 159.3 89.2412 160.004C89.8171 160.707 90.5207 160.579 90.7129 160.067C90.9048 159.556 90.7767 158.915 90.4569 157.7C90.137 156.485 88.8571 154.949 88.8571 154.949Z" fill="#6962D5"/>
</g>
<mask id="mask10_264_10" style="mask-type:luminance" maskUnits="userSpaceOnUse" x="84" y="150" width="7" height="11">
<path d="M84.6166 151.162C85.4412 150.403 86.7887 150.739 87.3026 151.735C88.451 153.963 90.8219 158.629 90.8219 159.181C90.8219 159.91 90.9434 161.002 89.6076 160.152C88.2722 159.303 85.4794 155.539 84.7507 154.446C84.2347 153.672 83.6579 152.045 84.6166 151.162Z" fill="white"/>
</mask>
<g mask="url(#mask10_264_10)">
<path opacity="0.5" d="M88.8571 154.949C88.8571 154.949 87.7695 153.222 86.5539 153.797C85.3383 154.373 88.6653 159.3 89.2412 160.004C89.8171 160.707 90.5207 160.579 90.7129 160.067C90.9048 159.556 90.7767 158.915 90.4569 157.7C90.137 156.485 88.8571 154.949 88.8571 154.949Z" fill="white"/>
</g>
<path d="M84.6166 151.162C85.4412 150.403 86.7887 150.739 87.3026 151.735C88.451 153.963 90.8219 158.629 90.8219 159.181C90.8219 159.91 90.9434 161.002 89.6076 160.152C88.2722 159.303 85.4794 155.539 84.7507 154.446C84.2347 153.672 83.6579 152.045 84.6166 151.162Z" stroke="#263238" stroke-miterlimit="10" stroke-linecap="round" stroke-linejoin="round"/>
<path d="M83.051 157.36C83.051 157.36 84.3864 159.788 85.4793 161.003C86.5721 162.217 90.4572 161.61 90.4572 161.61" stroke="#263238" stroke-miterlimit="10" stroke-linecap="round" stroke-linejoin="round"/>
<path d="M81.108 159.789C81.108 159.789 83.1721 162.946 84.2649 163.553C85.3578 164.16 88.2716 162.825 88.2716 162.825" stroke="#263238" stroke-miterlimit="10" stroke-linecap="round" stroke-linejoin="round"/>
<path d="M128.038 158.228C128.038 158.228 124.432 157.651 123.783 157.867C123.134 158.084 122.196 159.165 119.672 159.887C117.148 160.608 116.427 161.113 117.364 161.545C118.301 161.978 120.177 162.05 121.475 161.545C122.773 161.041 123.927 160.247 124.216 160.175C124.504 160.103 125.874 160.464 125.874 160.464C125.874 160.464 127.822 159.526 128.038 158.228Z" fill="white" stroke="#263238" stroke-miterlimit="10" stroke-linecap="round" stroke-linejoin="round"/>
<path d="M157.897 141.568C149.585 140.348 148.041 147.513 143.209 153.355C139.519 157.816 136.321 159.608 135.015 160.207C133.428 159.08 131.547 157.87 130.419 157.579C128.183 157.002 127.534 158.156 126.596 159.094C125.659 160.031 119.167 163.854 118.807 164.575C118.446 165.297 119.311 165.441 119.889 165.513C120.465 165.585 122.413 164.863 122.413 164.863C122.413 164.863 120.682 165.657 121.115 166.234C121.547 166.811 125.514 165.729 126.884 165.225C126.884 165.225 123.278 166.883 123.494 167.461C123.711 168.037 125.009 167.821 125.874 167.605C126.74 167.388 131.428 165.729 131.428 165.729C131.428 165.729 127.966 167.316 127.1 167.821C126.235 168.326 127.533 168.686 128.182 168.686C128.832 168.686 131.933 167.244 133.303 166.811C134.674 166.378 137.558 166.234 139.506 165.224C140.405 164.758 141.009 164.293 141.402 163.926C145.334 161.823 156.958 155.267 159.767 150.433C162.868 145.096 162.2 142.2 157.897 141.568Z" fill="white"/>
<mask id="mask11_264_10" style="mask-type:luminance" maskUnits="userSpaceOnUse" x="118" y="141" width="44" height="28">
<path d="M157.897 141.568C149.585 140.348 148.041 147.513 143.209 153.355C139.519 157.816 136.321 159.608 135.015 160.207C133.428 159.08 131.547 157.87 130.419 157.579C128.183 157.002 127.534 158.156 126.596 159.094C125.659 160.031 119.167 163.854 118.807 164.575C118.446 165.297 119.311 165.441 119.889 165.513C120.465 165.585 122.413 164.863 122.413 164.863C122.413 164.863 120.682 165.657 121.115 166.234C121.547 166.811 125.514 165.729 126.884 165.225C126.884 165.225 123.278 166.883 123.494 167.461C123.711 168.037 125.009 167.821 125.874 167.605C126.74 167.388 131.428 165.729 131.428 165.729C131.428 165.729 127.966 167.316 127.1 167.821C126.235 168.326 127.533 168.686 128.182 168.686C128.832 168.686 131.933 167.244 133.303 166.811C134.674 166.378 137.558 166.234 139.506 165.224C140.405 164.758 141.009 164.293 141.402 163.926C145.334 161.823 156.958 155.267 159.767 150.433C162.868 145.096 162.2 142.2 157.897 141.568Z" fill="white"/>
</mask>
<g mask="url(#mask11_264_10)">
<path d="M157.897 141.568C157.269 141.476 156.683 141.437 156.128 141.437C156.23 141.519 157.656 142.738 156.818 145.39C155.95 148.139 140.905 161.738 139.314 162.316C137.722 162.895 133.961 160.436 134.106 161.304C134.25 162.172 135.842 163.763 135.552 164.342C135.263 164.92 130.923 167.09 129.332 168.102C129.111 168.243 128.905 168.402 128.714 168.569C129.846 168.22 132.168 167.17 133.303 166.811C134.674 166.378 137.559 166.234 139.506 165.224C140.405 164.758 141.01 164.293 141.402 163.926C145.335 161.823 156.958 155.267 159.767 150.432C162.868 145.096 162.2 142.199 157.897 141.568Z" fill="#6962D5"/>
</g>
<mask id="mask12_264_10" style="mask-type:luminance" maskUnits="userSpaceOnUse" x="118" y="141" width="44" height="28">
<path d="M157.897 141.568C149.585 140.348 148.041 147.513 143.209 153.355C139.519 157.816 136.321 159.608 135.015 160.207C133.428 159.08 131.547 157.87 130.419 157.579C128.183 157.002 127.534 158.156 126.596 159.094C125.659 160.031 119.167 163.854 118.807 164.575C118.446 165.297 119.311 165.441 119.889 165.513C120.465 165.585 122.413 164.863 122.413 164.863C122.413 164.863 120.682 165.657 121.115 166.234C121.547 166.811 125.514 165.729 126.884 165.225C126.884 165.225 123.278 166.883 123.494 167.461C123.711 168.037 125.009 167.821 125.874 167.605C126.74 167.388 131.428 165.729 131.428 165.729C131.428 165.729 127.966 167.316 127.1 167.821C126.235 168.326 127.533 168.686 128.182 168.686C128.832 168.686 131.933 167.244 133.303 166.811C134.674 166.378 137.558 166.234 139.506 165.224C140.405 164.758 141.009 164.293 141.402 163.926C145.334 161.823 156.958 155.267 159.767 150.433C162.868 145.096 162.2 142.2 157.897 141.568Z" fill="white"/>
</mask>
<g mask="url(#mask12_264_10)">
<path opacity="0.5" d="M157.897 141.568C157.269 141.476 156.683 141.437 156.128 141.437C156.23 141.519 157.656 142.738 156.818 145.39C155.95 148.139 140.905 161.738 139.314 162.316C137.722 162.895 133.961 160.436 134.106 161.304C134.25 162.172 135.842 163.763 135.552 164.342C135.263 164.92 130.923 167.09 129.332 168.102C129.111 168.243 128.905 168.402 128.714 168.569C129.846 168.22 132.168 167.17 133.303 166.811C134.674 166.378 137.559 166.234 139.506 165.224C140.405 164.758 141.01 164.293 141.402 163.926C145.335 161.823 156.958 155.267 159.767 150.432C162.868 145.096 162.2 142.199 157.897 141.568Z" fill="white"/>
</g>
<path d="M157.897 141.568C149.585 140.348 148.041 147.513 143.209 153.355C139.519 157.816 136.321 159.608 135.015 160.207C133.428 159.08 131.547 157.87 130.419 157.579C128.183 157.002 127.534 158.156 126.596 159.094C125.659 160.031 119.167 163.854 118.807 164.575C118.446 165.297 119.311 165.441 119.889 165.513C120.465 165.585 122.413 164.863 122.413 164.863C122.413 164.863 120.682 165.657 121.115 166.234C121.547 166.811 125.514 165.729 126.884 165.225C126.884 165.225 123.278 166.883 123.494 167.461C123.711 168.037 125.009 167.821 125.874 167.605C126.74 167.388 131.428 165.729 131.428 165.729C131.428 165.729 127.966 167.316 127.1 167.821C126.235 168.326 127.533 168.686 128.182 168.686C128.832 168.686 131.933 167.244 133.303 166.811C134.674 166.378 137.558 166.234 139.506 165.224C140.405 164.758 141.009 164.293 141.402 163.926C145.334 161.823 156.958 155.267 159.767 150.433C162.868 145.096 162.2 142.2 157.897 141.568Z" stroke="#263238" stroke-miterlimit="10" stroke-linecap="round" stroke-linejoin="round"/>
<path d="M122.413 164.863C122.413 164.863 129.048 161.185 130.13 159.815" stroke="#263238" stroke-miterlimit="10" stroke-linecap="round" stroke-linejoin="round"/>
<path d="M126.884 165.224C126.884 165.224 130.779 163.565 132.149 162.555" stroke="#263238" stroke-miterlimit="10" stroke-linecap="round" stroke-linejoin="round"/>
<path d="M131.428 165.729C131.428 165.729 133.952 164.863 134.674 164.286" stroke="#263238" stroke-miterlimit="10" stroke-linecap="round" stroke-linejoin="round"/>
<path d="M135.015 160.207L136.565 161.448" stroke="#263238" stroke-miterlimit="10" stroke-linecap="round" stroke-linejoin="round"/>
<path d="M110.626 121.218C110.626 121.218 110.361 123.249 104.181 126.515C98.001 129.782 93.4987 128.987 92.8807 128.546C92.2627 128.104 90.3205 122.542 91.8213 116.45C93.3221 110.359 99.8551 107.622 105.506 107.622C111.156 107.622 114.158 111.772 115.217 115.038C116.277 118.305 114.599 127.221 114.599 127.221C114.599 127.221 111.156 126.338 110.626 121.218Z" fill="#263238" stroke="#263238" stroke-miterlimit="10" stroke-linecap="round" stroke-linejoin="round"/>
<path d="M110.344 121.778C110.344 121.778 109.021 127.955 96.7767 130.382" stroke="#263238" stroke-miterlimit="10" stroke-linecap="round" stroke-linejoin="round"/>
<path d="M110.675 109.203C110.675 109.203 107.256 103.798 97.4386 108.321" stroke="#263238" stroke-miterlimit="10" stroke-linecap="round" stroke-linejoin="round"/>
<path d="M111.337 109.865C111.337 109.865 113.322 109.423 114.867 111.409" stroke="#263238" stroke-miterlimit="10" stroke-linecap="round" stroke-linejoin="round"/>
<path d="M110.436 115.743C110.436 115.743 109.776 122.997 97.2476 125.305" stroke="white" stroke-miterlimit="10" stroke-linecap="round" stroke-linejoin="round"/>
<path d="M94.2817 120.997C93.8463 120.97 93.4063 120.923 92.9614 120.854" stroke="white" stroke-miterlimit="10" stroke-linecap="round" stroke-linejoin="round"/>
<path d="M109.941 113.765C109.941 113.765 104.174 120.429 96.2559 120.989" stroke="white" stroke-miterlimit="10" stroke-linecap="round" stroke-linejoin="round"/>
<path d="M148.81 88.789C148.857 88.8702 149.926 88.033 149.974 88.1168C150.085 88.3077 145.554 92.0727 145.664 92.2641C145.91 92.689 154.498 86.6303 154.729 87.0305C155.003 87.504 144.357 94.0079 144.636 94.4914C144.989 95.1029 156.904 86.751 157.189 87.244C157.484 87.7552 143.957 95.2174 144.266 95.7534C144.6 96.3311 158.144 86.9771 158.475 87.55C158.825 88.1567 143.7 96.098 144.067 96.7325C144.461 97.4152 159.063 87.2739 159.41 87.8746C159.755 88.474 143.629 98.3188 143.966 98.9012C144.425 99.6968 160.955 88.1697 161.355 88.8615C161.78 89.598 143.624 98.7328 144.006 99.3938C144.392 100.063 161.328 88.3789 161.767 89.1393C162.141 89.7877 143.621 99.4003 144.068 100.175C144.463 100.858 161.957 88.8021 162.409 89.5854C162.809 90.2772 144.081 101.318 144.47 101.992C144.936 102.799 163.314 90.0685 163.766 90.851C164.203 91.6096 144.392 102.263 144.895 103.134C145.341 103.907 164.037 90.8692 164.562 91.7797C164.999 92.5371 144.61 102.717 145.014 103.417C145.494 104.248 164.279 91.1943 164.756 92.0193C165.203 92.794 144.714 102.999 145.175 103.797C145.701 104.709 164.506 91.561 164.971 92.3674C165.374 93.0661 144.927 103.426 145.367 104.189C145.858 105.04 164.748 91.9529 165.201 92.7376C165.696 93.5965 145.81 104.821 146.313 105.693C146.744 106.439 165.531 93.4502 166.028 94.3113C166.49 95.112 146.464 105.617 146.909 106.388C147.405 107.247 165.949 94.3976 166.38 95.1458C166.788 95.8506 146.939 106.192 147.345 106.896C147.844 107.761 166.138 95.056 166.567 95.7981C167.013 96.572 148.236 107.331 148.681 108.101C149.119 108.861 166.432 96.6952 166.933 97.5632C167.331 98.2524 148.331 107.384 148.786 108.172C149.281 109.03 166.498 96.917 166.944 97.6882C167.398 98.4755 148.438 107.507 148.845 108.211C149.269 108.946 166.492 96.9656 166.949 97.7585C167.346 98.4447 150.267 108.62 150.667 109.314C151.033 109.947 166.575 99.1313 167.008 99.8799C167.333 100.442 151.822 109.317 152.183 109.942C152.556 110.588 166.47 100.94 166.796 101.505C167.153 102.124 152.106 109.447 152.444 110.032C152.755 110.571 166.347 101.099 166.74 101.779C167.065 102.342 154.951 110.076 155.218 110.54C155.481 110.994 165.511 103.915 165.807 104.427C166.014 104.786 157.908 110.075 158.103 110.412C158.261 110.685 164.026 106.576 164.207 106.888C164.288 107.028 160.49 109.513 160.583 109.674C160.642 109.776 162.352 108.496 162.42 108.613C162.451 108.666 160.987 109.437 161.018 109.49C161.075 109.59 162.125 108.722 162.181 108.819" stroke="#263238" stroke-width="0.72" stroke-linecap="round" stroke-linejoin="round"/>
<path d="M153.686 103.413C154.054 103.337 154.374 103.194 154.645 102.987C154.884 102.807 155.085 102.584 155.246 102.319C155.497 101.92 155.623 101.469 155.623 100.966C155.623 100.479 155.513 100.065 155.293 99.7233C155.073 99.3817 154.746 99.1322 154.313 98.9746C154.597 98.8292 154.813 98.6678 154.96 98.4912C155.222 98.1769 155.353 97.7599 155.353 97.2421C155.353 96.7395 155.223 96.3077 154.963 95.947C154.532 95.3603 153.799 95.0591 152.765 95.0435H148.663V103.528H152.487C152.918 103.528 153.318 103.49 153.686 103.413ZM150.356 96.5169H152.202C152.608 96.5169 152.942 96.5607 153.205 96.6497C153.509 96.776 153.661 97.0368 153.661 97.4322C153.661 97.7894 153.545 98.0376 153.316 98.1778C153.086 98.318 152.787 98.3879 152.418 98.3879H150.356V96.5169ZM150.356 102.055V99.7927H152.444C152.809 99.7966 153.091 99.8439 153.293 99.9364C153.653 100.101 153.833 100.404 153.833 100.846C153.833 101.367 153.647 101.721 153.275 101.905C153.071 102.005 152.784 102.054 152.416 102.054H150.356V102.055Z" fill="white"/>
<path d="M157.06 102.969C157.698 103.484 158.435 103.741 159.27 103.741C160.282 103.741 161.069 103.437 161.631 102.826C161.993 102.442 162.195 102.064 162.24 101.692H160.564C160.467 101.876 160.354 102.02 160.227 102.123C159.993 102.316 159.689 102.411 159.316 102.411C158.963 102.411 158.662 102.332 158.412 102.175C157.999 101.922 157.781 101.481 157.756 100.851H162.325C162.333 100.31 162.315 99.8947 162.271 99.6061C162.195 99.1144 162.028 98.6817 161.771 98.3093C161.487 97.8866 161.125 97.5767 160.687 97.381C160.25 97.1852 159.758 97.0872 159.211 97.0872C158.292 97.0872 157.544 97.3771 156.968 97.9573C156.391 98.5367 156.103 99.3704 156.103 100.457C156.103 101.617 156.422 102.454 157.06 102.969ZM158.232 98.798C158.464 98.5593 158.79 98.4399 159.211 98.4399C159.598 98.4399 159.923 98.5528 160.185 98.778C160.446 99.0037 160.592 99.3344 160.622 99.7693H157.795C157.855 99.3609 158 99.0371 158.232 98.798Z" fill="white"/>
<path d="M160.948 95.5312H157.26V96.3875H160.948V95.5312Z" fill="white"/>
<path d="M136.817 62.1162C136.868 62.2056 137.935 61.3637 137.981 61.444C138.095 61.6419 133.356 65.708 133.482 65.9263C133.701 66.3052 142.894 59.9289 143.138 60.3512C143.37 60.7517 133.021 65.9979 133.248 66.3924C133.501 66.8308 143.397 59.9441 143.652 60.3854C143.881 60.7808 132.505 67.1003 132.747 67.5178C133.075 68.0868 144.613 60.0309 144.889 60.5078C145.178 61.0091 131.758 69.4408 132.084 70.0059C132.438 70.6187 146.957 60.4774 147.365 61.1836C147.684 61.736 131.635 70.1118 132.01 70.7615C132.419 71.4689 147.658 60.7765 148.069 61.4895C148.419 62.095 131.636 71.6777 131.975 72.2649C132.354 72.922 148.99 61.5134 149.392 62.2091C149.849 63.0007 131.617 72.0726 132.015 72.7609C132.413 73.4493 149.335 61.6718 149.807 62.489C150.247 63.2516 131.687 72.6724 132.061 73.3195C132.502 74.0846 149.864 62.0941 150.274 62.8041C150.684 63.5155 131.65 72.876 132.086 73.6316C132.536 74.4106 150.075 62.2421 150.51 62.9946C150.984 63.8153 131.622 72.9571 132.098 73.7822C132.578 74.6141 150.2 62.3653 150.618 63.0897C151.018 63.7819 131.845 73.7683 132.28 74.5221C132.752 75.3389 150.773 62.8649 151.198 63.6001C151.686 64.4459 131.896 73.9492 132.32 74.6827C132.84 75.5841 150.904 62.9834 151.324 63.7107C151.781 64.5041 132.163 74.9791 132.584 75.7091C133.075 76.5589 151.537 63.6231 152.032 64.4807C152.457 65.2159 132.744 76.3866 133.216 77.2042C133.748 78.1243 152.555 64.9546 153.024 65.7679C153.493 66.5791 133.654 77.9156 134.067 78.6312C134.533 79.4393 153.361 66.3555 153.853 67.2075C154.347 68.062 133.66 77.9169 134.145 78.7567C134.674 79.6728 153.471 66.5817 153.912 67.3446C154.32 68.0512 134.264 78.7254 134.667 79.4233C135.135 80.2336 153.793 67.3472 154.24 68.1224C154.703 68.9244 134.844 79.366 135.31 80.1728C135.75 80.9362 154.112 68.286 154.558 69.0598C155.052 69.9148 135.286 79.7978 135.76 80.6194C136.226 81.4258 154.215 68.8207 154.711 69.6782C155.169 70.472 136.757 80.9879 137.218 81.786C137.624 82.4891 154.603 70.8509 154.992 71.5241C155.406 72.241 138.213 81.9322 138.601 82.6041C138.999 83.2941 154.614 72.419 155.021 73.1242C155.372 73.7318 138.605 82.1683 138.961 82.785C139.333 83.4282 154.609 72.8629 154.994 73.5287C155.35 74.1467 139.857 82.6844 140.196 83.2716C140.602 83.9738 154.405 74.1515 154.802 74.8389C155.134 75.4136 141.69 83.2299 141.977 83.7255C142.258 84.2138 153.971 76.029 154.306 76.6075C154.548 77.0272 142.553 83.3267 142.851 83.8427C143.162 84.3817 153.692 76.9061 153.985 77.4143C154.198 77.7828 145.34 83.3996 145.571 83.7997C145.762 84.1305 152.439 79.4194 152.619 79.731C152.704 79.8794 148.876 82.6956 148.962 82.8445C149.02 82.9448 150.174 82.0334 150.223 82.1167C150.254 82.1705 148.998 82.7703 149.025 82.818C149.081 82.9144 150.131 82.0472 150.188 82.1466" stroke="#263238" stroke-width="0.72" stroke-linecap="round" stroke-linejoin="round"/>
<path d="M141.582 79.4559H144.532V72.0693H146.59L146.809 69.5959H144.532C144.532 69.5959 144.532 68.6723 144.532 68.1871C144.532 67.6043 144.649 67.3738 145.213 67.3738C145.666 67.3738 146.809 67.3738 146.809 67.3738V64.8071C146.809 64.8071 145.126 64.8071 144.766 64.8071C142.572 64.8071 141.582 65.7741 141.582 67.6242C141.582 69.2361 141.582 69.5963 141.582 69.5963H140.047V72.1005H141.582V79.4559H141.582Z" fill="white"/>
<path d="M104.238 49.4925C104.286 49.5758 105.348 48.7265 105.403 48.8202C105.491 48.9738 101.668 51.8261 101.758 51.9815C101.957 52.3256 108.757 47.5035 108.946 47.8316C109.175 48.2274 100.364 53.6098 100.57 53.9674C100.83 54.4188 110.996 47.2635 111.292 47.7769C111.614 48.3346 99.3864 55.8228 99.7093 56.3822C100.078 57.0202 113.489 47.6354 113.832 48.2287C114.211 48.8857 99.0366 57.9468 99.4012 58.5783C99.7966 59.2627 115.509 48.4166 115.882 49.0628C116.307 49.7976 99.0432 58.2003 99.3865 58.7948C99.8326 59.5678 115.624 48.3784 116.075 49.1596C116.427 49.7702 98.9785 58.6117 99.3665 59.2839C99.8152 60.0608 116.048 48.5772 116.514 49.384C116.912 50.0732 99.1343 60.3321 99.5028 60.9705C99.9363 61.7217 117.505 49.6596 117.902 50.3475C118.286 51.0123 99.5258 62.1601 99.942 62.8805C100.399 63.6726 118.834 50.8656 119.314 51.6963C119.718 52.3964 99.7623 62.8124 100.234 63.6292C100.77 64.5583 119.404 51.5548 119.84 52.3096C120.292 53.0921 99.8803 63.111 100.382 63.9794C100.87 64.8248 119.583 51.7224 120.09 52.6008C120.501 53.3125 100.048 63.492 100.526 64.3205C100.961 65.0739 119.855 52.1412 120.296 52.9063C120.74 53.6754 100.381 64.1734 100.825 64.9424C101.338 65.8304 120.203 52.7002 120.659 53.4914C121.123 54.2943 100.468 64.3092 100.937 65.123C101.461 66.0296 120.286 52.8304 120.771 53.6719C121.27 54.5347 101.537 65.9194 101.964 66.6572C102.395 67.405 121.15 54.5707 121.587 55.3276C122.087 56.1934 101.895 66.3 102.384 67.1472C102.836 67.931 121.352 55.0776 121.836 55.9165C122.245 56.6253 102.776 67.2261 103.263 68.0703C103.739 68.8962 121.648 56.2815 122.156 57.1621C122.595 57.9221 103.263 67.6949 103.703 68.4578C104.112 69.1661 121.834 56.9269 122.295 57.7242C122.76 58.5292 103.955 68.2486 104.385 68.9934C104.808 69.7256 121.942 57.8292 122.387 58.6C122.736 59.2041 105.725 69.3875 106.089 70.0168C106.473 70.683 121.983 59.7969 122.434 60.5794C122.83 61.2647 106.196 69.5901 106.587 70.2672C106.989 70.9625 122.033 60.5087 122.397 61.1397C122.737 61.7287 107.748 70.2056 108.102 70.8188C108.435 71.3956 121.737 62.0676 122.117 62.7273C122.429 63.2676 107.972 70.3045 108.305 70.8813C108.645 71.4707 121.772 62.4053 122.076 62.9309C122.406 63.5033 108.511 70.4373 108.829 70.9881C109.151 71.5458 121.589 62.8627 121.917 63.4317C122.175 63.8791 109.305 70.6213 109.608 71.1469C109.886 71.6269 121.313 63.6036 121.653 64.1929C121.908 64.6356 112.31 70.7962 112.551 71.2133C112.76 71.5753 120.077 66.4007 120.279 66.7513C120.391 66.9462 115.757 70.2585 115.863 70.4417C115.941 70.5771 117.851 69.1197 117.926 69.2503C117.968 69.3219 115.946 70.3032 115.993 70.3865C116.064 70.5089 117.783 69.1887 117.854 69.3124C117.888 69.3701 116.413 70.1439 116.444 70.1964C116.496 70.2876 117.554 69.4343 117.607 69.525" stroke="#263238" stroke-width="0.72" stroke-linecap="round" stroke-linejoin="round"/>
<path d="M104.467 63.564C105.639 64.3157 107.032 64.7544 108.528 64.7544C113.446 64.7544 116.225 60.6002 116.058 56.8739C116.575 56.5006 117.024 56.0341 117.38 55.5024C116.904 55.7129 116.394 55.8557 115.858 55.9195C116.404 55.5923 116.825 55.0732 117.022 54.4539C116.51 54.7577 115.943 54.9781 115.341 55.0971C114.857 54.5823 114.169 54.2607 113.407 54.2607C111.697 54.2607 110.44 55.8566 110.827 57.5136C108.625 57.4033 106.673 56.3487 105.366 54.7455C104.673 55.9364 105.007 57.4945 106.186 58.2826C105.752 58.2687 105.343 58.1494 104.986 57.951C104.957 59.1784 105.837 60.3263 107.111 60.5824C106.738 60.6839 106.329 60.7069 105.915 60.6275C106.251 61.6804 107.23 62.4455 108.389 62.4672C107.275 63.3405 105.872 63.7302 104.467 63.564Z" fill="white"/>
<path d="M71.8864 62.1162C71.9338 62.1982 72.9953 61.348 73.0509 61.444C73.1819 61.6709 68.3893 65.7592 68.5212 65.9879C68.759 66.3998 78.0141 59.9028 78.2758 60.3559C78.5418 60.8164 67.9301 66.3733 68.1428 66.7414C68.3997 67.1862 78.7936 59.8698 79.1065 60.4115C79.3738 60.8745 67.6684 66.7683 67.9236 67.2101C68.2048 67.697 79.31 59.8798 79.6373 60.4471C79.9202 60.937 66.9245 69.1796 67.2183 69.6882C67.5655 70.2897 81.7586 60.4327 82.1315 61.0781C82.4643 61.6549 66.6168 71.0492 67.0139 71.7371C67.421 72.4424 83.5762 61.1766 84.0085 61.9253C84.469 62.7229 66.7427 72.9901 67.1619 73.7162C67.6532 74.5672 85.1603 62.2173 85.6399 63.048C86.1125 63.8665 66.7431 73.1277 67.2014 73.9219C67.6858 74.7612 85.3739 62.4539 85.7966 63.186C86.175 63.8418 66.7514 73.1906 67.2223 74.0065C67.7179 74.8654 85.3517 62.3593 85.863 63.2442C86.2571 63.9269 67.1298 74.766 67.6176 75.6114C68.0942 76.4369 86.5248 63.5202 87.0335 64.4017C87.4692 65.156 67.3633 75.3432 67.8667 76.2147C68.3441 77.0419 86.9619 64.0349 87.4623 64.9012C87.8867 65.6364 67.7904 76.3432 68.2786 77.189C68.7039 77.9255 87.5742 64.8704 88.0846 65.754C88.503 66.4788 68.0959 76.9009 68.5533 77.6933C69.0511 78.5553 87.8798 65.3625 88.3876 66.2423C88.8068 66.9683 68.2487 77.1539 68.6505 77.8496C69.1722 78.7532 88.0408 65.6299 88.4848 66.3985C88.9509 67.2053 69.2403 78.6186 69.6418 79.3139C70.0806 80.0743 88.7647 67.1445 89.2534 67.9913C89.6878 68.7438 69.8618 79.3273 70.2915 80.0717C70.7798 80.9171 89.0789 68.0351 89.5941 68.9274C90.0303 69.6826 69.9178 79.4059 70.3241 80.1099C70.768 80.8789 89.1223 68.1388 89.6062 68.9773C90.0967 69.8262 70.515 79.9354 70.9941 80.7656C71.3973 81.4639 89.351 69.0585 89.831 69.89C90.2937 70.6912 70.9325 80.3117 71.4012 81.1237C71.7983 81.812 89.4726 69.5663 89.9591 70.4091C90.3523 71.0905 71.0215 80.3924 71.4876 81.1996C71.8864 81.8901 89.4726 69.6448 89.9799 70.5232C90.3783 71.2129 71.9871 81.1671 72.3812 81.8502C72.8582 82.6765 89.6236 70.8644 90.0697 71.6377C90.4256 72.2536 72.5865 81.5824 72.9714 82.249C73.4358 83.0528 89.7069 71.6173 90.127 72.3443C90.5103 73.0079 74.6667 82.5941 75.006 83.1821C75.3611 83.7971 89.5259 73.8754 89.9261 74.5681C90.2637 75.1527 75.3298 82.8467 75.6531 83.407C76.0442 84.084 89.4005 74.5764 89.7876 75.2464C90.1162 75.815 76.7572 83.1769 77.078 83.7329C77.3848 84.2645 89.0507 76.0993 89.3632 76.64C89.624 77.0918 79.1264 83.4881 79.366 83.9034C79.5895 84.2901 88.1354 78.2593 88.3871 78.695C88.5859 79.0396 80.2188 83.4747 80.4172 83.8184C80.6038 84.1413 87.6207 79.2236 87.8095 79.5504C87.9171 79.737 84.0042 82.6631 84.0936 82.8184C84.1496 82.9157 85.2016 82.0524 85.2562 82.1471" stroke="#263238" stroke-width="0.72" stroke-linecap="round" stroke-linejoin="round"/>
<path d="M75.2469 69.1448H72.7388V77.2467H75.2469V69.1448Z" fill="white"/>
<path d="M73.9809 68.0841C74.7999 68.0841 75.4639 67.414 75.4639 66.5889C75.4639 65.7635 74.8003 65.0942 73.9809 65.0942C73.1615 65.0942 72.4979 65.7639 72.4979 66.5889C72.4979 67.414 73.1615 68.0841 73.9809 68.0841Z" fill="white"/>
<path d="M79.2558 72.9935C79.2558 71.8547 79.78 71.1759 80.7839 71.1759C81.7061 71.1759 82.1492 71.8273 82.1492 72.9935C82.1492 74.1605 82.1492 77.2463 82.1492 77.2463H84.6452C84.6452 77.2463 84.6452 74.2868 84.6452 72.1164C84.6452 69.9464 83.4152 68.897 81.6974 68.897C79.9788 68.897 79.2558 70.2354 79.2558 70.2354V69.1444H76.8501V77.2463H79.2558C79.2558 77.2463 79.2558 74.2417 79.2558 72.9935Z" fill="white"/>
<path d="M54.5395 88.789C54.5933 88.8819 55.6553 88.0326 55.7039 88.1168C55.7742 88.2387 52.9371 90.0216 53.0127 90.1527C53.1424 90.3779 57.6352 87.1629 57.7745 87.4033C57.9433 87.6954 51.2871 91.8787 51.4559 92.1716C51.6629 92.5301 60.0929 86.6021 60.3455 87.0392C60.5873 87.458 50.1951 93.7275 50.4668 94.1984C50.791 94.7596 62.3003 86.6308 62.6188 87.1824C62.8901 87.6524 50.0749 94.1212 50.3366 94.5738C50.6782 95.1654 62.6883 86.7154 63.0033 87.2609C63.2985 87.7722 49.8436 94.4545 50.1773 95.0326C50.5428 95.6653 63.1253 86.7562 63.4721 87.3569C63.7993 87.9237 49.3914 96.72 49.7399 97.3232C50.173 98.0732 65.3213 87.4693 65.6928 88.1129C66.0435 88.72 49.3454 97.469 49.69 98.0654C50.0866 98.7524 65.9194 87.6915 66.3538 88.4445C66.7275 89.092 49.3862 98.8305 49.7377 99.4394C50.1257 100.111 67.1181 88.4458 67.5334 89.1649C68.0017 89.9765 49.5246 100.274 49.9616 101.031C50.4712 101.914 68.3164 89.3381 68.7912 90.1601C69.2013 90.8705 49.8371 101.487 50.2498 102.201C50.6691 102.927 69.2113 90.2829 69.6318 91.0111C70.071 91.7715 50.1383 102.275 50.5944 103.065C51.041 103.838 69.7525 90.8749 70.2416 91.7216C70.7285 92.5648 50.6014 103.338 51.0071 104.041C51.5492 104.979 70.3978 91.8262 70.8392 92.5905C71.2572 93.3144 50.9481 103.899 51.3661 104.623C51.8682 105.492 70.7567 92.4034 71.2003 93.172C71.6243 93.9063 51.7549 105.102 52.2063 105.884C52.7418 106.811 71.4273 93.8013 71.8539 94.5404C72.353 95.4049 52.5704 106.031 53.0608 106.88C53.5031 107.646 71.7701 94.8759 72.2909 95.7773C72.7124 96.5069 53.5625 107.035 53.9471 107.701C54.4088 108.501 72.1186 96.1484 72.5782 96.9448C73.0031 97.6804 53.7292 107.15 54.1523 107.882C54.6059 108.668 72.1755 96.4175 72.6342 97.2121C73.0266 97.8913 54.4605 107.658 54.9123 108.44C55.3133 109.135 72.3283 97.5007 72.7111 98.1639C73.0665 98.7797 55.8645 108.523 56.2907 109.261C56.7446 110.048 72.3882 99.1443 72.7445 99.7614C73.1346 100.437 57.8227 109.404 58.189 110.039C58.5245 110.62 72.0726 101.116 72.4654 101.796C72.8013 102.378 59.6815 109.902 60.0035 110.46C60.3108 110.992 71.6517 103.108 71.9233 103.578C72.212 104.078 60.3221 110.08 60.5729 110.515C60.8442 110.985 71.4104 103.575 71.7063 104.087C71.8847 104.396 64.5315 109.845 64.7307 110.19C64.8782 110.446 69.2759 107.271 69.4035 107.493C69.463 107.596 66.6819 109.379 66.7466 109.491C66.7943 109.573 67.855 108.725 67.9093 108.819" stroke="#263238" stroke-width="0.72" stroke-linecap="round" stroke-linejoin="round"/>
<path d="M61.2244 93.3569C62.9986 93.3569 63.2086 93.3638 63.9091 93.3955C64.5566 93.425 64.9086 93.5335 65.143 93.6242C65.4528 93.7449 65.6746 93.8885 65.9068 94.1212C66.1394 94.3538 66.2831 94.5751 66.4037 94.885C66.4949 95.1194 66.6029 95.4709 66.6325 96.1189C66.6646 96.8193 66.6711 97.0294 66.6711 98.8036C66.6711 100.578 66.6641 100.788 66.6325 101.488C66.6029 102.136 66.4944 102.488 66.4037 102.722C66.2831 103.032 66.1394 103.254 65.9068 103.486C65.6746 103.719 65.4528 103.862 65.143 103.983C64.9086 104.074 64.5571 104.182 63.9091 104.212C63.2086 104.244 62.9986 104.25 61.2244 104.25C59.4502 104.25 59.2401 104.243 58.5397 104.212C57.8921 104.182 57.5401 104.074 57.3058 103.983C56.9955 103.862 56.7741 103.718 56.5419 103.486C56.3098 103.253 56.1657 103.032 56.045 102.722C55.9543 102.488 55.8458 102.136 55.8163 101.488C55.7842 100.788 55.7777 100.578 55.7777 98.8036C55.7777 97.0294 55.7842 96.8193 55.8163 96.1189C55.8458 95.4709 55.9543 95.1194 56.045 94.885C56.1657 94.5751 56.3098 94.3538 56.5419 94.1212C56.7746 93.8885 56.9959 93.7449 57.3058 93.6242C57.5401 93.5331 57.8917 93.425 58.5397 93.3955C59.2401 93.3638 59.4506 93.3569 61.2244 93.3569ZM61.2244 92.1599C59.4198 92.1599 59.1937 92.1677 58.485 92.1998C57.778 92.232 57.2949 92.3444 56.8722 92.5088C56.4352 92.6785 56.0645 92.906 55.6952 93.2753C55.3259 93.6446 55.0985 94.0153 54.9288 94.4523C54.7643 94.875 54.6519 95.3581 54.6198 96.065C54.5872 96.7738 54.5798 96.9999 54.5798 98.8045C54.5798 100.609 54.5876 100.835 54.6198 101.544C54.6519 102.251 54.7643 102.734 54.9288 103.157C55.0985 103.594 55.3254 103.964 55.6952 104.334C56.0645 104.703 56.4348 104.93 56.8722 105.1C57.2949 105.264 57.778 105.377 58.485 105.409C59.1937 105.441 59.4198 105.449 61.2244 105.449C63.0289 105.449 63.2551 105.441 63.9638 105.409C64.6708 105.377 65.1538 105.265 65.5765 105.1C66.0136 104.93 66.3842 104.703 66.7535 104.334C67.1229 103.964 67.3503 103.594 67.52 103.157C67.684 102.734 67.7964 102.251 67.829 101.544C67.8611 100.835 67.8689 100.609 67.8689 98.8045C67.8689 96.9999 67.8611 96.7738 67.829 96.065C67.7964 95.3581 67.6845 94.875 67.52 94.4523C67.3503 94.0153 67.1229 93.6451 66.7535 93.2753C66.3842 92.906 66.0136 92.6785 65.5765 92.5088C65.1538 92.3448 64.6708 92.2324 63.9638 92.1998C63.2551 92.1677 63.0289 92.1599 61.2244 92.1599Z" fill="white"/>
<path d="M61.2244 95.3923C59.3404 95.3923 57.8127 96.92 57.8127 98.804C57.8127 100.688 59.3404 102.216 61.2244 102.216C63.1088 102.216 64.6361 100.688 64.6361 98.804C64.6365 96.9196 63.1088 95.3923 61.2244 95.3923ZM61.2244 101.019C60.0014 101.019 59.0097 100.027 59.0097 98.804C59.0097 97.581 60.001 96.5893 61.2244 96.5893C62.4474 96.5893 63.4391 97.581 63.4391 98.804C63.4391 100.027 62.4479 101.019 61.2244 101.019Z" fill="white"/>
<path d="M65.5683 95.2575C65.5683 95.6975 65.2115 96.0547 64.771 96.0547C64.3305 96.0547 63.9738 95.6975 63.9738 95.2575C63.9738 94.8174 64.3309 94.4602 64.771 94.4602C65.2115 94.4602 65.5683 94.817 65.5683 95.2575Z" fill="white"/>
</svg>
