<svg width="175" height="175" viewBox="0 0 175 175" fill="none" xmlns="http://www.w3.org/2000/svg">
<g clip-path="url(#clip0_66_491)">
<path fill-rule="evenodd" clip-rule="evenodd" d="M162.359 43.5147C186.383 85.1261 172.126 138.334 130.515 162.359C88.9032 186.383 35.6949 172.126 11.6704 130.515C-12.3541 88.9032 1.90301 35.6949 43.5147 11.6704C85.1261 -12.3541 138.334 1.90301 162.359 43.5147Z" fill="#6962D5"/>
<path d="M117.489 47.7197L126.884 63.993C126.905 64.0288 126.932 64.0634 126.95 64.1001L136.368 80.4114C136.866 81.2749 136.575 82.3789 135.712 82.8774C135.682 82.8949 135.651 82.9111 135.621 82.9266C134.929 83.3471 134.355 83.9324 133.955 84.6251C133.554 85.3198 133.324 86.1354 133.324 87.0146C133.324 87.8937 133.554 88.7093 133.955 89.404C134.372 90.1267 134.979 90.7326 135.711 91.1563C136.574 91.6555 136.871 92.7564 136.372 93.6192C136.351 93.6546 136.33 93.689 136.307 93.7224L126.889 110.036C126.86 110.085 126.834 110.134 126.802 110.179L117.407 126.451C116.909 127.315 115.81 127.617 114.946 127.119C114.915 127.101 114.885 127.082 114.856 127.063C114.529 126.883 114.174 126.74 113.798 126.64C113.409 126.535 112.993 126.48 112.558 126.48C111.239 126.48 110.044 127.014 109.18 127.879C108.316 128.743 107.781 129.937 107.781 131.256C107.781 132.253 106.973 133.061 105.976 133.061H87.0147H68.0534C67.0565 133.061 66.2482 132.253 66.2482 131.256C66.2482 129.937 65.7136 128.743 64.8493 127.879C63.9851 127.014 62.7908 126.48 61.4718 126.48C61.0366 126.48 60.6208 126.535 60.2314 126.64C59.8204 126.75 59.4351 126.91 59.0831 127.114C58.2203 127.613 57.1173 127.322 56.618 126.46C56.5895 126.41 56.5636 126.36 56.5402 126.309L47.145 110.036C47.1243 110 47.097 109.966 47.0791 109.929L37.6616 93.6177C37.1631 92.7542 37.454 91.6502 38.3175 91.1517C38.3476 91.1342 38.3781 91.1179 38.4087 91.1025C39.1002 90.682 39.6749 90.0967 40.0747 89.404C40.4756 88.7093 40.7052 87.8937 40.7052 87.0145C40.7052 86.1354 40.4756 85.3198 40.0747 84.625C39.6576 83.9023 39.0502 83.2964 38.3181 82.8728C37.4552 82.3736 37.1583 81.2727 37.6576 80.4098C37.678 80.3745 37.6996 80.3401 37.7221 80.3067L47.1407 63.9933C47.169 63.9443 47.1956 63.8952 47.2275 63.85L56.6222 47.5779C57.1207 46.7145 58.2198 46.4117 59.0832 46.9101C59.1141 46.928 59.1442 46.9466 59.1736 46.966C59.5007 47.1456 59.8554 47.2888 60.2315 47.3895C60.6208 47.4936 61.0366 47.5492 61.4719 47.5492C62.7908 47.5492 63.9852 47.0147 64.8494 46.1505C65.7137 45.2862 66.2482 44.0919 66.2482 42.773C66.2482 41.7759 67.0565 40.9677 68.0535 40.9677H87.0148H105.976C106.973 40.9677 107.781 41.7759 107.781 42.773C107.781 44.0919 108.316 45.2862 109.18 46.1505C110.044 47.0147 111.239 47.5492 112.558 47.5492C112.993 47.5492 113.409 47.4936 113.798 47.3895C114.209 47.2795 114.594 47.1187 114.946 46.9151C115.809 46.4159 116.912 46.7066 117.411 47.5695C117.44 47.6189 117.466 47.6689 117.489 47.7197ZM123.771 65.7894L115.097 50.7654C114.975 50.804 114.853 50.84 114.729 50.873C114.03 51.06 113.302 51.1597 112.558 51.1597C110.242 51.1597 108.145 50.2209 106.627 48.7032C105.516 47.5916 104.715 46.1694 104.366 44.5781H87.0148H69.6638C69.3147 46.1694 68.5137 47.5915 67.4021 48.7032C65.8844 50.2209 63.7875 51.1597 61.4719 51.1597C60.7274 51.1597 59.9992 51.06 59.3007 50.873C59.177 50.84 59.0543 50.804 58.9329 50.7654L50.3408 65.6475C50.3177 65.6978 50.2921 65.7476 50.2639 65.7964L41.5811 80.8266C42.2136 81.4061 42.7582 82.0829 43.1917 82.8339C43.9065 84.0726 44.3158 85.501 44.3158 87.0146C44.3158 88.5281 43.9065 89.9565 43.1917 91.1953C42.7582 91.9463 42.2136 92.623 41.5811 93.2025L50.1983 108.128C50.2212 108.162 50.2431 108.197 50.2639 108.233L58.9329 123.264C59.0543 123.225 59.1771 123.189 59.3007 123.156C59.9992 122.969 60.7274 122.869 61.4719 122.869C63.7875 122.869 65.8844 123.808 67.4021 125.326C68.5137 126.438 69.3147 127.86 69.6638 129.451H87.0148H104.366C104.715 127.86 105.516 126.438 106.627 125.326C108.145 123.808 110.242 122.869 112.558 122.869C113.302 122.869 114.03 122.969 114.729 123.156C114.853 123.189 114.975 123.225 115.097 123.264L123.689 108.382C123.712 108.331 123.737 108.282 123.766 108.233L132.448 93.2025C131.816 92.623 131.271 91.9463 130.838 91.1953C130.123 89.9566 129.714 88.5281 129.714 87.0146C129.714 85.501 130.123 84.0726 130.838 82.8339C131.271 82.0829 131.816 81.4061 132.448 80.8266L123.831 65.9011C123.808 65.8671 123.791 65.8253 123.771 65.7894Z" fill="#FEFEFE"/>
<path d="M35.9287 78.6276C38.2444 78.6276 40.3412 79.5665 41.859 81.0842C43.3766 82.6019 44.3156 84.6986 44.3156 87.0144C44.3156 89.3302 43.3766 91.4269 41.859 92.9446C40.3412 94.4623 38.2444 95.4013 35.9287 95.4013C33.6129 95.4013 31.5164 94.4623 29.9985 92.9446C28.4808 91.4269 27.542 89.3302 27.542 87.0144C27.542 84.6986 28.4808 82.6019 29.9985 81.0842C31.5164 79.5665 33.6129 78.6276 35.9287 78.6276ZM39.3062 83.6369C38.4421 82.7726 37.2478 82.2381 35.9287 82.2381C34.6097 82.2381 33.4154 82.7726 32.5512 83.6369C31.6869 84.5011 31.1524 85.6953 31.1524 87.0144C31.1524 88.3335 31.6869 89.5277 32.5512 90.3919C33.4154 91.2562 34.6097 91.7908 35.9287 91.7908C37.2478 91.7908 38.442 91.2562 39.3062 90.3919C40.1705 89.5277 40.7051 88.3335 40.7051 87.0144C40.7051 85.6953 40.1705 84.5011 39.3062 83.6369Z" fill="#FEFEFE"/>
<path d="M61.4718 122.869C63.7874 122.869 65.8843 123.808 67.402 125.326C68.9197 126.844 69.8587 128.941 69.8587 131.256C69.8587 133.572 68.9197 135.669 67.402 137.186C65.8843 138.704 63.7874 139.643 61.4718 139.643C59.156 139.643 57.0593 138.704 55.5416 137.186C54.0239 135.669 53.085 133.572 53.085 131.256C53.085 128.941 54.0239 126.844 55.5416 125.326C57.0593 123.808 59.156 122.869 61.4718 122.869ZM64.8493 127.879C63.9851 127.014 62.7908 126.48 61.4718 126.48C60.1527 126.48 58.9585 127.014 58.0943 127.879C57.23 128.743 56.6955 129.937 56.6955 131.256C56.6955 132.575 57.23 133.769 58.0943 134.634C58.9585 135.498 60.1527 136.032 61.4718 136.032C62.7908 136.032 63.9851 135.498 64.8493 134.634C65.7136 133.769 66.2482 132.575 66.2482 131.256C66.2482 129.937 65.7136 128.743 64.8493 127.879Z" fill="#FEFEFE"/>
<path d="M61.4718 34.386C63.7874 34.386 65.8843 35.3248 67.402 36.8425C68.9197 38.3604 69.8587 40.457 69.8587 42.7728C69.8587 45.0885 68.9197 47.1852 67.402 48.7031C65.8843 50.2207 63.7874 51.1596 61.4718 51.1596C59.156 51.1596 57.0593 50.2207 55.5416 48.7031C54.0239 47.1852 53.085 45.0884 53.085 42.7728C53.085 40.457 54.0239 38.3604 55.5416 36.8425C57.0593 35.3248 59.156 34.386 61.4718 34.386ZM64.8493 39.3952C63.9851 38.531 62.7908 37.9965 61.4718 37.9965C60.1527 37.9965 58.9585 38.531 58.0943 39.3952C57.23 40.2595 56.6955 41.4537 56.6955 42.7728C56.6955 44.0918 57.23 45.286 58.0943 46.1503C58.9585 47.0145 60.1527 47.5491 61.4718 47.5491C62.7908 47.5491 63.9851 47.0145 64.8493 46.1503C65.7136 45.286 66.2482 44.0918 66.2482 42.7728C66.2482 41.4537 65.7136 40.2595 64.8493 39.3952Z" fill="#FEFEFE"/>
<path d="M112.558 34.386C114.873 34.386 116.97 35.3248 118.488 36.8425C120.005 38.3604 120.944 40.457 120.944 42.7728C120.944 45.0885 120.005 47.1852 118.488 48.7031C116.97 50.2207 114.873 51.1596 112.558 51.1596C110.242 51.1596 108.145 50.2207 106.627 48.7031C105.11 47.1852 104.171 45.0884 104.171 42.7728C104.171 40.457 105.11 38.3604 106.627 36.8425C108.145 35.3248 110.242 34.386 112.558 34.386ZM115.935 39.3952C115.071 38.531 113.877 37.9965 112.558 37.9965C111.239 37.9965 110.044 38.531 109.18 39.3952C108.316 40.2595 107.781 41.4537 107.781 42.7728C107.781 44.0918 108.316 45.286 109.18 46.1503C110.044 47.0145 111.239 47.5491 112.558 47.5491C113.877 47.5491 115.071 47.0145 115.935 46.1503C116.799 45.286 117.334 44.0918 117.334 42.7728C117.334 41.4537 116.799 40.2595 115.935 39.3952Z" fill="#FEFEFE"/>
<path d="M138.101 78.6276C140.417 78.6276 142.513 79.5665 144.031 81.0842C145.549 82.6019 146.487 84.6986 146.487 87.0144C146.487 89.3302 145.549 91.4269 144.031 92.9446C142.513 94.4623 140.417 95.4013 138.101 95.4013C135.785 95.4013 133.688 94.4623 132.17 92.9446C130.653 91.4269 129.714 89.3302 129.714 87.0144C129.714 84.6986 130.653 82.6019 132.17 81.0842C133.688 79.5665 135.785 78.6276 138.101 78.6276ZM141.478 83.6369C140.614 82.7726 139.42 82.2381 138.101 82.2381C136.782 82.2381 135.587 82.7726 134.723 83.6369C133.859 84.5011 133.324 85.6953 133.324 87.0144C133.324 88.3335 133.859 89.5277 134.723 90.3919C135.587 91.2562 136.782 91.7908 138.101 91.7908C139.42 91.7908 140.614 91.2562 141.478 90.3919C142.343 89.5277 142.877 88.3335 142.877 87.0144C142.877 85.6953 142.343 84.5011 141.478 83.6369Z" fill="#FEFEFE"/>
<path d="M112.558 122.869C114.873 122.869 116.97 123.808 118.488 125.326C120.005 126.844 120.944 128.941 120.944 131.256C120.944 133.572 120.005 135.669 118.488 137.186C116.97 138.704 114.873 139.643 112.558 139.643C110.242 139.643 108.145 138.704 106.627 137.186C105.11 135.669 104.171 133.572 104.171 131.256C104.171 128.941 105.11 126.844 106.627 125.326C108.145 123.808 110.242 122.869 112.558 122.869ZM115.935 127.879C115.071 127.014 113.877 126.48 112.558 126.48C111.239 126.48 110.044 127.014 109.18 127.879C108.316 128.743 107.781 129.937 107.781 131.256C107.781 132.575 108.316 133.769 109.18 134.634C110.044 135.498 111.239 136.032 112.558 136.032C113.877 136.032 115.071 135.498 115.935 134.634C116.799 133.769 117.334 132.575 117.334 131.256C117.334 129.937 116.799 128.743 115.935 127.879Z" fill="#FEFEFE"/>
<path d="M71.6574 79.1366H102.372C103.369 79.1366 104.177 79.9448 104.177 80.9418V108.209C104.177 109.206 103.369 110.014 102.372 110.014H71.6574C70.6604 110.014 69.8522 109.206 69.8522 108.209V80.9418C69.8522 79.9448 70.6604 79.1366 71.6574 79.1366ZM100.566 82.747H73.4625V106.403H100.566V82.747Z" fill="#FEFEFE"/>
<path d="M87.0147 64.0151C90.3179 64.0151 93.2478 66.0091 95.3198 69.2367C97.2349 72.2197 98.4274 76.3144 98.4493 80.817L98.4561 80.8617C98.4563 80.8843 98.4565 80.9068 98.4559 80.9291C98.4629 81.926 97.6616 82.74 96.6647 82.7469L77.3774 82.747C76.3803 82.747 75.5721 81.9387 75.5721 80.9418L75.5727 80.8964C75.5732 80.8453 75.5757 80.7946 75.5803 80.7445C75.6147 76.2915 76.7969 72.239 78.6906 69.2731C80.7651 66.0242 83.7032 64.0151 87.0147 64.0151ZM92.2875 71.1831C90.876 68.9842 89.0082 67.6255 87.0147 67.6255C85.0105 67.6255 83.1353 68.9933 81.7229 71.2051C80.4008 73.2757 79.5023 76.0356 79.2489 79.1365H94.7798C94.5248 76.0262 93.6193 73.2575 92.2875 71.1831Z" fill="#FEFEFE"/>
<path d="M88.82 93.0871C88.82 92.0901 88.0117 91.2818 87.0147 91.2818C86.0178 91.2818 85.2095 92.0901 85.2095 93.0871V98.1408C85.2095 99.1378 86.0178 99.946 87.0147 99.946C88.0117 99.946 88.82 99.1378 88.82 98.1408V93.0871Z" fill="#FEFEFE"/>
</g>
<defs>
<clipPath id="clip0_66_491">
<rect width="174.029" height="174.029" fill="white"/>
</clipPath>
</defs>
</svg>
