<svg width="204" height="204" viewBox="0 0 204 204" fill="none" xmlns="http://www.w3.org/2000/svg">
<path d="M102 194.995C155.086 194.995 198.121 170.149 198.121 139.5C198.121 108.85 155.086 84.0043 102 84.0043C48.914 84.0043 5.87927 108.85 5.87927 139.5C5.87927 170.149 48.914 194.995 102 194.995Z" fill="#F0F0F0"/>
<path d="M82.1087 181.555C100.415 181.555 115.255 172.987 115.255 162.418C115.255 151.849 100.415 143.281 82.1087 143.281C63.8025 143.281 48.9624 151.849 48.9624 162.418C48.9624 172.987 63.8025 181.555 82.1087 181.555Z" fill="#E0E0E0"/>
<path d="M176.369 138.476L172.482 136.232C172.482 136.232 171.53 127.908 172.163 121.462C173.053 112.404 178.904 101.504 185.883 104.064C192.862 106.623 182.683 115.849 180.417 123.532C178.151 131.215 176.369 138.476 176.369 138.476Z" fill="#6962D5"/>
<path opacity="0.15" d="M176.369 138.476L172.482 136.232C172.482 136.232 171.53 127.908 172.163 121.462C173.053 112.404 178.904 101.504 185.883 104.064C192.862 106.623 182.683 115.849 180.417 123.532C178.151 131.215 176.369 138.476 176.369 138.476Z" fill="black"/>
<path d="M174.325 137.532C174.327 137.532 174.33 137.532 174.333 137.532C174.463 137.527 174.564 137.419 174.56 137.289C173.877 117.161 183.897 107.036 183.998 106.936C184.091 106.845 184.092 106.696 184.001 106.604C183.909 106.511 183.76 106.51 183.668 106.601C183.565 106.703 173.4 116.973 174.089 137.306C174.094 137.432 174.198 137.532 174.325 137.532Z" fill="white"/>
<path d="M178.812 139.876L176.046 138.279C176.046 138.279 175.576 132.567 178.376 125.628C180.814 119.587 186.864 114.576 189.906 115.629C192.949 116.682 192.873 118.839 191.39 121.103C189.907 123.366 180.882 128.76 178.812 139.876Z" fill="#6962D5"/>
<path d="M177.354 139.269H177.355C177.485 139.268 177.59 139.163 177.589 139.033C177.534 126.306 189.484 117.705 189.605 117.619C189.711 117.544 189.736 117.398 189.661 117.291C189.586 117.186 189.44 117.159 189.333 117.236C189.21 117.322 177.062 126.066 177.118 139.035C177.119 139.164 177.224 139.269 177.354 139.269Z" fill="white"/>
<path d="M32.5013 133.476L36.0901 131.054C36.0901 131.054 37.6699 121.651 36.2023 113.392C34.1386 101.78 26.1304 97.9155 23.2728 99.1289C20.4151 100.342 19.8043 103.806 25.1361 110.435C28.2818 114.346 32.3911 122.664 32.5013 133.476Z" fill="#6962D5"/>
<g opacity="0.15">
<path d="M32.5013 133.476L36.0901 131.054C36.0901 131.054 37.6699 121.651 36.2023 113.392C34.1386 101.78 26.1304 97.9155 23.2728 99.1289C20.4151 100.342 19.8043 103.806 25.1361 110.435C28.2818 114.346 32.3911 122.664 32.5013 133.476Z" fill="black"/>
</g>
<path d="M33.7339 128.824C33.7216 128.824 33.7098 128.824 33.698 128.822C33.5556 128.805 33.4532 128.676 33.4703 128.533C34.7665 117.6 30.1508 105.738 25.1308 101.018C25.0263 100.92 25.021 100.755 25.1198 100.65C25.2185 100.547 25.3829 100.541 25.4874 100.639C30.5988 105.445 35.3026 117.5 33.9868 128.595C33.9709 128.725 33.8612 128.822 33.7339 128.824Z" fill="white"/>
<path d="M23.101 139.817C22.5314 140.159 20.8664 138.924 20.4058 138.627C19.6171 138.12 18.9721 137.392 18.5367 136.563C18.0304 135.599 17.8872 134.558 18.019 133.478C18.0875 132.917 18.2332 132.37 18.3784 131.825C18.5212 131.29 18.664 130.754 18.8068 130.218C18.9476 129.69 19.09 129.144 19.01 128.603C18.8492 127.513 17.8647 126.767 16.9704 126.124C15.9814 125.413 14.948 124.469 14.928 123.154C14.9125 122.139 15.42 121.186 16.0332 120.378C16.6469 119.569 17.3792 118.852 17.9312 118C18.3286 117.386 18.6342 116.67 18.5534 115.943C18.5033 115.492 18.3078 115.07 18.0838 114.675C17.6028 113.828 16.9753 113.056 16.6371 112.142C16.2988 111.228 16.3225 110.083 17.0279 109.411C17.6069 108.859 18.4812 108.767 19.2797 108.804C20.0186 108.839 20.746 109.158 21.3984 109.504C23.5086 110.625 24.7481 113.074 26.9807 113.925C27.842 114.253 28.7796 114.311 29.6747 114.529C30.5699 114.747 31.487 115.185 31.9154 116.001C32.76 117.609 31.2896 119.64 31.8946 121.353C32.4299 122.87 33.924 123.425 34.7833 124.784C35.159 125.378 35.2566 126.072 35.2113 126.774C35.1346 127.962 34.9779 128.836 34.4344 130.166C33.9852 131.265 32.6511 133.376 32.6511 133.376C32.6511 133.376 23.1879 139.764 23.101 139.817Z" fill="#6962D5"/>
<path d="M28.6164 136.434C28.6127 136.434 28.6095 136.434 28.6095 136.434C28.4622 136.43 28.3487 136.311 28.3516 136.168C28.5817 125.839 23.4989 114.538 19.8983 111.296C19.7918 111.2 19.7828 111.036 19.8791 110.929C19.9754 110.822 20.1394 110.814 20.2463 110.91C23.9191 114.217 29.1048 125.705 28.8718 136.179C28.8681 136.32 28.7551 136.431 28.6164 136.434Z" fill="white"/>
<path d="M26.7134 123.85C26.6881 123.85 26.662 123.848 26.6367 123.84C23.3009 122.879 19.1646 122.778 19.1234 122.777C18.9798 122.774 18.866 122.655 18.8688 122.511C18.8721 122.368 18.9786 122.252 19.1348 122.256C19.1769 122.258 23.3789 122.36 26.7808 123.34C26.9187 123.38 26.9986 123.524 26.9586 123.662C26.9256 123.774 26.8244 123.848 26.7134 123.85Z" fill="white"/>
<path d="M122.873 126.376L121.325 125.481C120.837 125.199 120.442 124.514 120.442 123.951L120.442 59.6839C120.442 59.1204 120.837 58.4354 121.325 58.1539L164.306 33.3393C164.794 33.0578 165.584 33.0578 166.072 33.3393L167.621 34.2328C168.109 34.5144 168.504 35.1994 168.504 35.7628V100.029C168.504 100.593 168.109 101.278 167.621 101.559L124.639 126.376C124.151 126.658 123.36 126.657 122.873 126.376Z" fill="#455A64"/>
<path d="M168.497 35.6192C168.435 35.1623 168.064 34.995 167.619 35.252L124.641 60.0707C124.396 60.2135 124.18 60.4501 124.017 60.7276L120.699 58.814C120.859 58.5366 121.079 58.2959 121.324 58.1531L164.307 33.3385C164.792 33.057 165.584 33.057 166.073 33.3385L167.619 34.232C168.068 34.4891 168.44 35.0888 168.497 35.6192Z" fill="#455A64"/>
<path d="M124.49 126.447C124 126.655 123.315 126.631 122.874 126.378L121.324 125.48C120.838 125.198 120.442 124.513 120.442 123.95V59.6831C120.442 59.4015 120.54 59.0915 120.699 58.814L124.016 60.7275C123.853 61.005 123.755 61.3191 123.755 61.6007V125.868C123.755 126.374 124.074 126.606 124.49 126.447Z" fill="#263238"/>
<path d="M123.756 61.5999V125.866C123.756 126.43 124.151 126.658 124.639 126.376L167.621 101.56C168.109 101.278 168.504 100.593 168.504 100.03V35.7624C168.504 35.199 168.109 34.9709 167.621 35.2524L124.639 60.0699C124.152 60.3514 123.756 61.0364 123.756 61.5999Z" fill="#37474F"/>
<path d="M113.719 86.097C113.164 85.7666 110.589 84.3018 110.455 84.2243C110.047 83.9754 109.9 83.3716 110.279 82.9636L120.442 72.0618L123.755 73.9631L113.596 84.8689C113.229 85.2606 113.347 85.8278 113.719 86.097Z" fill="#455A64"/>
<path d="M123.756 73.9647L113.595 84.8677C113.086 85.414 113.516 86.3006 114.26 86.2394L123.756 85.4573V73.9647Z" fill="#37474F"/>
<path d="M146.13 54.3464C151.139 51.4541 155.2 53.7989 155.2 59.5831C155.2 65.3673 151.139 72.4009 146.13 75.2932C141.12 78.1855 137.059 75.8407 137.059 70.0565C137.06 64.2719 141.121 57.2384 146.13 54.3464Z" fill="#6962D5"/>
<path d="M146.066 58.8985C147.691 57.9601 149.009 58.7206 149.009 60.597C149.009 62.4738 147.692 64.7558 146.066 65.6938C144.441 66.6318 143.124 65.8716 143.124 63.9948C143.124 62.1185 144.441 59.8365 146.066 58.8985Z" fill="white"/>
<path d="M151.865 68.9047C151.865 65.8215 149.701 64.5717 147.031 66.1136L145.362 67.0773C142.692 68.6187 140.527 72.3678 140.527 75.4507V76.2916C141.01 76.4515 141.533 76.5306 142.086 76.5319C143.304 76.5343 144.675 76.1332 146.13 75.2932C148.306 74.0365 150.303 71.9973 151.865 69.6199V68.9047Z" fill="white"/>
<path d="M140.384 103.93L151.876 97.295C152.364 97.0135 152.759 97.2415 152.759 97.805V101.506C152.759 102.069 152.364 102.754 151.876 103.036L140.384 109.671C139.896 109.952 139.501 109.724 139.501 109.161V105.46C139.501 104.896 139.896 104.211 140.384 103.93Z" fill="#6962D5"/>
<path d="M134.76 95.6621L157.5 82.5335C158.085 82.1957 158.56 82.4694 158.56 83.1455V84.5229C158.56 85.199 158.085 86.0211 157.5 86.3589L134.76 99.4875C134.175 99.8254 133.7 99.5516 133.7 98.8755V97.4981C133.7 96.8221 134.175 96 134.76 95.6621Z" fill="#FAFAFA"/>
<path d="M137.419 86.1607C137.728 85.982 137.969 85.955 138.141 86.0811C138.312 86.2068 138.398 86.4858 138.398 86.9191C138.398 87.3528 138.312 87.7327 138.141 88.0599C137.969 88.3875 137.728 88.6405 137.419 88.8192L136.805 89.1733V90.4908C136.805 90.5344 136.795 90.5773 136.775 90.6205C136.754 90.6642 136.73 90.694 136.701 90.7099L136.391 90.8894C136.362 90.9061 136.338 90.9045 136.317 90.8845C136.297 90.8645 136.287 90.8335 136.287 90.7898V86.9734C136.287 86.9302 136.297 86.8865 136.317 86.8433C136.338 86.8004 136.362 86.7698 136.391 86.7539L137.419 86.1607ZM136.805 88.4349L137.4 88.0913C137.545 88.0073 137.662 87.8959 137.749 87.7568C137.836 87.618 137.879 87.4389 137.879 87.2182C137.879 86.9975 137.836 86.8698 137.749 86.8355C137.662 86.8012 137.545 86.8261 137.4 86.9106L136.805 87.2537V88.4349Z" fill="#FAFAFA"/>
<path d="M140.109 84.6074C140.15 84.5837 140.181 84.5825 140.201 84.6041C140.222 84.6262 140.24 84.6657 140.255 84.7241L141.195 87.9151C141.198 87.9253 141.199 87.9383 141.199 87.9542C141.199 87.9975 141.189 88.0407 141.168 88.084C141.148 88.1272 141.124 88.1574 141.095 88.1733L140.819 88.3328C140.768 88.3622 140.732 88.3663 140.711 88.3447C140.691 88.3231 140.677 88.299 140.669 88.2712L140.504 87.7111L139.292 88.4116L139.127 89.1623C139.119 89.1982 139.105 89.239 139.085 89.2843C139.064 89.3296 139.028 89.3667 138.977 89.3965L138.701 89.556C138.673 89.5719 138.648 89.5703 138.628 89.5503C138.607 89.5307 138.597 89.4993 138.597 89.4565C138.597 89.4406 138.598 89.4263 138.601 89.4128L139.541 85.1366C139.557 85.0603 139.574 85.0003 139.595 84.955C139.616 84.9101 139.646 84.8755 139.687 84.8518L140.109 84.6074ZM140.32 87.0795L139.898 85.6396L139.476 87.5666L140.32 87.0795Z" fill="#FAFAFA"/>
<path d="M142.626 83.095C142.798 82.9962 142.948 82.9444 143.079 82.9403C143.209 82.9354 143.318 82.9616 143.405 83.0174C143.492 83.0738 143.558 83.1529 143.603 83.2549C143.647 83.3569 143.672 83.4638 143.678 83.5748C143.68 83.6205 143.67 83.6645 143.649 83.7066C143.627 83.7482 143.602 83.7776 143.574 83.7939L143.305 83.9489C143.262 83.9746 143.23 83.9799 143.208 83.9673C143.186 83.9546 143.166 83.9314 143.148 83.8987C143.11 83.822 143.052 83.7702 142.974 83.7421C142.895 83.7147 142.78 83.7445 142.626 83.8334C142.56 83.8718 142.496 83.9195 142.436 83.9754C142.376 84.0321 142.323 84.0938 142.279 84.1611C142.234 84.228 142.199 84.299 142.173 84.3724C142.148 84.4467 142.135 84.5209 142.135 84.5956C142.135 84.6866 142.147 84.7535 142.171 84.7963C142.195 84.8392 142.236 84.8649 142.294 84.873C142.352 84.8816 142.428 84.8755 142.523 84.8563C142.617 84.8371 142.735 84.811 142.875 84.7767C143.029 84.7392 143.161 84.7233 143.273 84.7282C143.384 84.7331 143.474 84.7629 143.545 84.8188C143.616 84.8751 143.668 84.9559 143.702 85.0619C143.737 85.1684 143.754 85.3018 143.754 85.463C143.754 85.6405 143.729 85.8196 143.678 86.0007C143.627 86.1815 143.553 86.3537 143.459 86.5169C143.364 86.6797 143.248 86.8327 143.109 86.9755C142.971 87.1183 142.816 87.239 142.645 87.3382C142.501 87.421 142.365 87.4736 142.234 87.4953C142.104 87.5177 141.988 87.5079 141.887 87.4659C141.786 87.4234 141.705 87.3496 141.643 87.2431C141.582 87.1366 141.547 86.9991 141.54 86.8302C141.537 86.7845 141.547 86.7405 141.568 86.6984C141.59 86.6568 141.615 86.6274 141.643 86.6111L141.912 86.4561C141.955 86.4304 141.988 86.4234 142.011 86.4336C142.035 86.4438 142.053 86.4683 142.069 86.5063C142.087 86.5479 142.109 86.5862 142.135 86.6225C142.16 86.6588 142.194 86.6841 142.238 86.6984C142.281 86.7127 142.336 86.7135 142.401 86.7021C142.466 86.6899 142.547 86.656 142.645 86.5993C142.721 86.5556 142.795 86.5038 142.867 86.4442C142.939 86.3855 143.002 86.3194 143.055 86.2472C143.109 86.175 143.152 86.0991 143.186 86.0183C143.219 85.9379 143.235 85.8526 143.235 85.7617C143.235 85.6756 143.217 85.6152 143.182 85.5805C143.146 85.5458 143.091 85.5303 143.019 85.5332C142.946 85.5356 142.856 85.5503 142.748 85.5768C142.641 85.6029 142.517 85.6299 142.376 85.6556C142.248 85.6821 142.136 85.6907 142.04 85.6813C141.944 85.6719 141.865 85.6376 141.802 85.5793C141.74 85.5209 141.693 85.4365 141.662 85.3263C141.632 85.2158 141.617 85.0725 141.617 84.8947C141.617 84.7176 141.642 84.5393 141.693 84.3606C141.744 84.1815 141.815 84.0122 141.905 83.8547C141.994 83.6964 142.101 83.5511 142.225 83.4189C142.349 83.2855 142.483 83.1778 142.626 83.095Z" fill="#FAFAFA"/>
<path d="M145.304 81.549C145.476 81.4503 145.627 81.3985 145.757 81.394C145.887 81.3895 145.996 81.4152 146.084 81.4711C146.17 81.5274 146.236 81.6066 146.281 81.7086C146.325 81.811 146.35 81.9179 146.356 82.0284C146.358 82.0745 146.349 82.1186 146.327 82.1602C146.305 82.2022 146.28 82.2316 146.252 82.2475L145.983 82.403C145.939 82.4283 145.907 82.434 145.886 82.4213C145.864 82.4083 145.844 82.385 145.826 82.3524C145.788 82.2765 145.73 82.2239 145.652 82.1957C145.574 82.1684 145.458 82.1982 145.304 82.2871C145.238 82.3259 145.175 82.3732 145.115 82.4295C145.054 82.4862 145.002 82.5474 144.957 82.6147C144.912 82.6821 144.877 82.7526 144.851 82.8265C144.826 82.9003 144.813 82.9746 144.813 83.0497C144.813 83.1406 144.825 83.2072 144.849 83.25C144.874 83.2936 144.914 83.3189 144.972 83.3271C145.03 83.3353 145.106 83.3295 145.201 83.3104C145.295 83.2912 145.413 83.2651 145.554 83.2308C145.707 83.1933 145.839 83.1774 145.951 83.1819C146.062 83.1867 146.153 83.2165 146.223 83.2724C146.294 83.3291 146.346 83.4095 146.381 83.5156C146.415 83.6225 146.432 83.7555 146.432 83.9171C146.432 84.0941 146.407 84.2732 146.356 84.4548C146.305 84.6356 146.231 84.8077 146.137 84.9705C146.043 85.1337 145.926 85.2863 145.788 85.4295C145.65 85.5723 145.495 85.6931 145.324 85.7918C145.18 85.8747 145.043 85.9273 144.913 85.9493C144.783 85.9718 144.667 85.9616 144.566 85.9195C144.465 85.8775 144.383 85.8037 144.322 85.6968C144.261 85.5903 144.226 85.4528 144.218 85.2839C144.216 85.2382 144.225 85.1941 144.247 85.1525C144.268 85.1101 144.293 85.0811 144.322 85.0648L144.59 84.9097C144.633 84.8844 144.667 84.8771 144.69 84.8877C144.713 84.8979 144.732 84.922 144.748 84.9603C144.766 85.0015 144.788 85.0399 144.813 85.0766C144.839 85.1125 144.873 85.1378 144.917 85.1525C144.96 85.1668 145.015 85.1676 145.079 85.1562C145.145 85.1439 145.225 85.1101 145.323 85.0538C145.4 85.0097 145.474 84.9583 145.546 84.8983C145.617 84.84 145.68 84.7739 145.734 84.7017C145.787 84.629 145.831 84.5535 145.864 84.4728C145.897 84.3928 145.914 84.3075 145.914 84.2165C145.914 84.13 145.896 84.0697 145.86 84.035C145.824 84.0007 145.77 83.9848 145.697 83.9877C145.625 83.9905 145.534 84.0048 145.427 84.0313C145.319 84.0578 145.195 84.0843 145.055 84.1105C144.927 84.1366 144.815 84.1455 144.719 84.1362C144.623 84.1264 144.543 84.0925 144.481 84.0342C144.418 83.9758 144.372 83.8914 144.341 83.7808C144.31 83.6706 144.295 83.527 144.295 83.3495C144.295 83.1725 144.321 82.9942 144.372 82.8151C144.423 82.6359 144.494 82.467 144.583 82.3091C144.673 82.1508 144.779 82.006 144.904 81.8734C145.028 81.7396 145.161 81.6319 145.304 81.549Z" fill="#FAFAFA"/>
<path d="M148.278 82.0594L147.948 84.0162C147.935 84.0823 147.919 84.1402 147.9 84.1884C147.881 84.2369 147.852 84.2724 147.814 84.2945L147.503 84.474C147.464 84.496 147.434 84.4952 147.412 84.4695C147.39 84.4446 147.376 84.405 147.369 84.3508L146.877 80.9068C146.875 80.8885 146.873 80.8734 146.873 80.862C146.873 80.8187 146.884 80.7751 146.904 80.7318C146.924 80.6886 146.948 80.6584 146.977 80.6425L147.261 80.4784C147.286 80.4642 147.311 80.4617 147.334 80.4719C147.357 80.4821 147.372 80.5143 147.38 80.5694L147.702 82.8881L147.986 81.1468C147.991 81.1162 148.003 81.0733 148.023 81.019C148.042 80.9648 148.074 80.9244 148.12 80.8975L148.435 80.7159C148.481 80.6894 148.514 80.6922 148.533 80.7245C148.552 80.7567 148.564 80.7849 148.569 80.8093L148.853 82.2231L149.175 79.5323C149.183 79.4686 149.199 79.4189 149.221 79.3813C149.244 79.3446 149.269 79.3185 149.294 79.3042L149.578 79.1402C149.606 79.1243 149.631 79.1259 149.651 79.1459C149.671 79.1655 149.682 79.1969 149.682 79.2402C149.682 79.2516 149.68 79.2683 149.678 79.2891L149.187 83.3006C149.179 83.3642 149.164 83.4209 149.143 83.4707C149.121 83.5205 149.091 83.5568 149.053 83.5792L148.742 83.7584C148.703 83.7808 148.674 83.7788 148.655 83.7522C148.636 83.7257 148.62 83.687 148.607 83.6351L148.278 82.0594Z" fill="#FAFAFA"/>
<path d="M150.189 80.3299C150.197 80.1051 150.224 79.8811 150.271 79.6587C150.319 79.4364 150.388 79.2267 150.481 79.03C150.573 78.8334 150.688 78.6522 150.826 78.4882C150.964 78.3234 151.128 78.1871 151.317 78.0773C151.504 77.9692 151.666 77.917 151.804 77.9198C151.942 77.9231 152.057 77.9709 152.15 78.0635C152.242 78.1561 152.312 78.285 152.361 78.4494C152.409 78.6147 152.438 78.8068 152.445 79.0268C152.448 79.1006 152.45 79.1822 152.451 79.2716C152.452 79.3613 152.453 79.4543 152.453 79.551C152.453 79.6477 152.452 79.7416 152.451 79.8326C152.45 79.9244 152.448 80.008 152.445 80.0839C152.437 80.3095 152.41 80.5327 152.363 80.755C152.316 80.9774 152.246 81.1871 152.154 81.3838C152.061 81.5804 151.946 81.7608 151.807 81.924C151.667 82.0872 151.504 82.2226 151.317 82.3303C151.128 82.4397 150.964 82.4927 150.826 82.4903C150.688 82.487 150.573 82.4405 150.481 82.3495C150.388 82.2593 150.319 82.1304 150.271 81.9623C150.224 81.795 150.197 81.6029 150.189 81.387C150.186 81.3136 150.184 81.2324 150.183 81.1418C150.181 81.0521 150.181 80.959 150.181 80.8628C150.181 80.7665 150.181 80.6722 150.183 80.5808C150.184 80.4898 150.186 80.4062 150.189 80.3299ZM151.927 79.3556C151.917 79.0778 151.858 78.8929 151.749 78.7999C151.64 78.7073 151.496 78.7122 151.317 78.8158C151.138 78.9194 150.994 79.0802 150.885 79.2989C150.776 79.5172 150.716 79.7705 150.706 80.0602C150.701 80.2128 150.698 80.3809 150.698 80.5641C150.698 80.7473 150.701 80.9117 150.706 81.0586C150.716 81.3364 150.776 81.5204 150.885 81.611C150.994 81.702 151.137 81.6955 151.317 81.5923C151.496 81.489 151.64 81.3291 151.749 81.1129C151.858 80.8962 151.917 80.6437 151.927 80.354C151.933 80.2014 151.935 80.0337 151.935 79.8505C151.935 79.6673 151.933 79.5029 151.927 79.3556Z" fill="#FAFAFA"/>
<path d="M154.237 76.4507C154.556 76.2662 154.799 76.2401 154.966 76.3727C155.132 76.5053 155.215 76.7742 155.215 77.1802C155.215 77.4678 155.172 77.7371 155.087 77.9896C155.001 78.2418 154.875 78.4654 154.709 78.66L155.238 79.8134C155.246 79.8326 155.25 79.8522 155.25 79.8721C155.25 79.9072 155.241 79.9423 155.224 79.9782C155.208 80.0133 155.188 80.0374 155.165 80.0509L154.838 80.2389C154.787 80.2683 154.749 80.2716 154.725 80.2483C154.701 80.2242 154.684 80.2006 154.674 80.1749L154.171 79.088L153.661 79.383V80.7595C153.661 80.8028 153.651 80.846 153.63 80.8889C153.609 80.9325 153.586 80.9623 153.557 80.979L153.246 81.1582C153.218 81.1741 153.194 81.1724 153.173 81.1524C153.152 81.1329 153.143 81.1019 153.143 81.0586V77.2422C153.143 77.1985 153.152 77.1553 153.173 77.1124C153.194 77.0688 153.218 77.039 153.246 77.0223L154.237 76.4507ZM153.661 78.6441L154.217 78.323C154.363 78.2389 154.48 78.132 154.567 78.0031C154.654 77.8746 154.697 77.6995 154.697 77.4788C154.697 77.2585 154.653 77.1357 154.567 77.1112C154.479 77.0867 154.363 77.1165 154.217 77.201L153.661 77.5221V78.6441Z" fill="#FAFAFA"/>
<path d="M156.958 74.8799C157.147 74.7705 157.311 74.7142 157.45 74.7101C157.59 74.7069 157.706 74.7489 157.8 74.837C157.894 74.9247 157.965 75.0545 158.015 75.2267C158.064 75.3988 158.094 75.6061 158.105 75.848C158.115 76.1332 158.115 76.425 158.105 76.7224C158.095 76.9766 158.064 77.2185 158.015 77.4478C157.965 77.6779 157.894 77.8897 157.802 78.0851C157.709 78.2801 157.595 78.4552 157.458 78.611C157.321 78.7673 157.161 78.8978 156.976 79.0043L156.009 79.5625C155.981 79.5788 155.957 79.5772 155.936 79.5572C155.916 79.5376 155.906 79.5066 155.906 79.4629V75.6465C155.906 75.6037 155.916 75.5596 155.936 75.5167C155.957 75.4735 155.981 75.4433 156.009 75.427L156.958 74.8799ZM157.587 76.1471C157.581 76.0243 157.566 75.9162 157.539 75.8236C157.512 75.7309 157.472 75.6591 157.42 75.609C157.367 75.5584 157.302 75.5339 157.223 75.5339C157.143 75.5347 157.048 75.5665 156.939 75.6302L156.425 75.9268V78.5853L156.958 78.2777C157.063 78.2173 157.153 78.1422 157.231 78.0521C157.307 77.9627 157.371 77.864 157.422 77.755C157.473 77.6465 157.512 77.5298 157.539 77.4042C157.566 77.2781 157.582 77.1508 157.587 77.0223C157.597 76.724 157.597 76.4331 157.587 76.1471Z" fill="#FAFAFA"/>
<path d="M100.93 15.6651C101.643 15.823 102.315 16.0756 102.946 16.422C103.577 16.7688 104.112 17.1935 104.55 17.6962C104.988 18.1984 105.303 18.7696 105.495 19.4094C105.688 20.0483 105.702 20.7403 105.537 21.4832C105.403 22.0899 105.191 22.5967 104.903 23.0018C104.614 23.4073 104.282 23.7558 103.907 24.0463C103.533 24.3372 103.138 24.5922 102.724 24.8105C102.309 25.0291 101.916 25.2368 101.548 25.4327C101.177 25.6293 100.843 25.8464 100.544 26.0822C100.245 26.3184 100.036 26.5987 99.9168 26.9223C99.849 27.0826 99.7491 27.2111 99.6165 27.3086C99.4831 27.407 99.3333 27.4368 99.1665 27.4004L97.4369 27.0173C97.2701 26.9806 97.1354 26.8876 97.0338 26.737C96.9318 26.5873 96.907 26.431 96.9588 26.2674C97.1203 25.6824 97.3598 25.1903 97.6793 24.7917C97.9984 24.3931 98.3525 24.0499 98.7426 23.7619C99.1326 23.4743 99.5377 23.2262 99.958 23.0169C100.378 22.8072 100.769 22.6036 101.132 22.4053C101.494 22.2074 101.803 21.9969 102.058 21.7753C102.315 21.5538 102.478 21.2833 102.548 20.9647C102.676 20.3886 102.539 19.8606 102.135 19.3812C101.732 18.9022 101.128 18.5738 100.324 18.3955C99.0351 18.1099 97.9441 18.5448 97.0518 19.6999C96.9392 19.85 96.8315 19.9573 96.7303 20.0222C96.6279 20.0875 96.4781 20.0981 96.2807 20.054L94.4377 19.646C94.3015 19.6158 94.1934 19.544 94.1154 19.4314C94.0371 19.3188 94.0146 19.1862 94.0481 19.0344C94.1803 18.5069 94.4643 18.0009 94.8976 17.5158C95.3309 17.0311 95.8592 16.6231 96.4814 16.291C97.104 15.9597 97.8001 15.7276 98.5692 15.5958C99.3395 15.4644 100.126 15.4868 100.93 15.6651ZM98.9784 28.7913C99.1448 28.828 99.2758 28.9207 99.3696 29.0692C99.4643 29.2173 99.4933 29.3748 99.4561 29.5416L99.0126 31.5437C98.9755 31.711 98.8833 31.8415 98.7348 31.9358C98.5867 32.0308 98.4296 32.0594 98.2627 32.0223L96.306 31.589C96.1387 31.5514 96.0081 31.4596 95.9135 31.3107C95.8188 31.1626 95.7899 31.0055 95.827 30.8383L96.2705 28.8358C96.3076 28.6693 96.3998 28.5384 96.5483 28.4437C96.6968 28.3499 96.8539 28.3205 97.0212 28.3576L98.9784 28.7913Z" fill="#6962D5"/>
<path d="M103.108 34.8044C103.606 34.7232 104.101 34.7122 104.595 34.7734C105.088 34.8338 105.539 34.9689 105.949 35.179C106.358 35.3899 106.707 35.6751 106.994 36.0358C107.281 36.3969 107.467 36.8367 107.552 37.3544C107.621 37.7779 107.615 38.1574 107.533 38.4907C107.452 38.8245 107.329 39.1329 107.163 39.4157C106.997 39.698 106.81 39.9624 106.599 40.2084C106.39 40.4548 106.191 40.6878 106.005 40.9085C105.818 41.1293 105.659 41.3541 105.528 41.5817C105.397 41.8094 105.334 42.0424 105.341 42.2802C105.338 42.4006 105.307 42.5087 105.247 42.6054C105.187 42.7021 105.098 42.76 104.983 42.7792L103.776 42.9763C103.659 42.9954 103.549 42.9697 103.445 42.8996C103.341 42.8298 103.285 42.736 103.277 42.6176C103.231 42.2011 103.258 41.8249 103.361 41.4871C103.463 41.1501 103.603 40.8388 103.779 40.5548C103.955 40.2708 104.151 40.0077 104.367 39.7657C104.583 39.5242 104.782 39.2933 104.963 39.0729C105.145 38.8538 105.289 38.6396 105.396 38.4324C105.504 38.2243 105.539 38.0097 105.503 37.7869C105.437 37.3854 105.214 37.0819 104.832 36.8775C104.451 36.6735 103.98 36.6172 103.419 36.709C102.519 36.8559 101.932 37.4144 101.655 38.3834C101.621 38.5083 101.58 38.6046 101.531 38.6723C101.482 38.7404 101.389 38.7853 101.251 38.8077L99.9658 39.0183C99.8703 39.0338 99.783 39.0154 99.7034 38.9632C99.6243 38.9106 99.5762 38.8318 99.5586 38.7257C99.5084 38.354 99.5606 37.9566 99.7149 37.5348C99.8683 37.1129 100.102 36.7159 100.417 36.3442C100.731 35.9721 101.118 35.6457 101.577 35.3642C102.037 35.0827 102.547 34.8962 103.108 34.8044ZM105.217 43.7188C105.333 43.7001 105.441 43.7262 105.539 43.7964C105.638 43.8678 105.697 43.9612 105.716 44.0771L105.944 45.4749C105.963 45.5911 105.937 45.6989 105.867 45.7972C105.796 45.8959 105.702 45.9543 105.586 45.9734L104.22 46.1966C104.104 46.2158 103.996 46.1901 103.898 46.1195C103.799 46.0485 103.74 45.9551 103.721 45.8388L103.493 44.441C103.474 44.3251 103.499 44.2174 103.57 44.1187C103.641 44.0203 103.734 43.9612 103.851 43.942L105.217 43.7188Z" fill="#6962D5"/>
<g opacity="0.2">
<path d="M103.108 34.8044C103.606 34.7232 104.101 34.7122 104.595 34.7734C105.088 34.8338 105.539 34.9689 105.949 35.179C106.358 35.3899 106.707 35.6751 106.994 36.0358C107.281 36.3969 107.467 36.8367 107.552 37.3544C107.621 37.7779 107.615 38.1574 107.533 38.4907C107.452 38.8245 107.329 39.1329 107.163 39.4157C106.997 39.698 106.81 39.9624 106.599 40.2084C106.39 40.4548 106.191 40.6878 106.005 40.9085C105.818 41.1293 105.659 41.3541 105.528 41.5817C105.397 41.8094 105.334 42.0424 105.341 42.2802C105.338 42.4006 105.307 42.5087 105.247 42.6054C105.187 42.7021 105.098 42.76 104.983 42.7792L103.776 42.9763C103.659 42.9954 103.549 42.9697 103.445 42.8996C103.341 42.8298 103.285 42.736 103.277 42.6176C103.231 42.2011 103.258 41.8249 103.361 41.4871C103.463 41.1501 103.603 40.8388 103.779 40.5548C103.955 40.2708 104.151 40.0077 104.367 39.7657C104.583 39.5242 104.782 39.2933 104.963 39.0729C105.145 38.8538 105.289 38.6396 105.396 38.4324C105.504 38.2243 105.539 38.0097 105.503 37.7869C105.437 37.3854 105.214 37.0819 104.832 36.8775C104.451 36.6735 103.98 36.6172 103.419 36.709C102.519 36.8559 101.932 37.4144 101.655 38.3834C101.621 38.5083 101.58 38.6046 101.531 38.6723C101.482 38.7404 101.389 38.7853 101.251 38.8077L99.9658 39.0183C99.8703 39.0338 99.783 39.0154 99.7034 38.9632C99.6243 38.9106 99.5762 38.8318 99.5586 38.7257C99.5084 38.354 99.5606 37.9566 99.7149 37.5348C99.8683 37.1129 100.102 36.7159 100.417 36.3442C100.731 35.9721 101.118 35.6457 101.577 35.3642C102.037 35.0827 102.547 34.8962 103.108 34.8044ZM105.217 43.7188C105.333 43.7001 105.441 43.7262 105.539 43.7964C105.638 43.8678 105.697 43.9612 105.716 44.0771L105.944 45.4749C105.963 45.5911 105.937 45.6989 105.867 45.7972C105.796 45.8959 105.702 45.9543 105.586 45.9734L104.22 46.1966C104.104 46.2158 103.996 46.1901 103.898 46.1195C103.799 46.0485 103.74 45.9551 103.721 45.8388L103.493 44.441C103.474 44.3251 103.499 44.2174 103.57 44.1187C103.641 44.0203 103.734 43.9612 103.851 43.942L105.217 43.7188Z" fill="black"/>
</g>
<path d="M114.644 37.0011C114.758 37.0823 114.827 37.1937 114.852 37.3353C114.875 37.4772 114.847 37.6049 114.766 37.7188L113.794 39.086C113.713 39.2002 113.602 39.2692 113.46 39.2928C113.318 39.3173 113.19 39.2884 113.076 39.2076L111.741 38.2577C111.626 38.1766 111.558 38.0656 111.534 37.924C111.509 37.7816 111.538 37.6543 111.619 37.5405L112.591 36.1729C112.672 36.059 112.783 35.9901 112.926 35.966C113.067 35.9419 113.194 35.9705 113.309 36.0517L114.644 37.0011ZM120.297 27.7346C120.783 28.0802 121.21 28.4845 121.575 28.9468C121.94 29.4094 122.208 29.8995 122.377 30.4172C122.547 30.9358 122.602 31.4658 122.543 32.0088C122.485 32.5523 122.275 33.0774 121.914 33.5849C121.62 33.9994 121.299 34.3132 120.953 34.5266C120.606 34.7404 120.245 34.897 119.87 34.9966C119.495 35.0966 119.116 35.1627 118.735 35.1957C118.353 35.2279 117.992 35.2594 117.651 35.2895C117.309 35.3197 116.988 35.3765 116.688 35.4593C116.388 35.5417 116.141 35.6865 115.948 35.8922C115.846 35.9913 115.73 36.0562 115.599 36.0876C115.467 36.119 115.345 36.0941 115.231 36.0129L114.05 35.1733C113.936 35.0925 113.864 34.9795 113.835 34.8338C113.806 34.6886 113.837 34.5625 113.928 34.4556C114.237 34.0664 114.574 33.7722 114.941 33.5735C115.309 33.3752 115.685 33.2291 116.071 33.1365C116.456 33.0439 116.84 32.986 117.224 32.9623C117.606 32.9382 117.966 32.9093 118.303 32.8754C118.639 32.8415 118.938 32.782 119.202 32.6963C119.465 32.6106 119.675 32.4593 119.829 32.2418C120.109 31.8481 120.173 31.407 120.022 30.9174C119.871 30.4282 119.521 29.9884 118.973 29.5984C118.092 28.9725 117.131 28.9525 116.091 29.5384C115.958 29.6155 115.843 29.6628 115.746 29.6791C115.648 29.6955 115.533 29.6559 115.398 29.5604L114.139 28.6657C114.046 28.5996 113.988 28.5114 113.965 28.4017C113.941 28.2911 113.967 28.185 114.04 28.0814C114.308 27.726 114.682 27.4347 115.164 27.2075C115.645 26.9802 116.173 26.8411 116.748 26.7897C117.322 26.7383 117.92 26.7848 118.541 26.9309C119.162 27.0761 119.747 27.3442 120.297 27.7346Z" fill="#6962D5"/>
<g opacity="0.6">
<path d="M114.644 37.0011C114.758 37.0823 114.827 37.1937 114.852 37.3353C114.875 37.4772 114.847 37.6049 114.766 37.7188L113.794 39.086C113.713 39.2002 113.602 39.2692 113.46 39.2928C113.318 39.3173 113.19 39.2884 113.076 39.2076L111.741 38.2577C111.626 38.1766 111.558 38.0656 111.534 37.924C111.509 37.7816 111.538 37.6543 111.619 37.5405L112.591 36.1729C112.672 36.059 112.783 35.9901 112.926 35.966C113.067 35.9419 113.194 35.9705 113.309 36.0517L114.644 37.0011ZM120.297 27.7346C120.783 28.0802 121.21 28.4845 121.575 28.9468C121.94 29.4094 122.208 29.8995 122.377 30.4172C122.547 30.9358 122.602 31.4658 122.543 32.0088C122.485 32.5523 122.275 33.0774 121.914 33.5849C121.62 33.9994 121.299 34.3132 120.953 34.5266C120.606 34.7404 120.245 34.897 119.87 34.9966C119.495 35.0966 119.116 35.1627 118.735 35.1957C118.353 35.2279 117.992 35.2594 117.651 35.2895C117.309 35.3197 116.988 35.3765 116.688 35.4593C116.388 35.5417 116.141 35.6865 115.948 35.8922C115.846 35.9913 115.73 36.0562 115.599 36.0876C115.467 36.119 115.345 36.0941 115.231 36.0129L114.05 35.1733C113.936 35.0925 113.864 34.9795 113.835 34.8338C113.806 34.6886 113.837 34.5625 113.928 34.4556C114.237 34.0664 114.574 33.7722 114.941 33.5735C115.309 33.3752 115.685 33.2291 116.071 33.1365C116.456 33.0439 116.84 32.986 117.224 32.9623C117.606 32.9382 117.966 32.9093 118.303 32.8754C118.639 32.8415 118.938 32.782 119.202 32.6963C119.465 32.6106 119.675 32.4593 119.829 32.2418C120.109 31.8481 120.173 31.407 120.022 30.9174C119.871 30.4282 119.521 29.9884 118.973 29.5984C118.092 28.9725 117.131 28.9525 116.091 29.5384C115.958 29.6155 115.843 29.6628 115.746 29.6791C115.648 29.6955 115.533 29.6559 115.398 29.5604L114.139 28.6657C114.046 28.5996 113.988 28.5114 113.965 28.4017C113.941 28.2911 113.967 28.185 114.04 28.0814C114.308 27.726 114.682 27.4347 115.164 27.2075C115.645 26.9802 116.173 26.8411 116.748 26.7897C117.322 26.7383 117.92 26.7848 118.541 26.9309C119.162 27.0761 119.747 27.3442 120.297 27.7346Z" fill="white"/>
</g>
<path d="M84.2626 73.1185H69.7676V37.9958C69.7676 31.6445 74.9165 26.4951 81.2683 26.4951H82.6078C88.9595 26.4951 94.1085 31.6441 94.1085 37.9958V63.2735C94.108 68.7109 89.7 73.1185 84.2626 73.1185Z" fill="#263238"/>
<path d="M68.3583 157.668C68.2392 158.55 67.9858 159.579 67.9385 162.076C67.8879 164.751 67.3963 165.701 67.331 167.897C67.2567 170.407 67.69 171.346 68.7084 172.756C69.7268 174.166 72.3992 175.446 73.5285 173.062C74.6717 170.649 74.5126 169.116 74.1515 166.655C73.7782 164.11 73.7309 162.704 73.5142 160.763C73.3237 159.053 73.0952 157.753 73.0952 157.753L68.3583 157.668Z" fill="#263238"/>
<path d="M75.9541 139.891L67.1396 139.731C67.2706 145.615 68.2058 152.146 68.3583 157.667C68.3869 158.706 68.3322 165.743 68.7243 167.881C69.3131 171.094 73.1266 170.66 73.329 168.737C73.5314 166.814 73.0834 158.6 73.0956 157.753C73.0622 154.212 74.7215 148.235 75.5918 141.88C75.6342 141.567 75.9137 140.195 75.9541 139.891Z" fill="#FFA8A7"/>
<path d="M87.2769 153.089C87.2769 153.089 86.9289 152.902 86.8571 153.273C86.7718 153.715 86.6445 154.625 86.4609 155.351C86.2059 156.359 85.9938 158.02 86.1468 158.841C86.2998 159.662 88.2149 160.72 89.4581 161.102C91.2925 161.665 92.5511 162.585 93.556 163.53C94.7874 164.69 97.4447 165.784 99.2542 165.771C101.395 165.756 102.888 165.058 103.594 163.912C104.331 162.714 102.951 162.626 100.503 161.038C99.9478 160.678 99.3154 160.27 98.6038 159.805C94.727 157.273 93.3076 155.916 92.2109 153.383L87.2769 153.089Z" fill="#263238"/>
<path d="M92.2414 151.521C92.1762 149.699 93.4259 134.244 93.4259 134.244L85.0549 138.06C86.8477 148.759 87.2296 151.282 87.2614 153.033C87.2475 153.073 87.212 153.222 87.2141 153.481C87.2218 155.56 89.5674 156.681 91.3973 158.067C92.1203 158.614 94.2223 160.23 96.3463 161.298C97.676 161.966 100.376 162.027 100.71 161.171C98.4834 159.47 95.2447 156.926 93.4736 154.984C92.6278 154.056 92.3067 153.343 92.2414 151.521Z" fill="#FFA8A7"/>
<path d="M70.7516 82.48C67.5382 89.5376 67.5382 94.995 68.0694 104C68.5566 112.26 69.3334 119.531 69.3334 119.531C69.209 120.997 67.1718 123.857 66.9083 130.334C66.6618 136.389 67.3252 144.087 67.3252 144.087C67.3252 144.087 71.8981 146.622 75.2796 144.065C75.2796 144.065 78.5424 128.484 79.4987 120.904C80.3331 114.289 81.7831 105.837 81.7831 105.837L84.8546 120.868C84.8546 120.868 83.686 124.574 83.4127 127.397C82.9806 131.856 85.4743 140.611 85.4743 140.611C85.4743 140.611 90.1994 142.021 93.0851 139.462C93.0851 139.462 94.1643 125.227 94.567 119.856C95.1064 112.664 93.9721 93.1929 93.0847 82.8852L70.7516 82.48Z" fill="#455A64"/>
<path d="M81.7831 105.837L83.0528 94.5226C83.0528 94.5226 88.7407 93.7624 91.3172 91.3401C91.3172 91.3401 89.3813 94.8873 84.6154 95.5756L82.7798 106.104L84.8549 120.868L81.7831 105.837Z" fill="#263238"/>
<path d="M104.814 79.7C105.168 76.232 105.154 73.9215 105.124 73.4771C105 71.6815 104.679 71.3894 102.168 68.2078C98.7793 63.9124 95.887 60.0519 92.8274 56.211C90.6434 53.4688 88.3476 53.047 86.1052 53.171C84.5372 53.2579 87.596 60.7932 89.137 65.2523L97.9298 74.7097C98.2003 75.083 98.3248 75.5428 98.2795 76.0014L97.7397 84.0529L100.373 87.5752C100.373 87.5752 104.36 84.1374 104.814 79.7Z" fill="#FFA8A7"/>
<path d="M77.6347 53.4149C75.9341 53.532 72.8415 53.8042 72.8415 53.8042C71.0569 54.8001 70.606 55.6165 70.2739 57.9866C70.1328 58.9947 70.9545 61.6851 71.6603 65.5072L72.9998 72.5958L72.8545 76.1112C72.1593 78.256 70.5865 80.9223 69.2013 84.8521C76.0133 88.6539 81.7265 88.7947 86.9077 88.1296C90.8588 87.6225 92.9493 86.6661 93.6462 85.722C93.501 81.8395 93.2264 79.4425 93.1591 75.3861C93.1309 73.6823 93.2333 71.9634 93.2994 70.0026C95.9502 67.8251 95.9804 64.2041 94.5344 61.8634C91.1754 56.4252 87.9093 53.0012 85.7461 53.1767L77.6347 53.4149Z" fill="#6962D5"/>
<path opacity="0.6" d="M77.6347 53.4149C75.9341 53.532 72.8415 53.8042 72.8415 53.8042C71.0569 54.8001 70.606 55.6165 70.2739 57.9866C70.1328 58.9947 70.9545 61.6851 71.6603 65.5072L72.9998 72.5958L72.8545 76.1112C72.1593 78.256 70.5865 80.9223 69.2013 84.8521C76.0133 88.6539 81.7265 88.7947 86.9077 88.1296C90.8588 87.6225 92.9493 86.6661 93.6462 85.722C93.501 81.8395 93.2264 79.4425 93.1591 75.3861C93.1309 73.6823 93.2333 71.9634 93.2994 70.0026C95.9502 67.8251 95.9804 64.2041 94.5344 61.8634C91.1754 56.4252 87.9093 53.0012 85.7461 53.1767L77.6347 53.4149Z" fill="white"/>
<path opacity="0.1" d="M88.0264 70.0618C88.0264 70.0618 84.915 72.4763 81.3642 71.2172C77.8137 69.9581 77.2952 66.8541 77.2952 66.8541C77.2952 66.8541 76.9182 70.9133 81.3972 72.2976C85.72 73.633 88.0264 70.0618 88.0264 70.0618Z" fill="black"/>
<path d="M92.2452 42.2729C92.1114 48.1632 90.1995 49.6193 89.2415 50.0375C88.2835 50.4557 86.4341 50.2007 84.6397 49.9037V53.4386C84.6397 53.4386 86.7107 55.61 86.5556 57.2289C86.3969 58.8519 83.301 59.0319 80.975 57.4464C79.2773 56.2901 78.0647 54.9682 77.5356 54.3411C77.343 54.113 77.239 53.8266 77.239 53.528V45.2097C77.239 45.2097 76.2557 46.2513 74.5156 45.0591C72.7795 43.871 72.629 41.6535 73.6914 40.3985C74.4486 39.5074 76.3732 39.4446 77.2977 40.8294C77.8163 41.8461 77.8877 42.8669 78.4691 42.4442C80.0211 41.3271 79.1888 38.7877 81.0627 37.5327C81.0668 37.5327 81.0668 37.5286 81.0709 37.5286C81.6315 37.2275 82.2676 36.9428 82.9787 36.6959C86.3214 35.5413 89.2166 34.5706 89.9151 32.2863C91.2325 33.0688 92.4084 35.3238 92.2452 42.2729Z" fill="#FFA8A7"/>
<path d="M85.6568 47.5356C86.0838 47.5356 86.43 47.1895 86.43 46.7625C86.43 46.3355 86.0838 45.9893 85.6568 45.9893C85.2298 45.9893 84.8837 46.3355 84.8837 46.7625C84.8837 47.1895 85.2298 47.5356 85.6568 47.5356Z" fill="#B16668"/>
<path d="M85.1395 41.3798C85.1631 41.8469 84.8176 42.2423 84.3684 42.2639C83.9187 42.2851 83.5356 41.9241 83.512 41.4569C83.4887 40.9901 83.8339 40.5944 84.2835 40.5728C84.7327 40.5519 85.1162 40.913 85.1395 41.3798Z" fill="#263238"/>
<path d="M91.3228 41.4602C91.3444 41.8845 91.0302 42.2443 90.6214 42.2635C90.1722 42.2847 89.8666 41.9971 89.8429 41.5303C89.8217 41.106 90.1355 40.7462 90.5443 40.7266C90.9531 40.7074 91.3015 41.0358 91.3228 41.4602Z" fill="#263238"/>
<path d="M84.0917 43.4773C82.6287 43.4773 81.4381 42.2867 81.4381 40.8236C81.4381 39.0195 83.2974 39.0195 84.0917 39.0195C84.8861 39.0195 86.7454 39.0195 86.7454 40.8236C86.7454 42.2871 85.5548 43.4773 84.0917 43.4773ZM84.0917 39.4381C82.4834 39.4381 81.8567 39.8265 81.8567 40.8241C81.8567 42.0566 82.8592 43.0591 84.0917 43.0591C85.3243 43.0591 86.3268 42.0566 86.3268 40.8241C86.3268 39.8265 85.7001 39.4381 84.0917 39.4381Z" fill="#455A64"/>
<path d="M90.8282 43.4773C89.3651 43.4773 88.1746 42.2867 88.1746 40.8236C88.1746 39.0195 90.0338 39.0195 90.8282 39.0195C91.6226 39.0195 93.4818 39.0195 93.4818 40.8236C93.4818 42.2871 92.2913 43.4773 90.8282 43.4773ZM90.8282 39.4381C89.2199 39.4381 88.5932 39.8265 88.5932 40.8241C88.5932 42.0566 89.5956 43.0591 90.8282 43.0591C92.0608 43.0591 93.0632 42.0566 93.0632 40.8241C93.0632 39.8265 92.4365 39.4381 90.8282 39.4381Z" fill="#455A64"/>
<path d="M87.1575 39.9685L87.288 44.9241L89.8964 44.1158L87.1575 39.9685Z" fill="#F28F8F"/>
<path d="M84.6377 49.9025C82.7433 49.654 78.8461 48.5344 78.239 46.9938C78.239 46.9938 78.4414 47.962 79.6054 48.96C80.7694 49.9575 84.6377 51.082 84.6377 51.082V49.9025Z" fill="#F28F8F"/>
<path d="M84.7274 37.5621L82.9992 38.6156C82.716 38.1182 82.8735 37.4793 83.3509 37.1884C83.8282 36.8975 84.4447 37.0648 84.7274 37.5621Z" fill="#263238"/>
<path d="M91.7679 38.7367L89.8425 38.0643C90.0098 37.5213 90.5761 37.232 91.1077 37.4176C91.6394 37.6029 91.9348 38.1937 91.7679 38.7367Z" fill="#263238"/>
<path d="M86.5357 41.035C86.4202 41.035 86.3268 40.9395 86.3268 40.8237C86.3268 40.4842 86.9983 40.2647 87.601 40.2647C88.2036 40.2647 88.5928 40.4842 88.5928 40.8237C88.5928 40.9391 88.4994 41.033 88.3835 41.033C88.268 41.033 88.1742 40.9395 88.1742 40.8237C88.1554 40.7853 87.9625 40.6833 87.6006 40.6833C87.2387 40.6833 86.7637 40.7853 86.7442 40.8273C86.7446 40.9432 86.6511 41.035 86.5357 41.035Z" fill="#455A64"/>
<path d="M81.6543 40.8584C81.6466 40.8584 81.6388 40.8579 81.6307 40.8571L76.9668 40.4324C76.8832 40.3549 76.6625 40.1268 76.2026 39.9363L81.6772 40.4414C81.7918 40.454 81.8747 40.5577 81.862 40.6727C81.8498 40.7792 81.7592 40.8584 81.6543 40.8584Z" fill="#455A64"/>
<path d="M62.5068 45.7189C64.0319 43.6813 65.0719 42.1415 66.464 40.3949C67.2543 39.403 67.7598 38.6951 68.5203 37.6776C69.0438 36.9771 69.3506 36.3863 69.9308 36.1692C70.5836 35.9248 71.2131 35.4417 71.6329 35.0007C71.9328 34.6853 72.1784 34.3234 72.4379 33.9738C73.3094 32.7991 74.3506 31.7506 75.5187 30.8705C76.7464 29.9456 78.1103 29.2401 79.3698 28.3589C80.1214 27.833 80.9272 26.9594 80.0124 26.1442C79.7395 25.9007 79.3927 25.7554 79.0353 25.6775C76.8154 25.1924 74.8782 25.9578 72.7068 26.5131C71.7631 26.7542 70.8345 27.0565 69.9418 27.447C69.5085 27.6363 69.0764 27.8423 68.7174 28.1496C68.1576 28.6286 67.8226 29.3103 67.4591 29.9505C66.4828 31.6706 64.4603 33.1884 63.0368 34.5274C61.3668 36.0982 59.8744 37.5385 57.9694 39.2716C56.255 40.8314 54.5777 42.2696 53.0053 43.973C51.7046 45.3823 52.1779 46.4847 52.3631 46.8653C53.4231 49.0457 54.61 49.8274 56.0278 51.1779C58.4835 53.5174 66.9422 60.2469 69.7484 62.4681C70.349 62.9434 70.8206 63.5599 71.1238 64.2633L71.6595 65.5077C74.8582 66.0964 76.9924 61.2939 74.3433 55.5113C73.9137 54.5733 73.2319 53.7748 72.3984 53.1669C69.0597 50.7311 62.5068 45.7189 62.5068 45.7189Z" fill="#FFA8A7"/>
<path d="M62.5067 45.7189C62.5067 45.7189 61.0604 47.6524 58.5973 48.4096C58.5973 48.4096 60.6377 48.9302 63.4305 46.4239L62.5067 45.7189Z" fill="#F28F8F"/>
<path d="M103.983 75.4425L103.994 75.4437L103.471 74.9929L103.47 74.9994C103.353 74.9048 103.169 74.875 102.933 74.9394L97.2676 76.4805C96.7425 76.6233 96.1725 77.1557 95.9946 77.6698L91.9179 89.432C91.8236 89.7046 91.8612 89.9147 91.993 90.033L91.9885 90.0346L92.5279 90.4993L92.5274 90.4924C92.645 90.5903 92.8302 90.6217 93.0705 90.5565L98.7356 89.0158C99.2607 88.873 99.8306 88.3402 100.009 87.8261C100.809 85.514 103.285 78.3752 104.086 76.0635C104.186 75.7734 104.136 75.5555 103.983 75.4425Z" fill="#455A64"/>
<path d="M92.4422 89.8837L96.5189 78.1214C96.6968 77.6073 97.2668 77.0749 97.7919 76.9321L103.457 75.3915C103.982 75.2487 104.263 75.5498 104.085 76.0639C103.285 78.3756 100.809 85.5144 100.009 87.8265C99.8307 88.3406 99.2603 88.8734 98.7356 89.0162L93.0705 90.5569C92.5454 90.6988 92.2643 90.3977 92.4422 89.8837Z" fill="#6962D5"/>
<path d="M97.1758 77.2585C96.8808 77.4915 96.627 77.8122 96.5185 78.1227L92.4405 89.8812C92.3524 90.1452 92.3785 90.3521 92.4972 90.4712L91.9901 90.0363L91.9954 90.031C91.8608 89.9118 91.8244 89.705 91.9179 89.4308L95.9958 77.6669C96.0942 77.3773 96.3271 77.0823 96.6013 76.8493L97.1758 77.2585Z" fill="#37474F"/>
<path d="M102.427 80.8024C102.027 82.0007 100.604 82.8 98.264 83.3545C95.9241 83.9089 94.6279 86.3937 95.0057 87.1497C95.3839 87.9057 99.1648 88.6079 100.677 88.392C102.19 88.1758 103.711 85.9897 104.169 85.3133C104.627 84.6368 105.16 79.9118 104.674 79.2639C104.188 78.6155 103.167 78.7151 103.167 78.7151L102.427 80.8024Z" fill="#F28F8F"/>
</svg>
