<svg width="174" height="174" viewBox="0 0 174 174" fill="none" xmlns="http://www.w3.org/2000/svg">
<g clip-path="url(#clip0_9_53)">
<path fill-rule="evenodd" clip-rule="evenodd" d="M162.344 43.5002C186.369 85.1116 172.112 138.32 130.5 162.344C88.8886 186.369 35.6802 172.112 11.6557 130.5C-12.3687 88.8887 1.88836 35.6803 43.5 11.6558C85.1115 -12.3686 138.32 1.88848 162.344 43.5002Z" fill="#5DE3A4"/>
<path d="M117.475 47.7051L126.87 63.9784C126.891 64.0142 126.918 64.0489 126.936 64.0855L136.353 80.3968C136.852 81.2603 136.561 82.3643 135.697 82.8628C135.667 82.8803 135.637 82.8966 135.606 82.912C134.915 83.3325 134.34 83.9178 133.94 84.6105C133.539 85.3052 133.31 86.1208 133.31 87C133.31 87.8791 133.539 88.6947 133.94 89.3895C134.357 90.1122 134.965 90.7181 135.697 91.1417C136.56 91.641 136.857 92.7418 136.357 93.6047C136.337 93.64 136.315 93.6744 136.293 93.7078L126.874 110.021C126.846 110.07 126.819 110.119 126.787 110.165L117.393 126.437C116.894 127.3 115.795 127.603 114.932 127.104C114.901 127.087 114.871 127.068 114.841 127.049C114.514 126.869 114.159 126.726 113.783 126.625C113.394 126.521 112.978 126.465 112.543 126.465C111.224 126.465 110.03 127 109.165 127.864C108.301 128.728 107.767 129.923 107.767 131.242C107.767 132.239 106.958 133.047 105.961 133.047H87.0001H68.0388C67.0418 133.047 66.2335 132.239 66.2335 131.242C66.2335 129.923 65.699 128.728 64.8347 127.864C63.9705 127 62.7762 126.465 61.4572 126.465C61.022 126.465 60.6061 126.521 60.2168 126.625C59.8058 126.735 59.4204 126.896 59.0685 127.099C58.2056 127.599 57.1027 127.308 56.6034 126.445C56.5749 126.396 56.549 126.346 56.5256 126.295L47.1303 110.021C47.1097 109.986 47.0824 109.951 47.0644 109.914L37.647 93.6031C37.1485 92.7396 37.4394 91.6356 38.3029 91.1371C38.333 91.1196 38.3635 91.1034 38.3941 91.0879C39.0856 90.6674 39.6603 90.0821 40.0601 89.3894C40.4609 88.6947 40.6905 87.8791 40.6905 86.9999C40.6905 86.1208 40.4609 85.3052 40.0601 84.6105C39.6429 83.8878 39.0355 83.2819 38.3035 82.8582C37.4406 82.359 37.1437 81.2581 37.643 80.3953C37.6634 80.3599 37.6849 80.3255 37.7074 80.2921L47.126 63.9787C47.1543 63.9297 47.1809 63.8807 47.2128 63.8354L56.6075 47.5633C57.106 46.6999 58.2051 46.3971 59.0685 46.8955C59.0994 46.9134 59.1295 46.932 59.1589 46.9514C59.4861 47.131 59.8407 47.2742 60.2168 47.3749C60.6062 47.479 61.022 47.5346 61.4572 47.5346C62.7762 47.5346 63.9705 47.0001 64.8347 46.1359C65.699 45.2716 66.2336 44.0774 66.2336 42.7584C66.2336 41.7613 67.0419 40.9531 68.0388 40.9531H87.0001H105.961C106.958 40.9531 107.767 41.7613 107.767 42.7584C107.767 44.0774 108.301 45.2716 109.165 46.1359C110.03 47.0001 111.224 47.5346 112.543 47.5346C112.978 47.5346 113.394 47.479 113.783 47.3749C114.194 47.2649 114.58 47.1041 114.932 46.9005C115.795 46.4013 116.897 46.692 117.397 47.5549C117.425 47.6043 117.451 47.6543 117.475 47.7051ZM123.756 65.7748L115.082 50.7508C114.961 50.7894 114.838 50.8254 114.714 50.8584C114.016 51.0454 113.287 51.1451 112.543 51.1451C110.227 51.1451 108.131 50.2063 106.613 48.6886C105.501 47.577 104.7 46.1548 104.351 44.5635H87.0001H69.6491C69.3 46.1548 68.499 47.577 67.3875 48.6886C65.8697 50.2063 63.7729 51.1451 61.4572 51.1451C60.7128 51.1451 59.9845 51.0454 59.286 50.8584C59.1624 50.8254 59.0397 50.7894 58.9182 50.7508L50.3262 65.6329C50.303 65.6832 50.2774 65.733 50.2492 65.7818L41.5664 80.812C42.1989 81.3915 42.7435 82.0683 43.177 82.8193C43.8919 84.058 44.3011 85.4864 44.3011 87C44.3011 88.5135 43.8919 89.942 43.177 91.1807C42.7435 91.9317 42.1989 92.6084 41.5664 93.1879L50.1837 108.113C50.2066 108.147 50.2285 108.182 50.2492 108.218L58.9183 123.249C59.0397 123.211 59.1624 123.175 59.286 123.142C59.9846 122.955 60.7128 122.855 61.4573 122.855C63.7729 122.855 65.8697 123.794 67.3875 125.311C68.499 126.423 69.3 127.845 69.6491 129.436H87.0001H104.351C104.7 127.845 105.501 126.423 106.613 125.311C108.131 123.794 110.227 122.855 112.543 122.855C113.288 122.855 114.016 122.955 114.714 123.142C114.838 123.175 114.961 123.211 115.082 123.249L123.674 108.367C123.697 108.317 123.723 108.267 123.751 108.218L132.434 93.1879C131.801 92.6084 131.257 91.9317 130.823 91.1807C130.108 89.942 129.699 88.5135 129.699 87C129.699 85.4864 130.108 84.058 130.823 82.8193C131.257 82.0683 131.801 81.3915 132.434 80.812L123.817 65.8865C123.794 65.8525 123.777 65.8107 123.756 65.7748Z" fill="#FEFEFE"/>
<path d="M35.9141 78.613C38.2297 78.613 40.3266 79.552 41.8443 81.0696C43.362 82.5874 44.3009 84.6841 44.3009 86.9999C44.3009 89.3157 43.362 91.4124 41.8443 92.9301C40.3266 94.4478 38.2297 95.3867 35.9141 95.3867C33.5983 95.3867 31.5017 94.4478 29.9839 92.9301C28.4662 91.4124 27.5273 89.3157 27.5273 86.9999C27.5273 84.6841 28.4662 82.5874 29.9839 81.0696C31.5017 79.552 33.5983 78.613 35.9141 78.613ZM39.2916 83.6224C38.4274 82.7581 37.2332 82.2235 35.9141 82.2235C34.595 82.2235 33.4008 82.7581 32.5366 83.6224C31.6723 84.4866 31.1377 85.6808 31.1377 86.9999C31.1377 88.319 31.6723 89.5132 32.5366 90.3774C33.4008 91.2417 34.595 91.7762 35.9141 91.7762C37.2332 91.7762 38.4274 91.2417 39.2916 90.3774C40.1559 89.5132 40.6904 88.319 40.6904 86.9999C40.6904 85.6808 40.1559 84.4866 39.2916 83.6224Z" fill="#FEFEFE"/>
<path d="M61.4572 122.855C63.7728 122.855 65.8696 123.794 67.3874 125.311C68.9051 126.829 69.844 128.926 69.844 131.242C69.844 133.557 68.9051 135.654 67.3874 137.172C65.8696 138.69 63.7728 139.628 61.4572 139.628C59.1413 139.628 57.0447 138.69 55.5269 137.172C54.0093 135.654 53.0703 133.557 53.0703 131.242C53.0703 128.926 54.0093 126.829 55.5269 125.311C57.0447 123.794 59.1413 122.855 61.4572 122.855ZM64.8347 127.864C63.9705 127 62.7761 126.465 61.4572 126.465C60.1381 126.465 58.9439 127 58.0797 127.864C57.2154 128.728 56.6808 129.923 56.6808 131.242C56.6808 132.561 57.2154 133.755 58.0797 134.619C58.9438 135.483 60.1381 136.018 61.4572 136.018C62.7761 136.018 63.9705 135.483 64.8347 134.619C65.699 133.755 66.2335 132.561 66.2335 131.242C66.2335 129.923 65.699 128.728 64.8347 127.864Z" fill="#FEFEFE"/>
<path d="M61.4572 34.3715C63.7728 34.3715 65.8696 35.3103 67.3874 36.828C68.9051 38.3458 69.844 40.4425 69.844 42.7583C69.844 45.0739 68.9051 47.1707 67.3874 48.6885C65.8696 50.2062 63.7728 51.1451 61.4572 51.1451C59.1413 51.1451 57.0447 50.2062 55.5269 48.6885C54.0093 47.1707 53.0703 45.0739 53.0703 42.7583C53.0703 40.4425 54.0093 38.3458 55.5269 36.828C57.0447 35.3103 59.1413 34.3715 61.4572 34.3715ZM64.8347 39.3807C63.9705 38.5165 62.7761 37.982 61.4572 37.982C60.1381 37.982 58.9439 38.5165 58.0797 39.3807C57.2154 40.245 56.6808 41.4391 56.6808 42.7583C56.6808 44.0773 57.2154 45.2715 58.0797 46.1358C58.9438 47 60.1381 47.5346 61.4572 47.5346C62.7761 47.5346 63.9705 47 64.8347 46.1358C65.699 45.2715 66.2335 44.0773 66.2335 42.7583C66.2335 41.4391 65.699 40.245 64.8347 39.3807Z" fill="#FEFEFE"/>
<path d="M112.543 34.3715C114.859 34.3715 116.956 35.3103 118.473 36.828C119.991 38.3458 120.93 40.4425 120.93 42.7583C120.93 45.0739 119.991 47.1707 118.473 48.6885C116.956 50.2062 114.859 51.1451 112.543 51.1451C110.227 51.1451 108.131 50.2062 106.613 48.6885C105.095 47.1707 104.156 45.0739 104.156 42.7583C104.156 40.4425 105.095 38.3458 106.613 36.828C108.131 35.3103 110.227 34.3715 112.543 34.3715ZM115.921 39.3807C115.056 38.5165 113.862 37.982 112.543 37.982C111.224 37.982 110.03 38.5165 109.166 39.3807C108.301 40.245 107.767 41.4391 107.767 42.7583C107.767 44.0773 108.301 45.2715 109.166 46.1358C110.03 47 111.224 47.5346 112.543 47.5346C113.862 47.5346 115.056 47 115.921 46.1358C116.785 45.2715 117.319 44.0773 117.319 42.7583C117.319 41.4391 116.785 40.245 115.921 39.3807Z" fill="#FEFEFE"/>
<path d="M138.086 78.613C140.402 78.613 142.498 79.552 144.016 81.0696C145.534 82.5874 146.473 84.6841 146.473 86.9999C146.473 89.3157 145.534 91.4124 144.016 92.9301C142.498 94.4478 140.402 95.3867 138.086 95.3867C135.77 95.3867 133.674 94.4478 132.156 92.9301C130.638 91.4124 129.699 89.3157 129.699 86.9999C129.699 84.6841 130.638 82.5874 132.156 81.0696C133.674 79.552 135.77 78.613 138.086 78.613ZM141.464 83.6224C140.599 82.7581 139.405 82.2235 138.086 82.2235C136.767 82.2235 135.573 82.7581 134.709 83.6224C133.844 84.4866 133.31 85.6808 133.31 86.9999C133.31 88.319 133.844 89.5132 134.709 90.3774C135.573 91.2417 136.767 91.7762 138.086 91.7762C139.405 91.7762 140.599 91.2417 141.464 90.3774C142.328 89.5132 142.862 88.319 142.862 86.9999C142.862 85.6808 142.328 84.4866 141.464 83.6224Z" fill="#FEFEFE"/>
<path d="M112.543 122.855C114.859 122.855 116.956 123.794 118.473 125.311C119.991 126.829 120.93 128.926 120.93 131.242C120.93 133.557 119.991 135.654 118.473 137.172C116.956 138.69 114.859 139.628 112.543 139.628C110.227 139.628 108.131 138.69 106.613 137.172C105.095 135.654 104.156 133.557 104.156 131.242C104.156 128.926 105.095 126.829 106.613 125.311C108.131 123.794 110.227 122.855 112.543 122.855ZM115.921 127.864C115.056 127 113.862 126.465 112.543 126.465C111.224 126.465 110.03 127 109.166 127.864C108.301 128.728 107.767 129.923 107.767 131.242C107.767 132.561 108.301 133.755 109.166 134.619C110.03 135.483 111.224 136.018 112.543 136.018C113.862 136.018 115.056 135.483 115.921 134.619C116.785 133.755 117.319 132.561 117.319 131.242C117.319 129.923 116.785 128.728 115.921 127.864Z" fill="#FEFEFE"/>
<path d="M71.6427 79.1221H102.357C103.354 79.1221 104.162 79.9303 104.162 80.9272V108.194C104.162 109.191 103.354 109.999 102.357 109.999H71.6427C70.6456 109.999 69.8374 109.191 69.8374 108.194V80.9272C69.8374 79.9303 70.6456 79.1221 71.6427 79.1221ZM100.551 82.7325H73.4477V106.389H100.551V82.7325Z" fill="#FEFEFE"/>
<path d="M87.0002 64.0006C90.3034 64.0006 93.2333 65.9946 95.3053 69.2222C97.2204 72.2052 98.4129 76.2999 98.4348 80.8024L98.4416 80.8472C98.4418 80.8698 98.442 80.8922 98.4414 80.9146C98.4483 81.9115 97.6471 82.7255 96.6502 82.7324L77.3629 82.7325C76.3658 82.7325 75.5576 81.9242 75.5576 80.9273L75.5582 80.8819C75.5587 80.8307 75.5611 80.7801 75.5657 80.73C75.6002 76.2769 76.7824 72.2245 78.676 69.2585C80.7506 66.0097 83.6887 64.0006 87.0002 64.0006ZM92.2729 71.1685C90.8614 68.9697 88.9937 67.611 87.0002 67.611C84.9959 67.611 83.1207 68.9787 81.7083 71.1906C80.3863 73.2612 79.4877 76.0211 79.2344 79.122H94.7653C94.5103 76.0117 93.6048 73.243 92.2729 71.1685Z" fill="#FEFEFE"/>
<path d="M88.8053 93.0726C88.8053 92.0756 87.997 91.2673 87.0001 91.2673C86.0031 91.2673 85.1948 92.0756 85.1948 93.0726V98.1263C85.1948 99.1234 86.0031 99.9316 87.0001 99.9316C87.997 99.9316 88.8053 99.1234 88.8053 98.1263V93.0726Z" fill="#FEFEFE"/>
</g>
<defs>
<clipPath id="clip0_9_53">
<rect width="174" height="174" fill="white"/>
</clipPath>
</defs>
</svg>
