<svg width="218" height="218" viewBox="0 0 218 218" fill="none" xmlns="http://www.w3.org/2000/svg">
<path d="M202.521 49.474C201.83 48.3025 201.105 47.1532 200.346 46.0283C190.239 31.0534 172.847 20.8109 155.738 16.1806C148.246 14.1528 140.509 13.0898 132.756 12.8269C81.9126 11.1034 61.6613 51.1753 44.857 61.5163C28.0527 71.8574 2.19962 89.5232 3.92313 126.579C5.64664 163.634 32.3612 198.536 84.0669 200.691C135.773 202.845 139.22 179.578 168.088 170.96C187.194 165.257 200.768 145.994 207.414 128.193C216.472 103.933 216.045 72.422 202.521 49.474Z" fill="#6962D5"/>
<path opacity="0.7" d="M202.521 49.474C201.83 48.3025 201.105 47.1532 200.346 46.0283C190.239 31.0534 172.847 20.8109 155.738 16.1806C148.246 14.1528 140.509 13.0898 132.756 12.8269C81.9126 11.1034 61.6613 51.1753 44.857 61.5163C28.0527 71.8574 2.19962 89.5232 3.92313 126.579C5.64664 163.634 32.3612 198.536 84.0669 200.691C135.773 202.845 139.22 179.578 168.088 170.96C187.194 165.257 200.768 145.994 207.414 128.193C216.472 103.933 216.045 72.422 202.521 49.474Z" fill="white"/>
<path d="M191.213 52.9712V51.5342H164.675V30.2661H163.813V51.5342H137.468V52.9712H163.813V72.6606H137.468V74.0976H163.813V93.787H137.468V95.224H163.813V115.913H164.675V95.224H191.213V93.787H164.675V74.0976H191.213V72.6606H164.675V52.9712H191.213Z" fill="#263238" stroke="#263238" stroke-miterlimit="10"/>
<path d="M135.647 28.5415V118.212H192.841V28.5415H135.647ZM190.91 115.185H137.578V31.5687H190.91V115.185Z" fill="#263238" stroke="#263238" stroke-miterlimit="10"/>
<path d="M110.742 141.229L110.743 141.226C110.751 141.204 110.741 141.179 110.719 141.17C110.697 141.161 110.671 141.171 110.662 141.193C109.34 144.244 108.411 147.448 107.635 150.679C106.887 153.919 106.345 157.206 105.966 160.513L105.729 162.999C105.692 163.414 105.648 163.828 105.618 164.243L105.55 165.49C105.514 166.322 105.463 167.154 105.44 167.986L105.462 170.484L105.49 171.732C105.508 172.148 105.539 172.563 105.567 172.979C105.63 173.809 105.681 174.64 105.757 175.468C105.916 177.124 106.165 178.771 106.421 180.411C106.424 180.432 106.442 180.449 106.465 180.449C106.489 180.449 106.508 180.429 106.508 180.404V180.402C106.504 179.57 106.469 178.742 106.45 177.913C106.426 177.085 106.354 176.261 106.366 175.432C106.37 174.604 106.348 173.779 106.339 172.953L106.316 171.715L106.338 170.476L106.349 168.001L106.416 165.527L106.442 164.289C106.458 163.877 106.489 163.466 106.511 163.053L106.663 160.581C106.953 157.291 107.405 154.013 108.064 150.772C108.72 147.535 109.534 144.311 110.742 141.229Z" fill="#263238"/>
<path d="M111.096 154.172C111.102 154.149 111.091 154.125 111.069 154.117C111.046 154.109 111.021 154.121 111.013 154.144C110.301 156.201 109.732 158.304 109.251 160.43C108.792 162.56 108.431 164.718 108.211 166.891C107.991 169.058 107.749 171.226 107.719 173.404C107.685 175.581 107.72 177.761 107.951 179.935C107.953 179.955 107.969 179.972 107.99 179.975C108.014 179.977 108.036 179.96 108.038 179.935C108.29 177.767 108.443 175.604 108.593 173.442C108.747 171.28 108.768 169.112 108.908 166.95C109.039 164.795 109.31 162.648 109.681 160.515C110.044 158.381 110.498 156.256 111.096 154.172Z" fill="#263238"/>
<path d="M118.272 158.725C118.259 158.705 118.232 158.698 118.212 158.711C116.415 159.849 114.814 161.281 113.414 162.894C112.726 163.713 112.086 164.571 111.537 165.503L111.152 166.231L110.85 166.987C110.742 167.237 110.665 167.496 110.587 167.753C110.509 168.011 110.423 168.268 110.353 168.528C109.814 170.607 109.457 172.726 109.361 174.857C109.274 176.986 109.314 179.118 109.599 181.232C109.602 181.252 109.618 181.269 109.639 181.27C109.663 181.272 109.684 181.254 109.686 181.23L110.233 174.919C110.451 172.833 110.584 170.734 111.032 168.697C111.089 168.443 111.162 168.195 111.226 167.943C111.291 167.692 111.354 167.439 111.448 167.2L111.704 166.471L112.034 165.782C112.52 164.87 113.114 163.998 113.753 163.172C115.034 161.518 116.542 160.011 118.258 158.787L118.261 158.785C118.279 158.771 118.285 158.745 118.272 158.725Z" fill="#263238"/>
<path d="M114.799 166.833C113.821 167.464 113.167 168.457 112.617 169.456C112.093 170.477 111.681 171.559 111.395 172.669C111.309 172.944 111.241 173.222 111.182 173.503L110.984 174.341C110.883 174.905 110.804 175.475 110.772 176.046C110.764 176.618 110.748 177.19 110.787 177.761C110.834 178.332 110.899 178.901 111.012 179.465C111.016 179.481 111.029 179.497 111.047 179.5C111.071 179.505 111.094 179.489 111.099 179.465C111.237 178.902 111.328 178.344 111.401 177.788C111.49 177.232 111.576 176.68 111.643 176.128C111.724 175.578 111.796 175.029 111.839 174.474C111.916 173.928 111.956 173.368 112.076 172.828C112.268 171.734 112.585 170.666 113.012 169.645C113.438 168.632 113.992 167.623 114.844 166.909L114.851 166.903C114.867 166.889 114.871 166.865 114.859 166.847C114.846 166.825 114.819 166.82 114.799 166.833Z" fill="#263238"/>
<path d="M104.736 173.154C104.5 170.352 104.038 167.579 103.601 164.806C103.163 162.034 102.68 159.27 102.173 156.511C101.648 153.755 101.098 151.005 100.504 148.264C100.499 148.241 100.477 148.226 100.454 148.23C100.43 148.234 100.414 148.257 100.419 148.281C100.898 151.043 101.332 153.812 101.741 156.584C102.162 159.354 102.558 162.127 102.908 164.905C103.25 167.685 103.517 170.471 103.866 173.245L104.89 181.585C104.893 181.605 104.91 181.622 104.932 181.623C104.956 181.625 104.976 181.606 104.977 181.581C105.009 180.879 105.01 180.176 105.028 179.472C105.034 178.768 104.999 178.066 104.987 177.363C104.961 175.955 104.841 174.555 104.736 173.154Z" fill="#263238"/>
<path d="M103.056 173.113C102.906 172.003 102.702 170.9 102.49 169.801L102.097 168.165C101.969 167.62 101.846 167.074 101.686 166.535C101.128 164.365 100.413 162.232 99.5453 160.165L99.2096 159.394L98.8364 158.64C98.5992 158.132 98.3118 157.648 98.0393 157.158C97.4538 156.205 96.8456 155.251 96.0172 154.478C96.0002 154.462 95.974 154.462 95.957 154.478C95.9396 154.495 95.9391 154.522 95.9557 154.539L95.9601 154.544C96.7257 155.337 97.2838 156.317 97.8096 157.286C98.0533 157.784 98.3105 158.274 98.519 158.788L98.8481 159.55L99.1398 160.329C99.9159 162.403 100.539 164.534 101.007 166.701C101.262 167.779 101.431 168.878 101.64 169.964L101.902 171.606C101.997 172.152 102.114 172.694 102.191 173.243C102.366 174.339 102.567 175.431 102.759 176.527C102.928 177.626 103.129 178.723 103.361 179.821C103.365 179.841 103.383 179.857 103.404 179.857C103.428 179.857 103.448 179.837 103.448 179.813C103.453 178.694 103.427 177.574 103.37 176.456C103.304 175.339 103.172 174.227 103.056 173.113Z" fill="#263238"/>
<path d="M100.737 173.256C100.218 171.787 99.6177 170.348 98.9632 168.937C98.2918 167.534 97.5667 166.157 96.7322 164.846C96.7192 164.828 96.693 164.821 96.6729 164.832C96.652 164.844 96.645 164.871 96.6577 164.892C97.3867 166.254 98.0032 167.674 98.5621 169.111C99.1307 170.543 99.6434 171.997 100.073 173.474C100.511 174.95 100.825 176.454 101.217 177.936C101.63 179.417 101.964 180.913 102.419 182.413C102.425 182.431 102.442 182.446 102.461 182.446C102.486 182.446 102.506 182.427 102.506 182.402C102.528 180.838 102.375 179.274 102.07 177.742C101.796 176.2 101.254 174.725 100.737 173.256Z" fill="#263238"/>
<path d="M100.641 178.152C100.376 177.232 99.9229 176.374 99.4084 175.566C98.9031 174.754 98.3167 173.986 97.6134 173.336C97.2515 173.022 96.8809 172.72 96.4715 172.475C96.0682 172.223 95.6405 172.01 95.1766 171.889C95.1565 171.884 95.1347 171.894 95.126 171.913C95.1164 171.935 95.126 171.961 95.1483 171.971L95.1535 171.973C95.9928 172.346 96.7022 172.965 97.3017 173.642C97.9094 174.32 98.3943 175.098 98.7985 175.908C99.2236 176.713 99.4433 177.602 99.813 178.431C99.9761 178.856 100.138 179.284 100.327 179.708C100.487 180.141 100.664 180.573 100.89 181.003L100.891 181.005C100.898 181.018 100.913 181.028 100.929 181.029C100.954 181.03 100.975 181.011 100.976 180.986C100.996 180.507 100.968 180.03 100.922 179.554C100.853 179.084 100.754 178.617 100.641 178.152Z" fill="#263238"/>
<path d="M100.815 152.274C100.815 152.274 96.2239 151.215 95.1649 146.272C94.1054 141.328 97.5188 143.447 94.4586 135.678C91.3983 127.91 92.1046 126.144 93.1636 123.908C94.2231 121.671 94.8117 122.378 95.753 125.321C96.6948 128.263 100.108 132.854 101.403 141.446C102.697 150.038 100.815 152.274 100.815 152.274Z" fill="#6962D5"/>
<path d="M109.878 143.918C109.878 143.918 106.818 142.858 106.7 137.091C106.582 131.323 108.936 132.5 109.289 125.32C109.643 118.14 110.114 113.079 111.408 112.961C112.703 112.844 116.116 116.492 117.293 124.497C118.47 132.501 115.763 137.797 113.409 140.151C111.055 142.505 109.878 143.918 109.878 143.918Z" fill="#6962D5"/>
<path d="M99.1669 159.219C99.1669 159.219 98.4606 154.982 97.0484 152.981C95.6357 150.98 92.5755 149.214 90.5747 145.33C88.5739 141.445 86.3372 139.562 86.4549 145.094C86.5726 150.626 89.0443 153.452 92.1046 155.335C95.1649 157.218 99.1669 159.219 99.1669 159.219Z" fill="#6962D5"/>
<path d="M97.872 166.517C97.872 166.517 95.0471 161.102 90.9274 157.1C86.8076 153.098 83.5119 151.098 84.6891 153.098C85.8663 155.099 87.2785 154.981 89.2797 158.513C91.2805 162.044 90.6923 164.633 93.5172 166.634C96.342 168.636 97.872 166.517 97.872 166.517Z" fill="#6962D5"/>
<path d="M97.5188 173.462C97.4011 173.108 97.2834 170.519 93.2813 168.4C89.2793 166.281 85.5127 167.105 85.9836 168.165C86.4544 169.224 88.9261 170.989 91.3978 172.049C93.8699 173.108 97.5188 173.462 97.5188 173.462Z" fill="#6962D5"/>
<path d="M109.643 159.455C109.643 159.455 107.877 157.218 108.819 152.51C109.76 147.802 111.879 148.979 114.233 146.507C116.587 144.036 116.116 143.682 118.47 141.093C120.824 138.504 122.943 137.091 123.885 138.15C124.826 139.21 123.414 142.506 122.001 144.389C120.589 146.272 118.353 147.214 117.293 149.568C116.234 151.922 116.705 155.689 113.997 157.454C111.29 159.219 109.643 159.455 109.643 159.455Z" fill="#6962D5"/>
<path d="M115.528 160.749C115.528 160.749 119.765 155.924 122.826 152.392C125.886 148.861 127.063 146.154 127.181 148.508C127.299 150.862 128.24 152.745 125.768 155.805C123.296 158.866 115.528 160.749 115.528 160.749Z" fill="#6962D5"/>
<path d="M113.292 168.518C113.292 168.518 113.174 166.635 119.883 162.28C126.592 157.925 129.417 157.101 128.711 158.867C128.004 160.632 125.062 162.398 121.884 165.576C118.706 168.754 113.292 168.518 113.292 168.518Z" fill="#6962D5"/>
<path d="M101.094 151.773C101.094 151.773 99.5196 143.329 97.8719 137.326C96.2238 131.323 95.1648 127.674 95.1648 127.674" stroke="#263238" stroke-miterlimit="10" stroke-linecap="round" stroke-linejoin="round"/>
<path d="M109.607 144.006C109.607 144.006 112.468 134.854 113.409 129.322C114.351 123.79 113.292 119.67 112.821 117.198" stroke="#263238" stroke-miterlimit="10" stroke-linecap="round" stroke-linejoin="round"/>
<path d="M98.7959 159.043C98.7959 159.043 97.0484 155.924 94.4586 152.863C91.8692 149.803 89.8679 148.155 88.6912 145.212" stroke="#263238" stroke-miterlimit="10" stroke-linecap="round" stroke-linejoin="round"/>
<path d="M109.643 159.455C109.643 159.455 110.584 153.805 112.821 150.862C115.057 147.92 119.53 143.329 121.296 140.387" stroke="#263238" stroke-miterlimit="10" stroke-linecap="round" stroke-linejoin="round"/>
<path d="M97.2423 173.333C97.2423 173.333 93.2813 170.754 90.4564 169.342" stroke="#263238" stroke-miterlimit="10" stroke-linecap="round" stroke-linejoin="round"/>
<path d="M110.26 198.298H102.08L97.9896 177.817H114.351L110.26 198.298Z" fill="#263238" stroke="#263238" stroke-miterlimit="10" stroke-linecap="round" stroke-linejoin="round"/>
<path d="M28.254 198.297H213.63" stroke="#263238" stroke-miterlimit="10"/>
<path d="M13.5962 198.297H25.0926" stroke="#263238" stroke-miterlimit="10"/>
<path d="M94.2383 72.8165V59.0829H92.9961V41.5012C92.9961 35.5158 88.1439 30.6636 82.1585 30.6636H23.9451C17.9597 30.6636 13.1074 35.5158 13.1074 41.5012V179.902C13.1074 185.887 17.9597 190.74 23.9451 190.74H82.1585C88.1439 190.74 92.9961 185.887 92.9961 179.902V84.5209H94.2383V76.4056H92.9961V72.8161L94.2383 72.8165Z" fill="#707070" stroke="#263238" stroke-miterlimit="10" stroke-linejoin="round"/>
<path d="M80.2597 189.247H25.8438C19.5026 189.247 14.3622 184.106 14.3622 177.765V43.6379C14.3622 37.2967 17.6121 32.1563 25.8438 32.1563H80.2597C87.8055 32.053 91.7413 37.2967 91.7413 43.6379V177.765C91.7413 184.106 86.6008 189.247 80.2597 189.247Z" fill="#263238" stroke="#263238" stroke-miterlimit="10" stroke-linejoin="round"/>
<path d="M57.262 33.9222L57.2402 34.0028C56.6045 36.3738 55.1395 37.9125 53.5181 37.9125H52.585C50.9635 37.9125 49.4986 36.3738 48.8629 34.0028L48.8415 33.9222L26.1342 33.8428C20.8455 33.8241 16.5474 38.106 16.5461 43.3952L16.5134 176.349C16.5134 182.545 21.3657 187.568 27.3511 187.568H78.7524C84.7378 187.568 89.5901 182.545 89.5901 176.349L89.5787 42.4386C89.5783 37.9037 85.9264 34.2147 81.392 34.1685L57.262 33.9222Z" fill="white" stroke="#263238" stroke-miterlimit="10"/>
<path d="M89.5791 44.8566L89.5787 42.439C89.5783 37.9042 85.9263 34.2152 81.3919 34.169L57.262 33.9222L57.2401 34.0028C56.6045 36.3738 55.1395 37.9125 53.518 37.9125H52.585C50.9635 37.9125 49.4985 36.3738 48.8628 34.0028L48.8415 33.9222L26.1342 33.8428C20.8455 33.8241 16.5474 38.1056 16.5461 43.3952L16.5457 44.8566H89.5791Z" fill="#DBDBDB" stroke="#263238" stroke-miterlimit="10"/>
<path d="M53.8459 33.6602C53.8459 33.0982 53.3903 32.6426 52.8283 32.6426C52.2663 32.6426 51.8107 33.0982 51.8107 33.6602C51.8107 34.2222 52.2663 34.6778 52.8283 34.6778C53.3907 34.6774 53.8459 34.2218 53.8459 33.6602Z" fill="#707070"/>
<path d="M23.7179 36.2515C23.7179 37.2809 22.5616 37.6515 22.5568 38.4371V38.4908H23.6786V38.8374H22.1814V38.5444C22.1814 37.4422 23.3377 37.2272 23.3377 36.2663C23.3377 35.9153 23.2204 35.73 22.9374 35.73C22.6593 35.73 22.5372 35.9297 22.5372 36.2323V36.5349H22.1814V36.2567C22.1814 35.7348 22.4203 35.3882 22.947 35.3882C23.4789 35.3882 23.7179 35.7296 23.7179 36.2515Z" fill="#263238"/>
<path d="M25.5866 36.2466V36.3342C25.5866 36.6856 25.4453 36.9346 25.1719 37.0366C25.4597 37.1438 25.5866 37.4024 25.5866 37.7438V38.0071C25.5866 38.529 25.3429 38.8704 24.8157 38.8704C24.2938 38.8704 24.0501 38.529 24.0501 38.0071V37.773H24.4059V38.0315C24.4059 38.3389 24.5328 38.5242 24.8061 38.5242C25.0843 38.5242 25.2064 38.3437 25.2064 37.9975V37.7342C25.2064 37.3976 25.0647 37.2367 24.7769 37.2271H24.572V36.8853H24.7961C25.0499 36.8757 25.206 36.7148 25.206 36.417V36.2605C25.206 35.9095 25.0839 35.729 24.8057 35.729C24.5323 35.729 24.4055 35.9191 24.4055 36.2265V36.4022H24.0497V36.2461C24.0497 35.7242 24.2934 35.3872 24.8153 35.3872C25.3429 35.3881 25.5866 35.7247 25.5866 36.2466Z" fill="#263238"/>
<path d="M26.3238 36.5049V36.9784H25.958V36.5049H26.3238ZM26.3238 38.3636V38.837H25.958V38.3636H26.3238Z" fill="#263238"/>
<path d="M27.0947 36.8123C27.202 36.627 27.3729 36.5293 27.6022 36.5293C28.0413 36.5293 28.2362 36.8511 28.2362 37.339V38.0074C28.2362 38.5292 27.9877 38.8706 27.4658 38.8706C26.9434 38.8706 26.6997 38.5292 26.6997 38.0074V37.778H27.0555V38.0313C27.0555 38.3387 27.1824 38.524 27.4557 38.524C27.7291 38.524 27.856 38.3387 27.856 38.0313V37.3682C27.856 37.0608 27.7291 36.8755 27.4557 36.8755C27.246 36.8755 27.1043 36.9928 27.0703 37.2413V37.3193H26.7145L26.8074 35.4219H28.1538V35.7633H27.1488L27.0947 36.8123Z" fill="#263238"/>
<path d="M30.1345 36.2418V36.3055H29.7787V36.2178C29.7787 35.9105 29.6518 35.73 29.3736 35.73C29.0859 35.73 28.959 35.9153 28.959 36.2811V37.0467C29.0514 36.8125 29.2372 36.6809 29.5101 36.6809C29.9492 36.6809 30.1445 36.9983 30.1445 37.4905V38.0076C30.1445 38.5295 29.8855 38.8709 29.3636 38.8709C28.8369 38.8709 28.5784 38.5295 28.5784 38.0076V36.2658C28.5784 35.7243 28.8225 35.3877 29.3636 35.3877C29.8907 35.3881 30.1345 35.7199 30.1345 36.2418ZM28.959 37.5197V38.0316C28.959 38.339 29.0859 38.5243 29.3636 38.5243C29.637 38.5243 29.7687 38.339 29.7687 38.0316V37.5197C29.7687 37.2124 29.637 37.0271 29.3636 37.0271C29.0859 37.0271 28.959 37.2124 28.959 37.5197Z" fill="#263238"/>
<path d="M67.4138 36.3916H66.4498V38.8022H67.4138V36.3916Z" fill="#263238"/>
<path d="M68.6991 35.9087H67.7351V38.802H68.6991V35.9087Z" fill="#263238"/>
<path d="M69.9849 35.5659H69.0209V38.8023H69.9849V35.5659Z" fill="#263238"/>
<path d="M71.2703 34.9697H70.3063V38.8022H71.2703V34.9697Z" fill="#263238"/>
<path d="M83.2023 38.7358H77.417V35.2007H83.2023V38.7358ZM77.7388 38.4144H82.8809V35.522H77.7388V38.4144Z" fill="#263238"/>
<path d="M81.2743 35.8716H78.2209V38.0647H81.2743V35.8716Z" fill="#263238"/>
<path d="M83.7294 36.5518H83.0017V37.3845H83.7294V36.5518Z" fill="#263238"/>
<path d="M75.2963 37.967C75.2588 37.967 75.2204 37.9574 75.1859 37.9364C74.0087 37.2367 73.2305 37.8863 73.1978 37.9138C73.108 37.9918 72.9715 37.9818 72.8935 37.8924C72.8154 37.8026 72.8237 37.6674 72.9135 37.5889C72.9554 37.5523 73.9503 36.6999 75.407 37.5654C75.5095 37.626 75.5435 37.759 75.482 37.8614C75.4414 37.9295 75.3695 37.967 75.2963 37.967Z" fill="#263238"/>
<path d="M75.7319 37.2406C75.6944 37.2406 75.656 37.231 75.6211 37.21C73.919 36.1976 72.7749 37.1769 72.7632 37.1865C72.6738 37.2658 72.5373 37.2567 72.4584 37.1673C72.3795 37.0779 72.3878 36.941 72.4776 36.8625C72.4915 36.8499 73.8715 35.6679 75.8422 36.839C75.9447 36.8996 75.9787 37.0326 75.9172 37.1355C75.8766 37.2031 75.8051 37.2406 75.7319 37.2406Z" fill="#263238"/>
<path d="M76.1268 36.3995C76.0893 36.3995 76.0509 36.3899 76.016 36.369C73.86 35.0872 72.4269 36.294 72.3667 36.3463C72.2769 36.4244 72.14 36.4148 72.062 36.3254C71.9835 36.236 71.9922 36.1 72.082 36.0215C72.099 36.0062 73.802 34.5496 76.2371 35.998C76.3396 36.0586 76.3736 36.1915 76.3121 36.294C76.272 36.362 76.2005 36.3995 76.1268 36.3995Z" fill="#263238"/>
<path d="M74.6458 38.3291C74.6458 38.6286 74.4029 38.871 74.1038 38.871C73.8043 38.871 73.5619 38.6282 73.5619 38.3291C73.5619 38.0295 73.8047 37.7871 74.1038 37.7871C74.4029 37.7867 74.6458 38.0295 74.6458 38.3291Z" fill="#263238"/>
<path d="M52.988 94.8996C62.5739 95.0483 70.5732 98.6845 76.8721 105.958C77.7323 106.951 77.6272 108.329 76.6672 109.153C75.752 109.939 74.3912 109.84 73.5498 108.862C71.2599 106.204 68.6051 104.002 65.4942 102.37C55.7405 97.2509 44.074 98.5057 35.6714 105.615C34.5134 106.594 33.4827 107.731 32.4389 108.838C31.5346 109.796 30.2005 109.95 29.2447 109.126C28.3008 108.313 28.2293 106.928 29.0904 105.93C34.3695 99.8116 41.0115 96.1949 49.0169 95.0888C49.6439 95.002 50.2761 94.9349 50.9078 94.9061C51.6002 94.8756 52.2948 94.8996 52.988 94.8996Z" fill="#263238"/>
<path d="M53.7798 103.788C59.8388 103.945 65.5347 106.533 70.0173 111.713C70.9015 112.734 70.7977 114.053 69.8167 114.896C68.8824 115.699 67.5299 115.591 66.667 114.592C64.3283 111.884 61.4935 109.899 58.0373 108.966C50.9942 107.064 44.9045 108.798 39.8051 114.011C39.6154 114.205 39.4401 114.413 39.2601 114.617C38.4186 115.564 37.057 115.692 36.137 114.908C35.1669 114.081 35.0662 112.715 35.9147 111.715C37.912 109.361 40.2899 107.488 43.0568 106.115C46.192 104.559 49.5152 103.802 53.7798 103.788Z" fill="#263238"/>
<path d="M63.7485 118.947C63.7476 119.87 63.1899 120.686 62.3323 121.02C61.4691 121.357 60.5098 121.133 59.8633 120.401C58.9106 119.321 57.8119 118.449 56.4795 117.884C52.8419 116.343 48.829 117.301 46.124 120.356C45.4822 121.081 44.6817 121.344 43.7561 121.063C42.8658 120.793 42.3522 120.152 42.2148 119.233C42.1181 118.586 42.3129 118.011 42.7293 117.509C47.3623 111.923 55.8856 111.132 61.4595 115.789C62.093 116.319 62.6877 116.911 63.2117 117.547C63.52 117.921 63.653 118.439 63.8649 118.893C63.8261 118.911 63.7873 118.929 63.7485 118.947Z" fill="#263238"/>
<path d="M52.9806 130.584C50.495 130.586 48.5212 128.614 48.523 126.131C48.5243 123.687 50.5102 121.701 52.961 121.691C55.4231 121.681 57.4213 123.685 57.4147 126.156C57.4086 128.617 55.4401 130.583 52.9806 130.584Z" fill="#263238"/>
<path d="M53.008 79.3682C35.5262 79.3682 21.3038 93.5905 21.3038 111.072C21.3038 128.554 35.5262 142.776 53.008 142.776C70.4894 142.776 84.7118 128.554 84.7118 111.072C84.7122 93.5905 70.4899 79.3682 53.008 79.3682ZM25.6643 111.072C25.6643 95.9941 37.9307 83.7282 53.0084 83.7282C60.1248 83.7282 66.613 86.4628 71.4826 90.9339L32.87 129.547C28.3989 124.677 25.6643 118.189 25.6643 111.072ZM53.008 138.416C46.6141 138.416 40.7307 136.204 36.0685 132.514L74.4492 94.1329C78.1399 98.7946 80.3518 104.678 80.3518 111.072C80.3522 126.15 68.0858 138.416 53.008 138.416Z" fill="#6962D5"/>
<path d="M186.39 198.297H182.258L181.373 188.461H187.275L186.39 198.297Z" fill="#263238" stroke="#263238" stroke-miterlimit="10"/>
<path d="M203.602 198.297H199.471L198.586 188.461H204.487L203.602 198.297Z" fill="#263238" stroke="#263238" stroke-miterlimit="10"/>
<path d="M162.292 198.297H158.161L157.276 188.461H163.177L162.292 198.297Z" fill="#263238" stroke="#263238" stroke-miterlimit="10"/>
<path d="M143.85 198.297H139.719L138.834 188.461H144.735L143.85 198.297Z" fill="#263238" stroke="#263238" stroke-miterlimit="10"/>
<path d="M163.574 125.088H206.529C206.529 125.088 206.7 140.021 204.487 150.594C202.274 161.168 199.569 167.561 199.569 167.561H158.751C158.751 167.561 164.807 144.174 163.574 125.088Z" fill="white" stroke="#263238" stroke-miterlimit="10"/>
<path d="M181.4 127.368C177.635 127.074 176.142 126.314 173.321 124.769C169.655 122.762 168.87 124.1 169.132 126.107C169.394 128.115 165.57 141.35 164.784 148.041C163.998 154.731 164.26 158.3 164.26 158.3C164.26 158.3 161.904 160.307 163.475 160.976C165.046 161.645 166.617 161.868 166.617 161.868H196.991C196.991 161.868 202.386 134.136 202.91 129.676C203.433 125.215 201.077 124.769 199.767 125.438C198.458 126.107 198.196 126.553 196.363 126.776C192.058 127.3 186.563 127.772 181.4 127.368Z" fill="#6962D5"/>
<path d="M171.623 127.818C172.546 126.735 173.006 125.71 173.23 124.722C172.864 124.525 172.53 124.364 172.22 124.232C172.048 125.163 171.655 126.109 170.798 127.116C170.148 127.88 169.489 128.373 168.819 128.706C168.743 129.106 168.655 129.536 168.557 129.998C169.585 129.632 170.614 129.004 171.623 127.818Z" fill="white"/>
<path d="M198.813 136.493C196.889 138.752 196.963 140.76 197.035 142.701C197.102 144.514 197.165 146.228 195.515 148.166C193.864 150.103 192.163 150.313 190.362 150.536C188.434 150.774 186.441 151.02 184.518 153.279C182.594 155.537 182.668 157.544 182.74 159.485C182.77 160.29 182.798 161.075 182.677 161.868H183.774C183.879 161.041 183.852 160.238 183.823 159.446C183.756 157.632 183.692 155.919 185.343 153.981C186.993 152.044 188.694 151.834 190.495 151.611C192.423 151.373 194.416 151.127 196.339 148.868C198.263 146.609 198.189 144.603 198.118 142.661C198.051 140.847 197.988 139.134 199.638 137.196C200.402 136.299 201.177 135.775 201.968 135.446C202.044 135.018 202.116 134.607 202.185 134.211C201.055 134.559 199.923 135.191 198.813 136.493Z" fill="white"/>
<path d="M167.962 161.379C169.89 161.141 171.883 160.895 173.806 158.636C175.73 156.378 175.656 154.371 175.584 152.43C175.517 150.616 175.453 148.903 177.104 146.966C178.754 145.028 180.455 144.818 182.256 144.595C184.184 144.357 186.177 144.111 188.101 141.853C190.024 139.594 189.95 137.587 189.879 135.646C189.812 133.832 189.749 132.118 191.399 130.18C193.049 128.242 194.751 128.032 196.552 127.809C198.325 127.59 200.154 127.36 201.932 125.568C201.566 125.294 201.147 125.185 200.738 125.196C199.618 126.141 198.472 126.442 197.283 126.619C197.024 126.681 196.725 126.733 196.363 126.777C195.94 126.829 195.502 126.879 195.057 126.929C193.562 127.199 192.048 127.747 190.574 129.478C188.65 131.736 188.724 133.744 188.796 135.685C188.863 137.499 188.926 139.212 187.276 141.15C185.626 143.087 183.925 143.297 182.123 143.52C180.196 143.758 178.202 144.004 176.279 146.263C174.355 148.522 174.429 150.529 174.501 152.47C174.568 154.283 174.631 155.996 172.981 157.934C171.331 159.871 169.63 160.081 167.829 160.304C166.626 160.452 165.397 160.604 164.176 161.247C164.841 161.481 165.461 161.638 165.91 161.735C166.581 161.551 167.264 161.466 167.962 161.379Z" fill="white"/>
<path d="M165.567 151.619C167.491 149.361 167.417 147.353 167.345 145.413C167.278 143.599 167.215 141.886 168.865 139.948C170.515 138.011 172.216 137.801 174.018 137.578C175.945 137.34 177.939 137.094 179.862 134.835C181.786 132.576 181.712 130.569 181.64 128.628C181.625 128.209 181.61 127.795 181.617 127.383C181.545 127.378 181.472 127.374 181.401 127.368C181.096 127.344 180.81 127.316 180.534 127.286C180.525 127.752 180.541 128.212 180.558 128.668C180.624 130.482 180.687 132.195 179.037 134.133C177.387 136.07 175.686 136.28 173.885 136.503C171.957 136.741 169.964 136.987 168.04 139.246C166.116 141.505 166.19 143.511 166.262 145.453C166.329 147.266 166.392 148.979 164.743 150.917C164.651 151.025 164.558 151.126 164.466 151.224C164.42 151.777 164.382 152.297 164.351 152.788C164.759 152.473 165.165 152.092 165.567 151.619Z" fill="white"/>
<path d="M181.4 127.368C177.635 127.074 176.142 126.314 173.321 124.769C169.655 122.762 168.87 124.1 169.132 126.107C169.394 128.115 165.57 141.35 164.784 148.041C163.998 154.731 164.26 158.3 164.26 158.3C164.26 158.3 161.904 160.307 163.475 160.976C165.046 161.645 166.617 161.868 166.617 161.868H196.991C196.991 161.868 202.386 134.136 202.91 129.676C203.433 125.215 201.077 124.769 199.767 125.438C198.458 126.107 198.196 126.553 196.363 126.776C192.058 127.3 186.563 127.772 181.4 127.368Z" stroke="#263238" stroke-miterlimit="10"/>
<path d="M163.575 125.088H161.144C160.238 125.088 159.451 125.71 159.24 126.591L156.224 139.232C155.664 141.576 153.756 148.338 151.654 149.517C150.364 150.24 148.909 150.621 147.429 150.621H138.323L142.198 190.195H158.748L163.097 127.182C163.107 127.039 163.101 126.899 163.081 126.762H163.575V125.088Z" fill="white" stroke="#263238" stroke-miterlimit="10"/>
<path d="M140.753 150.621H149.86C151.339 150.621 152.794 150.24 154.085 149.517C156.187 148.338 158.094 141.576 158.654 139.232L161.671 126.591C161.881 125.71 162.669 125.088 163.575 125.088C164.71 125.088 165.607 126.051 165.527 127.183L161.058 190.196H144.507L140.753 150.621Z" fill="white" stroke="#263238" stroke-miterlimit="10"/>
<path d="M179.649 190.218L180.597 161.868L142.615 161.533L143.566 190.218H179.649Z" fill="white" stroke="#263238" stroke-miterlimit="10"/>
<path d="M208.959 125.088H206.529C205.623 125.088 204.835 125.71 204.625 126.591L201.608 139.232C201.049 141.576 199.141 148.338 197.039 149.517C195.748 150.24 194.294 150.621 192.814 150.621H183.707L185.314 190.195L203.981 190.195L208.481 127.183C208.491 127.039 208.485 126.899 208.465 126.763H208.959V125.088H208.959Z" fill="white" stroke="#263238" stroke-miterlimit="10"/>
<path d="M186.138 150.621H195.245C196.724 150.621 198.179 150.24 199.47 149.517C201.571 148.338 203.479 141.576 204.039 139.232L207.055 126.591C207.266 125.71 208.053 125.088 208.959 125.088C210.095 125.088 210.992 126.051 210.912 127.183L206.48 189.231C206.442 189.775 205.99 190.195 205.446 190.195L187.623 190.196L186.138 150.621Z" fill="white" stroke="#263238" stroke-miterlimit="10"/>
<path d="M180.597 153.474L179.649 190.218H187.623L188.991 153.474C188.991 151.898 187.714 150.621 186.138 150.621H183.451C181.875 150.621 180.597 151.898 180.597 153.474Z" fill="white" stroke="#263238" stroke-miterlimit="10"/>
<path d="M134.263 153.474L135.631 190.218H143.605L142.656 153.474C142.656 151.898 141.379 150.621 139.803 150.621H137.115C135.54 150.621 134.263 151.898 134.263 153.474Z" fill="white" stroke="#263238" stroke-miterlimit="10"/>
<path d="M142.807 174.064H180.235" stroke="#263238" stroke-miterlimit="10"/>
<path d="M124.498 125.23C124.498 125.23 121.038 144.47 120.28 147.722C119.521 150.973 117.679 167.554 117.679 171.672C117.679 175.79 118.004 188.254 118.004 188.254C118.004 188.254 116.595 188.904 116.595 189.446C116.595 189.988 117.679 193.456 117.679 193.456L124.073 195.84C124.073 195.84 125.374 192.806 125.482 191.722C125.59 190.638 124.723 190.205 124.723 188.362C124.723 186.52 127.974 165.061 128.95 161.485C129.925 157.908 132.743 147.179 133.285 146.204C133.827 145.229 136.536 138.076 136.536 138.076L138.053 138.835C138.053 138.835 139.029 161.377 139.571 162.785C140.112 164.194 147.374 187.131 147.374 187.131C147.374 187.131 146.182 187.673 146.94 188.973C147.699 190.274 148.999 193.2 148.999 193.2C148.999 193.2 150.192 191.574 151.601 191.249C153.009 190.924 155.394 192.333 155.394 192.333C155.394 192.333 156.803 189.082 156.478 187.565C156.153 186.047 154.744 183.446 154.635 182.688C154.527 181.929 151.601 160.076 151.601 160.076C151.601 160.076 152.359 129.514 152.359 127.455C152.359 125.396 151.601 123.337 151.601 123.337C151.601 123.337 145.207 125.721 137.512 126.046C129.817 126.371 125.591 123.228 125.591 123.228L124.498 125.23Z" fill="#263238" stroke="#263238" stroke-miterlimit="10"/>
<path d="M117.679 193.456C117.679 193.456 114.102 196.707 113.452 197.141C112.802 197.574 108.25 199.308 108.358 200.175C108.467 201.042 109.659 201.584 109.659 201.584H124.398C124.398 201.584 124.506 201.151 124.723 199.091C124.94 197.032 124.073 195.19 124.073 195.19L117.679 193.456Z" fill="white" stroke="#263238" stroke-miterlimit="10"/>
<path d="M124.621 200.018L108.438 200.465C108.731 201.161 109.659 201.584 109.659 201.584H124.398C124.398 201.584 124.472 201.285 124.621 200.018Z" fill="white" stroke="#263238" stroke-miterlimit="10"/>
<path d="M148.999 193.201C148.999 193.201 148.891 195.91 148.891 197.319C148.891 198.728 148.674 200.354 148.782 200.679C148.89 201.004 149.107 201.546 149.107 201.546H157.669C157.669 201.546 157.994 200.679 157.56 199.053C157.127 197.428 156.368 196.561 156.152 195.152C155.935 193.743 155.393 192.334 155.393 192.334C155.393 192.334 151.166 188.974 148.999 193.201Z" fill="white" stroke="#263238" stroke-miterlimit="10"/>
<path d="M157.784 200.521C154.527 200.508 150.472 200.417 148.752 200.375C148.754 200.514 148.762 200.619 148.782 200.678C148.891 201.004 149.108 201.545 149.108 201.545H157.669C157.669 201.545 157.799 201.193 157.784 200.521Z" fill="white" stroke="#263238" stroke-miterlimit="10"/>
<path d="M121.428 84.4257C121.428 84.4257 112.216 93.0716 112.621 93.8795C113.025 94.6874 115.53 101.233 115.53 101.233C115.53 101.233 116.257 105.596 115.853 108.343C115.448 111.091 115.61 113.595 115.61 113.595C115.61 113.595 116.903 115.292 118.681 116.262C120.458 117.232 121.832 118.929 122.963 116.181C124.094 113.434 123.61 108.505 123.61 108.505C123.61 108.505 125.145 114.484 125.387 115.535C125.63 116.585 124.498 125.231 124.498 125.231C124.498 125.231 130.073 129.918 139.527 128.867C148.981 127.817 151.97 124.504 151.97 124.504C151.97 124.504 151.001 113.919 151.001 112.707C151.001 111.495 150.839 110.202 150.839 110.202C150.839 110.202 154.152 113.596 155.768 113.434C157.384 113.272 160.212 106.647 159.485 105.597C158.758 104.546 156.253 100.257 154.718 97.1862C153.183 94.1158 152.417 91.4327 152.417 91.4327C152.417 91.4327 149.75 82.3831 148.942 81.7365C148.135 81.0899 139.042 81.1941 137.426 80.7904C135.811 80.3862 131.528 79.9014 130.962 79.9014C130.397 79.9005 123.205 81.5974 121.428 84.4257Z" fill="#6962D5" stroke="#263238" stroke-miterlimit="10"/>
<path d="M148.589 96.5277C148.544 94.206 148.539 92.4014 148.539 92.4014" stroke="#263238" stroke-miterlimit="10"/>
<path d="M150.839 110.201C150.839 110.201 149.87 108.262 149.224 106.323C148.903 105.36 148.731 101.919 148.641 98.6992" stroke="#263238" stroke-miterlimit="10"/>
<path d="M118.998 100.631C118.172 99.1909 117.544 98.066 117.469 97.8389" stroke="#263238" stroke-miterlimit="10"/>
<path d="M123.61 108.504C123.61 108.504 121.544 105.024 119.808 102.032" stroke="#263238" stroke-miterlimit="10"/>
<path d="M134.114 81.0317C134.114 81.0317 134.679 85.3141 134.194 89.5965" stroke="#263238" stroke-miterlimit="10"/>
<path d="M139.552 120.91C140.523 121.109 141.564 121.285 142.678 121.432" stroke="#263238" stroke-miterlimit="10"/>
<path d="M127.811 115.696C127.811 115.696 130.412 118.568 137.389 120.407" stroke="#263238" stroke-miterlimit="10"/>
<path d="M134.922 121.836C134.922 121.836 138.881 123.856 144.456 123.776" stroke="#263238" stroke-miterlimit="10"/>
<path d="M115.61 71.336C115.61 71.336 116.58 75.8608 116.661 76.8304C116.741 77.8001 116.984 79.0928 118.196 81.0322C119.408 82.9715 122.559 87.2539 123.205 87.4963C123.852 87.7387 126.357 87.0921 126.357 87.0921C126.357 87.0921 129.023 92.3442 129.751 92.1824C130.478 92.0207 132.336 86.0414 132.578 83.6177C132.821 81.1935 132.659 79.9814 132.659 79.9814L131.528 75.9414C131.528 75.9414 130.558 70.2852 130.558 69.8815C130.558 69.4773 131.124 66.5687 127.973 65.3567C124.821 64.1446 120.943 64.0639 118.357 67.0536C115.772 70.0432 115.61 71.336 115.61 71.336Z" fill="white" stroke="#263238" stroke-miterlimit="10"/>
<path d="M124.256 66.2455C124.256 66.2455 122.882 68.5885 119.893 70.5279C116.903 72.4672 118.357 70.3661 118.357 70.3661C118.357 70.3661 116.257 71.6589 114.56 72.5479C112.863 73.4369 113.51 73.6788 112.863 73.4369C112.216 73.1944 109.799 66.2943 115.212 62.9816C120.626 59.6689 124.555 60.5352 124.555 60.5352C124.555 60.5352 122.212 59.4849 124.312 59.4849C126.413 59.4849 127.302 60.6163 127.302 60.6163C127.302 60.6163 128.433 60.2932 128.918 60.9394C129.068 61.1399 129.358 61.3104 129.686 61.4499C132.292 62.5574 133.217 65.0351 133.709 67.6193C134.033 69.3162 132.659 73.3562 132.659 73.3562L130.397 74.5683C130.397 74.5683 129.427 73.6793 129.104 72.7907C128.781 71.9017 128.781 70.7707 128.781 70.7707C128.781 70.7707 127.407 72.5483 127.165 71.2556C126.922 69.9628 126.276 66.6497 126.276 66.6497C126.276 66.6497 126.518 67.9424 125.71 67.9424C124.902 67.942 124.256 66.2455 124.256 66.2455Z" fill="#263238" stroke="#263238" stroke-miterlimit="10"/>
<path d="M130.235 75.1334C130.235 75.1334 130.155 72.3861 131.771 71.4971C133.386 70.6081 134.518 71.5778 134.033 74.1637C133.548 76.7492 130.639 77.7188 130.639 77.7188" fill="white"/>
<path d="M130.235 75.1334C130.235 75.1334 130.155 72.3861 131.771 71.4971C133.386 70.6081 134.518 71.5778 134.033 74.1637C133.548 76.7492 130.639 77.7188 130.639 77.7188" stroke="#263238" stroke-miterlimit="10"/>
<path d="M126.357 87.092L130.639 82.8096L127.811 89.3544L126.357 87.092Z" fill="#263238" stroke="#263238" stroke-miterlimit="10"/>
<path d="M124.376 82.7595C124.543 83.1732 124.444 83.6036 124.154 83.7204C123.865 83.8373 123.494 83.5966 123.327 83.1828C123.16 82.7691 123.26 82.3387 123.549 82.2219C123.839 82.105 124.209 82.3457 124.376 82.7595Z" fill="#263238"/>
<path d="M125.493 75.2811C125.651 75.7925 125.539 76.2809 125.244 76.3724C124.948 76.464 124.58 76.123 124.422 75.612C124.264 75.1006 124.376 74.6119 124.672 74.5207C124.967 74.4292 125.335 74.7697 125.493 75.2811Z" fill="#263238"/>
<path d="M120.186 76.18C120.343 76.6915 120.232 77.1798 119.936 77.2714C119.641 77.3625 119.273 77.022 119.115 76.511C118.957 75.9995 119.069 75.5112 119.364 75.4197C119.66 75.3281 120.028 75.6686 120.186 76.18Z" fill="#263238"/>
<path d="M120.377 74.1636C120.377 74.1636 121.509 74.9715 121.509 76.5877C121.509 78.204 121.266 80.6277 121.266 80.6277L124.175 80.2235" stroke="#263238" stroke-miterlimit="10"/>
<path d="M122.317 73.1134C122.317 73.1134 123.771 70.5279 126.034 71.0127" stroke="#263238" stroke-miterlimit="10"/>
<path d="M119.731 73.5981C119.731 73.5981 117.953 73.0327 116.741 73.7599" stroke="#263238" stroke-miterlimit="10"/>
<path d="M169.182 94.3639C169.182 94.3639 170.959 93.7173 171.606 93.4753C172.252 93.2329 172.898 93.6371 174.03 93.0712C175.161 92.5057 176.454 91.3743 176.535 92.1826C176.615 92.9905 176.212 93.3136 175.565 93.7178C174.918 94.1219 173.868 94.9298 173.868 94.9298L173.545 95.7377L168.697 95.3336C168.697 95.3336 168.777 94.6063 169.182 94.3639Z" fill="white" stroke="#263238" stroke-miterlimit="10"/>
<path d="M178.915 96.4535C178.915 96.4535 181.14 94.6872 181.463 93.8789C181.786 93.071 181.221 92.9899 180.655 93.3134C180.09 93.6365 178.312 95.091 178.312 95.091L178.915 96.4535Z" fill="white" stroke="#263238" stroke-miterlimit="10"/>
<path d="M177.089 96.8352C177.089 96.8352 178.745 97.0109 178.915 96.4537C179.084 95.896 180.388 92.381 180.17 91.9402C179.953 91.4994 179.543 91.5386 179.087 92.2668C178.632 92.9949 177.822 95.3488 177.822 95.3488C177.822 95.3488 176.716 95.5978 176.438 96.3569C176.161 97.1159 177.089 96.8352 177.089 96.8352Z" fill="white" stroke="#263238" stroke-miterlimit="10"/>
<path d="M174.999 97.2731C174.999 97.2731 176.534 97.9197 176.858 97.4348C177.181 96.95 179.443 93.9603 179.363 93.4755C179.282 92.9907 178.878 92.91 178.231 93.4755C177.585 94.041 176.131 96.061 176.131 96.061C176.131 96.061 174.999 95.9803 174.515 96.6265C174.029 97.2731 174.999 97.2731 174.999 97.2731Z" fill="white" stroke="#263238" stroke-miterlimit="10"/>
<path d="M152.456 110.524C152.456 110.524 153.102 106.808 156.981 104.303C160.859 101.798 166.111 97.2731 166.111 97.2731C166.111 97.2731 167.889 94.7683 169.182 94.3642C170.474 93.96 174.676 95.1721 174.676 95.1721C174.676 95.1721 178.07 91.7782 178.151 92.5055C178.231 93.2327 176.534 95.8182 175.726 96.7879C174.918 97.7575 172.414 98 171.848 98C171.282 98 169.181 98.1617 168.858 98.2424C168.535 98.323 163.202 105.596 160.778 109.151C158.354 112.706 157.304 113.352 155.768 113.433C154.233 113.514 152.617 112.302 152.213 111.736C151.809 111.171 152.456 110.524 152.456 110.524Z" fill="white" stroke="#263238" stroke-miterlimit="10"/>
<path d="M101.925 97.1484L107.018 108.197C107.171 108.53 107.53 108.716 107.89 108.65L112.117 107.869C112.62 107.776 112.908 107.241 112.708 106.77L108.138 95.9733C108 95.6472 107.664 95.4506 107.312 95.4898L102.563 96.0174C102.02 96.078 101.696 96.6526 101.925 97.1484Z" fill="#263238" stroke="#263238" stroke-miterlimit="10"/>
<path d="M105.267 106.606C105.267 106.606 103.439 103.807 103.439 103.18C103.439 102.553 104.504 101.064 105.13 99.7207C105.757 98.3779 105.846 97.4828 106.383 97.662C106.92 97.8412 106.831 98.3783 106.652 99.2734C106.473 100.169 105.488 102.675 105.488 102.675L105.667 103.749C105.667 103.749 106.473 102.138 107.279 101.332C108.084 100.526 108.98 99.1836 109.606 99.4522C110.233 99.7207 110.501 99.8999 109.964 100.526C109.427 101.153 109.051 101.674 108.16 103.104C107.411 104.305 106.942 105.54 106.942 105.54C106.942 105.54 107.95 104.568 108.845 103.941C109.74 103.315 110.949 102.407 111.486 102.764C112.023 103.122 112.113 103.481 111.576 103.928C111.038 104.376 110.551 104.685 109.835 105.312C109.119 105.938 107.726 107.688 107.726 107.688C107.726 107.688 108.313 107.157 109.835 106.53C111.357 105.903 112.748 105.975 112.805 106.453C112.856 106.882 111.206 107.367 111.206 107.367C110.019 107.638 109.965 108.046 109.965 108.046C109.965 108.046 110.949 110.016 110.77 110.642C110.77 110.642 114.748 110.021 116.27 109.573C117.792 109.126 120.164 110.01 120.886 110.731C122.408 112.254 123.124 114.581 122.319 116.55C121.513 118.52 121.513 117.893 115.157 116.103C108.801 114.312 108.922 113.687 107.369 111.089C106.78 110.106 105.267 106.606 105.267 106.606Z" fill="white" stroke="#263238" stroke-miterlimit="10"/>
<path d="M110.77 110.643L110.634 112.283" stroke="#263238" stroke-miterlimit="10"/>
</svg>
