<svg width="242" height="242" viewBox="0 0 242 242" fill="none" xmlns="http://www.w3.org/2000/svg">
<path d="M133.469 28.192C90.9746 20.5066 26.0301 51.4448 42.2958 98.6958C45.7289 108.668 50.6947 117.994 54.5304 127.802C60.6661 143.49 54.165 159.148 66.4557 173.15C77.002 185.164 93.4982 192.833 110.676 192.329C130.925 191.734 153.608 183.371 166.939 168.495C181.111 152.68 186.841 132.449 197.079 114.646C208.211 95.2889 200.789 40.367 133.469 28.192Z" fill="#6962D5"/>
<path opacity="0.75" d="M133.469 28.192C90.9746 20.5066 26.0301 51.4448 42.2958 98.6958C45.7289 108.668 50.6947 117.994 54.5304 127.802C60.6661 143.49 54.165 159.148 66.4557 173.15C77.002 185.164 93.4982 192.833 110.676 192.329C130.925 191.734 153.608 183.371 166.939 168.495C181.111 152.68 186.841 132.449 197.079 114.646C208.211 95.2889 200.789 40.367 133.469 28.192Z" fill="white"/>
<path d="M119.548 218.96C158.317 218.96 189.746 215.036 189.746 210.196C189.746 205.357 158.317 201.433 119.548 201.433C80.7785 201.433 49.3496 205.357 49.3496 210.196C49.3496 215.036 80.7785 218.96 119.548 218.96Z" stroke="#263238" stroke-width="0.25" stroke-miterlimit="10"/>
<path d="M119.548 216.885C151.258 216.885 176.964 213.502 176.964 209.33C176.964 205.158 151.258 201.775 119.548 201.775C87.8381 201.775 62.1321 205.158 62.1321 209.33C62.1321 213.502 87.8381 216.885 119.548 216.885Z" stroke="#263238" stroke-width="0.5" stroke-miterlimit="10"/>
<path d="M119.548 215.167C144.045 215.167 163.904 212.554 163.904 209.33C163.904 206.107 144.045 203.494 119.548 203.494C95.0508 203.494 75.1919 206.107 75.1919 209.33C75.1919 212.554 95.0508 215.167 119.548 215.167Z" stroke="#263238" stroke-miterlimit="10"/>
<path d="M120.042 212.96C140.153 212.96 156.457 211.249 156.457 209.137C156.457 207.026 140.153 205.315 120.042 205.315C99.9309 205.315 83.6274 207.026 83.6274 209.137C83.6274 211.249 99.9309 212.96 120.042 212.96Z" fill="#6962D5"/>
<path opacity="0.5" d="M120.042 212.96C140.153 212.96 156.457 211.249 156.457 209.137C156.457 207.026 140.153 205.315 120.042 205.315C99.9309 205.315 83.6274 207.026 83.6274 209.137C83.6274 211.249 99.9309 212.96 120.042 212.96Z" fill="white"/>
<path d="M119.557 172.166C155.786 172.166 185.156 142.796 185.156 106.567C185.156 70.3381 155.786 40.9686 119.557 40.9686C83.3282 40.9686 53.9587 70.3381 53.9587 106.567C53.9587 142.796 83.3282 172.166 119.557 172.166Z" stroke="#263238" stroke-miterlimit="10" stroke-linecap="round" stroke-linejoin="round" stroke-dasharray="2 3"/>
<path d="M101.231 172.455C89.2196 173.713 78.5837 170.948 71.3194 163.684C53.6069 145.971 62.6461 108.214 91.5094 79.3504C120.373 50.4871 158.13 41.4474 175.843 59.1604C183.592 66.9097 186.22 78.4957 184.309 91.495" stroke="white" stroke-width="0.5" stroke-miterlimit="10"/>
<path d="M186.205 114.162C189.219 126.573 187.762 138.341 181.053 147.307C165.298 168.363 126.542 165.989 94.4903 142.006C62.4384 118.022 49.2281 81.51 64.9837 60.4545C72.1556 50.8699 84.094 46.1397 97.9959 46.0938" stroke="white" stroke-width="0.5" stroke-miterlimit="10"/>
<path d="M126.851 128.62C166.747 118.983 195.93 98.0934 192.033 81.9624C188.137 65.8314 152.636 60.5673 112.74 70.2048C72.8436 79.8422 43.6603 100.732 47.557 116.863C51.4537 132.994 86.9547 138.258 126.851 128.62Z" stroke="white" stroke-width="0.5" stroke-miterlimit="10"/>
<path d="M147.506 112.671C157.396 71.7286 152.337 35.3792 136.206 31.4825C120.075 27.5858 98.9808 57.6175 89.0905 98.5602C79.2003 139.503 84.2594 175.852 100.39 179.749C116.521 183.646 137.616 153.614 147.506 112.671Z" stroke="white" stroke-width="0.5" stroke-miterlimit="10"/>
<path d="M128.188 159.854C128.661 160.326 129.426 160.326 129.899 159.854C130.371 159.381 130.371 158.615 129.899 158.143C129.426 157.671 128.661 157.671 128.188 158.143C127.716 158.615 127.716 159.381 128.188 159.854Z" fill="white" stroke="white" stroke-width="0.5" stroke-miterlimit="10"/>
<path d="M83.3328 134.005C83.8052 134.477 84.5709 134.477 85.0433 134.005C85.5156 133.532 85.5156 132.767 85.0433 132.294C84.5709 131.822 83.8052 131.822 83.3328 132.294C82.8604 132.766 82.8604 133.532 83.3328 134.005Z" fill="white" stroke="white" stroke-width="0.5" stroke-miterlimit="10"/>
<path d="M67.272 114.143C67.7444 114.615 68.5101 114.615 68.9825 114.143C69.4549 113.67 69.4549 112.905 68.9825 112.432C68.5101 111.96 67.7444 111.96 67.272 112.432C66.7996 112.904 66.7996 113.67 67.272 114.143Z" fill="white" stroke="white" stroke-width="0.5" stroke-miterlimit="10"/>
<path d="M59.0994 94.9459C59.5718 95.4182 60.3375 95.4182 60.8099 94.9459C61.2822 94.4735 61.2822 93.7078 60.8099 93.2354C60.3375 92.763 59.5718 92.763 59.0994 93.2354C58.627 93.7078 58.627 94.4735 59.0994 94.9459Z" fill="white" stroke="white" stroke-width="0.5" stroke-miterlimit="10"/>
<path d="M62.1402 130.868C62.6126 131.341 63.3782 131.341 63.8506 130.868C64.323 130.396 64.323 129.63 63.8506 129.158C63.3782 128.685 62.6126 128.685 62.1402 129.158C61.6678 129.63 61.6678 130.396 62.1402 130.868Z" fill="white" stroke="white" stroke-width="0.5" stroke-miterlimit="10"/>
<path d="M95.6867 75.6541C96.1591 76.1265 96.9248 76.1265 97.3971 75.6541C97.8695 75.1817 97.8695 74.416 97.3971 73.9436C96.9248 73.4713 96.1591 73.4713 95.6867 73.9436C95.2148 74.416 95.2148 75.1817 95.6867 75.6541Z" fill="white" stroke="white" stroke-width="0.5" stroke-miterlimit="10"/>
<path d="M149.38 50.6608C149.853 51.1332 150.618 51.1332 151.091 50.6608C151.563 50.1884 151.563 49.4227 151.091 48.9504C150.618 48.478 149.853 48.478 149.38 48.9504C148.908 49.4223 148.908 50.1884 149.38 50.6608Z" fill="white" stroke="white" stroke-width="0.5" stroke-miterlimit="10"/>
<path d="M151.661 66.2461C152.134 66.7185 152.899 66.7185 153.372 66.2461C153.844 65.7738 153.844 65.0081 153.372 64.5357C152.899 64.0633 152.134 64.0633 151.661 64.5357C151.189 65.0076 151.189 65.7738 151.661 66.2461Z" fill="white" stroke="white" stroke-width="0.5" stroke-miterlimit="10"/>
<path d="M143.868 124.026C144.341 124.498 145.107 124.498 145.579 124.026C146.051 123.554 146.051 122.788 145.579 122.316C145.107 121.843 144.341 121.843 143.868 122.316C143.396 122.788 143.396 123.554 143.868 124.026Z" fill="white" stroke="white" stroke-width="0.5" stroke-miterlimit="10"/>
<path d="M90.3653 173.158C90.8377 173.63 91.6033 173.63 92.0757 173.158C92.5481 172.685 92.5481 171.92 92.0757 171.447C91.6033 170.975 90.8377 170.975 90.3653 171.447C89.8929 171.92 89.8929 172.685 90.3653 173.158Z" fill="white" stroke="white" stroke-width="0.5" stroke-miterlimit="10"/>
<path d="M182.357 72.8033C182.83 73.2757 183.595 73.2757 184.068 72.8033C184.54 72.3309 184.54 71.5652 184.068 71.0928C183.595 70.6204 182.83 70.6204 182.357 71.0928C181.885 71.5652 181.885 72.3309 182.357 72.8033Z" fill="white" stroke="white" stroke-width="0.5" stroke-miterlimit="10"/>
<path d="M103.215 41.1821L103.624 44.0397" stroke="white" stroke-width="0.5" stroke-miterlimit="10"/>
<path d="M137.05 172.133C149.062 173.391 159.698 170.626 166.962 163.362C184.674 145.649 175.635 107.892 146.772 79.0284C117.909 50.1651 80.1513 41.1254 62.4388 58.8384C54.6895 66.5877 52.0609 78.1737 53.9722 91.1729" stroke="white" stroke-width="0.5" stroke-miterlimit="10"/>
<path d="M52.0755 113.84C49.0616 126.251 50.5184 138.019 57.2276 146.985C72.9833 168.041 111.739 165.667 143.791 141.684C175.842 117.7 189.053 81.1881 173.298 60.1326C166.126 50.548 154.187 45.8178 140.285 45.7714" stroke="white" stroke-width="0.5" stroke-miterlimit="10"/>
<path d="M190.712 116.546C194.608 100.415 165.425 79.5256 125.529 69.8881C85.6329 60.2507 50.1319 65.5147 46.2352 81.6457C42.3386 97.7767 71.5219 118.666 111.418 128.304C151.314 137.941 186.815 132.677 190.712 116.546Z" stroke="white" stroke-width="0.5" stroke-miterlimit="10"/>
<path d="M137.878 179.422C154.009 175.525 159.068 139.176 149.178 98.2329C139.288 57.2903 118.194 27.2586 102.063 31.1553C85.9315 35.0519 80.8724 71.4014 90.7626 112.344C100.653 153.287 121.747 183.318 137.878 179.422Z" stroke="white" stroke-width="0.5" stroke-miterlimit="10"/>
<path d="M110.093 159.531C109.621 160.004 108.855 160.004 108.383 159.531C107.91 159.059 107.91 158.293 108.383 157.821C108.855 157.348 109.621 157.348 110.093 157.821C110.565 158.293 110.565 159.059 110.093 159.531Z" fill="white" stroke="white" stroke-width="0.5" stroke-miterlimit="10"/>
<path d="M154.949 133.682C154.476 134.155 153.71 134.155 153.238 133.682C152.766 133.21 152.766 132.444 153.238 131.972C153.71 131.499 154.476 131.499 154.949 131.972C155.42 132.444 155.42 133.21 154.949 133.682Z" fill="white" stroke="white" stroke-width="0.5" stroke-miterlimit="10"/>
<path d="M171.009 113.82C170.537 114.293 169.771 114.293 169.299 113.82C168.826 113.348 168.826 112.582 169.299 112.11C169.771 111.638 170.537 111.638 171.009 112.11C171.482 112.582 171.481 113.348 171.009 113.82Z" fill="white" stroke="white" stroke-width="0.5" stroke-miterlimit="10"/>
<path d="M179.182 94.6239C178.71 95.0963 177.944 95.0963 177.471 94.6239C176.999 94.1516 176.999 93.3859 177.471 92.9135C177.944 92.4411 178.71 92.4411 179.182 92.9135C179.654 93.3859 179.654 94.1516 179.182 94.6239Z" fill="white" stroke="white" stroke-width="0.5" stroke-miterlimit="10"/>
<path d="M176.141 130.546C175.668 131.019 174.903 131.019 174.43 130.546C173.958 130.074 173.958 129.308 174.43 128.836C174.903 128.364 175.668 128.364 176.141 128.836C176.613 129.308 176.613 130.074 176.141 130.546Z" fill="white" stroke="white" stroke-width="0.5" stroke-miterlimit="10"/>
<path d="M142.594 75.3322C142.122 75.8046 141.356 75.8046 140.884 75.3322C140.411 74.8598 140.411 74.0941 140.884 73.6217C141.356 73.1494 142.122 73.1494 142.594 73.6217C143.066 74.0941 143.066 74.8598 142.594 75.3322Z" fill="white" stroke="white" stroke-width="0.5" stroke-miterlimit="10"/>
<path d="M88.9007 50.3384C88.4283 50.8108 87.6626 50.8108 87.1902 50.3384C86.7178 49.866 86.7178 49.1004 87.1902 48.628C87.6626 48.1556 88.4283 48.1556 88.9007 48.628C89.3731 49.1004 89.3731 49.866 88.9007 50.3384Z" fill="white" stroke="white" stroke-width="0.5" stroke-miterlimit="10"/>
<path d="M86.6199 65.9242C86.1475 66.3966 85.3818 66.3966 84.9095 65.9242C84.4371 65.4519 84.4371 64.6862 84.9095 64.2138C85.3818 63.7414 86.1475 63.7414 86.6199 64.2138C87.0923 64.6857 87.0923 65.4519 86.6199 65.9242Z" fill="white" stroke="white" stroke-width="0.5" stroke-miterlimit="10"/>
<path d="M94.4124 123.704C93.94 124.177 93.1743 124.177 92.7019 123.704C92.2296 123.232 92.2296 122.466 92.7019 121.994C93.1743 121.521 93.94 121.521 94.4124 121.994C94.8848 122.466 94.8848 123.232 94.4124 123.704Z" fill="white" stroke="white" stroke-width="0.5" stroke-miterlimit="10"/>
<path d="M147.916 172.836C147.444 173.308 146.678 173.308 146.206 172.836C145.733 172.364 145.733 171.598 146.206 171.126C146.678 170.653 147.444 170.653 147.916 171.126C148.388 171.598 148.388 172.364 147.916 172.836Z" fill="white" stroke="white" stroke-width="0.5" stroke-miterlimit="10"/>
<path d="M55.9241 72.4814C55.4517 72.9538 54.686 72.9538 54.2137 72.4814C53.7413 72.009 53.7413 71.2433 54.2137 70.7709C54.686 70.2985 55.4517 70.2985 55.9241 70.7709C56.3965 71.2428 56.3965 72.009 55.9241 72.4814Z" fill="white" stroke="white" stroke-width="0.5" stroke-miterlimit="10"/>
<path d="M73.5158 159.481C68.6812 159.481 64.7617 155.562 64.7617 150.727C64.7617 145.892 68.6812 141.973 73.5158 141.973C78.3505 141.973 82.2699 145.892 82.2699 150.727C82.2699 155.562 78.3505 159.481 73.5158 159.481Z" fill="#263238" stroke="#263238" stroke-miterlimit="10" stroke-linecap="round" stroke-linejoin="round"/>
<path d="M73.5159 146.792C74.7975 146.792 74.9495 146.797 75.4553 146.82C75.9233 146.841 76.1774 146.92 76.3468 146.986C76.5709 147.073 76.7306 147.177 76.8986 147.345C77.0665 147.513 77.1706 147.672 77.2577 147.896C77.3235 148.066 77.4014 148.32 77.4232 148.788C77.4465 149.294 77.4513 149.446 77.4513 150.727C77.4513 152.009 77.4465 152.161 77.4232 152.667C77.4019 153.135 77.3235 153.389 77.2577 153.558C77.1706 153.782 77.0665 153.942 76.8986 154.11C76.7306 154.278 76.5709 154.382 76.3468 154.469C76.1774 154.535 75.9233 154.613 75.4553 154.635C74.949 154.658 74.7975 154.663 73.5159 154.663C72.2343 154.663 72.0823 154.658 71.5765 154.635C71.1085 154.613 70.8544 154.535 70.6855 154.469C70.4614 154.382 70.3016 154.278 70.1337 154.11C69.9658 153.942 69.8617 153.782 69.7746 153.558C69.7087 153.389 69.6308 153.135 69.609 152.667C69.5858 152.16 69.581 152.009 69.581 150.727C69.581 149.446 69.5858 149.294 69.609 148.788C69.6303 148.32 69.7087 148.066 69.7746 147.896C69.8617 147.672 69.9658 147.513 70.1337 147.345C70.3016 147.177 70.4614 147.073 70.6855 146.986C70.8544 146.92 71.109 146.841 71.5765 146.82C72.0823 146.797 72.2343 146.792 73.5159 146.792ZM73.5159 145.927C72.2125 145.927 72.0489 145.933 71.5368 145.956C71.0257 145.979 70.6772 146.061 70.3718 146.179C70.0563 146.302 69.7886 146.466 69.5214 146.733C69.2548 147 69.0907 147.267 68.9677 147.583C68.8492 147.889 68.7678 148.238 68.7446 148.748C68.7214 149.26 68.7156 149.424 68.7156 150.727C68.7156 152.031 68.7209 152.194 68.7446 152.706C68.7678 153.217 68.8492 153.566 68.9677 153.871C69.0902 154.187 69.2543 154.455 69.5214 154.722C69.7881 154.988 70.0558 155.153 70.3718 155.275C70.6772 155.394 71.0262 155.475 71.5368 155.499C72.0489 155.522 72.2125 155.528 73.5159 155.528C74.8193 155.528 74.9829 155.522 75.495 155.499C76.0061 155.475 76.355 155.394 76.66 155.275C76.9755 155.153 77.2432 154.988 77.5103 154.722C77.777 154.455 77.9411 154.187 78.064 153.871C78.1826 153.566 78.2639 153.217 78.2872 152.706C78.3104 152.194 78.3157 152.031 78.3157 150.727C78.3157 149.424 78.3104 149.26 78.2872 148.748C78.2639 148.237 78.1826 147.889 78.064 147.583C77.9416 147.268 77.777 147 77.5103 146.733C77.2437 146.466 76.9755 146.302 76.66 146.179C76.3545 146.061 76.0056 145.979 75.495 145.956C74.9829 145.932 74.8193 145.927 73.5159 145.927Z" fill="#6962D5"/>
<path d="M73.5158 148.262C72.1548 148.262 71.0508 149.366 71.0508 150.727C71.0508 152.088 72.1543 153.192 73.5158 153.192C74.8768 153.192 75.9808 152.088 75.9808 150.727C75.9803 149.366 74.8768 148.262 73.5158 148.262ZM73.5158 152.327C72.632 152.327 71.9157 151.611 71.9157 150.727C71.9157 149.843 72.632 149.127 73.5158 149.127C74.3996 149.127 75.1159 149.843 75.1159 150.727C75.1154 151.611 74.3996 152.327 73.5158 152.327Z" fill="#6962D5"/>
<path d="M76.6541 148.165C76.6541 148.483 76.3961 148.741 76.0782 148.741C75.7597 148.741 75.5022 148.483 75.5022 148.165C75.5022 147.847 75.7602 147.589 76.0782 147.589C76.3961 147.589 76.6541 147.847 76.6541 148.165Z" fill="#6962D5"/>
<path d="M150.053 56.9959C145.219 56.9959 141.299 53.0765 141.299 48.2418C141.299 43.4071 145.219 39.4877 150.053 39.4877C154.888 39.4877 158.807 43.4071 158.807 48.2418C158.808 53.0765 154.888 56.9959 150.053 56.9959Z" fill="#263238"/>
<path d="M148.666 53.5333H150.798V48.1968H152.284L152.443 46.4098H150.798C150.798 46.4098 150.798 45.7429 150.798 45.392C150.798 44.9709 150.883 44.8044 151.29 44.8044C151.617 44.8044 152.443 44.8044 152.443 44.8044V42.9502C152.443 42.9502 151.227 42.9502 150.967 42.9502C149.382 42.9502 148.667 43.6486 148.667 44.9854C148.667 46.1499 148.667 46.4098 148.667 46.4098H147.559V48.219H148.667V53.5333H148.666Z" fill="#6962D5"/>
<path d="M65.1396 73.6852C60.3049 73.6852 56.3855 69.7658 56.3855 64.9311C56.3855 60.0964 60.3049 56.177 65.1396 56.177C69.9743 56.177 73.8937 60.0964 73.8937 64.9311C73.8937 69.7658 69.9743 73.6852 65.1396 73.6852Z" fill="#263238" stroke="#263238" stroke-miterlimit="10" stroke-linecap="round" stroke-linejoin="round"/>
<path d="M60.4753 67.8617C61.3223 68.4047 62.3281 68.7218 63.4089 68.7218C66.9624 68.7218 68.9695 65.7205 68.849 63.0285C69.2227 62.7589 69.5474 62.422 69.804 62.0377C69.4603 62.1902 69.0915 62.2928 68.7048 62.3393C69.0997 62.1031 69.4032 61.7275 69.546 61.2803C69.1762 61.4995 68.7667 61.6592 68.3311 61.7449C67.9817 61.3727 67.4846 61.1409 66.9338 61.1409C65.6987 61.1409 64.7907 62.2938 65.07 63.4907C63.4795 63.4108 62.0692 62.649 61.1254 61.4908C60.6239 62.3514 60.8654 63.4767 61.7178 64.0463C61.4037 64.0366 61.1084 63.95 60.8504 63.8067C60.8296 64.6934 61.4651 65.523 62.3857 65.7079C62.1161 65.7815 61.8213 65.7979 61.5218 65.7403C61.7647 66.5012 62.4718 67.0539 63.3092 67.0694C62.5043 67.7 61.4908 67.9817 60.4753 67.8617Z" fill="#6962D5"/>
<path d="M167.01 158.943C171.896 158.943 175.857 154.982 175.857 150.096C175.857 145.21 171.896 141.25 167.01 141.25C162.124 141.25 158.164 145.21 158.164 150.096C158.164 154.982 162.124 158.943 167.01 158.943Z" fill="#263238"/>
<path d="M172.683 149.439C172.636 149.439 172.808 149.427 172.942 149.427C173.519 149.427 173.987 148.985 173.987 148.441C173.987 147.896 173.519 147.455 172.942 147.455C172.938 147.455 172.935 147.455 172.932 147.455L172.933 147.447H169.201C169.201 147.447 169.432 146.1 169.432 145.639C169.432 145.177 169.663 144.484 169.047 143.599C168.431 142.714 167.007 143.06 167.007 143.06L167.224 144.888C167.259 145.176 167.203 145.468 167.067 145.724L165.391 148.871L164.622 149.526L164.391 153.413C164.891 154.606 166.469 154.99 166.469 154.99H171.422C171.453 154.993 171.484 154.995 171.516 154.995C172.093 154.995 172.561 154.553 172.561 154.009C172.561 153.663 172.372 153.359 172.086 153.183C172.149 153.194 172.214 153.201 172.281 153.201C172.858 153.201 173.326 152.76 173.326 152.215C173.326 151.874 173.142 151.573 172.863 151.396C173.355 151.316 173.73 150.913 173.73 150.426C173.729 149.88 173.261 149.439 172.683 149.439Z" fill="white"/>
<path d="M171.515 155.148C171.481 155.148 171.448 155.146 171.415 155.144H166.468C166.456 155.144 166.443 155.142 166.432 155.139C166.365 155.123 164.773 154.722 164.248 153.472C164.239 153.45 164.235 153.427 164.237 153.403L164.468 149.516C164.47 149.474 164.49 149.435 164.522 149.408L165.269 148.773L166.932 145.652C167.054 145.422 167.102 145.165 167.072 144.907L166.855 143.079C166.846 143.001 166.895 142.929 166.971 142.911C167.034 142.896 168.506 142.551 169.174 143.512C169.701 144.269 169.645 144.897 169.604 145.355C169.595 145.458 169.586 145.556 169.586 145.639C169.586 146.01 169.446 146.908 169.383 147.294H172.934C172.951 147.294 172.969 147.297 172.985 147.302C173.626 147.324 174.141 147.827 174.141 148.442C174.141 148.922 173.827 149.334 173.384 149.501C173.686 149.708 173.882 150.046 173.882 150.426C173.882 150.883 173.6 151.282 173.18 151.463C173.37 151.669 173.478 151.934 173.478 152.215C173.478 152.777 173.048 153.246 172.484 153.338C172.632 153.53 172.714 153.764 172.714 154.009C172.714 154.637 172.176 155.148 171.515 155.148ZM166.488 154.836H171.421C171.425 154.836 171.429 154.836 171.433 154.836C171.46 154.838 171.487 154.84 171.514 154.84C172.006 154.84 172.406 154.467 172.406 154.008C172.406 153.728 172.255 153.469 172.004 153.314C171.941 153.275 171.914 153.197 171.941 153.128C171.967 153.059 172.038 153.019 172.112 153.031C172.17 153.041 172.225 153.047 172.28 153.047C172.771 153.047 173.171 152.673 173.171 152.215C173.171 151.939 173.024 151.681 172.779 151.526C172.725 151.492 172.698 151.428 172.71 151.365C172.723 151.302 172.773 151.254 172.837 151.244C173.264 151.174 173.575 150.83 173.575 150.425C173.575 149.966 173.175 149.593 172.684 149.593C172.681 149.593 172.672 149.593 172.669 149.593C172.587 149.588 172.522 149.52 172.522 149.439C172.522 149.273 172.662 149.273 172.942 149.273C173.434 149.273 173.834 148.9 173.834 148.441C173.834 147.982 173.434 147.609 172.942 147.609C172.944 147.609 172.937 147.609 172.932 147.609C172.915 147.609 172.898 147.606 172.882 147.601H169.201C169.156 147.601 169.113 147.581 169.084 147.546C169.054 147.512 169.042 147.466 169.05 147.421C169.052 147.408 169.278 146.082 169.278 145.639C169.278 145.541 169.287 145.437 169.298 145.327C169.336 144.893 169.384 144.353 168.921 143.687C168.478 143.049 167.529 143.13 167.178 143.185L167.378 144.87C167.416 145.191 167.356 145.511 167.204 145.796L165.528 148.944C165.519 148.961 165.507 148.976 165.492 148.989L164.772 149.601L164.547 153.385C164.998 154.405 166.323 154.791 166.488 154.836Z" fill="#263238"/>
<path d="M164.048 155.605H162.051C161.48 155.605 161.016 155.142 161.016 154.571V149.136C161.016 148.565 161.48 148.102 162.051 148.102H164.048C164.62 148.102 165.083 148.565 165.083 149.136V154.571C165.083 155.142 164.62 155.605 164.048 155.605Z" fill="#6962D5" stroke="#263238" stroke-miterlimit="10" stroke-linecap="round" stroke-linejoin="round"/>
<path d="M179.139 62.5314C175.34 62.5314 172.261 65.6106 172.261 69.409C172.261 73.2074 179.139 81.4703 179.139 81.4703C179.139 81.4703 186.016 73.2074 186.016 69.409C186.017 65.6106 182.938 62.5314 179.139 62.5314ZM179.139 73.2466C177.129 73.2466 175.5 71.6175 175.5 69.6084C175.5 67.5988 177.13 65.9702 179.139 65.9702C181.148 65.9702 182.777 67.5993 182.777 69.6084C182.777 71.618 181.148 73.2466 179.139 73.2466Z" fill="#263238"/>
<path d="M195.193 109.016L195.227 108.991H195.16L184.311 100.835L173.461 108.991H173.394L173.428 109.016L173.394 109.042H173.465L184.407 116.913L195.158 109.042H195.227L195.193 109.016Z" fill="#6962D5" stroke="#263238" stroke-miterlimit="10" stroke-linecap="round" stroke-linejoin="round"/>
<path d="M191.458 101.651H176.813V119.828H191.458V101.651Z" fill="white" stroke="#6962D5" stroke-miterlimit="10" stroke-linecap="round" stroke-linejoin="round"/>
<path d="M187.259 106.598C187.259 108.704 186.301 109.916 185.312 109.916C184.801 109.916 184.504 109.661 184.472 109.193C184.259 109.661 183.897 109.927 183.376 109.916C182.578 109.906 182.301 109.236 182.397 108.289L182.514 107.226C182.61 106.258 183.046 105.651 183.833 105.673C184.312 105.673 184.62 105.928 184.748 106.375L184.823 105.715H185.546L185.227 108.768C185.195 109.012 185.269 109.225 185.535 109.225C186.354 109.225 186.63 107.662 186.62 106.619C186.62 105.141 185.929 104.184 184.333 104.184C182.206 104.184 181.216 105.95 181.216 108.332C181.216 110.172 182.057 111.278 183.907 111.278C184.652 111.278 185.333 111.129 186.003 110.608L185.939 111.342C185.29 111.789 184.609 111.916 183.865 111.916C181.525 111.916 180.504 110.48 180.504 108.289C180.504 105.758 181.716 103.535 184.354 103.535C186.493 103.535 187.259 104.843 187.259 106.598ZM183.227 107.3L183.132 108.258C183.068 108.811 183.238 109.204 183.738 109.215C184.227 109.226 184.493 108.843 184.557 108.268L184.663 107.247C184.717 106.747 184.514 106.396 184.046 106.396C183.557 106.386 183.291 106.726 183.227 107.3Z" fill="#263238"/>
<path d="M173.394 108.991V121.647H195.227V108.991L184.311 115.319L173.394 108.991Z" fill="#6962D5" stroke="#263238" stroke-miterlimit="10" stroke-linecap="round" stroke-linejoin="round"/>
<path d="M173.394 121.647L184.311 115.319L195.227 121.647" stroke="#263238" stroke-miterlimit="10" stroke-linecap="round" stroke-linejoin="round"/>
<path d="M115.262 38.8531H92.0825V54.9287H115.262V38.8531Z" fill="#263238" stroke="#263238" stroke-miterlimit="10" stroke-linecap="round" stroke-linejoin="round"/>
<path d="M104.897 52.0651C107.752 51.3878 109.518 48.5242 108.841 45.6689C108.163 42.8137 105.3 41.0481 102.445 41.7253C99.5893 42.4026 97.8237 45.2663 98.501 48.1216C99.1783 50.9768 102.042 52.7424 104.897 52.0651Z" fill="#6962D5"/>
<path d="M107.524 46.9867L101.03 43.2377V50.7358L107.524 46.9867Z" fill="#263238" stroke="#263238" stroke-miterlimit="10" stroke-linecap="round" stroke-linejoin="round"/>
<path d="M92.593 53.3151H114.629" stroke="white" stroke-miterlimit="10" stroke-linecap="round" stroke-linejoin="round"/>
<path d="M67.4576 111.125C67.519 110.794 67.5553 110.455 67.5553 110.106C67.5553 107.045 65.0739 104.563 62.013 104.563C60.8727 104.563 59.8137 104.908 58.9324 105.499C57.8134 102.782 55.1407 100.869 52.0204 100.869C47.8928 100.869 44.5469 104.214 44.5469 108.342C44.5469 108.434 44.5503 108.525 44.5537 108.616C42.5146 109.197 41.02 111.07 41.02 113.296C41.02 115.757 42.8476 117.787 45.2187 118.115V118.167H67.2194C69.167 118.167 70.7463 116.588 70.7463 114.64C70.7458 112.773 69.2938 111.248 67.4576 111.125Z" fill="white" stroke="#6962D5" stroke-miterlimit="10" stroke-linecap="round" stroke-linejoin="round"/>
<path d="M61.18 115.914L55.084 108.24L48.988 115.914H51.3727V122.818H58.7958V115.914H61.18Z" fill="#263238"/>
<path d="M106.29 203.553C106.29 203.553 105.116 204.454 104.128 205.443C103.139 206.431 100.372 207.518 98.6919 208.704C97.0119 209.89 97.9998 211.076 99.4827 211.57C100.965 212.065 105.215 211.669 106.796 211.373C108.378 211.076 109.169 209.199 110.453 208.902C111.738 208.605 114.11 209.693 114.209 207.815C114.308 205.937 114.406 204.059 114.406 204.059L106.29 203.553Z" fill="white" stroke="#263238" stroke-miterlimit="10" stroke-linecap="round" stroke-linejoin="round"/>
<path d="M114.209 207.815C114.229 207.433 114.25 207.053 114.268 206.687C113.194 207.461 111.839 207.427 110.058 207.815C107.785 208.309 106.994 210.483 102.448 210.681C99.5074 210.809 98.3076 210.276 97.8241 209.883C97.7447 210.615 98.5031 211.244 99.4827 211.57C100.965 212.065 105.215 211.669 106.796 211.373C108.378 211.076 109.169 209.199 110.453 208.902C111.738 208.605 114.11 209.693 114.209 207.815Z" fill="white" stroke="#263238" stroke-miterlimit="10" stroke-linecap="round" stroke-linejoin="round"/>
<path d="M107.192 203.169C107.192 203.169 104.919 205.937 104.128 206.826C103.337 207.716 105.611 207.419 106.599 206.53C107.587 205.64 109.168 203.565 109.168 203.565L107.192 203.169Z" fill="white" stroke="#263238" stroke-miterlimit="10" stroke-linecap="round" stroke-linejoin="round"/>
<path d="M138.347 203.553C138.347 203.553 139.521 204.454 140.509 205.443C141.498 206.431 144.265 207.518 145.945 208.704C147.625 209.89 146.637 211.076 145.154 211.57C143.672 212.065 139.422 211.669 137.841 211.373C136.259 211.076 135.469 209.199 134.184 208.902C132.899 208.605 130.527 209.693 130.428 207.815C130.329 205.937 130.231 204.059 130.231 204.059L138.347 203.553Z" fill="white" stroke="#263238" stroke-miterlimit="10" stroke-linecap="round" stroke-linejoin="round"/>
<path d="M130.428 207.815C130.408 207.433 130.388 207.053 130.369 206.687C131.443 207.461 132.798 207.427 134.579 207.815C136.852 208.309 137.643 210.483 142.189 210.681C145.13 210.809 146.329 210.276 146.813 209.883C146.892 210.615 146.134 211.244 145.154 211.57C143.672 212.065 139.422 211.669 137.841 211.373C136.259 211.076 135.469 209.199 134.184 208.902C132.899 208.605 130.527 209.693 130.428 207.815Z" fill="white" stroke="#263238" stroke-miterlimit="10" stroke-linecap="round" stroke-linejoin="round"/>
<path d="M137.446 203.169C137.446 203.169 139.719 205.937 140.509 206.826C141.3 207.716 139.027 207.419 138.039 206.53C137.05 205.64 135.469 203.565 135.469 203.565L137.446 203.169Z" fill="white" stroke="#263238" stroke-miterlimit="10" stroke-linecap="round" stroke-linejoin="round"/>
<path d="M107.524 132.938C107.524 132.938 106.29 144.048 106.29 145.843C106.29 147.638 106.29 170.284 106.567 174.288C106.843 178.292 105.462 179.942 106.29 185.05C107.119 190.159 107.395 199.135 107.395 199.135C107.395 199.135 106.29 199.825 106.29 200.515C106.29 201.206 106.29 203.553 106.29 203.553L114.604 204.454C114.604 204.454 115.128 197.339 115.266 195.13C115.403 192.921 117.475 178.982 118.027 174.978C118.579 170.974 120.76 148.171 120.76 148.171C120.76 148.171 124.379 173.459 124.655 174.288C124.932 175.116 125.346 175.799 126.588 180.355C127.831 184.912 128.936 200.653 128.936 200.653L130.121 205.047L138.621 203.466C138.621 203.466 137.358 196.372 137.358 195.268C137.358 194.163 137.082 194.578 136.806 191.816C136.53 189.054 136.116 184.368 136.392 176.359C136.668 168.35 132.94 147.086 132.94 147.086L131.835 132.863C131.835 132.863 118.147 136.05 107.524 132.938Z" fill="#263238" stroke="#263238" stroke-miterlimit="10" stroke-linecap="round" stroke-linejoin="round"/>
<path d="M124.123 144.691L121.887 148.844C121.887 148.844 126.679 145.969 129.713 145.49" stroke="white" stroke-miterlimit="10" stroke-linecap="round" stroke-linejoin="round"/>
<path d="M116.724 147.402C116.724 147.402 114.645 144.045 110.969 143.086" stroke="white" stroke-miterlimit="10" stroke-linecap="round" stroke-linejoin="round"/>
<path d="M107.114 134.105C107.114 134.105 105.67 137.714 106.391 138.797C107.113 139.88 113.791 142.587 120.47 142.587C127.148 142.587 133.645 140.241 133.645 138.617C133.645 136.992 132.382 133.022 132.382 133.022C132.382 133.022 121.552 138.076 107.114 134.105Z" fill="#6962D5" stroke="#263238" stroke-miterlimit="10" stroke-linecap="round" stroke-linejoin="round"/>
<path d="M109.319 99.7428C109.319 99.7428 104.497 99.7428 103.375 100.64C102.254 101.537 102.141 105.238 102.029 105.911C101.917 106.584 99.3623 118.625 99.3623 118.625L104.748 126.033L106.739 116.565L106.934 134.98C106.934 134.98 107.3 136.788 108.534 137.461C109.767 138.134 118.402 138.806 122.439 138.806C126.476 138.806 132.294 136.782 132.743 135.549C133.191 134.315 131.86 120.489 131.86 120.489L133.774 124.748L138.363 116.885C138.363 116.885 135.224 106.471 134.776 104.228C134.327 101.986 133.093 101.313 130.626 100.303C128.159 99.2941 120.87 99.6305 117.954 99.6305C115.038 99.631 109.319 99.7428 109.319 99.7428Z" fill="#6962D5" stroke="#263238" stroke-miterlimit="10" stroke-linecap="round" stroke-linejoin="round"/>
<path d="M110.543 135.91C110.543 135.91 113.431 135.729 114.152 132.481C114.875 129.232 115.235 127.427 115.235 127.427L116.498 127.247C116.498 127.247 116.498 129.593 116.137 132.661C115.776 135.729 114.694 136.632 114.152 136.632" stroke="#263238" stroke-miterlimit="10" stroke-linecap="round" stroke-linejoin="round"/>
<path d="M130.577 134.285C132.021 130.676 128.772 126.524 128.772 126.524L127.509 126.344C127.509 126.344 131.118 131.036 129.314 134.646" stroke="#263238" stroke-miterlimit="10" stroke-linecap="round" stroke-linejoin="round"/>
<path d="M106.739 116.565L105.954 110.845" stroke="#263238" stroke-miterlimit="10" stroke-linecap="round" stroke-linejoin="round"/>
<path d="M131.86 120.489L131.411 110.06" stroke="#263238" stroke-miterlimit="10" stroke-linecap="round" stroke-linejoin="round"/>
<path d="M132.784 121.118C132.784 121.118 131.386 118.521 135.979 116.325" stroke="#263238" stroke-miterlimit="10" stroke-linecap="round" stroke-linejoin="round"/>
<path d="M133.583 115.725C133.583 115.725 135.979 114.727 137.577 114.727" stroke="#263238" stroke-miterlimit="10" stroke-linecap="round" stroke-linejoin="round"/>
<path d="M101.23 116.325C101.23 116.325 105.025 117.523 105.824 120.518" stroke="#263238" stroke-miterlimit="10" stroke-linecap="round" stroke-linejoin="round"/>
<path d="M105.624 117.723C105.624 117.723 104.226 115.327 102.03 114.927" stroke="#263238" stroke-miterlimit="10" stroke-linecap="round" stroke-linejoin="round"/>
<path d="M116.305 94.7043C116.305 94.7043 113.761 94.7043 113.007 95.2696C112.254 95.8349 111.876 97.3426 111.499 97.6252C111.122 97.9079 109.426 97.8135 109.05 98.8502C108.673 99.8865 108.673 99.6038 111.594 102.336C114.514 105.068 121.769 108.177 122.523 108.177C123.276 108.177 128.176 102.524 129.589 101.865C131.002 101.205 131.191 101.205 131.285 100.829C131.379 100.452 131.191 98.5676 129.966 97.814C128.741 97.0604 127.139 96.8716 127.139 96.8716C127.139 96.8716 126.951 95.741 125.443 94.8931C123.936 94.0451 121.863 93.8568 120.356 93.8568C118.849 93.8563 116.305 94.7043 116.305 94.7043Z" fill="#6962D5" stroke="#263238" stroke-miterlimit="10" stroke-linecap="round" stroke-linejoin="round"/>
<path d="M127.139 96.8712C127.139 96.8712 126.993 98.9505 126.194 100.947" stroke="#263238" stroke-miterlimit="10" stroke-linecap="round" stroke-linejoin="round"/>
<path d="M112.014 98.9504C112.014 98.9504 112.414 100.149 114.611 101.347" stroke="#263238" stroke-miterlimit="10" stroke-linecap="round" stroke-linejoin="round"/>
<path d="M120.757 106.808L120.981 119.144" stroke="white" stroke-miterlimit="10" stroke-linecap="round" stroke-linejoin="round"/>
<path d="M123.448 106.92L124.57 118.359" stroke="white" stroke-miterlimit="10" stroke-linecap="round" stroke-linejoin="round"/>
<path d="M99.7877 109.595L95.3054 111.136C94.9192 111.269 94.4981 111.063 94.365 110.677L91.0559 101.056C90.9228 100.67 91.1285 100.249 91.5147 100.116L95.997 98.5743C96.3833 98.4412 96.8044 98.6469 96.9375 99.0332L100.247 108.654C100.38 109.041 100.174 109.461 99.7877 109.595Z" fill="#263238" stroke="#263238" stroke-miterlimit="10" stroke-linecap="round" stroke-linejoin="round"/>
<path d="M95.6845 114.807C95.2914 114.414 91.691 105.837 91.3633 105.052C91.0361 104.266 95.0296 101.516 95.0296 101.516C95.0296 101.516 96.077 100.861 96.077 101.451C96.077 102.04 94.0476 103.808 93.7857 104.266C93.5239 104.724 94.3747 106.164 94.3747 106.164C94.3747 106.164 96.9278 104.789 97.1243 104.789C97.3209 104.789 100.136 107.212 100.398 107.474C100.659 107.736 101.38 108.521 101.183 108.914C100.987 109.307 100.528 109.111 100.201 109.045C99.874 108.979 96.9932 110.027 96.9932 110.027C96.9932 110.027 98.1064 111.598 97.9752 112.515C97.8441 113.431 97.5822 114.217 97.5822 114.217C97.5822 114.217 103.799 121.851 104.584 122.309C105.37 122.768 105.813 124.445 105.289 126.213C104.765 127.981 103.537 127.874 101.9 127.809C100.264 127.744 95.6845 114.807 95.6845 114.807Z" fill="white" stroke="#263238" stroke-miterlimit="10" stroke-linecap="round" stroke-linejoin="round"/>
<path d="M98.1723 106.034C98.1723 106.034 97.059 106.034 96.7972 106.23C96.5354 106.427 94.5713 107.736 94.5713 107.736" stroke="#263238" stroke-miterlimit="10" stroke-linecap="round" stroke-linejoin="round"/>
<path d="M95.2915 108.849C95.2915 108.849 97.1249 107.54 97.5174 107.409C97.9104 107.278 100.005 107.278 100.005 107.278" stroke="#263238" stroke-miterlimit="10" stroke-linecap="round" stroke-linejoin="round"/>
<path d="M100.595 107.801C100.595 107.801 97.7138 108.39 97.3212 108.522C96.9282 108.652 95.8809 109.634 95.8809 109.634" stroke="#263238" stroke-miterlimit="10" stroke-linecap="round" stroke-linejoin="round"/>
<path d="M94.3748 106.164L93.5239 106.689" stroke="#263238" stroke-miterlimit="10" stroke-linecap="round" stroke-linejoin="round"/>
<path d="M138.011 117.43L148.794 108.861C148.794 108.861 148.313 105.78 148.409 105.299C148.505 104.817 149.372 102.025 151.49 100.966C153.608 99.9068 154.282 99.7141 154.282 100.484C154.282 101.254 153.512 101.447 153.319 101.736C153.127 102.025 152.068 103.084 152.068 103.084C152.068 103.084 154.09 102.217 154.764 102.217C155.437 102.217 156.593 101.928 156.593 102.603C156.593 103.277 155.823 103.277 155.342 103.277C154.86 103.277 153.512 104.625 153.512 104.625C153.512 104.625 156.304 103.951 156.882 103.951C157.46 103.951 157.941 104.625 157.46 104.913C156.979 105.202 156.401 105.299 156.112 105.395C155.823 105.491 154.861 106.069 154.861 106.069C154.861 106.069 157.749 105.78 157.556 106.55C157.364 107.32 156.016 107.128 155.727 107.128C155.438 107.128 154.283 107.706 154.09 108.091C153.897 108.476 153.512 110.113 152.742 110.498C151.972 110.883 150.527 111.46 150.527 111.46C150.527 111.46 145.617 117.43 143.595 119.741C141.573 122.051 137.914 124.748 135.892 125.229C133.87 125.71 133.485 125.132 133.389 124.266C133.293 123.4 133.383 120.319 138.011 117.43Z" fill="white" stroke="#263238" stroke-miterlimit="10" stroke-linecap="round" stroke-linejoin="round"/>
<path d="M148.89 104.047C148.89 104.047 151.201 102.988 151.683 102.988C152.164 102.988 152.934 103.373 152.356 104.047C151.778 104.721 150.238 105.684 150.238 105.684C150.238 105.684 153.031 106.839 151.683 108.958" stroke="#263238" stroke-miterlimit="10" stroke-linecap="round" stroke-linejoin="round"/>
<path d="M121.686 78.1627C121.686 78.1627 118.667 78.6873 117.272 80.3939C115.877 82.1005 111.29 92.4024 111.303 93.3249C111.316 94.2474 115.968 93.7794 115.968 93.7794C115.968 93.7794 116.44 98.9384 118.084 102.715C118.531 103.743 120.135 105.772 121.854 105.014C123.573 104.256 124.316 92.4862 124.316 92.4862C124.316 92.4862 125.949 94.8074 127.188 94.1865C128.605 93.4764 128.348 91.7403 127.334 91.6416C126.32 91.5428 130.578 87.7604 129.527 84.8941C128.475 82.0274 122.992 77.3684 121.686 78.1627Z" fill="white" stroke="#263238" stroke-miterlimit="10" stroke-linecap="round" stroke-linejoin="round"/>
<path d="M120.887 74.809C120.887 74.809 115.208 74.2558 114.637 76.9643C114.067 79.6727 116.888 81.176 120.183 80.9849C123.478 80.7937 126.399 81.2835 126.754 81.8299C127.11 82.3764 122.651 82.9659 123.596 83.7741C124.541 84.5829 125.565 84.58 125.565 84.58C125.565 84.58 124.106 84.8472 124.109 85.8713C124.111 86.8955 124.557 91.461 125.267 91.5302C125.976 91.5995 127.334 91.6416 127.334 91.6416C127.334 91.6416 129.349 90.9165 131.029 89.4423C132.708 87.968 133.449 84.5597 131.721 82.3439C129.991 80.1282 128.661 78.0233 127.298 76.2528C125.935 74.4823 124.683 72.6199 121.68 71.9181C118.678 71.2158 116.937 72.2743 120.887 74.809Z" fill="#263238" stroke="#263238" stroke-miterlimit="10" stroke-linecap="round" stroke-linejoin="round"/>
<path d="M131.708 86.4318C131.776 87.4811 131.594 88.2376 131.594 88.2376" stroke="white" stroke-miterlimit="10" stroke-linecap="round" stroke-linejoin="round"/>
<path d="M121.994 78.1495C121.994 78.1495 115.712 78.149 117.947 79.5667C120.183 80.9848 123.998 79.1074 128.356 81.3435C130.197 82.2882 131.06 83.6647 131.444 84.9396" stroke="white" stroke-miterlimit="10" stroke-linecap="round" stroke-linejoin="round"/>
<path d="M125.312 83.2399C125.312 83.2399 129.36 85.7315 129.632 88.8093" stroke="white" stroke-miterlimit="10" stroke-linecap="round" stroke-linejoin="round"/>
<path d="M115.968 93.7794C115.968 93.7794 120.865 93.9493 122.292 92.9624" stroke="#263238" stroke-miterlimit="10" stroke-linecap="round" stroke-linejoin="round"/>
<path d="M114.842 89.575C114.842 89.575 118.292 90.9346 119.514 88.9042" stroke="#263238" stroke-miterlimit="10" stroke-linecap="round" stroke-linejoin="round"/>
<path d="M118.945 88.4395L120.407 89.1959" stroke="#263238" stroke-miterlimit="10" stroke-linecap="round" stroke-linejoin="round"/>
<path d="M116.412 85.019C116.412 85.019 113.228 85.1183 113.179 85.6255C113.13 86.1327 115.02 87.7498 115.02 87.7498" fill="white"/>
<path d="M116.412 85.019C116.412 85.019 113.228 85.1183 113.179 85.6255C113.13 86.1327 115.02 87.7498 115.02 87.7498" stroke="#263238" stroke-miterlimit="10" stroke-linecap="round" stroke-linejoin="round"/>
<path d="M116.907 84.0844C116.717 84.5088 116.392 84.776 116.18 84.6816C115.968 84.5873 115.949 84.1662 116.138 83.7422C116.327 83.3177 116.653 83.0506 116.865 83.1449C117.078 83.2393 117.096 83.6599 116.907 84.0844Z" fill="#263238"/>
<path d="M119.441 85.6961C119.251 86.1205 118.926 86.3877 118.714 86.2933C118.502 86.199 118.483 85.7779 118.672 85.3534C118.861 84.9289 119.187 84.6618 119.399 84.7561C119.611 84.8515 119.63 85.2721 119.441 85.6961Z" fill="#263238"/>
<path d="M119.868 82.8303C119.868 82.8303 121.39 83.1193 121.046 85.199L119.868 82.8303Z" fill="#263238" stroke="#263238" stroke-miterlimit="10" stroke-linecap="round" stroke-linejoin="round"/>
<path d="M118.568 81.7171C118.568 81.7171 117.839 80.5192 116.573 81.9456L118.568 81.7171Z" fill="#263238" stroke="#263238" stroke-miterlimit="10" stroke-linecap="round" stroke-linejoin="round"/>
<path d="M92.9503 97.5924L92.8739 94.1487C93.8206 94.1487 94.5955 93.3738 94.5955 92.4271V83.0535C94.5955 82.1068 93.8206 81.3319 92.8739 81.3319H71.2565C70.3098 81.3319 69.5349 82.1068 69.5349 83.0535V92.4271C69.5349 93.3738 70.3098 94.1487 71.2565 94.1487H89.9495L92.9503 97.5924Z" fill="#263238"/>
<path d="M76.7214 87.3578C76.7214 86.7765 76.2504 86.3055 75.6692 86.3055C75.0879 86.3055 74.6169 86.7765 74.6169 87.3578C74.6169 87.939 75.0879 88.41 75.6692 88.41C76.2504 88.41 76.7214 87.9386 76.7214 87.3578Z" fill="#6962D5"/>
<path d="M82.9389 87.3578C82.9389 86.7765 82.468 86.3055 81.8867 86.3055C81.3054 86.3055 80.8345 86.7765 80.8345 87.3578C80.8345 87.939 81.3054 88.41 81.8867 88.41C82.468 88.41 82.9389 87.9386 82.9389 87.3578Z" fill="#6962D5"/>
<path d="M89.1562 87.3578C89.1562 86.7765 88.6853 86.3055 88.104 86.3055C87.5227 86.3055 87.0518 86.7765 87.0518 87.3578C87.0518 87.939 87.5227 88.41 88.104 88.41C88.6853 88.41 89.1562 87.9386 89.1562 87.3578Z" fill="#6962D5"/>
</svg>
