<svg width="204" height="204" viewBox="0 0 204 204" fill="none" xmlns="http://www.w3.org/2000/svg">
<path d="M101.611 198.31C154.702 198.31 197.74 173.461 197.74 142.81C197.74 112.158 154.702 87.3099 101.611 87.3099C48.5214 87.3099 5.4834 112.158 5.4834 142.81C5.4834 173.461 48.5214 198.31 101.611 198.31Z" fill="#F0F0F0"/>
<path d="M156.82 162.067C150.517 158.428 150.517 152.528 156.82 148.888C163.124 145.249 173.343 145.249 179.647 148.888C185.951 152.528 185.951 158.428 179.647 162.067C173.343 165.707 163.124 165.707 156.82 162.067Z" fill="#E0E0E0"/>
<path d="M28.6086 162.572L12.0275 152.999C11.0927 152.459 11.0927 151.584 12.0275 151.044L108.474 95.361C109.409 94.8212 110.925 94.8212 111.859 95.361L128.441 104.934C129.376 105.474 129.376 106.349 128.441 106.888L31.9938 162.572C31.059 163.112 29.5433 163.112 28.6086 162.572Z" fill="#E0E0E0"/>
<path d="M88.2095 145.511L102.464 137.269C103.933 136.42 104.668 135.309 104.668 134.197C104.668 133.085 104.674 132.214 104.674 132.214L89.8844 123.874C89.1006 123.422 88.4653 122.322 88.4653 121.417V103.842L63.568 118.229L63.5671 135.803C63.5671 136.708 64.2024 137.809 64.9862 138.261L77.5672 145.51C80.5061 147.208 85.2707 147.207 88.2095 145.511Z" fill="#6962D5"/>
<g opacity="0.6">
<path d="M88.2095 145.511L102.464 137.269C103.933 136.42 104.668 135.309 104.668 134.197C104.668 133.085 104.674 132.214 104.674 132.214L89.8844 123.874C89.1006 123.422 88.4653 122.322 88.4653 121.417V103.842L63.568 118.229L63.5671 135.803C63.5671 136.708 64.2024 137.809 64.9862 138.261L77.5672 145.51C80.5061 147.208 85.2707 147.207 88.2095 145.511Z" fill="black"/>
</g>
<path opacity="0.3" d="M69.5457 138.916V140.89L64.9826 138.261C64.2041 137.81 63.5652 136.712 63.5652 135.803V118.23L68.3086 115.494C68.4069 116.698 68.5134 117.943 68.6117 119.156L65.2857 121.081V134.812C65.2857 135.721 65.9165 136.819 66.7031 137.27L69.5457 138.916Z" fill="black"/>
<path d="M65.2849 134.815C65.2849 135.72 65.9202 136.82 66.7039 137.272L77.5657 143.529C80.5045 145.226 85.2696 145.226 88.2084 143.53L102.47 135.289C105.409 133.593 105.41 130.843 102.471 129.146L91.6021 122.885C90.8184 122.433 90.1831 121.332 90.1831 120.427L90.1827 106.695L65.2849 121.082V134.815Z" fill="#6962D5"/>
<path opacity="0.3" d="M65.2849 134.815C65.2849 135.72 65.9202 136.82 66.7039 137.272L77.5657 143.529C80.5045 145.226 85.2696 145.226 88.2084 143.53L102.47 135.289C105.409 133.593 105.41 130.843 102.471 129.146L91.6021 122.885C90.8184 122.433 90.1831 121.332 90.1831 120.427L90.1827 106.695L65.2849 121.082V134.815Z" fill="black"/>
<path opacity="0.5" d="M94.4919 124.555V124.553L91.6017 122.885C90.8179 122.432 90.1826 121.332 90.1826 120.427V106.695L65.2844 121.082V134.815C65.2844 135.72 65.9197 136.82 66.7034 137.272L69.5435 138.912L94.4919 124.555Z" fill="black"/>
<path d="M104.672 132.216C104.672 132.216 104.672 133.084 104.672 134.198C104.672 135.312 103.934 136.418 102.468 137.27L88.2113 145.507C86.802 146.327 84.9754 146.736 83.1321 146.769V144.795C84.9754 144.77 86.802 144.344 88.2113 143.533L102.468 135.287C103.934 134.444 104.672 133.33 104.672 132.216Z" fill="#6962D5"/>
<path opacity="0.5" d="M104.672 132.216C104.672 132.216 104.672 133.084 104.672 134.198C104.672 135.312 103.934 136.418 102.468 137.27L88.2113 145.507C86.802 146.327 84.9754 146.736 83.1321 146.769V144.795C84.9754 144.77 86.802 144.344 88.2113 143.533L102.468 135.287C103.934 134.444 104.672 133.33 104.672 132.216Z" fill="black"/>
<path d="M25.3086 151.883C26.2274 152.414 27.7668 152.385 28.7464 151.82C40.9868 144.753 112.794 103.295 125.033 96.2296C126.013 95.6641 126.806 94.2888 126.806 93.1578V15.2649C126.806 14.1339 126.061 12.7867 125.143 12.2563C124.224 11.7259 122.685 11.754 121.705 12.3199L25.4196 67.9099C24.44 68.4754 23.646 69.8508 23.646 70.9822L23.6448 148.875C23.6448 150.006 24.3894 151.352 25.3086 151.883Z" fill="#6962D5"/>
<path d="M28.7465 151.818L125.033 96.228C126.012 95.6625 126.806 94.2871 126.806 93.1558V15.2628C126.806 14.1319 126.012 13.6733 125.033 14.2388L28.7477 69.8288C27.7681 70.3942 26.9741 71.7696 26.9741 72.901L26.9729 150.794C26.9729 151.924 27.7673 152.383 28.7465 151.818Z" fill="#6962D5"/>
<path opacity="0.5" d="M28.7465 151.818L125.033 96.228C126.012 95.6625 126.806 94.2871 126.806 93.1558V15.2628C126.806 14.1319 126.012 13.6733 125.033 14.2388L28.7477 69.8288C27.7681 70.3942 26.9741 71.7696 26.9741 72.901L26.9729 150.794C26.9729 151.924 27.7673 152.383 28.7465 151.818Z" fill="black"/>
<path d="M28.4854 153.842C27.5025 154.276 26.1426 154.26 25.3071 153.776C24.3895 153.244 23.644 151.9 23.644 150.762V143.669L26.9701 145.595V152.687C26.9701 153.719 27.6253 154.186 28.4854 153.842Z" fill="#6962D5"/>
<path opacity="0.5" d="M28.4854 153.842C27.5025 154.276 26.1426 154.26 25.3071 153.776C24.3895 153.244 23.644 151.9 23.644 150.762V143.669L26.9701 145.595V152.687C26.9701 153.719 27.6253 154.186 28.4854 153.842Z" fill="black"/>
<path d="M26.97 145.594L26.9728 152.684C26.9728 153.815 27.7672 154.274 28.7464 153.708L125.033 98.1187C126.012 97.5532 126.806 96.1778 126.806 95.0464V87.9415L26.97 145.594Z" fill="#6962D5"/>
<path opacity="0.3" d="M26.9729 145.58V152.684C26.9729 153.815 27.7673 154.274 28.7465 153.708L125.033 98.1187C126.012 97.5532 126.806 96.1778 126.806 95.0464V87.9415L26.9729 145.58Z" fill="black"/>
<path d="M30.2998 136.697L30.3006 74.0055C30.3006 73.327 30.7772 72.5016 31.3647 72.1622L122.413 19.5954C123.001 19.256 123.477 19.5314 123.477 20.2099L123.48 82.9028C123.48 83.5813 123.003 84.4066 122.416 84.7461L31.3643 137.311C30.7763 137.651 30.2998 137.375 30.2998 136.697Z" fill="#6962D5"/>
<path d="M30.2998 136.697L30.3006 74.0055C30.3006 73.327 30.7772 72.5016 31.3647 72.1622L122.413 19.5954C123.001 19.256 123.477 19.5314 123.477 20.2099L123.48 82.9028C123.48 83.5813 123.003 84.4066 122.416 84.7461L31.3643 137.311C30.7763 137.651 30.2998 137.375 30.2998 136.697Z" fill="#263238"/>
<path d="M76.8884 119.024C75.9691 119.555 75.2241 120.845 75.2241 121.907C75.2241 122.968 75.9695 123.398 76.8888 122.867C77.808 122.336 78.553 121.046 78.553 119.985C78.5526 118.924 77.8076 118.494 76.8884 119.024Z" fill="#6962D5"/>
<path opacity="0.7" d="M27.4943 71.1462C27.1749 71.7031 26.9782 72.3339 26.9701 72.8994V145.595L23.644 143.669L23.6461 70.9822C23.6461 70.4171 23.8489 69.7864 24.1683 69.2294L27.4943 71.1462Z" fill="black"/>
<path opacity="0.3" d="M126.788 14.9711C126.663 14.0568 125.924 13.7255 125.031 14.2371L28.7476 69.8304C28.2609 70.1115 27.8206 70.5897 27.4934 71.1474L24.167 69.2266C24.4901 68.677 24.9304 68.1907 25.4212 67.9095L121.705 12.3204C122.686 11.7541 124.221 11.7247 125.144 12.2575C125.983 12.7398 126.675 13.9099 126.788 14.9711Z" fill="black"/>
<path d="M131.985 24.5563C131.753 24.4171 131.437 24.422 131.08 24.6281L40.2234 77.0912C39.5367 77.4877 38.9802 78.4506 38.9802 79.2434L38.981 141.553C38.981 142.036 39.1879 142.463 39.5049 142.633C39.7081 142.742 40.7758 143.363 41.0928 143.534C41.296 143.643 41.5445 143.647 41.813 143.492L132.666 91.008C133.353 90.6127 133.91 89.6498 133.91 88.8571V26.2458C133.91 25.837 133.762 25.5538 133.525 25.4294C133.302 25.3127 132.214 24.6934 131.985 24.5563Z" fill="#6962D5"/>
<path d="M41.4028 143.408C41.0556 143.408 40.7737 142.98 40.7737 142.454V80.1442C40.7737 79.4302 41.2959 78.5253 41.9145 78.1679L132.77 25.7048C132.931 25.6113 133.088 25.5624 133.223 25.5624C133.526 25.5624 133.707 25.8178 133.707 26.2458V88.8575C133.707 89.5715 133.184 90.4756 132.565 90.8314L41.7113 143.315C41.6044 143.377 41.5007 143.408 41.4028 143.408Z" fill="#FAFAFA"/>
<path d="M133.223 25.7664C133.466 25.7664 133.503 26.0667 133.503 26.2458V88.8575C133.503 89.5074 133.026 90.3304 132.463 90.6551L41.61 143.139C41.5341 143.182 41.4643 143.204 41.4027 143.204C41.1759 143.204 40.9772 142.853 40.9772 142.454V80.1442C40.9772 79.4939 41.4529 78.6701 42.0159 78.345L132.872 25.8815C133.037 25.7864 133.154 25.7664 133.223 25.7664ZM133.223 25.3584C133.056 25.3584 132.867 25.4131 132.668 25.5281L41.8124 77.9916C41.1261 78.3878 40.5696 79.3519 40.5696 80.1442V142.454C40.5696 143.08 40.9176 143.612 41.4031 143.612C41.5316 143.612 41.67 143.575 41.8136 143.492L132.667 91.0085C133.354 90.6131 133.911 89.6502 133.911 88.8575V26.2458C133.911 25.6836 133.631 25.3584 133.223 25.3584Z" fill="#E0E0E0"/>
<path d="M39.5034 142.632C39.638 142.704 40.6046 143.255 41.0281 143.496C40.7425 143.292 40.5919 142.943 40.5707 142.452V84.2099L38.9795 83.2789V141.553C38.9795 142.034 39.1868 142.464 39.5034 142.632Z" fill="#F0F0F0"/>
<path d="M133.91 26.2364C133.905 25.4514 133.352 25.1336 132.668 25.5281L41.8124 77.9916C41.1261 78.3878 40.5696 79.3519 40.5696 80.1442L40.5708 84.21L133.91 30.3156V26.2364Z" fill="#6962D5"/>
<g opacity="0.4">
<path d="M132.667 25.5277L41.8136 77.9908C41.4733 78.1903 41.1608 78.5265 40.938 78.9133L39.3586 77.9986C39.5814 77.6154 39.8874 77.2825 40.2232 77.0908L131.08 24.6277C131.436 24.4204 131.753 24.4171 131.984 24.5542C132.206 24.6909 133.239 25.2776 133.501 25.418C133.281 25.3127 132.988 25.3441 132.667 25.5277Z" fill="white"/>
</g>
<path opacity="0.15" d="M38.9795 83.2829L38.9803 79.2417C38.9803 78.839 39.128 78.3935 39.3585 77.9985L40.9416 78.9092C40.711 79.3001 40.5703 79.7419 40.5703 80.1442V84.2091L38.9795 83.2829Z" fill="black"/>
<path d="M114.75 73.2048L60.3335 104.622C59.8321 104.912 59.4253 105.616 59.4253 106.195V121.795C59.4253 122.374 59.8321 123.078 60.3343 123.367L61.9243 124.281C62.4261 124.57 63.2397 124.57 63.7411 124.28L118.15 92.8671C118.652 92.5774 119.059 91.8732 119.059 91.2943L119.066 75.6895C119.066 75.1105 118.659 74.4067 118.157 74.1179L116.567 73.2031C116.065 72.9147 115.252 72.9155 114.75 73.2048Z" fill="#6962D5"/>
<path opacity="0.5" d="M119.058 75.5424C118.995 75.0728 118.613 74.9006 118.156 75.165L63.7419 106.581C63.4901 106.724 63.2637 106.976 63.1001 107.261L59.6941 105.293C59.8577 105.012 60.0841 104.765 60.3318 104.622L114.75 73.2058C115.25 72.9165 116.063 72.912 116.567 73.2017L118.156 74.116C118.617 74.3804 118.999 74.9973 119.058 75.5424Z" fill="white"/>
<path d="M63.5868 124.353C63.0833 124.567 62.3787 124.542 61.9258 124.282L60.3363 123.367C59.8328 123.078 59.426 122.373 59.426 121.795V106.195C59.426 105.902 59.5309 105.579 59.6945 105.294L63.1005 107.261C62.9328 107.546 62.832 107.865 62.832 108.155V123.758C62.8316 124.278 63.1588 124.517 63.5868 124.353Z" fill="#263238"/>
<path d="M63.7407 106.583L118.157 75.1654C118.659 74.8758 119.065 75.1108 119.065 75.6897L119.059 91.2945C119.058 91.8734 118.651 92.5776 118.15 92.8673L63.7407 124.28C63.2393 124.57 62.8325 124.335 62.8325 123.756V108.156C62.8329 107.577 63.2393 106.872 63.7407 106.583Z" fill="#6962D5"/>
<path d="M100.325 81.5343L60.3316 104.623C60.0843 104.765 59.8579 105.013 59.6938 105.294L63.0998 107.261C63.2634 106.976 63.4899 106.724 63.7416 106.582L103.724 83.4976L100.325 81.5343Z" fill="#455A64"/>
<path d="M103.725 83.498L63.7407 106.583C63.2393 106.872 62.8325 107.577 62.8325 108.155V123.756C62.8325 124.335 63.2389 124.57 63.7407 124.28L103.725 101.195V83.498Z" fill="#37474F"/>
<path d="M72.9624 104.683L93.5938 92.7706C94.4493 92.2765 95.1425 92.6274 95.1425 93.5544C95.1425 94.481 94.4489 95.6327 93.5934 96.1268L72.9636 108.038C72.1081 108.532 71.4141 108.181 71.4141 107.255C71.4137 106.328 72.1068 105.177 72.9624 104.683Z" fill="#6962D5"/>
<path d="M113.373 91.556L109.41 93.8441L110.024 88.2855C109.55 88.035 109.248 87.4181 109.248 86.5327C109.248 84.9542 110.207 83.1206 111.391 82.4368C112.575 81.7534 113.535 82.4788 113.535 84.0574C113.535 84.9428 113.233 85.9085 112.759 86.7065L113.373 91.556Z" fill="#455A64"/>
<path d="M113.373 91.556L109.885 89.5425L109.41 93.8441L113.373 91.556Z" fill="#37474F"/>
<path d="M111.392 82.4368C110.617 82.884 109.941 83.8244 109.564 84.8628L112.759 86.7078V86.7069C113.234 85.9089 113.535 84.9436 113.535 84.0578C113.535 82.4792 112.575 81.7534 111.392 82.4368Z" fill="#37474F"/>
<path d="M92.1248 63.9352C90.7694 63.1506 88.8967 63.262 86.8269 64.4571C82.6902 66.8459 79.3368 72.6546 79.3376 77.4315C79.3381 79.8285 80.183 81.509 81.5474 82.2875C81.9023 82.4902 83.8289 83.611 84.1867 83.8179C85.5421 84.6012 87.414 84.4894 89.4826 83.2952C93.6189 80.9068 96.9718 75.0981 96.9718 70.3208C96.9718 67.9336 96.1338 66.2571 94.7796 65.4746" fill="#6962D5"/>
<path d="M89.4814 65.996C85.3451 68.3857 81.9914 74.1936 81.9922 78.97C81.9926 83.7469 85.3464 85.6832 89.4827 83.2948C93.619 80.9064 96.9764 75.0977 96.9719 70.3204C96.9678 65.5444 93.6141 63.608 89.4814 65.996Z" fill="#6962D5"/>
<path d="M93.6174 76.5942V77.1393C92.5509 78.9598 91.0911 80.5449 89.4819 81.4715C87.8699 82.4009 86.4134 82.5025 85.3464 81.9092V80.7799C85.3464 78.5991 86.8271 76.0336 88.7161 74.9402L89.8034 74.3143C90.7688 73.757 91.7043 73.6856 92.4403 74.1115C93.1915 74.5444 93.6174 75.4473 93.6174 76.5942Z" fill="#6962D5"/>
<path opacity="0.4" d="M92.1249 63.9352L94.7798 65.4738C93.4236 64.6888 91.5509 64.7998 89.4823 65.9952C86.7736 67.5607 84.4007 70.5921 83.0853 73.8394L80.4304 72.2992C81.7458 69.0519 84.1175 66.0205 86.8275 64.4562C88.8972 63.2624 90.77 63.1506 92.1249 63.9352Z" fill="white"/>
<path opacity="0.2" d="M84.0868 83.7595C83.6193 83.4894 81.8747 82.4735 81.5466 82.2867C80.1823 81.5086 79.3369 79.828 79.3369 77.4315L81.9918 78.9717C81.9934 81.2997 82.7914 82.9533 84.0868 83.7595Z" fill="black"/>
<path opacity="0.1" d="M80.4304 72.2996L83.0853 73.8398C82.3913 75.5518 81.9923 77.3229 81.9923 78.97V78.9712L79.3374 77.431C79.3374 75.7827 79.7377 74.0104 80.4304 72.2996Z" fill="black"/>
<path d="M88.5402 74.0605C88.2807 74.0605 88.0387 73.9981 87.8197 73.8729C87.315 73.5811 87.0371 73.0038 87.0371 72.2478C87.0371 70.8635 87.9763 69.2359 89.1763 68.5436V68.5423C89.8286 68.1641 90.4659 68.1172 90.9743 68.4085C91.479 68.7002 91.7569 69.2776 91.7569 70.0336C91.7569 71.4179 90.8176 73.0454 89.6189 73.7378C89.2468 73.952 88.8804 74.0605 88.5402 74.0605Z" fill="white"/>
<path d="M92.4403 74.1123C91.7043 73.6864 90.7688 73.7578 89.8034 74.3151L88.7161 74.941C86.8271 76.0344 85.3464 78.5995 85.3464 80.7807V81.91C86.4129 82.5029 87.8699 82.4017 89.4819 81.4722C91.0907 80.5457 92.5505 78.9606 93.6174 77.1401V76.595C93.6174 75.4473 93.1915 74.5444 92.4403 74.1123Z" fill="white"/>
<path d="M176.319 144.696C176.319 144.696 176.861 139.931 179.231 136.233C181.601 132.535 184.858 130.227 187.897 129.987C190.935 129.746 193.39 132.542 190.138 134.462C186.887 136.382 181.11 138.341 178.451 145.522L176.319 144.696Z" fill="#6962D5"/>
<path opacity="0.1" d="M176.319 144.696C176.319 144.696 176.861 139.931 179.231 136.233C181.601 132.535 184.858 130.227 187.897 129.987C190.935 129.746 193.39 132.542 190.138 134.462C186.887 136.382 181.11 138.341 178.451 145.522L176.319 144.696Z" fill="black"/>
<path d="M177.21 143.459C177.199 143.457 177.188 143.454 177.178 143.45C177.095 143.416 177.055 143.321 177.088 143.238C180.295 135.341 186.4 132.043 189.18 131.403C189.267 131.382 189.355 131.437 189.375 131.524C189.395 131.612 189.341 131.699 189.253 131.719C186.53 132.346 180.546 135.587 177.389 143.36C177.36 143.433 177.284 143.472 177.21 143.459Z" fill="white"/>
<path d="M193.442 143.552C193.167 144.173 192.49 144.496 191.86 144.749C191.233 145.001 190.546 145.276 190.206 145.862C189.52 147.047 190.646 148.712 189.91 149.866C189.6 150.35 189.026 150.605 188.461 150.706C187.991 150.794 187.513 150.793 187.037 150.833C186.808 150.828 186.581 150.812 186.36 150.78C185.707 150.686 184.998 150.655 184.4 150.989C183.458 151.519 183.169 152.707 182.597 153.624C181.912 154.722 180.699 155.441 179.426 155.614C179.002 155.67 178.215 155.746 177.784 155.506C177.75 155.487 177.723 155.469 177.695 155.449C177.692 155.448 177.69 155.445 177.687 155.441C177.628 155.374 177.554 155.289 177.522 155.243C177.514 155.235 177.51 155.226 177.505 155.215C177.338 154.601 177.611 153.962 177.621 153.327C177.623 153.287 177.623 153.25 177.621 153.212C177.594 152.474 177.574 151.741 177.556 151.005C177.522 149.652 177.506 148.295 177.516 146.94C177.525 146.06 177.419 145.096 177.792 144.267C178.204 143.355 179.229 143.335 179.617 142.44C179.772 142.084 179.855 141.701 180.005 141.341C180.453 140.283 181.54 139.523 182.69 139.467C184.479 139.376 186.086 140.825 187.874 140.693C188.337 140.657 188.788 140.516 189.244 140.432C190.695 140.161 192.37 140.573 193.185 141.8C193.527 142.313 193.692 142.989 193.442 143.552Z" fill="#6962D5"/>
<path d="M177.359 152.396C177.355 152.395 177.351 152.394 177.347 152.393C177.266 152.371 177.217 152.288 177.239 152.206C179.712 142.927 189.489 141.585 191.777 141.751C191.86 141.757 191.924 141.83 191.918 141.914C191.912 141.998 191.839 142.061 191.755 142.055C189.518 141.893 179.954 143.206 177.534 152.285C177.513 152.362 177.437 152.41 177.359 152.396Z" fill="white"/>
<path d="M188.222 147.694C188.193 147.688 188.165 147.674 188.142 147.651C188.117 147.626 185.624 145.168 181.488 145.776C181.405 145.787 181.327 145.731 181.315 145.647C181.302 145.564 181.36 145.486 181.444 145.474C185.739 144.842 188.333 147.41 188.359 147.436C188.418 147.496 188.418 147.592 188.358 147.652C188.321 147.688 188.27 147.702 188.222 147.694Z" fill="white"/>
<path d="M153.863 32.6424L155.161 33.1418V30.2813C155.161 28.0137 156.97 27.4702 158.933 28.6036C160.897 29.7375 162.489 32.4947 162.489 34.7624V35.1777C162.935 34.9999 163.51 35.0688 164.139 35.4323C165.552 36.2483 166.698 38.2324 166.698 39.864V40.0529L168.508 41.0982C169.439 41.6356 170.193 42.9424 170.193 44.0167C170.193 45.0913 169.439 45.5267 168.508 44.9893L153.862 36.5335C152.931 35.9962 152.177 34.6898 152.177 33.6151C152.178 32.5404 152.932 32.1051 153.863 32.6424Z" fill="#E6E6E6"/>
<path d="M171.24 30.3813L173.594 31.7403C173.582 31.6351 173.574 31.531 173.574 31.4286V30.7468C173.574 29.5334 174.426 29.0414 175.477 29.6481C175.902 29.8937 176.294 30.2833 176.611 30.7387C176.783 29.2128 177.98 28.6444 179.434 29.4841C181.007 30.3919 182.281 32.5996 182.281 34.4148V35.4352C182.281 35.9056 182.194 36.3014 182.04 36.6171L183.995 37.7461C184.578 38.0827 185.051 38.9011 185.051 39.5743C185.051 40.2475 184.578 40.5205 183.995 40.1839L171.24 32.8195C170.657 32.4829 170.184 31.6644 170.184 30.9912C170.184 30.3176 170.657 30.0447 171.24 30.3813Z" fill="#E6E6E6"/>
<path d="M162.126 92.3027C160.413 95.1999 158.764 97.7168 157.606 98.9233C155.408 99.9457 150.244 101.517 148.223 101.78C147.865 101.827 147.505 101.736 147.209 101.542C146.414 101.021 145.8 100.937 144.962 100.647C144.307 100.42 144.029 100.106 143.906 100.226C143.747 100.379 143.575 100.814 143.974 101.265C144.175 101.491 144.541 101.739 145.012 102.041C145.012 102.041 143.567 102.427 142.277 102.088C140.528 101.629 139.702 102.47 140.885 104.369C141.308 105.049 142.976 106.138 146.356 105.844C147.33 105.76 148.735 105.678 149.947 105.419C153.189 104.727 156.793 104.057 159.008 103.395C159.567 103.228 160.566 102.582 161.16 101.904C164.887 97.656 166.121 94.6295 167.755 91.8787L167.613 87.3838C164.972 87.3018 163.56 89.8779 162.126 92.3027Z" fill="#FFA8A7"/>
<path d="M168.069 87.3018C168.069 87.3018 165.763 86.8114 164.029 89.0293C162.215 91.3504 159.008 96.9249 159.008 96.9249C159.008 96.9249 160.06 99.7201 162.891 100.18L167.44 94.0359C167.44 94.0359 169.593 89.7833 168.069 87.3018Z" fill="#455A64"/>
<path d="M177.903 149.955H174.938V155.242H177.903V149.955Z" fill="#FFA8A7"/>
<path d="M167.622 149.673L164.659 149.779L164.51 144.184L167.622 144.078V149.673Z" fill="#FFA8A7"/>
<path d="M178.32 104.182C178.32 107.131 177.886 130.864 177.886 130.864C177.955 131.713 178.719 133.277 178.554 136.536C178.329 140.964 178.029 152.599 178.029 152.599C178.029 152.599 176.59 153.475 174.728 152.666C174.728 152.666 172.324 136.362 171.793 131.975C171.329 128.146 170.142 115.443 170.142 115.443L168.534 130.433C168.534 130.433 169.081 132.717 168.902 135.341C168.763 137.37 167.81 147.94 167.81 147.94C167.81 147.94 166.414 148.926 164.386 148.213C164.386 148.213 162.7 132.295 162.665 130.433C162.626 128.31 163.652 104.15 163.652 104.15L178.32 104.182Z" fill="#37474F"/>
<path d="M174.938 153.717V153.276C174.654 153.404 173.995 156.024 172.818 157.142C171.883 158.03 170.607 159.056 170.282 160.047C169.945 161.077 172.059 161.646 172.933 161.485C173.948 161.298 175.708 160.553 176.15 159.863C176.591 159.172 176.798 158.154 177.157 157.648C177.516 157.142 178.343 156.578 178.538 155.992C178.644 155.671 178.518 154.966 178.368 154.371C178.23 153.825 178.081 153.225 177.902 153.276C177.902 153.343 177.902 153.613 177.902 153.613C177.687 153.861 177.092 154.108 176.42 154.135C175.987 154.151 174.934 154.062 174.938 153.717Z" fill="#263238"/>
<path d="M164.628 148.827C164.473 148.832 164.348 149.058 164.009 149.441C163.598 149.904 162.927 150.403 162.264 150.749C161.154 151.328 158.996 152.218 158.019 152.676C157.408 152.963 157.437 153.731 158.068 154.168C158.699 154.605 160.222 154.92 162.051 154.493C163.047 154.261 164.344 153.303 165.165 153.355C165.986 153.406 167.522 153.394 168.128 152.959C168.734 152.524 168.491 151.595 168.32 150.796C168.133 149.925 167.899 148.566 167.622 148.626V148.926C167.266 149.488 165.426 149.717 164.643 149.303L164.628 148.827Z" fill="#263238"/>
<path d="M170.142 115.442C170.142 115.442 167.772 114.747 166.013 112.977C166.013 112.977 166.81 114.53 169.179 115.976L168.673 129.363L170.142 115.442Z" fill="#263238"/>
<path d="M176.66 87.7441C176.66 87.7441 179.098 88.3083 178.933 92.7286L178.421 99.7699L178.435 110.337C176.254 112.807 166.588 112.626 163.279 110.139C163.279 110.139 163.654 97.6336 163.877 92.8216C164.036 89.4006 164.823 87.6784 168.185 87.3014L172.32 87.4834L176.66 87.7441Z" fill="#6962D5"/>
<path d="M173.545 78.5543C173.545 81.0937 171.569 83.152 169.131 83.152C166.693 83.152 165.25 81.037 164.717 78.5543C163.741 74.0137 166.693 73.9565 169.131 73.9565C171.569 73.9565 173.545 76.0149 173.545 78.5543Z" fill="#263238"/>
<path d="M175.797 80.4144C175.797 80.4144 175.12 83.7273 174.848 84.2716C174.577 84.8159 174.016 84.9705 174.016 84.9705L174.063 82.64L175.797 80.4144Z" fill="#263238"/>
<path d="M174.948 75.6681C174.948 75.6681 175.433 75.5465 175.949 76.3523C176.391 77.0431 176.491 78.5947 175.797 80.4144L174.522 80.567L174.948 75.6681Z" fill="#263238"/>
<path d="M175.417 76.3389L176.981 76.3678C177.019 75.919 176.7 75.549 176.268 75.5408C175.836 75.5331 175.455 75.8901 175.417 76.3389Z" fill="#263238"/>
<path d="M175.608 75.9684L176.767 74.8542C176.481 74.5229 175.99 74.5037 175.67 74.8113C175.35 75.1186 175.322 75.6367 175.608 75.9684Z" fill="#263238"/>
<path d="M174.139 80.5678C174.395 80.7269 174.76 80.2153 175.075 79.8713C175.391 79.5278 176.381 79.203 176.895 80.3303C177.418 81.4789 176.533 82.5711 175.797 82.9371C174.481 83.5911 174.063 82.64 174.063 82.64L173.957 87.8877C172.102 90.756 167.902 90.6527 169.412 87.749L169.416 86.1517C169.416 86.1517 168.15 86.3516 167.533 86.2525C166.506 86.0872 165.859 85.2431 165.548 84.0848C165.047 82.2247 164.857 80.7224 165.282 77.0643C165.747 73.0545 170.225 73.0129 172.643 74.5979C175.061 76.1834 174.139 80.5678 174.139 80.5678Z" fill="#FFA8A7"/>
<path d="M168.557 76.4384C169.627 76.3315 170.685 76.114 171.757 76.0349C171.989 76.0178 172.226 76.0076 172.451 76.0684C173.272 76.2903 173.166 77.245 173.296 77.9121C173.521 79.0606 173.707 81.0076 174.139 81.0162C174.268 81.0186 174.757 80.1737 175.075 79.8717C175.281 79.6763 175.316 79.2548 175.361 78.9941C175.442 78.518 175.487 78.0353 175.523 77.5543C175.554 77.1471 175.595 76.7326 175.593 76.3238C175.591 75.8652 175.6 75.3984 175.486 74.9504C175.382 74.5437 175.192 74.2393 174.914 73.9223C174.887 73.8917 174.86 73.8615 174.832 73.8317C174.305 73.2629 173.632 72.8366 172.918 72.542C171.892 72.1193 170.781 71.9508 169.678 71.8378C168.575 71.7248 167.463 71.6636 166.377 71.44C166.313 71.4269 166.246 71.4139 166.185 71.4367C166.091 71.473 166.049 71.5828 166.03 71.6819C165.934 72.1854 166.161 72.7362 166.584 73.0263C165.845 73.0851 164.996 72.6999 164.284 72.5069C164.164 72.4743 164.027 72.4437 163.921 72.5081C163.847 72.5526 163.804 72.6342 163.778 72.7158C163.718 72.9051 163.731 73.1095 163.758 73.3066C163.838 73.8888 164.036 74.4641 164.395 74.9292C164.912 75.5987 165.762 76.2026 166.6 76.3707C167.262 76.5041 167.881 76.5057 168.557 76.4384Z" fill="#263238"/>
<path d="M169.416 86.1521C169.416 86.1521 171.709 85.671 172.51 85.2271C173.047 84.9301 173.489 84.4152 173.619 84.0851C173.619 84.0851 173.468 84.7938 172.989 85.4319C172.403 86.2125 169.416 86.7873 169.416 86.7873V86.1521Z" fill="#F28F8F"/>
<path d="M169.967 79.9709C169.967 80.2455 170.173 80.4674 170.426 80.467C170.68 80.4662 170.886 80.243 170.886 79.9684C170.886 79.6938 170.68 79.4719 170.426 79.4723C170.173 79.4731 169.967 79.6963 169.967 79.9709Z" fill="#263238"/>
<path d="M170.705 77.9892L171.688 78.5543C171.833 78.2601 171.731 77.895 171.459 77.7391C171.187 77.5832 170.85 77.695 170.705 77.9892Z" fill="#263238"/>
<path d="M169.623 83.2769L168.574 83.687C168.678 84.0003 168.997 84.1623 169.287 84.0489C169.577 83.9358 169.727 83.5903 169.623 83.2769Z" fill="#F28F8F"/>
<path d="M165.752 78.4103L166.648 77.6914C166.465 77.4241 166.116 77.3683 165.869 77.5669C165.621 77.7652 165.569 78.143 165.752 78.4103Z" fill="#263238"/>
<path d="M166.145 79.8346C166.145 80.1092 166.351 80.3312 166.605 80.3303C166.858 80.3295 167.064 80.1063 167.064 79.8318C167.064 79.5572 166.858 79.3352 166.605 79.3356C166.351 79.3369 166.145 79.56 166.145 79.8346Z" fill="#263238"/>
<path d="M168.604 79.4503L168.551 82.3528L166.904 81.975L168.604 79.4503Z" fill="#F28F8F"/>
<path d="M129.464 103.745L132.02 102.269L133.033 101.042L130.477 102.518L129.464 103.745Z" fill="#6962D5"/>
<path opacity="0.4" d="M129.464 103.745L132.02 102.269L133.033 101.042L130.477 102.518L129.464 103.745Z" fill="black"/>
<path d="M136.419 107.76L138.975 106.285L141.111 104.394L138.555 105.869L136.419 107.76Z" fill="#6962D5"/>
<path opacity="0.4" d="M136.419 107.76L138.975 106.285L141.111 104.394L138.555 105.869L136.419 107.76Z" fill="black"/>
<path d="M158.15 112.859C158.71 113.572 159.119 114.619 159.207 115.64C158.646 114.927 158.238 113.88 158.15 112.859ZM164.092 112.936C163.232 107.08 160.086 101.288 156.336 99.1236C154.537 98.0832 152.872 98.0457 151.538 98.8258C151.148 99.0522 149.701 99.887 149.13 100.214C149.084 100.239 149.038 100.264 148.996 100.294C148.891 100.352 148.786 100.419 148.686 100.491C148.493 100.625 148.308 100.776 148.132 100.948C148.107 100.969 148.081 100.998 148.052 101.024C147.977 101.099 147.901 101.183 147.83 101.267C147.742 101.368 147.654 101.472 147.574 101.581C147.406 101.804 147.247 102.043 147.104 102.303C147.033 102.428 146.962 102.563 146.895 102.701L125.876 90.567L123.322 92.0391V93.6666L123.54 93.7923L123.741 93.9098V94.2537L123.322 94.4969V95.4447L126.409 101.98L129.462 103.745L130.477 102.517L133.17 104.127L134.718 106.778L136.421 107.76L138.556 105.868L141.177 107.382L142.058 111.015L146.45 113.548C146.672 114.479 146.953 115.39 147.28 116.279C147.31 116.371 147.343 116.464 147.381 116.564C148.841 120.402 151.165 123.686 153.782 125.201C154.118 125.393 154.444 125.553 154.768 125.675C154.952 125.75 155.137 125.809 155.317 125.859C155.481 125.905 155.644 125.943 155.808 125.968C156.349 126.064 156.873 126.06 157.364 125.964C157.435 125.947 157.507 125.93 157.578 125.914C157.679 125.893 157.779 125.864 157.876 125.826C157.951 125.796 158.027 125.767 158.102 125.737C158.182 125.708 158.262 125.67 158.337 125.628C158.413 125.595 158.484 125.557 158.555 125.515C158.593 125.494 158.631 125.473 158.664 125.452C158.681 125.448 158.698 125.436 158.715 125.423C159.298 125.087 160.737 124.257 161.127 124.034C163.069 122.91 164.327 120.062 164.327 116.036C164.327 115.012 164.247 113.972 164.092 112.936Z" fill="#6962D5"/>
<path d="M157.401 117.798C156.393 117.216 155.575 115.486 155.575 113.933C155.575 112.381 156.393 111.594 157.401 112.176C158.409 112.759 159.227 114.489 159.227 116.041C159.226 117.594 158.409 118.38 157.401 117.798ZM161.538 114.408C160.678 108.557 157.532 102.765 153.782 100.601C152.045 99.5981 150.439 99.5226 149.13 100.215C149.084 100.24 149.038 100.265 148.996 100.294C148.891 100.353 148.786 100.42 148.686 100.491C148.493 100.625 148.308 100.776 148.132 100.949C148.107 100.969 148.081 100.999 148.052 101.024C147.977 101.1 147.901 101.184 147.83 101.267C147.742 101.368 147.654 101.473 147.574 101.582C147.406 101.804 147.247 102.043 147.105 102.303C147.033 102.429 146.962 102.563 146.895 102.702C146.547 103.415 146.27 104.245 146.085 105.185L123.322 92.0395V93.667L123.54 93.7927L123.742 93.9102V94.2541L123.322 94.4973V95.4451L126.409 101.98L129.463 103.746L130.478 102.517L133.171 104.128L134.718 106.778L136.421 107.76L138.556 105.869L141.178 107.383L142.058 111.015L146.45 113.549C146.673 114.48 146.954 115.39 147.281 116.28C147.31 116.372 147.344 116.464 147.382 116.565C148.841 120.403 151.165 123.687 153.782 125.201C154.118 125.394 154.445 125.553 154.768 125.675C154.953 125.75 155.137 125.809 155.318 125.859C155.481 125.906 155.645 125.943 155.808 125.968C156.349 126.065 156.874 126.061 157.365 125.964C157.436 125.948 157.507 125.931 157.578 125.914C157.679 125.893 157.779 125.864 157.876 125.826C157.952 125.797 158.027 125.767 158.103 125.738C158.182 125.708 158.262 125.671 158.338 125.629C158.413 125.595 158.485 125.557 158.556 125.515C158.593 125.495 158.631 125.473 158.665 125.453C158.682 125.449 158.698 125.436 158.715 125.423C160.578 124.249 161.773 121.443 161.773 117.513C161.773 116.489 161.689 115.448 161.538 114.408Z" fill="#6962D5"/>
<path opacity="0.4" d="M159.226 116.04C159.226 117.592 158.408 118.381 157.402 117.798C156.391 117.215 155.573 115.486 155.573 113.935C155.573 112.383 156.391 111.595 157.402 112.178C157.67 112.333 157.926 112.568 158.148 112.861C158.236 113.881 158.647 114.929 159.205 115.642C159.222 115.776 159.226 115.91 159.226 116.04Z" fill="black"/>
<path opacity="0.4" d="M164.326 116.036C164.326 120.063 163.068 122.911 161.126 124.035C160.736 124.257 159.297 125.087 158.714 125.423C160.577 124.249 161.772 121.443 161.772 117.513C161.772 116.489 161.688 115.449 161.537 114.409C160.678 108.558 157.532 102.765 153.782 100.601C152.045 99.5985 150.439 99.523 149.13 100.215C149.701 99.8878 151.148 99.053 151.538 98.8266C152.871 98.0465 154.537 98.084 156.336 99.1244C160.086 101.289 163.232 107.081 164.092 112.937C164.247 113.972 164.326 115.012 164.326 116.036Z" fill="white"/>
<path d="M161.773 117.512C161.773 121.442 160.577 124.249 158.715 125.423C159.298 125.087 160.736 124.257 161.126 124.034C163.068 122.91 164.327 120.062 164.327 116.036C164.327 115.887 164.321 115.737 164.318 115.588C163.44 116.095 162.553 116.607 161.763 117.063C161.767 117.213 161.773 117.363 161.773 117.512Z" fill="#6962D5"/>
<path opacity="0.1" d="M161.773 117.512C161.773 121.442 160.577 124.249 158.715 125.423C159.298 125.087 160.736 124.257 161.126 124.034C163.068 122.91 164.327 120.062 164.327 116.036C164.327 115.887 164.321 115.737 164.318 115.588C163.44 116.095 162.553 116.607 161.763 117.063C161.767 117.213 161.773 117.363 161.773 117.512Z" fill="black"/>
<path opacity="0.15" d="M146.178 106.863V107.693L123.322 94.4973L123.742 94.2541V93.9102L146.178 106.863Z" fill="black"/>
<path opacity="0.15" d="M146.178 107.206V107.693L123.322 94.4972L123.742 94.2541V94.25L146.178 107.206Z" fill="black"/>
<path opacity="0.15" d="M157.094 123.701C160.28 122.723 161.38 117.097 159.55 111.135C157.72 105.172 153.654 101.132 150.467 102.11C147.281 103.087 146.182 108.714 148.011 114.676C149.841 120.638 153.908 124.679 157.094 123.701Z" stroke="black" stroke-miterlimit="10"/>
<path opacity="0.4" d="M146.895 102.702C146.547 103.415 146.27 104.245 146.085 105.185L123.322 92.0396L125.877 90.5675L146.895 102.702Z" fill="white"/>
<path d="M176.463 103.98C177.656 101.723 179.017 96.6552 179.695 94.0979C180.657 90.4654 179.099 88.1798 177.331 88.088C176.222 88.2569 172.581 101.507 172.581 101.507C172.178 101.829 166.636 104.638 164.855 105.344C164.54 105.469 164.189 105.464 163.87 105.347C163.014 105.035 162.432 105.094 161.595 105.01C160.94 104.945 160.608 104.712 160.526 104.852C160.42 105.032 160.37 105.482 160.847 105.818C161.087 105.987 161.483 106.137 161.989 106.316C161.989 106.316 161.042 106.644 159.779 106.617C158.068 106.579 157.452 107.322 158.779 109.057C159.611 110.144 160.949 110.487 163.961 109.445C164.829 109.145 166.005 108.561 167.099 108.164C169.362 107.342 169.943 107.253 171.68 106.668C174.186 105.824 175.933 104.982 176.463 103.98Z" fill="#FFA8A7"/>
<path d="M176.66 87.7441C177.702 87.8865 178.711 88.1219 179.316 88.9632C179.922 89.8045 180.427 90.9909 179.821 94.25C179.216 97.5092 177.97 100.971 177.97 100.971C177.97 100.971 175.548 102.007 172.972 99.3806L174.741 92.5348C174.741 92.5348 175.043 88.0876 176.66 87.7441Z" fill="#455A64"/>
</svg>
