<svg width="204" height="204" viewBox="0 0 204 204" fill="none" xmlns="http://www.w3.org/2000/svg">
<path d="M194.122 113.034C188.617 129.722 176.756 148.01 159.301 153.964C132.928 162.962 130.571 184.592 82.7048 184.444C75.2417 184.422 68.3143 183.64 61.9229 182.212C58.4872 181.445 55.2052 180.487 52.082 179.356C23.7264 169.127 8.20117 144.802 5.98573 118.808C3.06649 84.6204 26.3323 67.3722 41.4936 57.2134C56.6548 47.0546 73.9422 9.29301 120.999 9.06861C128.174 9.0376 135.36 9.74058 142.36 11.3506C158.339 15.0189 174.779 23.8639 184.655 37.341C185.396 38.3536 186.106 39.3916 186.789 40.4507C200.109 61.1767 201.63 90.2847 194.122 113.034Z" fill="#6962D5"/>
<path opacity="0.7" d="M194.122 113.034C188.617 129.722 176.756 148.01 159.301 153.964C132.928 162.962 130.571 184.592 82.7048 184.444C75.2417 184.422 68.3143 183.64 61.9229 182.212C58.4872 181.445 55.2052 180.487 52.082 179.356C23.7264 169.127 8.20117 144.802 5.98573 118.808C3.06649 84.6204 26.3323 67.3722 41.4936 57.2134C56.6548 47.0546 73.9422 9.29301 120.999 9.06861C128.174 9.0376 135.36 9.74058 142.36 11.3506C158.339 15.0189 174.779 23.8639 184.655 37.341C185.396 38.3536 186.106 39.3916 186.789 40.4507C200.109 61.1767 201.63 90.2847 194.122 113.034Z" fill="white"/>
<path d="M11.6203 11.9581L8.64478 15.4138H61.8778V11.9581" stroke="#263238" stroke-miterlimit="10" stroke-linecap="round" stroke-linejoin="round"/>
<path d="M11.6203 16.9495L8.64478 20.4053H61.8778V16.9495" stroke="#263238" stroke-miterlimit="10" stroke-linecap="round" stroke-linejoin="round"/>
<path d="M11.6203 21.941L8.64478 25.3968H61.8778V21.941" stroke="#263238" stroke-miterlimit="10" stroke-linecap="round" stroke-linejoin="round"/>
<path d="M11.6203 26.9325L8.64478 30.3883H61.8778V26.9325" stroke="#263238" stroke-miterlimit="10" stroke-linecap="round" stroke-linejoin="round"/>
<path d="M11.6203 31.924L8.64478 35.3797H61.8778V31.924" stroke="#263238" stroke-miterlimit="10" stroke-linecap="round" stroke-linejoin="round"/>
<path d="M11.6203 36.9154L8.64478 40.3712H61.8778V36.9154" stroke="#263238" stroke-miterlimit="10" stroke-linecap="round" stroke-linejoin="round"/>
<path d="M11.6203 41.9073L8.64478 45.3626H61.8778V41.9073" stroke="#263238" stroke-miterlimit="10" stroke-linecap="round" stroke-linejoin="round"/>
<path d="M11.6203 46.8988L8.64478 50.3546H61.8778V46.8988" stroke="#263238" stroke-miterlimit="10" stroke-linecap="round" stroke-linejoin="round"/>
<path d="M11.6203 51.8903L8.64478 55.346H61.8778V51.8903" stroke="#263238" stroke-miterlimit="10" stroke-linecap="round" stroke-linejoin="round"/>
<path d="M11.6203 56.8817L8.64478 60.3375H61.8778V56.8817" stroke="#263238" stroke-miterlimit="10" stroke-linecap="round" stroke-linejoin="round"/>
<path d="M11.6203 61.8732L8.64478 65.3289H61.8778V61.8732" stroke="#263238" stroke-miterlimit="10" stroke-linecap="round" stroke-linejoin="round"/>
<path d="M11.6203 66.8647L8.64478 70.3204H61.8778V66.8647" stroke="#263238" stroke-miterlimit="10" stroke-linecap="round" stroke-linejoin="round"/>
<path d="M11.6203 71.8561L8.64478 75.3119H61.8778V71.8561" stroke="#263238" stroke-miterlimit="10" stroke-linecap="round" stroke-linejoin="round"/>
<path d="M11.6203 76.848L8.64478 80.3034H61.8778V76.848" stroke="#263238" stroke-miterlimit="10" stroke-linecap="round" stroke-linejoin="round"/>
<path d="M11.6203 81.8395L8.64478 85.2952H61.8778V81.8395" stroke="#263238" stroke-miterlimit="10" stroke-linecap="round" stroke-linejoin="round"/>
<path d="M11.6203 86.8309L8.64478 90.2867H61.8778V86.8309" stroke="#263238" stroke-miterlimit="10" stroke-linecap="round" stroke-linejoin="round"/>
<path d="M11.6203 91.8224L8.64478 95.2782H61.8778V91.8224" stroke="#263238" stroke-miterlimit="10" stroke-linecap="round" stroke-linejoin="round"/>
<path d="M64.4139 6.87927H8.56519V12.0091H64.4139V6.87927Z" stroke="#263238" stroke-miterlimit="10" stroke-linecap="round" stroke-linejoin="round"/>
<path d="M63.1543 12.2432V62.9576" stroke="#263238" stroke-miterlimit="10" stroke-linecap="round" stroke-linejoin="round"/>
<path d="M64.1344 63.1201H62.3147V66.6962H64.1344V63.1201Z" stroke="#263238" stroke-miterlimit="10" stroke-linecap="round" stroke-linejoin="round"/>
<path d="M28.6424 113.784L28.6432 113.782C28.6509 113.763 28.6415 113.74 28.6224 113.732C28.6028 113.723 28.5799 113.732 28.5714 113.752C27.3943 116.471 26.5665 119.325 25.8753 122.204C25.2086 125.09 24.7256 128.019 24.3877 130.965L24.1768 133.18C24.1442 133.549 24.1042 133.918 24.0777 134.288L24.0173 135.399C23.9854 136.14 23.9398 136.881 23.9189 137.622L23.9393 139.848L23.9642 140.96C23.9806 141.331 24.0075 141.701 24.0324 142.071C24.0887 142.811 24.1336 143.551 24.2013 144.288C24.3433 145.764 24.5648 147.231 24.7933 148.692C24.7961 148.711 24.8125 148.725 24.832 148.725C24.8537 148.725 24.8708 148.708 24.8708 148.686V148.684C24.8667 147.942 24.8357 147.205 24.819 146.466C24.7978 145.729 24.7333 144.995 24.7439 144.257C24.7472 143.519 24.728 142.783 24.7198 142.048L24.6994 140.945L24.719 139.842L24.7288 137.636L24.7888 135.432L24.8116 134.329C24.8259 133.962 24.8533 133.595 24.8737 133.228L25.0091 131.025C25.267 128.094 25.6697 125.174 26.2568 122.287C26.8415 119.403 27.5661 116.53 28.6424 113.784Z" fill="#263238"/>
<path d="M28.9581 125.315C28.9638 125.296 28.9536 125.273 28.9337 125.267C28.9133 125.26 28.8912 125.271 28.8839 125.291C28.2494 127.123 27.7427 128.998 27.3139 130.892C26.9047 132.789 26.5832 134.711 26.3873 136.648C26.1915 138.578 25.9757 140.509 25.9491 142.45C25.9193 144.389 25.9504 146.331 26.1552 148.268C26.1572 148.286 26.1715 148.301 26.1899 148.303C26.2115 148.305 26.2307 148.29 26.2327 148.268C26.4567 146.336 26.5934 144.409 26.7272 142.483C26.8639 140.557 26.8822 138.626 27.0079 136.7C27.1242 134.779 27.3653 132.867 27.6958 130.967C28.021 129.066 28.4249 127.172 28.9581 125.315Z" fill="#263238"/>
<path d="M35.351 129.372C35.3396 129.354 35.3155 129.348 35.2971 129.36C33.697 130.373 32.2698 131.648 31.0225 133.086C30.4093 133.816 29.8397 134.58 29.3514 135.41L29.0078 136.059L28.7389 136.732C28.6422 136.955 28.5741 137.185 28.5043 137.414C28.4354 137.644 28.3579 137.873 28.2959 138.104C27.8156 139.957 27.4978 141.845 27.4113 143.743C27.3342 145.64 27.3701 147.539 27.6235 149.423C27.6263 149.441 27.641 149.455 27.6594 149.456C27.681 149.458 27.6998 149.442 27.7014 149.42L28.1885 143.798C28.3828 141.939 28.5019 140.07 28.9009 138.254C28.9515 138.028 29.0168 137.807 29.0739 137.583C29.1318 137.359 29.1881 137.134 29.271 136.921L29.499 136.271L29.7928 135.657C30.2257 134.845 30.7553 134.068 31.3244 133.332C32.466 131.859 33.8092 130.515 35.3383 129.425L35.3404 129.424C35.3575 129.413 35.362 129.389 35.351 129.372Z" fill="#263238"/>
<path d="M32.257 136.595C31.386 137.158 30.8033 138.042 30.3133 138.932C29.8462 139.841 29.4782 140.806 29.224 141.795C29.1473 142.039 29.0873 142.288 29.0339 142.537L28.8576 143.285C28.7678 143.787 28.6972 144.294 28.6687 144.803C28.6622 145.313 28.6475 145.822 28.6817 146.331C28.7242 146.839 28.7817 147.346 28.8821 147.849C28.8857 147.863 28.8976 147.877 28.9131 147.88C28.9347 147.884 28.9555 147.87 28.96 147.849C29.0832 147.348 29.164 146.85 29.2293 146.354C29.3084 145.86 29.3851 145.368 29.4443 144.875C29.5165 144.385 29.5814 143.896 29.6197 143.403C29.6883 142.915 29.7242 142.417 29.8311 141.936C30.002 140.961 30.284 140.01 30.6646 139.1C31.0437 138.197 31.5377 137.298 32.2966 136.662L32.3023 136.658C32.317 136.645 32.3207 136.624 32.3101 136.607C32.2987 136.589 32.2746 136.583 32.257 136.595Z" fill="#263238"/>
<path d="M23.2915 142.226C23.0813 139.731 22.6697 137.26 22.2804 134.79C21.8904 132.32 21.46 129.858 21.0083 127.4C20.5403 124.945 20.0515 122.494 19.522 120.052C19.5175 120.032 19.4975 120.018 19.4771 120.022C19.4559 120.026 19.442 120.046 19.4457 120.067C19.8728 122.528 20.2592 124.995 20.6244 127.464C20.9989 129.932 21.3514 132.403 21.664 134.878C21.9691 137.354 22.2066 139.836 22.5171 142.308L23.4302 149.738C23.4322 149.757 23.4477 149.771 23.4673 149.773C23.4889 149.774 23.5069 149.757 23.5081 149.736C23.5367 149.11 23.5375 148.483 23.5526 147.856C23.5583 147.229 23.5273 146.604 23.5159 145.977C23.4922 144.722 23.3853 143.475 23.2915 142.226Z" fill="#263238"/>
<path d="M21.7948 142.19C21.6614 141.202 21.4798 140.219 21.2909 139.239L20.9404 137.782C20.8258 137.296 20.7169 136.81 20.5745 136.33C20.0763 134.397 19.4402 132.496 18.6671 130.655L18.3676 129.968L18.0351 129.296C17.8233 128.843 17.5679 128.413 17.3252 127.976C16.8033 127.127 16.2619 126.277 15.5238 125.588C15.5087 125.574 15.4851 125.574 15.4704 125.588C15.4549 125.603 15.4545 125.628 15.4696 125.644L15.4732 125.648C16.1554 126.355 16.6528 127.228 17.1212 128.09C17.3382 128.534 17.5675 128.97 17.7531 129.429L18.0461 130.108L18.306 130.801C18.9975 132.649 19.552 134.548 19.969 136.478C20.1962 137.438 20.3472 138.417 20.5333 139.385L20.767 140.848C20.8515 141.334 20.9559 141.817 21.0241 142.307C21.1799 143.283 21.3595 144.256 21.5296 145.232C21.681 146.211 21.8597 147.188 22.0661 148.166C22.0698 148.184 22.0857 148.199 22.1045 148.199C22.1261 148.199 22.1436 148.181 22.1436 148.16C22.1481 147.163 22.1249 146.165 22.0739 145.169C22.0163 144.174 21.8984 143.183 21.7948 142.19Z" fill="#263238"/>
<path d="M19.7295 142.318C19.2668 141.008 18.732 139.726 18.1489 138.469C17.5504 137.219 16.9045 135.993 16.1611 134.825C16.1497 134.809 16.1261 134.802 16.1085 134.813C16.0897 134.824 16.084 134.847 16.0946 134.866C16.7442 136.079 17.2933 137.345 17.7911 138.624C18.2978 139.9 18.7544 141.196 19.1367 142.512C19.5271 143.826 19.8066 145.166 20.1563 146.486C20.5239 147.806 20.8213 149.139 21.2269 150.475C21.2318 150.491 21.2469 150.503 21.2644 150.504C21.286 150.504 21.304 150.487 21.3044 150.465C21.324 149.071 21.1873 147.678 20.916 146.313C20.6716 144.94 20.1893 143.626 19.7295 142.318Z" fill="#263238"/>
<path d="M19.6438 146.68C19.4072 145.86 19.0037 145.096 18.5451 144.376C18.0947 143.652 17.5724 142.968 16.9461 142.389C16.6234 142.109 16.2937 141.84 15.929 141.622C15.5699 141.397 15.1885 141.208 14.7752 141.1C14.7572 141.095 14.738 141.104 14.7299 141.122C14.7213 141.141 14.7299 141.164 14.7495 141.173L14.7539 141.175C15.5018 141.508 16.1338 142.059 16.6679 142.662C17.2093 143.266 17.641 143.959 18.0012 144.681C18.3798 145.398 18.5757 146.19 18.9049 146.928C19.0502 147.307 19.1946 147.688 19.3627 148.066C19.5051 148.452 19.6634 148.837 19.8646 149.219L19.8658 149.221C19.8723 149.234 19.885 149.242 19.8996 149.243C19.9217 149.243 19.9404 149.226 19.9413 149.204C19.9592 148.777 19.9339 148.352 19.8935 147.928C19.8323 147.51 19.7438 147.094 19.6438 146.68Z" fill="#263238"/>
<path d="M19.7982 123.625C19.7982 123.625 15.7084 122.682 14.7647 118.277C13.821 113.873 16.8618 115.76 14.1355 108.839C11.4089 101.918 12.0384 100.346 12.9821 98.3529C13.9258 96.3606 14.4501 96.9898 15.289 99.6112C16.1278 102.233 19.169 106.322 20.3225 113.978C21.4759 121.633 19.7982 123.625 19.7982 123.625Z" fill="#6962D5"/>
<path d="M27.8729 116.18C27.8729 116.18 25.1463 115.236 25.0414 110.098C24.9365 104.96 27.0337 106.008 27.3486 99.6115C27.6632 93.2149 28.0826 88.7057 29.236 88.6008C30.3895 88.496 33.4307 91.7469 34.4793 98.8775C35.5278 106.008 33.1161 110.727 31.0186 112.824C28.9215 114.922 27.8729 116.18 27.8729 116.18Z" fill="#6962D5"/>
<path d="M18.3302 129.813C18.3302 129.813 17.7011 126.037 16.4428 124.255C15.1845 122.472 12.4579 120.899 10.6753 117.439C8.89276 113.978 6.90009 112.3 7.00494 117.229C7.1098 122.158 9.31178 124.675 12.0384 126.352C14.7647 128.03 18.3302 129.813 18.3302 129.813Z" fill="#6962D5"/>
<path d="M17.1768 136.314C17.1768 136.314 14.6598 131.49 10.9898 127.925C7.31947 124.359 4.38351 122.577 5.43207 124.359C6.48063 126.142 7.73931 126.037 9.52186 129.183C11.3044 132.329 10.7801 134.636 13.2971 136.418C15.814 138.201 17.1768 136.314 17.1768 136.314Z" fill="#6962D5"/>
<path d="M16.8617 142.501C16.7568 142.186 16.652 139.88 13.0869 137.992C9.52136 136.104 6.16597 136.838 6.58539 137.782C7.00482 138.726 9.20679 140.299 11.4092 141.243C13.6112 142.186 16.8617 142.501 16.8617 142.501Z" fill="#6962D5"/>
<path d="M27.6627 130.022C27.6627 130.022 26.0898 128.03 26.9287 123.835C27.7675 119.641 29.6549 120.689 31.7525 118.487C33.8496 116.285 33.4302 115.971 35.5273 113.663C37.6244 111.356 39.5122 110.098 40.3511 111.042C41.1899 111.985 39.9316 114.922 38.6734 116.599C37.4151 118.277 35.4228 119.116 34.4787 121.213C33.535 123.311 33.9544 126.666 31.5423 128.239C29.1311 129.813 27.6627 130.022 27.6627 130.022Z" fill="#6962D5"/>
<path d="M32.906 131.176C32.906 131.176 36.6812 126.876 39.4075 123.73C42.1341 120.584 43.1827 118.173 43.2876 120.27C43.3924 122.367 44.2313 124.045 42.0293 126.771C39.8273 129.498 32.906 131.176 32.906 131.176Z" fill="#6962D5"/>
<path d="M30.9137 138.097C30.9137 138.097 30.8088 136.419 36.786 132.539C42.7632 128.659 45.2802 127.925 44.6506 129.498C44.0215 131.071 41.4001 132.644 38.5686 135.475C35.7375 138.306 30.9137 138.097 30.9137 138.097Z" fill="#6962D5"/>
<path d="M20.0474 123.178C20.0474 123.178 18.6442 115.656 17.1763 110.308C15.7083 104.96 14.7642 101.709 14.7642 101.709" stroke="#263238" stroke-miterlimit="10" stroke-linecap="round" stroke-linejoin="round"/>
<path d="M27.6309 116.259C27.6309 116.259 30.1792 108.105 31.0185 103.177C31.8573 98.2484 30.9136 94.578 30.4942 92.376" stroke="#263238" stroke-miterlimit="10" stroke-linecap="round" stroke-linejoin="round"/>
<path d="M17.9996 129.655C17.9996 129.655 16.4427 126.876 14.1354 124.15C11.8286 121.423 10.0456 119.955 8.99707 117.334" stroke="#263238" stroke-miterlimit="10" stroke-linecap="round" stroke-linejoin="round"/>
<path d="M27.6628 130.022C27.6628 130.022 28.5017 124.989 30.4944 122.367C32.4866 119.746 36.4716 115.656 38.0444 113.034" stroke="#263238" stroke-miterlimit="10" stroke-linecap="round" stroke-linejoin="round"/>
<path d="M16.6156 142.386C16.6156 142.386 13.0869 140.089 10.5703 138.831" stroke="#263238" stroke-miterlimit="10" stroke-linecap="round" stroke-linejoin="round"/>
<path d="M36.8198 163.523C36.584 157.16 29.5138 152.918 29.5138 152.918H25.0409H23.1506H18.6777C18.6777 152.918 11.6075 157.16 11.3717 163.523C11.1358 169.886 19.3848 193.219 19.3848 193.219H23.1506H25.0409H28.8067C28.8067 193.219 37.0557 169.886 36.8198 163.523Z" fill="#263238" stroke="#263238" stroke-miterlimit="10" stroke-linecap="round" stroke-linejoin="round"/>
<path d="M30.9092 146.661H17.0825L18.6778 152.918H29.314L30.9092 146.661Z" fill="#263238" stroke="#263238" stroke-miterlimit="10" stroke-linecap="round" stroke-linejoin="round"/>
<path d="M196.865 193.218H7.27515" stroke="#263238" stroke-miterlimit="10" stroke-linecap="round" stroke-linejoin="round"/>
<path d="M124.103 23.85V164.049C124.103 167.898 120.984 171.017 117.136 171.017H56.5574C52.7092 171.017 49.5896 167.897 49.5896 164.049V23.8464C49.5896 20.0001 52.7075 16.8822 56.5538 16.8822H82.5556L82.5772 16.9618C83.2251 19.2939 84.7172 20.8108 86.372 20.8108H87.3206C88.9755 20.8108 90.4671 19.2935 91.1154 16.9618L91.1407 16.8822H117.136C120.984 16.8822 124.103 20.0018 124.103 23.85Z" fill="white" stroke="#263238" stroke-miterlimit="10"/>
<path d="M98.285 116.43H76.6756C75.5842 116.43 74.6997 115.546 74.6997 114.454V110.441C74.6997 109.349 75.5842 108.465 76.6756 108.465H98.285C99.3764 108.465 100.261 109.349 100.261 110.441V114.454C100.261 115.546 99.3764 116.43 98.285 116.43Z" fill="#263238" stroke="#263238" stroke-miterlimit="10" stroke-linecap="round" stroke-linejoin="round"/>
<path d="M49.5896 127.401V164.049C49.5896 167.897 52.7092 171.016 56.5574 171.016H117.136C120.984 171.016 124.104 167.897 124.104 164.049V127.401H49.5896Z" fill="#DBDBDB" stroke="#263238" stroke-miterlimit="10" stroke-linecap="round" stroke-linejoin="round"/>
<path d="M72.2836 138.69H53.7081C53.1961 138.69 52.7808 138.274 52.7808 137.762V132.754C52.7808 132.242 53.1961 131.826 53.7081 131.826H72.2836C72.7956 131.826 73.211 132.241 73.211 132.754V137.762C73.211 138.275 72.7956 138.69 72.2836 138.69Z" fill="white"/>
<path d="M95.1459 138.69H76.5704C76.0584 138.69 75.6431 138.274 75.6431 137.762V132.754C75.6431 132.242 76.0584 131.826 76.5704 131.826H95.1459C95.6579 131.826 96.0733 132.241 96.0733 132.754V137.762C96.0733 138.275 95.6579 138.69 95.1459 138.69Z" fill="white"/>
<path d="M118.008 138.69H99.4323C98.9202 138.69 98.5049 138.274 98.5049 137.762V132.754C98.5049 132.242 98.9202 131.826 99.4323 131.826H118.008C118.52 131.826 118.935 132.241 118.935 132.754V137.762C118.935 138.275 118.52 138.69 118.008 138.69Z" fill="white"/>
<path d="M72.2836 147.46H53.7081C53.1961 147.46 52.7808 147.044 52.7808 146.532V141.524C52.7808 141.012 53.1961 140.596 53.7081 140.596H72.2836C72.7956 140.596 73.211 141.011 73.211 141.524V146.532C73.211 147.044 72.7956 147.46 72.2836 147.46Z" fill="white"/>
<path d="M95.1459 147.46H76.5704C76.0584 147.46 75.6431 147.044 75.6431 146.532V141.524C75.6431 141.012 76.0584 140.596 76.5704 140.596H95.1459C95.6579 140.596 96.0733 141.011 96.0733 141.524V146.532C96.0733 147.044 95.6579 147.46 95.1459 147.46Z" fill="white"/>
<path d="M118.008 147.46H99.4323C98.9202 147.46 98.5049 147.044 98.5049 146.532V141.524C98.5049 141.012 98.9202 140.596 99.4323 140.596H118.008C118.52 140.596 118.935 141.011 118.935 141.524V146.532C118.935 147.044 118.52 147.46 118.008 147.46Z" fill="white"/>
<path d="M72.2836 156.229H53.7081C53.1961 156.229 52.7808 155.814 52.7808 155.302V150.293C52.7808 149.781 53.1961 149.366 53.7081 149.366H72.2836C72.7956 149.366 73.211 149.781 73.211 150.293V155.302C73.211 155.814 72.7956 156.229 72.2836 156.229Z" fill="white"/>
<path d="M95.1459 156.229H76.5704C76.0584 156.229 75.6431 155.814 75.6431 155.302V150.293C75.6431 149.781 76.0584 149.366 76.5704 149.366H95.1459C95.6579 149.366 96.0733 149.781 96.0733 150.293V155.302C96.0733 155.814 95.6579 156.229 95.1459 156.229Z" fill="white"/>
<path d="M118.008 156.229H99.4323C98.9202 156.229 98.5049 155.814 98.5049 155.302V150.293C98.5049 149.781 98.9202 149.366 99.4323 149.366H118.008C118.52 149.366 118.935 149.781 118.935 150.293V155.302C118.935 155.814 118.52 156.229 118.008 156.229Z" fill="white"/>
<path d="M95.1459 164.999H76.5704C76.0584 164.999 75.6431 164.584 75.6431 164.072V159.063C75.6431 158.551 76.0584 158.136 76.5704 158.136H95.1459C95.6579 158.136 96.0733 158.551 96.0733 159.063V164.072C96.0733 164.584 95.6579 164.999 95.1459 164.999Z" fill="white"/>
<path d="M116.468 164.999H103.723L100.973 161.803L103.723 158.136H116.468V164.999Z" fill="white"/>
<path d="M87.6642 48.6336L87.4802 48.4953L87.2961 48.6336C87.2961 48.6336 77.9036 53.9743 73.6677 56.0001C73.6677 56.0001 75.6934 67.4183 77.1667 72.5751C78.64 77.7318 84.3492 80.4943 87.4802 82.336C90.6112 80.4943 96.3203 77.7318 97.7936 72.5751C99.2669 67.4183 101.293 56.0001 101.293 56.0001C97.0567 53.9743 87.6642 48.6336 87.6642 48.6336Z" fill="#6962D5"/>
<path d="M86.5172 70.7105L80.2891 65.3718C79.6901 64.8585 79.6207 63.9572 80.1344 63.3583C80.6473 62.7594 81.549 62.69 82.1479 63.2037L86.2328 66.7051L93.221 58.7418C93.7412 58.1486 94.6429 58.0898 95.2361 58.6104C95.829 59.1306 95.8877 60.0327 95.3675 60.6255L86.5172 70.7105Z" fill="white"/>
<path d="M63.1704 88.7119H54.6987V97.1836H63.1704V88.7119Z" fill="white" stroke="#263238" stroke-miterlimit="10"/>
<path d="M74.5887 88.7119H66.1169V97.1836H74.5887V88.7119Z" fill="white" stroke="#263238" stroke-miterlimit="10"/>
<path d="M86.0071 88.7119H77.5354V97.1836H86.0071V88.7119Z" fill="white" stroke="#263238" stroke-miterlimit="10"/>
<path d="M97.4253 88.7119H88.9536V97.1836H97.4253V88.7119Z" fill="white" stroke="#263238" stroke-miterlimit="10"/>
<path d="M108.844 88.7119H100.372V97.1836H108.844V88.7119Z" fill="white" stroke="#263238" stroke-miterlimit="10"/>
<path d="M120.262 88.7119H111.79V97.1836H120.262V88.7119Z" fill="white" stroke="#263238" stroke-miterlimit="10"/>
<path d="M124.103 30.3731V23.85C124.103 20.0018 120.984 16.8826 117.136 16.8826H91.1411L91.1158 16.9622C90.4675 19.2943 88.9759 20.8113 87.321 20.8113H86.372C84.7172 20.8113 83.2255 19.2939 82.5772 16.9622L82.5556 16.8826H56.5538C52.7075 16.8826 49.5896 20.0006 49.5896 23.8468V30.3736L124.103 30.3731Z" fill="#DBDBDB" stroke="#263238" stroke-miterlimit="10" stroke-linecap="round" stroke-linejoin="round"/>
<path d="M128.842 57.3354V43.3324H127.575V25.4057C127.575 19.3029 122.628 14.3555 116.525 14.3555H57.1687C51.0658 14.3555 46.1184 19.3029 46.1184 25.4057V167.859C46.1184 173.962 51.0658 178.91 57.1687 178.91H116.525C122.628 178.91 127.575 173.962 127.575 167.859V69.2702H128.842V60.9956H127.575V57.3358H128.842V57.3354ZM124.104 159.965C124.104 166.071 119.154 171.017 113.052 171.017H60.6412C54.5395 171.017 49.5897 166.071 49.5897 159.965V27.93C49.5897 21.8284 54.5395 16.8822 60.6412 16.8822H82.5557L82.5773 16.9618C83.2252 19.2939 84.7172 20.8108 86.3721 20.8108H87.3207C88.9755 20.8108 90.4672 19.2935 91.1155 16.9618L91.1408 16.8822H113.052C119.153 16.8822 124.103 21.8284 124.103 27.93L124.104 159.965Z" fill="#6962D5" stroke="#263238" stroke-miterlimit="10" stroke-linecap="round" stroke-linejoin="round"/>
<path d="M115.638 15.8773H58.0553C52.1695 15.8773 47.3979 20.6489 47.3979 26.5347V166.73C47.3979 172.616 52.1695 177.387 58.0553 177.387H115.639C121.525 177.387 126.296 172.616 126.296 166.73V26.5347C126.296 20.6489 121.525 15.8773 115.638 15.8773ZM124.104 160.358C124.104 166.245 119.332 171.017 113.445 171.017H60.2483C54.3617 171.017 49.5897 166.245 49.5897 160.358V27.5371C49.5897 21.6526 54.3601 16.8822 60.2446 16.8822H82.5557L82.5773 16.9618C83.2252 19.2939 84.7173 20.8109 86.3722 20.8109H87.3207C88.9756 20.8109 90.4672 19.2935 91.1156 16.9618L91.1409 16.8822H113.445C119.332 16.8822 124.104 21.6542 124.104 27.5408V160.358Z" fill="#263238" stroke="#263238" stroke-miterlimit="10" stroke-linecap="round" stroke-linejoin="round"/>
<path d="M87.6564 17.4106C87.6564 16.8378 87.1921 16.373 86.6188 16.373C86.0456 16.373 85.5813 16.8374 85.5813 17.4106C85.5813 17.9834 86.0456 18.4481 86.6188 18.4481C87.1921 18.4481 87.6564 17.9834 87.6564 17.4106Z" fill="white"/>
<path d="M56.2127 21.3861C56.2127 22.4359 55.034 22.8137 55.0291 23.6146V23.6692H56.1731V24.0226H54.6464V23.7239C54.6464 22.5999 55.8251 22.3812 55.8251 21.4012C55.8251 21.0434 55.7056 20.854 55.4171 20.854C55.1336 20.854 55.0091 21.0576 55.0091 21.3661V21.6745H54.646V21.391C54.646 20.8585 54.8896 20.5056 55.4265 20.5056C55.9691 20.5056 56.2127 20.854 56.2127 21.3861Z" fill="#263238"/>
<path d="M58.1186 21.3812V21.4705C58.1186 21.8288 57.9745 22.0825 57.6959 22.187C57.9892 22.2963 58.1186 22.5603 58.1186 22.9083V23.1772C58.1186 23.7092 57.8701 24.0577 57.3327 24.0577C56.8007 24.0577 56.5522 23.7096 56.5522 23.1772V22.9385H56.9154V23.2021C56.9154 23.5154 57.0447 23.7043 57.3234 23.7043C57.6069 23.7043 57.7314 23.5203 57.7314 23.1674V22.8985C57.7314 22.5554 57.5869 22.3914 57.2936 22.3812H57.0847V22.0328H57.3136C57.5722 22.023 57.7318 21.859 57.7318 21.5554V21.3959C57.7318 21.0376 57.6073 20.854 57.3238 20.854C57.0451 20.854 56.9158 21.0478 56.9158 21.3612V21.5403H56.5527V21.3812C56.5527 20.8487 56.8011 20.5056 57.3332 20.5056C57.8697 20.5056 58.1186 20.8487 58.1186 21.3812Z" fill="#263238"/>
<path d="M58.8699 21.6448V22.1274H58.4966V21.6448H58.8699ZM58.8699 23.5395V24.0222H58.4966V23.5395H58.8699Z" fill="#263238"/>
<path d="M59.6561 21.9581C59.7655 21.7688 59.9397 21.6696 60.1735 21.6696C60.621 21.6696 60.8197 21.9981 60.8197 22.4954V23.1768C60.8197 23.7088 60.5664 24.0573 60.0343 24.0573C59.5019 24.0573 59.2534 23.7092 59.2534 23.1768V22.943H59.6165V23.2017C59.6165 23.515 59.7459 23.7039 60.0245 23.7039C60.3032 23.7039 60.4325 23.515 60.4325 23.2017V22.5252C60.4325 22.2119 60.3032 22.023 60.0245 22.023C59.8107 22.023 59.6663 22.1425 59.6316 22.3963V22.4759H59.2685L59.3632 20.5407H60.7357V20.8887H59.7108L59.6561 21.9581Z" fill="#263238"/>
<path d="M62.7554 21.3759V21.4407H62.3927V21.3514C62.3927 21.038 62.2634 20.854 61.9798 20.854C61.686 20.854 61.5567 21.0429 61.5567 21.4162V22.1972C61.6514 21.9585 61.8403 21.8242 62.1189 21.8242C62.5665 21.8242 62.7656 22.1478 62.7656 22.65V23.1776C62.7656 23.7096 62.5016 24.058 61.9696 24.058C61.4323 24.058 61.1687 23.71 61.1687 23.1776V21.4016C61.1687 20.8495 61.4176 20.5064 61.9696 20.5064C62.5069 20.5056 62.7554 20.8438 62.7554 21.3759ZM61.5567 22.6794V23.2017C61.5567 23.515 61.686 23.7039 61.9696 23.7039C62.2483 23.7039 62.3825 23.515 62.3825 23.2017V22.6794C62.3825 22.3661 62.2483 22.1772 61.9696 22.1772C61.686 22.1768 61.5567 22.3657 61.5567 22.6794Z" fill="#263238"/>
<path d="M100.767 21.5293H99.7834V23.9871H100.767V21.5293Z" fill="#263238"/>
<path d="M102.078 21.0369H101.094V23.9871H102.078V21.0369Z" fill="#263238"/>
<path d="M103.389 20.6872H102.405V23.9867H103.389V20.6872Z" fill="#263238"/>
<path d="M104.699 20.0793H103.716V23.9871H104.699V20.0793Z" fill="#263238"/>
<path d="M116.865 23.9194H110.966V20.3147H116.865V23.9194ZM111.294 23.5918H116.537V20.6423H111.294V23.5918Z" fill="#263238"/>
<path d="M114.899 20.9989H111.786V23.2352H114.899V20.9989Z" fill="#263238"/>
<path d="M117.402 21.6925H116.66V22.5416H117.402V21.6925Z" fill="#263238"/>
<path d="M108.804 23.1352C108.765 23.1352 108.726 23.1254 108.691 23.1042C107.491 22.391 106.697 23.0532 106.664 23.0809C106.572 23.1605 106.433 23.1503 106.354 23.0589C106.274 22.9671 106.283 22.8296 106.374 22.7496C106.417 22.7121 107.431 21.8431 108.917 22.7256C109.021 22.7876 109.056 22.923 108.993 23.0275C108.952 23.0968 108.879 23.1352 108.804 23.1352Z" fill="#263238"/>
<path d="M109.248 22.3947C109.209 22.3947 109.17 22.3849 109.135 22.3637C107.399 21.3314 106.233 22.3302 106.221 22.3396C106.129 22.4208 105.991 22.411 105.91 22.32C105.83 22.2286 105.838 22.0895 105.93 22.0095C105.944 21.9965 107.351 20.7912 109.36 21.9855C109.465 22.0475 109.499 22.1829 109.437 22.2874C109.395 22.3567 109.322 22.3947 109.248 22.3947Z" fill="#263238"/>
<path d="M109.651 21.5371C109.613 21.5371 109.573 21.5273 109.538 21.5061C107.34 20.1989 105.879 21.4294 105.817 21.4828C105.726 21.5624 105.586 21.5526 105.507 21.4612C105.427 21.3698 105.436 21.2315 105.527 21.1515C105.544 21.136 107.281 19.6509 109.764 21.1275C109.868 21.1895 109.903 21.3249 109.841 21.4294C109.799 21.4992 109.726 21.5371 109.651 21.5371Z" fill="#263238"/>
<path d="M108.14 23.5045C108.14 23.8096 107.893 24.0569 107.588 24.0569C107.283 24.0569 107.035 23.8096 107.035 23.5045C107.035 23.1993 107.283 22.952 107.588 22.952C107.893 22.952 108.14 23.1993 108.14 23.5045Z" fill="#263238"/>
<path d="M110.678 161.731L112.666 159.743C112.906 159.504 112.906 159.117 112.666 158.878C112.427 158.639 112.04 158.639 111.801 158.878L109.813 160.866L107.825 158.878C107.586 158.639 107.198 158.639 106.959 158.878C106.72 159.117 106.72 159.504 106.959 159.743L108.948 161.731L106.959 163.719C106.72 163.958 106.72 164.346 106.959 164.585C107.079 164.704 107.236 164.764 107.392 164.764C107.549 164.764 107.706 164.704 107.825 164.585L109.813 162.597L111.801 164.585C111.921 164.704 112.077 164.764 112.234 164.764C112.391 164.764 112.547 164.704 112.667 164.585C112.906 164.346 112.906 163.958 112.667 163.719L110.678 161.731Z" fill="#263238"/>
<path d="M61.9268 137.612V133.591C61.9023 133.604 61.8542 133.622 61.7828 133.647C61.7114 133.671 61.6326 133.695 61.5469 133.717C61.4613 133.74 61.3825 133.761 61.3111 133.782C61.2397 133.802 61.1899 133.818 61.1614 133.831V133.2C61.2185 133.179 61.2899 133.151 61.3756 133.114C61.4613 133.077 61.5522 133.036 61.6477 132.989C61.7436 132.942 61.8334 132.89 61.917 132.833C62.0006 132.775 62.0688 132.716 62.1222 132.655H62.7709V137.612H61.9268V137.612Z" fill="#263238"/>
<path d="M84.7825 137.612V137.012L86.0065 135.121C86.0962 134.982 86.1807 134.85 86.2602 134.723C86.3398 134.597 86.4051 134.465 86.4561 134.328C86.5071 134.192 86.5328 134.042 86.5328 133.878C86.5328 133.695 86.5002 133.554 86.4349 133.456C86.3696 133.358 86.2676 133.309 86.1289 133.309C85.9983 133.309 85.8963 133.346 85.8229 133.42C85.7494 133.493 85.6992 133.589 85.6727 133.707C85.6462 133.826 85.6331 133.956 85.6331 134.099V134.307H84.8008V134.087C84.8008 133.793 84.8445 133.535 84.9322 133.313C85.0199 133.091 85.1599 132.916 85.3512 132.79C85.543 132.663 85.7939 132.6 86.104 132.6C86.5283 132.6 86.8465 132.714 87.0587 132.943C87.2709 133.172 87.3769 133.49 87.3769 133.897C87.3769 134.102 87.3484 134.286 87.2913 134.451C87.2341 134.616 87.1587 134.775 87.0648 134.926C86.971 135.077 86.869 135.232 86.7588 135.391L85.7429 136.933H87.2484V137.612H84.7825Z" fill="#263238"/>
<path d="M108.659 137.686C108.349 137.686 108.1 137.627 107.91 137.511C107.72 137.395 107.582 137.23 107.497 137.015C107.411 136.801 107.368 136.551 107.368 136.266V136.095H108.207C108.207 136.106 108.207 136.127 108.207 136.155C108.207 136.184 108.207 136.213 108.207 136.241C108.211 136.396 108.225 136.529 108.249 136.639C108.274 136.749 108.32 136.833 108.387 136.89C108.454 136.947 108.547 136.976 108.666 136.976C108.792 136.976 108.887 136.945 108.95 136.884C109.013 136.823 109.056 136.733 109.078 136.614C109.101 136.496 109.112 136.355 109.112 136.192C109.112 135.939 109.072 135.74 108.992 135.596C108.913 135.451 108.759 135.372 108.53 135.36C108.522 135.36 108.503 135.36 108.472 135.36C108.442 135.36 108.414 135.36 108.389 135.36V134.681C108.41 134.681 108.431 134.681 108.454 134.681C108.476 134.681 108.497 134.681 108.518 134.681C108.742 134.676 108.897 134.616 108.983 134.5C109.069 134.384 109.111 134.197 109.111 133.94C109.111 133.732 109.08 133.569 109.017 133.451C108.954 133.332 108.832 133.273 108.652 133.273C108.477 133.273 108.36 133.338 108.301 133.469C108.242 133.6 108.21 133.769 108.206 133.977C108.206 134.006 108.206 134.035 108.206 134.066C108.206 134.097 108.206 134.128 108.206 134.161H107.368V133.922C107.368 133.64 107.417 133.401 107.518 133.203C107.618 133.005 107.763 132.854 107.955 132.75C108.147 132.646 108.38 132.594 108.653 132.594C108.934 132.594 109.171 132.645 109.363 132.747C109.555 132.849 109.7 132.997 109.8 133.19C109.9 133.384 109.95 133.622 109.95 133.904C109.95 134.197 109.889 134.438 109.767 134.626C109.644 134.813 109.487 134.936 109.295 134.993C109.426 135.034 109.54 135.104 109.638 135.204C109.736 135.304 109.813 135.434 109.868 135.596C109.923 135.758 109.951 135.952 109.951 136.181C109.951 136.478 109.909 136.74 109.825 136.967C109.741 137.194 109.605 137.37 109.415 137.496C109.226 137.622 108.974 137.686 108.659 137.686Z" fill="#263238"/>
<path d="M62.3367 146.399V145.181H60.8557V144.459L62.147 141.441H63.1323V144.508H63.6403V145.181H63.1323V146.399H62.3367V146.399ZM61.566 144.508H62.3372V142.354L61.566 144.508Z" fill="#263238"/>
<path d="M86.0676 146.472C85.7372 146.472 85.4809 146.412 85.2998 146.289C85.1182 146.166 84.993 145.993 84.9236 145.769C84.8538 145.545 84.8196 145.281 84.8196 144.979H85.6458C85.6458 145.146 85.6568 145.295 85.6796 145.423C85.7021 145.552 85.747 145.652 85.8143 145.723C85.8816 145.794 85.9807 145.828 86.1109 145.824C86.2537 145.824 86.3549 145.778 86.414 145.686C86.4732 145.594 86.5107 145.466 86.5271 145.301C86.5434 145.135 86.5515 144.942 86.5515 144.722C86.5515 144.53 86.5405 144.363 86.5177 144.221C86.4952 144.078 86.4512 143.966 86.3863 143.887C86.321 143.808 86.219 143.768 86.0803 143.768C85.9616 143.768 85.8641 143.808 85.7865 143.887C85.709 143.966 85.6519 144.072 85.6152 144.202H84.8869L84.9359 141.442H87.1635V142.201H85.6458L85.5968 143.394C85.658 143.321 85.7466 143.262 85.8628 143.217C85.9791 143.172 86.1084 143.145 86.2517 143.137C86.5128 143.125 86.7249 143.18 86.8881 143.302C87.0513 143.425 87.1717 143.602 87.2492 143.835C87.3267 144.067 87.3655 144.345 87.3655 144.667C87.3655 144.929 87.3484 145.169 87.3137 145.39C87.279 145.61 87.2145 145.8 87.1207 145.962C87.0269 146.123 86.8951 146.248 86.7262 146.338C86.5564 146.428 86.3369 146.472 86.0676 146.472Z" fill="#263238"/>
<path d="M108.687 146.466C108.381 146.466 108.132 146.395 107.94 146.252C107.748 146.109 107.608 145.915 107.521 145.667C107.433 145.421 107.39 145.144 107.39 144.838V143.1C107.39 142.778 107.426 142.487 107.5 142.228C107.573 141.969 107.704 141.764 107.891 141.613C108.079 141.462 108.342 141.386 108.681 141.386C108.971 141.386 109.206 141.434 109.388 141.53C109.569 141.626 109.703 141.766 109.788 141.949C109.874 142.133 109.917 142.359 109.917 142.629C109.917 142.641 109.918 142.654 109.92 142.669C109.922 142.683 109.923 142.696 109.923 142.709H109.109C109.109 142.488 109.082 142.323 109.029 142.213C108.976 142.103 108.862 142.048 108.687 142.048C108.581 142.048 108.495 142.08 108.43 142.146C108.364 142.211 108.317 142.318 108.286 142.467C108.255 142.616 108.24 142.815 108.24 143.064V143.657C108.297 143.563 108.384 143.489 108.5 143.434C108.616 143.379 108.752 143.351 108.907 143.351C109.176 143.347 109.388 143.406 109.543 143.529C109.698 143.651 109.809 143.82 109.876 144.037C109.944 144.253 109.977 144.5 109.977 144.777C109.977 145.1 109.936 145.388 109.855 145.643C109.773 145.898 109.639 146.099 109.451 146.246C109.264 146.393 109.009 146.466 108.687 146.466ZM108.693 145.811C108.811 145.811 108.901 145.775 108.962 145.701C109.023 145.628 109.066 145.526 109.091 145.395C109.115 145.265 109.127 145.112 109.127 144.936C109.127 144.757 109.12 144.596 109.106 144.456C109.092 144.315 109.054 144.203 108.993 144.119C108.931 144.036 108.829 143.994 108.687 143.994C108.617 143.994 108.553 144.007 108.494 144.033C108.435 144.06 108.384 144.094 108.341 144.135C108.298 144.175 108.264 144.216 108.24 144.257V145.034C108.24 145.173 108.253 145.301 108.28 145.419C108.306 145.538 108.353 145.633 108.421 145.704C108.488 145.776 108.579 145.811 108.693 145.811Z" fill="#263238"/>
<path d="M61.4221 155.186L62.4074 150.878H61.0671V150.228H63.2397V150.749L62.2422 155.186H61.4221V155.186Z" fill="#263238"/>
<path d="M86.0521 155.253C85.7375 155.253 85.4849 155.19 85.2932 155.064C85.1014 154.937 84.9647 154.76 84.8831 154.534C84.8015 154.308 84.7607 154.046 84.7607 153.747C84.7607 153.605 84.7738 153.473 84.8003 153.353C84.8268 153.233 84.8656 153.123 84.9166 153.025C84.9676 152.927 85.0296 152.841 85.1035 152.765C85.1769 152.689 85.2605 152.627 85.3544 152.579C85.2075 152.477 85.0839 152.337 84.9839 152.159C84.884 151.982 84.8317 151.756 84.8281 151.483C84.8281 151.214 84.8717 150.98 84.9594 150.782C85.0472 150.585 85.1826 150.434 85.3666 150.33C85.5502 150.226 85.7787 150.173 86.0521 150.173C86.3295 150.173 86.558 150.226 86.7375 150.333C86.917 150.439 87.0509 150.59 87.1382 150.785C87.2259 150.981 87.2675 151.214 87.2638 151.483C87.2597 151.761 87.2096 151.987 87.1141 152.162C87.0182 152.338 86.8966 152.477 86.7497 152.579C86.8436 152.628 86.9272 152.69 87.0007 152.765C87.0741 152.841 87.1361 152.927 87.1871 153.026C87.2381 153.124 87.2769 153.233 87.3034 153.353C87.3299 153.474 87.3434 153.605 87.3434 153.748C87.3475 154.046 87.3075 154.308 87.2238 154.534C87.1402 154.761 87.0035 154.938 86.8138 155.064C86.6245 155.19 86.3703 155.253 86.0521 155.253ZM86.0521 154.611C86.1867 154.611 86.2875 154.57 86.3548 154.488C86.4221 154.407 86.4658 154.304 86.4866 154.179C86.507 154.055 86.5172 153.927 86.5172 153.796C86.5213 153.658 86.5111 153.524 86.4866 153.396C86.4621 153.268 86.416 153.162 86.3491 153.081C86.2818 152.999 86.1826 152.958 86.0521 152.958C85.9256 152.958 85.8285 152.999 85.7612 153.081C85.6938 153.162 85.6469 153.266 85.6204 153.393C85.5939 153.52 85.5804 153.654 85.5804 153.797C85.5804 153.927 85.5914 154.056 85.6139 154.182C85.6363 154.309 85.6824 154.412 85.7514 154.492C85.8215 154.571 85.9215 154.611 86.0521 154.611ZM86.0521 152.242C86.1541 152.238 86.2344 152.202 86.2936 152.135C86.3528 152.068 86.3948 151.975 86.4193 151.856C86.4437 151.738 86.456 151.603 86.456 151.452C86.456 151.265 86.4254 151.112 86.3642 150.993C86.303 150.876 86.1989 150.816 86.0521 150.816C85.9089 150.816 85.804 150.876 85.7371 150.993C85.6698 151.112 85.6359 151.263 85.6359 151.446C85.6359 151.597 85.649 151.733 85.6755 151.853C85.702 151.974 85.7461 152.067 85.8073 152.135C85.8685 152.203 85.9501 152.239 86.0521 152.242Z" fill="#263238"/>
<path d="M86.0521 163.867C85.7624 163.867 85.5229 163.805 85.3332 163.683C85.1434 163.561 85.0007 163.392 84.9048 163.175C84.8089 162.959 84.7607 162.71 84.7607 162.429V160.231C84.7607 159.942 84.8069 159.688 84.8987 159.47C84.9905 159.251 85.1312 159.081 85.3209 158.959C85.5106 158.836 85.7546 158.775 86.0521 158.775C86.3499 158.775 86.5939 158.836 86.7832 158.959C86.9729 159.081 87.1137 159.251 87.2055 159.47C87.2973 159.688 87.343 159.942 87.343 160.231V162.429C87.343 162.71 87.2948 162.959 87.199 163.175C87.1031 163.392 86.9603 163.561 86.7706 163.683C86.5817 163.806 86.3417 163.867 86.0521 163.867ZM86.0521 163.138C86.1785 163.138 86.2724 163.1 86.3336 163.022C86.3948 162.945 86.4356 162.851 86.456 162.741C86.4764 162.631 86.4866 162.523 86.4866 162.417V160.244C86.4866 160.13 86.4772 160.016 86.4593 159.905C86.4409 159.792 86.4009 159.697 86.3401 159.62C86.2789 159.543 86.183 159.504 86.0525 159.504C85.9219 159.504 85.826 159.543 85.7648 159.62C85.7036 159.697 85.6641 159.792 85.6457 159.905C85.6273 160.017 85.6184 160.13 85.6184 160.244V162.417C85.6184 162.523 85.6294 162.631 85.6522 162.741C85.6747 162.852 85.7167 162.945 85.7779 163.022C85.8379 163.1 85.9297 163.138 86.0521 163.138Z" fill="#263238"/>
<path d="M108.601 155.253C108.316 155.253 108.081 155.204 107.897 155.106C107.714 155.009 107.579 154.866 107.493 154.678C107.408 154.49 107.365 154.262 107.365 153.993C107.365 153.984 107.365 153.974 107.365 153.962C107.365 153.95 107.365 153.938 107.365 153.925H108.173C108.173 154.146 108.2 154.311 108.255 154.421C108.31 154.531 108.427 154.586 108.607 154.586C108.717 154.586 108.803 154.554 108.864 154.488C108.926 154.423 108.97 154.315 108.999 154.164C109.028 154.013 109.042 153.815 109.042 153.57V152.977C108.985 153.071 108.899 153.144 108.785 153.197C108.671 153.25 108.534 153.279 108.375 153.283C108.11 153.287 107.898 153.224 107.741 153.096C107.584 152.968 107.472 152.793 107.404 152.573C107.337 152.352 107.304 152.104 107.304 151.826C107.304 151.5 107.347 151.213 107.432 150.967C107.518 150.72 107.657 150.526 107.848 150.385C108.04 150.244 108.291 150.174 108.601 150.174C108.907 150.174 109.156 150.242 109.348 150.379C109.54 150.516 109.68 150.704 109.767 150.945C109.855 151.186 109.899 151.461 109.899 151.771V153.528C109.899 153.85 109.861 154.142 109.785 154.403C109.71 154.664 109.579 154.871 109.393 155.024C109.208 155.177 108.944 155.253 108.601 155.253ZM108.607 152.64C108.722 152.64 108.812 152.612 108.88 152.554C108.947 152.497 109.001 152.436 109.042 152.371V151.6C109.042 151.457 109.03 151.328 109.005 151.211C108.981 151.095 108.937 151.001 108.873 150.93C108.81 150.858 108.719 150.822 108.601 150.822C108.487 150.822 108.398 150.859 108.335 150.933C108.271 151.006 108.227 151.108 108.203 151.239C108.178 151.369 108.166 151.522 108.166 151.698C108.166 151.873 108.174 152.032 108.188 152.175C108.202 152.318 108.24 152.431 108.301 152.514C108.362 152.598 108.464 152.64 108.607 152.64Z" fill="#263238"/>
<path d="M80.4634 114.826V109.87H82.5442V110.506H81.3691V111.932H82.2933V112.562H81.3691V114.203H82.5564V114.826H80.4634Z" fill="#6962D5"/>
<path d="M83.0828 114.826V109.87H83.7131L84.9188 112.697V109.87H85.6654V114.826H85.0656L83.8539 111.864V114.826H83.0828Z" fill="#6962D5"/>
<path d="M86.9137 114.826V110.536H86.1243V109.869H88.5967V110.536H87.8195V114.826H86.9137Z" fill="#6962D5"/>
<path d="M89.0498 114.826V109.87H91.1306V110.506H89.9556V111.932H90.8797V112.562H89.9556V114.203H91.1428V114.826H89.0498Z" fill="#6962D5"/>
<path d="M91.6692 114.826V109.87H92.8565C93.191 109.87 93.4734 109.909 93.7039 109.989C93.9344 110.068 94.1098 110.204 94.2302 110.396C94.3506 110.588 94.4105 110.848 94.4105 111.179C94.4105 111.379 94.3922 111.559 94.3555 111.717C94.3187 111.877 94.2563 112.012 94.1686 112.125C94.0809 112.237 93.9593 112.323 93.8043 112.385L94.4958 114.826H93.5901L92.9903 112.556H92.5741V114.826H91.6692ZM92.5749 111.987H92.8569C93.0323 111.987 93.1719 111.961 93.2759 111.91C93.3799 111.859 93.4546 111.778 93.4991 111.665C93.5439 111.553 93.5664 111.409 93.5664 111.234C93.5664 110.985 93.5207 110.798 93.4289 110.673C93.3371 110.549 93.1629 110.487 92.9054 110.487H92.5749V111.987Z" fill="#6962D5"/>
<path d="M68.2325 43.3635L67.3679 39.0673H68.0627L68.6303 42.1065L69.1607 39.0673H69.8714L69.0069 43.3635H68.2325Z" fill="#263238"/>
<path d="M70.3113 43.3635V39.0673H72.1146V39.6189H71.0963V40.8547H71.8972V41.401H71.0963V42.8225H72.1257V43.3635H70.3113Z" fill="#263238"/>
<path d="M72.5813 43.3635V39.0673H73.6103C73.9 39.0673 74.1452 39.1019 74.3447 39.1709C74.5446 39.2398 74.6964 39.3574 74.8008 39.5234C74.9053 39.6899 74.9575 39.9159 74.9575 40.2023C74.9575 40.3757 74.9416 40.5312 74.9098 40.6691C74.8779 40.807 74.8241 40.9245 74.7482 41.022C74.6723 41.1191 74.567 41.1942 74.4328 41.2472L75.0322 43.3635H74.2472L73.7274 41.3957H73.3667V43.3635H72.5813ZM73.3663 40.9024H73.6107C73.7625 40.9024 73.8836 40.8804 73.9738 40.8363C74.0644 40.7923 74.1288 40.7213 74.1676 40.6242C74.2068 40.5271 74.2264 40.4022 74.2264 40.2501C74.2264 40.0342 74.1864 39.8727 74.1068 39.7649C74.0277 39.6568 73.8759 39.6034 73.6535 39.6034H73.3671V40.9024H73.3663Z" fill="#263238"/>
<path d="M75.5674 43.3635V39.0673H76.3418V43.3635H75.5674Z" fill="#263238"/>
<path d="M77.0049 43.3635V39.0673H78.7711V39.6083H77.7899V40.86H78.5908V41.4063H77.7899V43.3635H77.0049Z" fill="#263238"/>
<path d="M79.2004 43.3635V39.0673H79.9748V43.3635H79.2004Z" fill="#263238"/>
<path d="M81.7943 43.4219C81.4797 43.4219 81.2329 43.3602 81.0542 43.2362C80.8755 43.1126 80.751 42.9437 80.6805 42.7295C80.6095 42.5157 80.574 42.2693 80.574 41.9898V40.4569C80.574 40.1636 80.6095 39.909 80.6805 39.6931C80.751 39.4777 80.8759 39.3113 81.0542 39.1946C81.2329 39.0779 81.4793 39.0195 81.7943 39.0195C82.0917 39.0195 82.3239 39.0701 82.492 39.1709C82.6597 39.2717 82.7792 39.4157 82.8498 39.6034C82.9208 39.7907 82.9559 40.0081 82.9559 40.2558V40.6164H82.2027V40.2452C82.2027 40.1248 82.1962 40.0155 82.1839 39.9163C82.1717 39.8176 82.1382 39.7384 82.0836 39.6805C82.0285 39.6221 81.9342 39.5928 81.7996 39.5928C81.6654 39.5928 81.5675 39.6238 81.5054 39.6858C81.4434 39.7478 81.4034 39.8306 81.3859 39.9351C81.3684 40.0391 81.3594 40.157 81.3594 40.2876V42.1546C81.3594 42.3101 81.3716 42.4382 81.3969 42.5389C81.4218 42.6397 81.4667 42.716 81.532 42.767C81.5972 42.818 81.6866 42.8437 81.7996 42.8437C81.9306 42.8437 82.0236 42.8127 82.0783 42.7507C82.1333 42.6891 82.1676 42.6067 82.1819 42.5043C82.1958 42.4014 82.2031 42.2868 82.2031 42.1595V41.7723H82.9563V42.1171C82.9563 42.3717 82.9228 42.5973 82.8555 42.7935C82.7886 42.9898 82.6711 43.1436 82.503 43.255C82.3345 43.366 82.0983 43.4219 81.7943 43.4219Z" fill="#263238"/>
<path d="M83.2844 43.3635L84.1437 39.0673H84.9817L85.8409 43.3635H85.1143L84.9446 42.3717H84.1967L84.0217 43.3635H83.2844ZM84.2767 41.8731H84.8601L84.5684 40.0697L84.2767 41.8731Z" fill="#263238"/>
<path d="M86.4987 43.3635V39.6454H85.8145V39.0673H87.9573V39.6454H87.2837V43.3635H86.4987Z" fill="#263238"/>
<path d="M88.3708 43.3635V39.0673H89.1452V43.3635H88.3708Z" fill="#263238"/>
<path d="M90.9756 43.4218C90.6713 43.4218 90.4293 43.3651 90.249 43.2521C90.0687 43.1391 89.9393 42.9763 89.8618 42.7641C89.7843 42.552 89.7451 42.3011 89.7451 42.011V40.4039C89.7451 40.1142 89.7843 39.8653 89.8618 39.6584C89.9393 39.4516 90.0687 39.2933 90.249 39.1835C90.4293 39.0738 90.6713 39.0191 90.9756 39.0191C91.287 39.0191 91.5313 39.0738 91.71 39.1835C91.8888 39.2933 92.0177 39.4516 92.0972 39.6584C92.1768 39.8653 92.2168 40.1138 92.2168 40.4039V42.0163C92.2168 42.3027 92.1768 42.5512 92.0972 42.7613C92.0177 42.9718 91.8883 43.1346 91.71 43.2492C91.5313 43.3643 91.2865 43.4218 90.9756 43.4218ZM90.9756 42.8437C91.1062 42.8437 91.2029 42.8155 91.2645 42.7588C91.3261 42.7021 91.3681 42.6246 91.3894 42.5255C91.4106 42.4267 91.4212 42.3186 91.4212 42.2019V40.2235C91.4212 40.1032 91.4106 39.9954 91.3894 39.9C91.3681 39.8045 91.3265 39.7294 91.2645 39.6744C91.2029 39.6197 91.1062 39.5919 90.9756 39.5919C90.8516 39.5919 90.7582 39.6193 90.6945 39.6744C90.6309 39.729 90.5885 39.8041 90.5676 39.9C90.546 39.9954 90.5358 40.1032 90.5358 40.2235V42.2019C90.5358 42.3186 90.5452 42.4267 90.5648 42.5255C90.5844 42.6246 90.626 42.7025 90.6896 42.7588C90.7529 42.8155 90.8479 42.8437 90.9756 42.8437Z" fill="#263238"/>
<path d="M92.7949 43.3635V39.0673H93.3412L94.3861 41.5177V39.0673H95.0332V43.3635H94.5134L93.4632 40.7964V43.3635H92.7949Z" fill="#263238"/>
<path d="M98.1303 43.4219C97.8158 43.4219 97.5689 43.3602 97.3906 43.2362C97.2119 43.1126 97.0875 42.9437 97.0169 42.7295C96.9459 42.5157 96.9104 42.2693 96.9104 41.9898V40.4569C96.9104 40.1636 96.9459 39.909 97.0169 39.6931C97.0875 39.4777 97.2123 39.3113 97.3906 39.1946C97.5693 39.0779 97.8158 39.0195 98.1303 39.0195C98.4278 39.0195 98.6599 39.0701 98.828 39.1709C98.9957 39.2717 99.1152 39.4157 99.1858 39.6034C99.2568 39.7907 99.2919 40.0081 99.2919 40.2558V40.6164H98.5387V40.2452C98.5387 40.1248 98.5322 40.0155 98.52 39.9163C98.5077 39.8176 98.4743 39.7384 98.4196 39.6805C98.3645 39.6221 98.2703 39.5928 98.1356 39.5928C98.0014 39.5928 97.9035 39.6238 97.8415 39.6858C97.7794 39.7478 97.7395 39.8306 97.7219 39.9351C97.7044 40.0391 97.6954 40.157 97.6954 40.2876V42.1546C97.6954 42.3101 97.7076 42.4382 97.7329 42.5389C97.7578 42.6397 97.8027 42.716 97.868 42.767C97.9333 42.818 98.0226 42.8437 98.1356 42.8437C98.2666 42.8437 98.3596 42.8127 98.4143 42.7507C98.4694 42.6891 98.5036 42.6067 98.5179 42.5043C98.5318 42.4014 98.5391 42.2868 98.5391 42.1595V41.7723H99.2923V42.1171C99.2923 42.3717 99.2588 42.5973 99.1915 42.7935C99.1246 42.9898 99.0071 43.1436 98.839 43.255C98.6705 43.366 98.4343 43.4219 98.1303 43.4219Z" fill="#263238"/>
<path d="M101.005 43.4218C100.701 43.4218 100.459 43.3651 100.279 43.2521C100.098 43.1391 99.9691 42.9763 99.8916 42.7641C99.8141 42.552 99.7749 42.3011 99.7749 42.011V40.4039C99.7749 40.1142 99.8141 39.8653 99.8916 39.6584C99.9691 39.4516 100.098 39.2933 100.279 39.1835C100.459 39.0738 100.701 39.0191 101.005 39.0191C101.317 39.0191 101.561 39.0738 101.74 39.1835C101.918 39.2933 102.047 39.4516 102.127 39.6584C102.207 39.8653 102.247 40.1138 102.247 40.4039V42.0163C102.247 42.3027 102.207 42.5512 102.127 42.7613C102.047 42.9718 101.918 43.1346 101.74 43.2492C101.561 43.3643 101.316 43.4218 101.005 43.4218ZM101.005 42.8437C101.136 42.8437 101.233 42.8155 101.294 42.7588C101.356 42.7021 101.398 42.6246 101.419 42.5255C101.44 42.4267 101.451 42.3186 101.451 42.2019V40.2235C101.451 40.1032 101.44 39.9954 101.419 39.9C101.398 39.8045 101.356 39.7294 101.294 39.6744C101.233 39.6197 101.136 39.5919 101.005 39.5919C100.881 39.5919 100.788 39.6193 100.724 39.6744C100.661 39.729 100.618 39.8041 100.597 39.9C100.575 39.9954 100.565 40.1032 100.565 40.2235V42.2019C100.565 42.3186 100.575 42.4267 100.594 42.5255C100.614 42.6246 100.655 42.7025 100.719 42.7588C100.783 42.8155 100.878 42.8437 101.005 42.8437Z" fill="#263238"/>
<path d="M102.824 43.3635V39.0673H103.838C104.187 39.0673 104.461 39.115 104.657 39.2105C104.853 39.3059 104.993 39.4528 105.076 39.6507C105.159 39.8486 105.201 40.0999 105.201 40.4039V41.9739C105.201 42.2852 105.159 42.5438 105.076 42.7507C104.993 42.9575 104.855 43.1114 104.662 43.2121C104.469 43.3129 104.205 43.3635 103.869 43.3635H102.824ZM103.609 42.8172H103.848C104.028 42.8172 104.158 42.7854 104.235 42.7217C104.313 42.6581 104.361 42.5655 104.379 42.4435C104.396 42.3215 104.405 42.1721 104.405 41.9951V40.3508C104.405 40.1774 104.393 40.0379 104.368 39.9318C104.343 39.8257 104.292 39.7482 104.214 39.6984C104.136 39.6487 104.011 39.6242 103.838 39.6242H103.609V42.8172H103.609Z" fill="#263238"/>
<path d="M105.779 43.3635V39.0673H107.582V39.6189H106.564V40.8547H107.364V41.401H106.564V42.8225H107.593V43.3635H105.779Z" fill="#263238"/>
<path d="M163.931 9.55945V29.6432" stroke="#263238" stroke-miterlimit="10" stroke-linecap="round" stroke-linejoin="round" stroke-dasharray="5 5"/>
<path d="M163.931 63.9193V80.837C163.931 86.4307 159.397 90.9652 153.803 90.9652H132.512" stroke="#263238" stroke-linecap="round" stroke-linejoin="round" stroke-dasharray="5 5"/>
<path d="M133.256 88.4225L128.852 90.9652L133.256 93.5083V88.4225Z" fill="#263238"/>
<path d="M186.517 38.6428L150.309 31.1906L144.974 57.1097L181.182 64.562L186.517 38.6428Z" fill="#263238"/>
<path d="M184.643 36.2325L148.435 28.7802L143.1 54.6994L179.308 62.1517L184.643 36.2325Z" fill="white" stroke="#263238" stroke-miterlimit="10"/>
<path d="M148.432 28.7746L163.869 45.4593L184.639 36.2255" stroke="#263238" stroke-miterlimit="10" stroke-linecap="round" stroke-linejoin="round"/>
<path d="M158.236 174.687C158.236 174.687 151.159 165.256 142.329 158.714C133.499 152.173 125.927 149.495 123.849 150.12C121.77 150.744 119.945 152.75 119.945 152.75L95.2713 177.52C95.2713 177.52 87.1338 183.948 86.2345 184.51C85.3349 185.072 81.1366 187.693 78.5621 188.499C75.9876 189.305 71.773 189.18 71.7497 189.964C71.7265 190.748 72.2968 191.354 73.5563 191.882C74.8158 192.41 77.926 193.385 80.8661 193.473C83.8065 193.561 85.6568 194.008 86.5332 194.23C87.4096 194.452 89.9257 195.606 90.543 194.644C91.1603 193.681 92.0126 188.115 92.2264 187.533C92.4398 186.95 100.26 181.298 105.735 178.616C111.211 175.934 117.914 171.523 119.841 169.422C121.767 167.322 124.611 164.071 124.611 164.071C124.611 164.071 133.388 172.377 136.41 176.292C139.433 180.208 144.291 185.061 153.096 189.15C161.901 193.238 165.14 189.901 165.729 186.583C166.318 183.266 158.236 174.687 158.236 174.687Z" fill="white" stroke="#263238" stroke-miterlimit="10" stroke-linecap="round" stroke-linejoin="round"/>
<path d="M142.329 158.714C133.499 152.173 125.927 149.495 123.849 150.12C121.77 150.744 119.945 152.75 119.945 152.75L95.563 177.227C96.0922 178.707 97.2974 180.618 100.04 181.868C101.96 180.655 103.969 179.481 105.735 178.616C111.21 175.934 117.914 171.524 119.84 169.423C121.767 167.322 124.61 164.071 124.61 164.071C124.61 164.071 133.387 172.377 136.41 176.293C139.432 180.209 147.625 191.17 157.014 193.641C174.296 198.188 173.706 189.379 174.296 186.061C174.885 182.743 158.235 174.686 158.235 174.686C158.235 174.686 151.159 165.256 142.329 158.714Z" fill="#263238" stroke="#263238" stroke-miterlimit="10" stroke-linecap="round" stroke-linejoin="round"/>
<path d="M71.7492 189.964C71.726 190.749 72.2963 191.354 73.5558 191.882C74.8153 192.41 77.9255 193.385 80.8656 193.473C83.806 193.561 85.6563 194.008 86.5327 194.23C87.4091 194.453 89.9252 195.607 90.5421 194.644C91.0725 193.817 91.7767 189.591 92.0998 188.05C89.4128 188.138 86.3568 186.966 86.3568 186.966C86.3568 186.966 86.5735 186.286 86.234 184.51C85.3344 185.072 81.1361 187.693 78.5616 188.499C75.9871 189.306 71.7725 189.18 71.7492 189.964Z" fill="white" stroke="#263238" stroke-miterlimit="10" stroke-linecap="round" stroke-linejoin="round"/>
<path d="M188.58 138.429C186.244 136.343 180.988 131.337 177.317 125.08C173.646 118.823 174.647 116.821 171.894 111.898C169.141 106.976 165.136 104.557 159.714 105.641C155.308 106.523 153.049 109.166 152.357 110.127C152.202 110.342 152.043 110.552 151.871 110.754C151.078 111.683 148.571 115.116 146.699 123.161C144.446 132.839 144.53 137.594 147.95 139.847C151.371 142.099 153.79 141.098 154.791 142.183C155.792 143.267 156.126 144.602 155.292 144.602C154.457 144.602 154.04 144.102 154.04 144.102C154.04 144.102 155.959 147.022 157.795 146.187C159.63 145.353 161.716 142.35 160.381 138.345C159.046 134.341 155.459 130.252 154.875 129.502C154.291 128.751 153.123 120.074 153.123 120.074C153.123 120.074 153.206 117.154 156.46 118.156C159.714 119.157 164.135 120.992 165.554 123.912C166.972 126.832 172.228 133.423 176.817 135.425C181.405 137.427 183.24 139.263 184.909 144.185C186.578 149.108 186.578 150.692 186.578 150.692C186.578 150.692 189.999 149.107 190.666 145.52C191.333 141.933 190.916 140.514 188.58 138.429ZM148.284 138.596C146.699 136.844 147.7 133.673 147.7 133.673C147.199 138.179 152.372 140.681 152.372 140.681C152.372 140.681 149.869 140.347 148.284 138.596Z" fill="#263238" stroke="#263238" stroke-miterlimit="10" stroke-linecap="round" stroke-linejoin="round"/>
<path d="M158.604 175.456C158.604 175.456 147.524 173.495 144.778 174.475C142.033 175.456 134.875 187.223 133.6 188.595C132.326 189.968 130.953 190.556 129.776 190.556C128.6 190.556 124.383 189.772 121.932 190.262C119.481 190.753 116.441 192.321 116.735 193.792C117.03 195.263 118.402 195.949 122.913 196.636C127.423 197.322 132.228 195.655 133.503 194.968C134.777 194.282 136.248 193.301 136.64 193.106C137.032 192.909 140.562 192.125 142.523 190.851C144.485 189.576 146.642 187.517 146.642 187.517C146.642 187.517 154.976 191.341 158.114 193.008C161.252 194.675 166.154 195.753 168.9 195.753C171.645 195.753 177.627 194.968 179.097 194.282C180.568 193.596 183.314 190.948 183.314 187.909C183.314 184.869 183.64 180.624 182.644 180.442C181.647 180.26 180.764 180.653 179.784 180.555C178.804 180.457 173.411 177.417 172.038 176.829C170.664 176.24 158.604 175.456 158.604 175.456Z" fill="#263238" stroke="#263238" stroke-miterlimit="10" stroke-linecap="round" stroke-linejoin="round"/>
<path d="M141.444 177.971C142.629 176.631 144.102 175.016 144.778 174.475C146.004 173.495 155.097 174.544 155.097 174.544" stroke="white" stroke-miterlimit="10" stroke-linecap="round" stroke-linejoin="round"/>
<path d="M139.708 179.966C139.708 179.966 140.128 179.473 140.735 178.777" stroke="white" stroke-miterlimit="10" stroke-linecap="round" stroke-linejoin="round"/>
<path d="M133.303 188.891C132.114 190.046 130.862 190.556 129.776 190.556C128.6 190.556 124.383 189.771 121.932 190.262C119.481 190.752 116.441 192.321 116.735 193.792C117.03 195.263 118.402 195.949 122.913 196.635C127.423 197.321 132.228 195.655 133.503 194.968C134.745 194.299 136.171 193.353 136.605 193.124C134.456 192.108 133.621 190.126 133.303 188.891Z" fill="white" stroke="#263238" stroke-miterlimit="10" stroke-linecap="round" stroke-linejoin="round"/>
<path d="M130.07 192.615C129.596 191.844 130.126 191.004 130.618 190.458C130.33 190.524 130.048 190.556 129.776 190.556C128.6 190.556 124.383 189.772 121.932 190.262C119.481 190.753 116.441 192.321 116.735 193.792C117.03 195.263 118.402 195.949 122.913 196.636C127.423 197.322 132.228 195.655 133.503 194.968C133.698 194.863 133.898 194.751 134.097 194.636C132.855 194.465 130.754 193.727 130.07 192.615Z" fill="white" stroke="#263238" stroke-miterlimit="10" stroke-linecap="round" stroke-linejoin="round"/>
<path d="M160.297 134.925C160.297 134.925 152.622 135.008 151.788 137.928C150.953 140.848 151.705 155.198 151.621 159.953C151.537 164.708 151.538 167.795 152.122 168.963C152.705 170.131 156.126 172.3 156.376 172.384C156.626 172.467 156.293 175.054 156.293 175.054C156.293 175.054 162.216 175.804 165.553 175.888C168.89 175.971 171.894 177.223 174.981 179.642C178.067 182.062 180.07 183.647 180.07 183.647L181.988 181.561C181.988 181.561 182.739 188.653 183.573 191.906C184.408 195.16 187.244 195.327 188.079 195.327C188.913 195.327 191.666 195.244 191.666 195.244C191.666 195.244 188.997 190.322 187.828 186.984C186.66 183.647 185.91 180.81 185.91 180.81C185.91 180.81 186.493 179.893 186.493 177.89C186.493 175.888 186.076 174.72 186.16 172.718C186.243 170.715 189.831 161.956 188.329 152.195C186.827 142.434 187.327 139.68 183.657 137.762C179.986 135.843 171.977 134.675 169.724 134.508C167.472 134.341 160.297 134.925 160.297 134.925Z" fill="#6962D5" stroke="#263238" stroke-miterlimit="10" stroke-linecap="round" stroke-linejoin="round"/>
<path d="M154.875 129.502C154.746 129.337 154.59 128.788 154.423 128.032C152.672 125.107 151.088 122.085 150.673 120.65C150.043 118.475 150.53 114.339 150.857 112.164C149.727 113.961 148.048 117.362 146.699 123.161C144.446 132.839 144.53 137.594 147.95 139.847C151.371 142.099 153.79 141.098 154.791 142.183C155.792 143.267 156.126 144.602 155.292 144.602C154.457 144.602 154.04 144.102 154.04 144.102C154.04 144.102 155.959 147.022 157.795 146.187C159.63 145.353 161.716 142.35 160.381 138.345C159.046 134.341 155.459 130.253 154.875 129.502ZM148.284 138.596C146.699 136.844 147.7 133.673 147.7 133.673C147.199 138.179 152.372 140.681 152.372 140.681C152.372 140.681 149.869 140.348 148.284 138.596Z" fill="#263238" stroke="#263238" stroke-miterlimit="10" stroke-linecap="round" stroke-linejoin="round"/>
<path d="M170.904 173.489C172.343 173.697 173.285 173.831 173.285 173.831" stroke="#263238" stroke-miterlimit="10" stroke-linecap="round" stroke-linejoin="round"/>
<path d="M157.366 160.658C157.366 160.658 155.688 170.728 156.4 171.135C156.878 171.409 164.333 172.531 169.176 173.238" stroke="#263238" stroke-miterlimit="10" stroke-linecap="round" stroke-linejoin="round"/>
<path d="M157.112 171.644L156.293 175.054" stroke="#263238" stroke-miterlimit="10" stroke-linecap="round" stroke-linejoin="round"/>
<path d="M175.116 178.001C175.116 178.001 180.151 179.73 182.643 180.442C185.135 181.154 185.491 180.9 185.491 180.9" stroke="#263238" stroke-miterlimit="10" stroke-linecap="round" stroke-linejoin="round"/>
<path d="M166.674 142.451L170.437 144.587L170.539 141.434" stroke="#263238" stroke-miterlimit="10" stroke-linecap="round" stroke-linejoin="round"/>
<path d="M161.537 142.044L160.825 142.603" stroke="#263238" stroke-miterlimit="10" stroke-linecap="round" stroke-linejoin="round"/>
<path d="M156.807 148.859L156.756 146.927" stroke="#263238" stroke-miterlimit="10" stroke-linecap="round" stroke-linejoin="round"/>
<path d="M155.027 115.821C155.027 115.821 150.673 119.621 150.673 120.65C150.673 121.68 152.098 126.192 152.652 128.013C153.206 129.834 154.552 131.892 155.819 133.238C157.085 134.583 159.539 136.167 160.094 136.167C160.648 136.167 161.36 135.771 161.36 135.771C161.36 135.771 161.677 142.262 162.785 144.558C163.894 146.854 164.448 146.775 164.685 146.221C164.923 145.667 167.852 136.088 167.852 136.088L169.277 129.28L166.268 121.522C166.268 121.522 162.073 117.801 159.223 116.851C156.373 115.901 155.027 115.821 155.027 115.821Z" fill="white" stroke="#263238" stroke-miterlimit="10" stroke-linecap="round" stroke-linejoin="round"/>
<path d="M157.481 129.517C157.481 129.517 157.481 130.941 157.719 131.021C157.956 131.1 158.985 131.416 159.302 130.625" stroke="#263238" stroke-miterlimit="10" stroke-linecap="round" stroke-linejoin="round"/>
<path d="M158.352 132.604C158.352 132.604 160.727 132.921 161.519 131.258" stroke="#263238" stroke-miterlimit="10" stroke-linecap="round" stroke-linejoin="round"/>
<path d="M161.36 135.771C161.36 135.771 163.973 133.712 165.398 131.812C165.398 131.812 163.814 135.533 163.34 136.483C162.865 137.433 162.627 138.146 162.627 138.146L161.36 135.771Z" fill="#263238" stroke="#263238" stroke-miterlimit="10" stroke-linecap="round" stroke-linejoin="round"/>
<path d="M159.936 125.875C159.936 125.875 162.073 126.509 162.944 125.163" stroke="#263238" stroke-miterlimit="10" stroke-linecap="round" stroke-linejoin="round"/>
<path d="M158.985 123.975C158.985 123.975 161.36 122.63 163.023 123.184" stroke="#263238" stroke-miterlimit="10" stroke-linecap="round" stroke-linejoin="round"/>
<path d="M153.365 126.825C153.365 126.825 154.473 127.617 155.74 126.588" stroke="#263238" stroke-miterlimit="10" stroke-linecap="round" stroke-linejoin="round"/>
<path d="M155.581 124.846C155.581 124.846 154.394 124.054 152.652 124.925" stroke="#263238" stroke-miterlimit="10" stroke-linecap="round" stroke-linejoin="round"/>
<path d="M177.817 145.019C177.817 145.019 176.9 148.19 177.234 150.359C177.567 152.528 177.067 159.536 177.067 159.87C177.067 160.204 175.231 161.038 175.315 161.622C175.398 162.206 175.732 163.291 175.732 163.291L173.062 162.206L169.475 166.961C169.475 166.961 172.311 169.715 177.15 172.384C181.989 175.054 185.326 174.22 185.326 174.22C185.326 174.22 187.245 162.456 187.495 157.2C187.745 151.944 188.913 145.02 187.078 140.097C185.644 136.252 179.319 135.759 177.901 142.35" fill="#6962D5"/>
<path d="M177.817 145.019C177.817 145.019 176.9 148.19 177.234 150.359C177.567 152.528 177.067 159.536 177.067 159.87C177.067 160.204 175.231 161.038 175.315 161.622C175.398 162.206 175.732 163.291 175.732 163.291L173.062 162.206L169.475 166.961C169.475 166.961 172.311 169.715 177.15 172.384C181.989 175.054 185.326 174.22 185.326 174.22C185.326 174.22 187.245 162.456 187.495 157.2C187.745 151.944 188.913 145.02 187.078 140.097C185.644 136.252 179.319 135.759 177.901 142.35" stroke="#263238" stroke-miterlimit="10" stroke-linecap="round" stroke-linejoin="round"/>
<path d="M182.261 158.206L183.074 157.867" stroke="#263238" stroke-miterlimit="10" stroke-linecap="round" stroke-linejoin="round"/>
<path d="M178.068 159.953L181.244 158.63" stroke="#263238" stroke-miterlimit="10" stroke-linecap="round" stroke-linejoin="round"/>
<path d="M176.315 163.457C176.315 163.457 183.324 161.705 183.24 162.289C183.157 162.873 180.821 163.123 180.821 163.123" stroke="#263238" stroke-miterlimit="10" stroke-linecap="round" stroke-linejoin="round"/>
<path d="M177.067 163.791C177.067 163.791 182.239 164.375 183.157 166.544" stroke="#263238" stroke-miterlimit="10" stroke-linecap="round" stroke-linejoin="round"/>
<path d="M182.278 168.697C182.68 168.931 183.016 169.088 183.24 169.131" stroke="#263238" stroke-miterlimit="10" stroke-linecap="round" stroke-linejoin="round"/>
<path d="M176.649 164.542C176.649 164.542 179.4 166.812 181.427 168.163" stroke="#263238" stroke-miterlimit="10" stroke-linecap="round" stroke-linejoin="round"/>
<path d="M144.347 149.164C144.347 149.164 142.465 153.182 143.177 153.843C143.889 154.504 148.161 158.624 148.568 158.827C148.975 159.031 150.144 162.591 150.755 163.964C151.365 165.337 151.721 168.542 152.891 168.999C154.061 169.457 156.553 167.067 156.604 165.846C156.655 164.625 156.604 164.167 155.485 162.591C154.366 161.014 151.823 155.928 151.823 155.928L144.856 148.35L144.347 149.164Z" fill="white" stroke="#263238" stroke-miterlimit="10" stroke-linecap="round" stroke-linejoin="round"/>
<path d="M141.092 144.18L148.975 156.996L155.027 157.81L149.127 146.164L141.092 144.18Z" fill="#263238" stroke="#263238" stroke-miterlimit="10" stroke-linecap="round" stroke-linejoin="round"/>
<path d="M173.062 162.206C173.062 162.206 164.052 155.865 161.716 154.28C159.38 152.695 158.379 151.777 158.379 151.777C158.379 151.777 158.128 150.192 157.544 149.525C156.96 148.857 156.376 148.69 155.292 148.774C154.207 148.857 153.289 149.024 152.622 148.774C151.955 148.523 150.703 146.438 150.536 147.356C150.37 148.273 150.453 148.941 151.287 149.608C152.121 150.276 153.29 150.526 153.623 150.693C153.957 150.86 153.094 150.995 153.094 150.995C153.094 150.995 151.405 151.705 148.924 151.453C146.844 151.242 145.129 150.435 144.863 150.359C144.279 150.192 144.363 151.027 145.03 151.527C145.697 152.028 146.114 152.278 146.114 152.278C146.114 152.278 144.029 151.944 144.279 152.612C144.529 153.279 145.447 153.863 146.031 154.28C146.615 154.697 147.199 155.448 147.7 155.699C148.2 155.949 148.283 157.117 149.118 157.617C149.952 158.118 149.706 158.064 151.839 158.257C155.245 158.567 158.545 158.201 158.545 158.201L169.475 166.961L173.062 162.206Z" fill="white" stroke="#263238" stroke-miterlimit="10" stroke-linecap="round" stroke-linejoin="round"/>
<path d="M146.115 152.278C146.115 152.278 148.2 153.279 148.534 153.279C148.868 153.279 153.039 153.279 153.039 153.279" stroke="#263238" stroke-miterlimit="10" stroke-linecap="round" stroke-linejoin="round"/>
<path d="M145.674 154.099C145.674 154.099 146.8 154.258 147.093 154.453C147.386 154.649 149.295 155.028 149.882 155.126C150.469 155.224 152.524 155.175 152.524 155.175" stroke="#263238" stroke-miterlimit="10" stroke-linecap="round" stroke-linejoin="round"/>
<path d="M147.699 155.698C147.699 155.698 150.028 156.839 150.469 156.937C150.909 157.035 153.307 156.839 153.307 156.839" stroke="#263238" stroke-miterlimit="10" stroke-linecap="round" stroke-linejoin="round"/>
<path d="M175.064 129.502C170.392 124.58 166.805 119.157 166.805 119.157C166.805 119.157 165.887 132.255 167.889 137.845C169.892 143.434 177.233 141.099 179.819 139.68C182.406 138.262 183.323 137.178 184.908 137.428C184.908 137.428 179.736 134.424 175.064 129.502Z" fill="#263238" stroke="#263238" stroke-miterlimit="10" stroke-linecap="round" stroke-linejoin="round"/>
<path d="M156.274 115.157C153.361 111.698 155.027 115.821 155.027 115.821C155.027 115.821 160.606 121.149 166.269 121.521C166.269 121.521 159.187 118.616 156.274 115.157Z" fill="#263238" stroke="#263238" stroke-miterlimit="10" stroke-linecap="round" stroke-linejoin="round"/>
</svg>
